G04 EAGLE Gerber RS-274X export*
G75*
%MOMM*%
%FSLAX34Y34*%
%LPD*%
%INTop Copper*%
%IPPOS*%
%AMOC8*
5,1,8,0,0,1.08239X$1,22.5*%
G01*
%ADD10C,0.130000*%
%ADD11C,0.152400*%
%ADD12C,2.514600*%
%ADD13C,1.524000*%
%ADD14C,0.609600*%
%ADD15C,0.856400*%
%ADD16C,0.406400*%
%ADD17C,1.905000*%
%ADD18C,1.270000*%

G36*
X51502Y10173D02*
X51502Y10173D01*
X51628Y10176D01*
X51702Y10193D01*
X51777Y10201D01*
X51897Y10238D01*
X52021Y10266D01*
X52089Y10297D01*
X52161Y10319D01*
X52273Y10379D01*
X52388Y10431D01*
X52449Y10475D01*
X52516Y10511D01*
X52613Y10591D01*
X52715Y10665D01*
X52767Y10720D01*
X52825Y10768D01*
X52904Y10867D01*
X52990Y10959D01*
X53030Y11023D01*
X53077Y11082D01*
X53135Y11194D01*
X53202Y11302D01*
X53228Y11372D01*
X53263Y11439D01*
X53298Y11561D01*
X53341Y11679D01*
X53353Y11754D01*
X53374Y11826D01*
X53384Y11952D01*
X53404Y12077D01*
X53401Y12152D01*
X53407Y12228D01*
X53392Y12353D01*
X53387Y12479D01*
X53369Y12553D01*
X53360Y12627D01*
X53321Y12747D01*
X53291Y12870D01*
X53259Y12938D01*
X53235Y13010D01*
X53173Y13120D01*
X53119Y13234D01*
X53074Y13295D01*
X53037Y13361D01*
X52955Y13456D01*
X52879Y13558D01*
X52823Y13608D01*
X52774Y13665D01*
X52674Y13743D01*
X52580Y13828D01*
X52506Y13874D01*
X52456Y13912D01*
X52390Y13945D01*
X52298Y14002D01*
X48963Y15701D01*
X41101Y23563D01*
X36054Y33469D01*
X34315Y44450D01*
X36054Y55431D01*
X41101Y65337D01*
X48963Y73199D01*
X58869Y78246D01*
X69850Y79985D01*
X80831Y78246D01*
X90737Y73199D01*
X98599Y65337D01*
X103646Y55431D01*
X105385Y44450D01*
X103646Y33469D01*
X98599Y23563D01*
X90737Y15701D01*
X87402Y14002D01*
X87295Y13934D01*
X87184Y13873D01*
X87127Y13825D01*
X87063Y13784D01*
X86972Y13697D01*
X86875Y13616D01*
X86828Y13557D01*
X86774Y13504D01*
X86702Y13400D01*
X86623Y13302D01*
X86588Y13235D01*
X86545Y13173D01*
X86495Y13057D01*
X86437Y12945D01*
X86417Y12872D01*
X86387Y12803D01*
X86361Y12679D01*
X86326Y12558D01*
X86320Y12482D01*
X86304Y12409D01*
X86303Y12282D01*
X86293Y12156D01*
X86302Y12081D01*
X86301Y12006D01*
X86325Y11882D01*
X86340Y11757D01*
X86363Y11685D01*
X86378Y11611D01*
X86426Y11494D01*
X86465Y11374D01*
X86502Y11308D01*
X86531Y11238D01*
X86601Y11133D01*
X86663Y11023D01*
X86712Y10966D01*
X86754Y10903D01*
X86843Y10814D01*
X86926Y10718D01*
X86985Y10672D01*
X87039Y10619D01*
X87144Y10549D01*
X87244Y10472D01*
X87311Y10438D01*
X87374Y10396D01*
X87491Y10349D01*
X87605Y10292D01*
X87677Y10273D01*
X87747Y10244D01*
X87871Y10221D01*
X87993Y10188D01*
X88081Y10181D01*
X88143Y10169D01*
X88216Y10170D01*
X88324Y10161D01*
X438726Y10161D01*
X438852Y10173D01*
X438978Y10176D01*
X439052Y10193D01*
X439127Y10201D01*
X439247Y10238D01*
X439371Y10266D01*
X439439Y10297D01*
X439512Y10319D01*
X439623Y10379D01*
X439738Y10431D01*
X439799Y10475D01*
X439866Y10511D01*
X439963Y10591D01*
X440065Y10665D01*
X440117Y10720D01*
X440175Y10768D01*
X440254Y10867D01*
X440340Y10959D01*
X440380Y11023D01*
X440427Y11082D01*
X440485Y11194D01*
X440552Y11302D01*
X440578Y11372D01*
X440613Y11439D01*
X440648Y11561D01*
X440691Y11679D01*
X440703Y11754D01*
X440724Y11826D01*
X440734Y11952D01*
X440754Y12077D01*
X440751Y12152D01*
X440757Y12228D01*
X440742Y12353D01*
X440737Y12479D01*
X440719Y12553D01*
X440710Y12627D01*
X440671Y12747D01*
X440641Y12870D01*
X440609Y12938D01*
X440585Y13010D01*
X440523Y13120D01*
X440469Y13234D01*
X440424Y13295D01*
X440387Y13361D01*
X440305Y13456D01*
X440229Y13558D01*
X440173Y13608D01*
X440124Y13665D01*
X440024Y13743D01*
X439931Y13828D01*
X439856Y13874D01*
X439806Y13912D01*
X439740Y13945D01*
X439648Y14002D01*
X436313Y15701D01*
X428451Y23563D01*
X423404Y33469D01*
X421665Y44450D01*
X423404Y55431D01*
X428451Y65337D01*
X436313Y73199D01*
X446219Y78246D01*
X457200Y79985D01*
X468181Y78246D01*
X478087Y73199D01*
X485949Y65337D01*
X490996Y55431D01*
X492735Y44450D01*
X490996Y33469D01*
X485949Y23563D01*
X478087Y15701D01*
X474752Y14002D01*
X474645Y13934D01*
X474534Y13873D01*
X474477Y13825D01*
X474413Y13784D01*
X474322Y13697D01*
X474225Y13616D01*
X474178Y13557D01*
X474124Y13504D01*
X474052Y13400D01*
X473973Y13302D01*
X473938Y13235D01*
X473895Y13173D01*
X473845Y13057D01*
X473787Y12945D01*
X473767Y12872D01*
X473737Y12803D01*
X473711Y12679D01*
X473676Y12558D01*
X473670Y12482D01*
X473654Y12409D01*
X473653Y12282D01*
X473643Y12156D01*
X473652Y12081D01*
X473651Y12006D01*
X473675Y11882D01*
X473690Y11757D01*
X473713Y11685D01*
X473728Y11611D01*
X473776Y11494D01*
X473815Y11374D01*
X473852Y11308D01*
X473881Y11238D01*
X473951Y11133D01*
X474013Y11023D01*
X474062Y10966D01*
X474104Y10903D01*
X474193Y10814D01*
X474276Y10718D01*
X474335Y10672D01*
X474389Y10619D01*
X474494Y10549D01*
X474594Y10472D01*
X474661Y10438D01*
X474724Y10396D01*
X474841Y10349D01*
X474955Y10292D01*
X475027Y10273D01*
X475097Y10244D01*
X475221Y10221D01*
X475343Y10188D01*
X475431Y10181D01*
X475493Y10169D01*
X475566Y10170D01*
X475674Y10161D01*
X495608Y10161D01*
X495626Y10163D01*
X495644Y10161D01*
X495826Y10182D01*
X496009Y10201D01*
X496026Y10206D01*
X496043Y10208D01*
X496218Y10265D01*
X496394Y10319D01*
X496409Y10327D01*
X496426Y10333D01*
X496586Y10423D01*
X496748Y10511D01*
X496761Y10522D01*
X496777Y10531D01*
X496916Y10651D01*
X497057Y10768D01*
X497068Y10782D01*
X497082Y10794D01*
X497194Y10939D01*
X497309Y11082D01*
X497317Y11098D01*
X497328Y11112D01*
X497410Y11277D01*
X497495Y11439D01*
X497500Y11456D01*
X497508Y11472D01*
X497555Y11651D01*
X497606Y11826D01*
X497608Y11844D01*
X497612Y11861D01*
X497639Y12192D01*
X497639Y914583D01*
X497627Y914709D01*
X497624Y914835D01*
X497607Y914909D01*
X497599Y914984D01*
X497562Y915105D01*
X497534Y915228D01*
X497503Y915297D01*
X497481Y915369D01*
X497421Y915480D01*
X497369Y915595D01*
X497325Y915657D01*
X497289Y915723D01*
X497209Y915820D01*
X497135Y915923D01*
X497080Y915974D01*
X497032Y916032D01*
X496933Y916111D01*
X496841Y916198D01*
X496777Y916237D01*
X496718Y916285D01*
X496606Y916343D01*
X496498Y916409D01*
X496428Y916435D01*
X496361Y916470D01*
X496239Y916505D01*
X496121Y916549D01*
X496046Y916561D01*
X495974Y916582D01*
X495848Y916592D01*
X495723Y916611D01*
X495648Y916608D01*
X495572Y916614D01*
X495447Y916600D01*
X495321Y916594D01*
X495247Y916576D01*
X495173Y916567D01*
X495053Y916528D01*
X494930Y916498D01*
X494862Y916466D01*
X494790Y916443D01*
X494680Y916380D01*
X494566Y916327D01*
X494505Y916282D01*
X494439Y916245D01*
X494344Y916162D01*
X494242Y916087D01*
X494192Y916031D01*
X494135Y915982D01*
X494057Y915882D01*
X493972Y915788D01*
X493926Y915713D01*
X493888Y915663D01*
X493855Y915598D01*
X493798Y915506D01*
X492299Y912563D01*
X484437Y904701D01*
X474531Y899654D01*
X463550Y897915D01*
X452569Y899654D01*
X442663Y904701D01*
X434801Y912563D01*
X429754Y922469D01*
X428015Y933450D01*
X429754Y944431D01*
X434801Y954337D01*
X441436Y960972D01*
X441441Y960979D01*
X441448Y960984D01*
X441569Y961134D01*
X441691Y961283D01*
X441695Y961291D01*
X441701Y961298D01*
X441789Y961468D01*
X441879Y961639D01*
X441882Y961648D01*
X441886Y961655D01*
X441939Y961840D01*
X441994Y962025D01*
X441995Y962034D01*
X441998Y962042D01*
X442013Y962234D01*
X442031Y962426D01*
X442030Y962435D01*
X442030Y962444D01*
X442008Y962633D01*
X441987Y962826D01*
X441985Y962835D01*
X441984Y962843D01*
X441924Y963025D01*
X441866Y963210D01*
X441861Y963218D01*
X441859Y963226D01*
X441764Y963395D01*
X441671Y963562D01*
X441665Y963569D01*
X441661Y963577D01*
X441535Y963723D01*
X441410Y963869D01*
X441403Y963875D01*
X441398Y963882D01*
X441246Y963999D01*
X441095Y964119D01*
X441087Y964123D01*
X441080Y964128D01*
X440907Y964214D01*
X440736Y964301D01*
X440727Y964304D01*
X440719Y964308D01*
X440533Y964358D01*
X440348Y964409D01*
X440339Y964410D01*
X440330Y964412D01*
X439999Y964439D01*
X80701Y964439D01*
X80692Y964438D01*
X80683Y964439D01*
X80489Y964418D01*
X80300Y964399D01*
X80291Y964397D01*
X80282Y964396D01*
X80098Y964338D01*
X79915Y964281D01*
X79907Y964277D01*
X79899Y964274D01*
X79730Y964181D01*
X79561Y964089D01*
X79554Y964084D01*
X79546Y964079D01*
X79399Y963955D01*
X79252Y963832D01*
X79246Y963825D01*
X79239Y963819D01*
X79120Y963668D01*
X78999Y963518D01*
X78995Y963510D01*
X78990Y963503D01*
X78902Y963330D01*
X78814Y963161D01*
X78811Y963152D01*
X78807Y963144D01*
X78755Y962958D01*
X78702Y962774D01*
X78702Y962765D01*
X78699Y962756D01*
X78685Y962563D01*
X78670Y962372D01*
X78671Y962364D01*
X78670Y962355D01*
X78694Y962162D01*
X78716Y961973D01*
X78719Y961964D01*
X78720Y961955D01*
X78782Y961772D01*
X78841Y961590D01*
X78846Y961582D01*
X78849Y961574D01*
X78945Y961407D01*
X79039Y961239D01*
X79045Y961232D01*
X79050Y961225D01*
X79264Y960972D01*
X85899Y954337D01*
X90946Y944431D01*
X92685Y933450D01*
X90946Y922469D01*
X85899Y912563D01*
X78037Y904701D01*
X68131Y899654D01*
X57150Y897915D01*
X46169Y899654D01*
X36263Y904701D01*
X28401Y912563D01*
X23354Y922469D01*
X21615Y933450D01*
X23354Y944431D01*
X28401Y954337D01*
X35036Y960972D01*
X35041Y960979D01*
X35048Y960984D01*
X35169Y961134D01*
X35291Y961283D01*
X35295Y961291D01*
X35301Y961298D01*
X35389Y961468D01*
X35479Y961639D01*
X35482Y961648D01*
X35486Y961655D01*
X35539Y961840D01*
X35594Y962025D01*
X35595Y962034D01*
X35598Y962042D01*
X35613Y962234D01*
X35631Y962426D01*
X35630Y962435D01*
X35630Y962444D01*
X35608Y962633D01*
X35587Y962826D01*
X35585Y962835D01*
X35584Y962843D01*
X35524Y963025D01*
X35466Y963210D01*
X35461Y963218D01*
X35459Y963226D01*
X35364Y963395D01*
X35271Y963562D01*
X35265Y963569D01*
X35261Y963577D01*
X35135Y963723D01*
X35010Y963869D01*
X35003Y963875D01*
X34998Y963882D01*
X34846Y963999D01*
X34695Y964119D01*
X34687Y964123D01*
X34680Y964128D01*
X34507Y964214D01*
X34336Y964301D01*
X34327Y964304D01*
X34319Y964308D01*
X34133Y964358D01*
X33948Y964409D01*
X33939Y964410D01*
X33930Y964412D01*
X33599Y964439D01*
X12192Y964439D01*
X12174Y964437D01*
X12156Y964439D01*
X11974Y964418D01*
X11791Y964399D01*
X11774Y964394D01*
X11757Y964392D01*
X11582Y964335D01*
X11406Y964281D01*
X11391Y964273D01*
X11374Y964267D01*
X11214Y964177D01*
X11052Y964089D01*
X11039Y964078D01*
X11023Y964069D01*
X10884Y963949D01*
X10743Y963832D01*
X10732Y963818D01*
X10718Y963806D01*
X10606Y963661D01*
X10491Y963518D01*
X10483Y963502D01*
X10472Y963488D01*
X10390Y963323D01*
X10305Y963161D01*
X10300Y963144D01*
X10292Y963128D01*
X10245Y962949D01*
X10194Y962774D01*
X10192Y962756D01*
X10188Y962739D01*
X10161Y962408D01*
X10161Y12192D01*
X10163Y12174D01*
X10161Y12156D01*
X10182Y11974D01*
X10201Y11791D01*
X10206Y11774D01*
X10208Y11757D01*
X10265Y11582D01*
X10319Y11406D01*
X10327Y11391D01*
X10333Y11374D01*
X10423Y11214D01*
X10511Y11052D01*
X10522Y11039D01*
X10531Y11023D01*
X10651Y10884D01*
X10768Y10743D01*
X10782Y10732D01*
X10794Y10718D01*
X10939Y10606D01*
X11082Y10491D01*
X11098Y10483D01*
X11112Y10472D01*
X11277Y10390D01*
X11439Y10305D01*
X11456Y10300D01*
X11472Y10292D01*
X11651Y10245D01*
X11826Y10194D01*
X11844Y10192D01*
X11861Y10188D01*
X12192Y10161D01*
X51376Y10161D01*
X51502Y10173D01*
G37*
%LPC*%
G36*
X54473Y851788D02*
X54473Y851788D01*
X49291Y853935D01*
X45326Y857900D01*
X43179Y863082D01*
X43179Y868690D01*
X45326Y873872D01*
X49291Y877837D01*
X54473Y879984D01*
X85227Y879984D01*
X90409Y877837D01*
X90716Y877531D01*
X90736Y877514D01*
X90754Y877493D01*
X90892Y877386D01*
X91027Y877276D01*
X91051Y877263D01*
X91072Y877247D01*
X91229Y877169D01*
X91383Y877087D01*
X91408Y877079D01*
X91432Y877067D01*
X91602Y877022D01*
X91769Y876972D01*
X91795Y876970D01*
X91821Y876963D01*
X92152Y876936D01*
X168198Y876936D01*
X168225Y876938D01*
X168251Y876936D01*
X168425Y876958D01*
X168599Y876976D01*
X168624Y876983D01*
X168651Y876987D01*
X168817Y877042D01*
X168984Y877094D01*
X169007Y877107D01*
X169033Y877115D01*
X169184Y877202D01*
X169338Y877286D01*
X169358Y877303D01*
X169381Y877316D01*
X169634Y877531D01*
X169941Y877837D01*
X175123Y879984D01*
X205877Y879984D01*
X211059Y877837D01*
X211366Y877531D01*
X211386Y877514D01*
X211404Y877493D01*
X211542Y877386D01*
X211677Y877276D01*
X211701Y877263D01*
X211722Y877247D01*
X211879Y877169D01*
X212033Y877087D01*
X212058Y877079D01*
X212082Y877067D01*
X212252Y877022D01*
X212419Y876972D01*
X212445Y876970D01*
X212471Y876963D01*
X212802Y876936D01*
X288848Y876936D01*
X288875Y876938D01*
X288901Y876936D01*
X289075Y876958D01*
X289249Y876976D01*
X289274Y876983D01*
X289301Y876987D01*
X289467Y877042D01*
X289634Y877094D01*
X289657Y877107D01*
X289683Y877115D01*
X289834Y877202D01*
X289988Y877286D01*
X290008Y877303D01*
X290031Y877316D01*
X290284Y877531D01*
X290591Y877837D01*
X295773Y879984D01*
X326527Y879984D01*
X331709Y877837D01*
X332016Y877531D01*
X332036Y877514D01*
X332054Y877493D01*
X332192Y877386D01*
X332327Y877276D01*
X332351Y877263D01*
X332372Y877247D01*
X332529Y877169D01*
X332683Y877087D01*
X332708Y877079D01*
X332732Y877067D01*
X332902Y877022D01*
X333069Y876972D01*
X333095Y876970D01*
X333121Y876963D01*
X333452Y876936D01*
X409498Y876936D01*
X409525Y876938D01*
X409551Y876936D01*
X409725Y876958D01*
X409899Y876976D01*
X409924Y876983D01*
X409951Y876987D01*
X410117Y877042D01*
X410284Y877094D01*
X410307Y877107D01*
X410333Y877115D01*
X410484Y877202D01*
X410638Y877286D01*
X410658Y877303D01*
X410681Y877316D01*
X410934Y877531D01*
X411241Y877837D01*
X416423Y879984D01*
X447177Y879984D01*
X452359Y877837D01*
X456324Y873872D01*
X458471Y868690D01*
X458471Y863082D01*
X456324Y857900D01*
X452359Y853935D01*
X447177Y851788D01*
X416423Y851788D01*
X411241Y853935D01*
X410934Y854241D01*
X410914Y854258D01*
X410896Y854279D01*
X410758Y854386D01*
X410623Y854496D01*
X410599Y854509D01*
X410578Y854525D01*
X410421Y854603D01*
X410267Y854685D01*
X410242Y854693D01*
X410218Y854705D01*
X410048Y854750D01*
X409881Y854800D01*
X409855Y854802D01*
X409829Y854809D01*
X409498Y854836D01*
X333452Y854836D01*
X333425Y854834D01*
X333399Y854836D01*
X333225Y854814D01*
X333051Y854796D01*
X333026Y854789D01*
X332999Y854785D01*
X332833Y854730D01*
X332666Y854678D01*
X332643Y854665D01*
X332617Y854657D01*
X332466Y854570D01*
X332312Y854486D01*
X332292Y854469D01*
X332269Y854456D01*
X332016Y854241D01*
X331709Y853935D01*
X326527Y851788D01*
X295773Y851788D01*
X290591Y853935D01*
X290284Y854241D01*
X290264Y854258D01*
X290246Y854279D01*
X290108Y854386D01*
X289973Y854496D01*
X289949Y854509D01*
X289928Y854525D01*
X289771Y854603D01*
X289617Y854685D01*
X289592Y854693D01*
X289568Y854705D01*
X289398Y854750D01*
X289231Y854800D01*
X289205Y854802D01*
X289179Y854809D01*
X288848Y854836D01*
X212802Y854836D01*
X212775Y854834D01*
X212749Y854836D01*
X212575Y854814D01*
X212401Y854796D01*
X212376Y854789D01*
X212349Y854785D01*
X212183Y854730D01*
X212016Y854678D01*
X211993Y854665D01*
X211967Y854657D01*
X211816Y854570D01*
X211662Y854486D01*
X211642Y854469D01*
X211619Y854456D01*
X211366Y854241D01*
X211059Y853935D01*
X205877Y851788D01*
X175123Y851788D01*
X169941Y853935D01*
X169634Y854241D01*
X169614Y854258D01*
X169596Y854279D01*
X169458Y854386D01*
X169323Y854496D01*
X169299Y854509D01*
X169278Y854525D01*
X169121Y854603D01*
X168967Y854685D01*
X168942Y854693D01*
X168918Y854705D01*
X168748Y854750D01*
X168581Y854800D01*
X168555Y854802D01*
X168529Y854809D01*
X168198Y854836D01*
X92152Y854836D01*
X92125Y854834D01*
X92099Y854836D01*
X91925Y854814D01*
X91751Y854796D01*
X91726Y854789D01*
X91699Y854785D01*
X91533Y854730D01*
X91366Y854678D01*
X91343Y854665D01*
X91317Y854657D01*
X91166Y854570D01*
X91012Y854486D01*
X90992Y854469D01*
X90969Y854456D01*
X90716Y854241D01*
X90409Y853935D01*
X85227Y851788D01*
X54473Y851788D01*
G37*
%LPD*%
%LPC*%
G36*
X54473Y667638D02*
X54473Y667638D01*
X49291Y669785D01*
X45326Y673750D01*
X43179Y678932D01*
X43179Y684540D01*
X45326Y689722D01*
X49291Y693687D01*
X54473Y695834D01*
X85227Y695834D01*
X90409Y693687D01*
X90716Y693381D01*
X90736Y693364D01*
X90754Y693343D01*
X90892Y693236D01*
X91027Y693126D01*
X91051Y693113D01*
X91072Y693097D01*
X91229Y693019D01*
X91383Y692937D01*
X91408Y692929D01*
X91432Y692917D01*
X91602Y692872D01*
X91769Y692822D01*
X91795Y692820D01*
X91821Y692813D01*
X92152Y692786D01*
X168198Y692786D01*
X168225Y692788D01*
X168251Y692786D01*
X168425Y692808D01*
X168599Y692826D01*
X168624Y692833D01*
X168651Y692837D01*
X168817Y692892D01*
X168984Y692944D01*
X169007Y692957D01*
X169033Y692965D01*
X169184Y693052D01*
X169338Y693136D01*
X169358Y693153D01*
X169381Y693166D01*
X169634Y693381D01*
X169941Y693687D01*
X175123Y695834D01*
X205877Y695834D01*
X211059Y693687D01*
X211366Y693381D01*
X211386Y693364D01*
X211404Y693343D01*
X211542Y693236D01*
X211677Y693126D01*
X211701Y693113D01*
X211722Y693097D01*
X211879Y693019D01*
X212033Y692937D01*
X212058Y692929D01*
X212082Y692917D01*
X212252Y692872D01*
X212419Y692822D01*
X212445Y692820D01*
X212471Y692813D01*
X212802Y692786D01*
X288848Y692786D01*
X288875Y692788D01*
X288901Y692786D01*
X289075Y692808D01*
X289249Y692826D01*
X289274Y692833D01*
X289301Y692837D01*
X289467Y692892D01*
X289634Y692944D01*
X289657Y692957D01*
X289683Y692965D01*
X289834Y693052D01*
X289988Y693136D01*
X290008Y693153D01*
X290031Y693166D01*
X290284Y693381D01*
X290591Y693687D01*
X295773Y695834D01*
X326527Y695834D01*
X331709Y693687D01*
X332016Y693381D01*
X332036Y693364D01*
X332054Y693343D01*
X332192Y693236D01*
X332327Y693126D01*
X332351Y693113D01*
X332372Y693097D01*
X332529Y693019D01*
X332683Y692937D01*
X332708Y692929D01*
X332732Y692917D01*
X332902Y692872D01*
X333069Y692822D01*
X333095Y692820D01*
X333121Y692813D01*
X333452Y692786D01*
X409498Y692786D01*
X409525Y692788D01*
X409552Y692786D01*
X409725Y692808D01*
X409899Y692826D01*
X409924Y692834D01*
X409951Y692837D01*
X410117Y692892D01*
X410284Y692944D01*
X410307Y692957D01*
X410333Y692965D01*
X410484Y693052D01*
X410638Y693136D01*
X410658Y693153D01*
X410682Y693166D01*
X410935Y693381D01*
X411241Y693687D01*
X416423Y695834D01*
X447177Y695834D01*
X452359Y693687D01*
X456324Y689722D01*
X458471Y684540D01*
X458471Y678932D01*
X456324Y673750D01*
X452359Y669785D01*
X447177Y667638D01*
X416423Y667638D01*
X411241Y669785D01*
X410935Y670091D01*
X410914Y670108D01*
X410896Y670129D01*
X410758Y670236D01*
X410623Y670346D01*
X410599Y670359D01*
X410578Y670375D01*
X410422Y670453D01*
X410267Y670535D01*
X410242Y670543D01*
X410218Y670555D01*
X410049Y670600D01*
X409881Y670650D01*
X409855Y670652D01*
X409829Y670659D01*
X409498Y670686D01*
X333452Y670686D01*
X333425Y670684D01*
X333399Y670686D01*
X333225Y670664D01*
X333051Y670646D01*
X333026Y670639D01*
X332999Y670635D01*
X332833Y670580D01*
X332666Y670528D01*
X332643Y670515D01*
X332617Y670507D01*
X332466Y670420D01*
X332312Y670336D01*
X332292Y670319D01*
X332269Y670306D01*
X332016Y670091D01*
X331709Y669785D01*
X326527Y667638D01*
X295773Y667638D01*
X290591Y669785D01*
X290284Y670091D01*
X290264Y670108D01*
X290246Y670129D01*
X290108Y670236D01*
X289973Y670346D01*
X289949Y670359D01*
X289928Y670375D01*
X289771Y670453D01*
X289617Y670535D01*
X289592Y670543D01*
X289568Y670555D01*
X289398Y670600D01*
X289231Y670650D01*
X289205Y670652D01*
X289179Y670659D01*
X288848Y670686D01*
X212802Y670686D01*
X212775Y670684D01*
X212749Y670686D01*
X212575Y670664D01*
X212401Y670646D01*
X212376Y670639D01*
X212349Y670635D01*
X212183Y670580D01*
X212016Y670528D01*
X211993Y670515D01*
X211967Y670507D01*
X211816Y670420D01*
X211662Y670336D01*
X211642Y670319D01*
X211619Y670306D01*
X211366Y670091D01*
X211059Y669785D01*
X205877Y667638D01*
X175123Y667638D01*
X169941Y669785D01*
X169634Y670091D01*
X169614Y670108D01*
X169596Y670129D01*
X169458Y670236D01*
X169323Y670346D01*
X169299Y670359D01*
X169278Y670375D01*
X169121Y670453D01*
X168967Y670535D01*
X168942Y670543D01*
X168918Y670555D01*
X168748Y670600D01*
X168581Y670650D01*
X168555Y670652D01*
X168529Y670659D01*
X168198Y670686D01*
X92152Y670686D01*
X92125Y670684D01*
X92099Y670686D01*
X91925Y670664D01*
X91751Y670646D01*
X91726Y670639D01*
X91699Y670635D01*
X91533Y670580D01*
X91366Y670528D01*
X91343Y670515D01*
X91317Y670507D01*
X91166Y670420D01*
X91012Y670336D01*
X90992Y670319D01*
X90969Y670306D01*
X90716Y670091D01*
X90409Y669785D01*
X85227Y667638D01*
X54473Y667638D01*
G37*
%LPD*%
%LPC*%
G36*
X462395Y330743D02*
X462395Y330743D01*
X460261Y331627D01*
X458627Y333261D01*
X457743Y335395D01*
X457743Y337705D01*
X458627Y339839D01*
X460261Y341473D01*
X462395Y342357D01*
X463485Y342357D01*
X463512Y342359D01*
X463539Y342357D01*
X463713Y342379D01*
X463886Y342397D01*
X463911Y342404D01*
X463938Y342408D01*
X464104Y342463D01*
X464271Y342515D01*
X464294Y342528D01*
X464320Y342536D01*
X464471Y342623D01*
X464625Y342707D01*
X464645Y342724D01*
X464669Y342737D01*
X464922Y342952D01*
X484798Y362828D01*
X484815Y362849D01*
X484836Y362867D01*
X484943Y363004D01*
X485053Y363140D01*
X485066Y363163D01*
X485082Y363185D01*
X485160Y363342D01*
X485242Y363496D01*
X485250Y363521D01*
X485262Y363545D01*
X485307Y363715D01*
X485357Y363881D01*
X485359Y363908D01*
X485366Y363934D01*
X485393Y364265D01*
X485393Y613635D01*
X485391Y613662D01*
X485393Y613689D01*
X485371Y613863D01*
X485353Y614036D01*
X485346Y614061D01*
X485342Y614088D01*
X485287Y614254D01*
X485235Y614421D01*
X485222Y614444D01*
X485214Y614470D01*
X485127Y614621D01*
X485043Y614775D01*
X485026Y614795D01*
X485013Y614819D01*
X484798Y615072D01*
X461910Y637960D01*
X461889Y637977D01*
X461871Y637998D01*
X461734Y638105D01*
X461598Y638215D01*
X461575Y638228D01*
X461553Y638244D01*
X461396Y638322D01*
X461242Y638404D01*
X461217Y638412D01*
X461193Y638424D01*
X461023Y638469D01*
X460857Y638519D01*
X460830Y638521D01*
X460804Y638528D01*
X460473Y638555D01*
X459516Y638555D01*
X459494Y638553D01*
X459472Y638555D01*
X459294Y638533D01*
X459116Y638515D01*
X459094Y638509D01*
X459072Y638506D01*
X458902Y638450D01*
X458731Y638397D01*
X458711Y638387D01*
X458690Y638380D01*
X458534Y638291D01*
X458377Y638205D01*
X458360Y638191D01*
X458340Y638180D01*
X458205Y638062D01*
X458067Y637948D01*
X458054Y637930D01*
X458037Y637916D01*
X457927Y637773D01*
X457815Y637634D01*
X457805Y637614D01*
X457791Y637597D01*
X457640Y637301D01*
X456324Y634126D01*
X452359Y630161D01*
X447177Y628014D01*
X416423Y628014D01*
X411241Y630161D01*
X407276Y634126D01*
X405129Y639308D01*
X405129Y644916D01*
X407276Y650098D01*
X411241Y654063D01*
X416423Y656210D01*
X447177Y656210D01*
X452359Y654063D01*
X456324Y650098D01*
X457640Y646923D01*
X457650Y646903D01*
X457657Y646882D01*
X457745Y646725D01*
X457830Y646568D01*
X457844Y646551D01*
X457855Y646531D01*
X457972Y646395D01*
X458086Y646257D01*
X458104Y646243D01*
X458118Y646226D01*
X458260Y646117D01*
X458399Y646004D01*
X458419Y645993D01*
X458436Y645980D01*
X458597Y645900D01*
X458755Y645817D01*
X458777Y645810D01*
X458797Y645800D01*
X458970Y645754D01*
X459142Y645704D01*
X459164Y645702D01*
X459186Y645696D01*
X459516Y645669D01*
X464261Y645669D01*
X492507Y617423D01*
X492507Y360477D01*
X469952Y337922D01*
X469935Y337901D01*
X469914Y337883D01*
X469807Y337746D01*
X469697Y337610D01*
X469684Y337587D01*
X469668Y337565D01*
X469590Y337408D01*
X469508Y337254D01*
X469500Y337229D01*
X469488Y337205D01*
X469443Y337035D01*
X469393Y336869D01*
X469391Y336842D01*
X469384Y336816D01*
X469357Y336485D01*
X469357Y335395D01*
X468473Y333261D01*
X466839Y331627D01*
X464705Y330743D01*
X462395Y330743D01*
G37*
%LPD*%
%LPC*%
G36*
X295773Y137540D02*
X295773Y137540D01*
X290591Y139687D01*
X286626Y143652D01*
X285731Y145811D01*
X285721Y145831D01*
X285714Y145852D01*
X285625Y146009D01*
X285541Y146166D01*
X285527Y146183D01*
X285516Y146203D01*
X285399Y146339D01*
X285285Y146477D01*
X285267Y146491D01*
X285253Y146508D01*
X285111Y146617D01*
X284972Y146730D01*
X284952Y146741D01*
X284935Y146754D01*
X284774Y146834D01*
X284615Y146917D01*
X284594Y146924D01*
X284574Y146934D01*
X284401Y146980D01*
X284229Y147030D01*
X284207Y147032D01*
X284185Y147038D01*
X283855Y147065D01*
X279252Y147065D01*
X277572Y147761D01*
X250123Y175210D01*
X249427Y176890D01*
X249427Y251265D01*
X249425Y251291D01*
X249427Y251318D01*
X249405Y251492D01*
X249387Y251665D01*
X249380Y251691D01*
X249376Y251717D01*
X249320Y251883D01*
X249269Y252050D01*
X249256Y252074D01*
X249248Y252099D01*
X249161Y252251D01*
X249077Y252404D01*
X249060Y252425D01*
X249047Y252448D01*
X248832Y252701D01*
X237423Y264110D01*
X236727Y265790D01*
X236727Y275279D01*
X236725Y275305D01*
X236727Y275332D01*
X236705Y275506D01*
X236687Y275679D01*
X236680Y275705D01*
X236676Y275732D01*
X236620Y275897D01*
X236569Y276064D01*
X236556Y276088D01*
X236548Y276113D01*
X236461Y276264D01*
X236377Y276418D01*
X236360Y276439D01*
X236347Y276462D01*
X236132Y276715D01*
X233547Y279300D01*
X232155Y282661D01*
X232155Y301539D01*
X233547Y304900D01*
X236120Y307473D01*
X239481Y308865D01*
X243119Y308865D01*
X246480Y307473D01*
X249053Y304900D01*
X250445Y301539D01*
X250445Y282661D01*
X249053Y279300D01*
X246468Y276715D01*
X246451Y276694D01*
X246430Y276677D01*
X246323Y276539D01*
X246213Y276404D01*
X246200Y276380D01*
X246184Y276359D01*
X246106Y276202D01*
X246024Y276048D01*
X246016Y276022D01*
X246004Y275998D01*
X245959Y275829D01*
X245909Y275662D01*
X245907Y275635D01*
X245900Y275609D01*
X245873Y275279D01*
X245873Y269435D01*
X245875Y269409D01*
X245873Y269382D01*
X245895Y269208D01*
X245913Y269035D01*
X245920Y269009D01*
X245924Y268983D01*
X245979Y268817D01*
X246031Y268650D01*
X246044Y268626D01*
X246052Y268601D01*
X246139Y268449D01*
X246223Y268296D01*
X246240Y268275D01*
X246253Y268252D01*
X246468Y267999D01*
X256305Y258162D01*
X257877Y256590D01*
X258573Y254910D01*
X258573Y180535D01*
X258575Y180509D01*
X258573Y180482D01*
X258595Y180308D01*
X258613Y180135D01*
X258620Y180109D01*
X258624Y180083D01*
X258679Y179917D01*
X258731Y179750D01*
X258744Y179726D01*
X258752Y179701D01*
X258839Y179549D01*
X258923Y179396D01*
X258940Y179375D01*
X258953Y179352D01*
X259168Y179099D01*
X281461Y156806D01*
X281482Y156789D01*
X281499Y156768D01*
X281637Y156661D01*
X281773Y156551D01*
X281796Y156538D01*
X281817Y156522D01*
X281974Y156444D01*
X282128Y156362D01*
X282154Y156354D01*
X282178Y156342D01*
X282347Y156297D01*
X282514Y156247D01*
X282541Y156245D01*
X282567Y156238D01*
X282897Y156211D01*
X283855Y156211D01*
X283877Y156213D01*
X283899Y156211D01*
X284077Y156233D01*
X284255Y156251D01*
X284276Y156257D01*
X284299Y156260D01*
X284469Y156316D01*
X284640Y156369D01*
X284660Y156379D01*
X284681Y156386D01*
X284837Y156475D01*
X284994Y156561D01*
X285011Y156575D01*
X285031Y156586D01*
X285166Y156704D01*
X285303Y156818D01*
X285317Y156836D01*
X285334Y156850D01*
X285444Y156993D01*
X285556Y157132D01*
X285566Y157152D01*
X285580Y157169D01*
X285731Y157465D01*
X286626Y159624D01*
X290591Y163589D01*
X295773Y165736D01*
X326527Y165736D01*
X331709Y163589D01*
X335674Y159624D01*
X337821Y154442D01*
X337821Y148834D01*
X335674Y143652D01*
X331709Y139687D01*
X326527Y137540D01*
X295773Y137540D01*
G37*
%LPD*%
%LPC*%
G36*
X175123Y177164D02*
X175123Y177164D01*
X169941Y179311D01*
X165976Y183276D01*
X163829Y188458D01*
X163829Y194066D01*
X165976Y199248D01*
X169941Y203213D01*
X175123Y205360D01*
X205877Y205360D01*
X211059Y203213D01*
X215024Y199248D01*
X215919Y197089D01*
X215929Y197069D01*
X215936Y197048D01*
X216025Y196891D01*
X216109Y196734D01*
X216123Y196717D01*
X216134Y196697D01*
X216251Y196561D01*
X216365Y196423D01*
X216383Y196409D01*
X216397Y196392D01*
X216539Y196283D01*
X216678Y196170D01*
X216698Y196159D01*
X216715Y196146D01*
X216876Y196066D01*
X217035Y195983D01*
X217056Y195976D01*
X217076Y195966D01*
X217249Y195920D01*
X217421Y195870D01*
X217443Y195868D01*
X217465Y195862D01*
X217795Y195835D01*
X220277Y195835D01*
X220303Y195837D01*
X220330Y195835D01*
X220504Y195857D01*
X220677Y195875D01*
X220703Y195882D01*
X220729Y195886D01*
X220895Y195941D01*
X221062Y195993D01*
X221086Y196006D01*
X221111Y196014D01*
X221263Y196101D01*
X221416Y196185D01*
X221437Y196202D01*
X221460Y196215D01*
X221713Y196430D01*
X229782Y204499D01*
X229799Y204520D01*
X229820Y204537D01*
X229927Y204675D01*
X230037Y204811D01*
X230050Y204834D01*
X230066Y204855D01*
X230144Y205012D01*
X230226Y205166D01*
X230234Y205192D01*
X230246Y205216D01*
X230291Y205385D01*
X230341Y205552D01*
X230343Y205579D01*
X230350Y205605D01*
X230377Y205935D01*
X230377Y244915D01*
X230375Y244941D01*
X230377Y244968D01*
X230355Y245142D01*
X230337Y245315D01*
X230330Y245341D01*
X230326Y245367D01*
X230271Y245533D01*
X230219Y245700D01*
X230206Y245724D01*
X230198Y245749D01*
X230111Y245901D01*
X230027Y246054D01*
X230010Y246075D01*
X229997Y246098D01*
X229782Y246351D01*
X213595Y262538D01*
X212023Y264110D01*
X211327Y265790D01*
X211327Y275279D01*
X211325Y275305D01*
X211327Y275332D01*
X211305Y275506D01*
X211287Y275679D01*
X211280Y275705D01*
X211276Y275732D01*
X211220Y275897D01*
X211169Y276064D01*
X211156Y276088D01*
X211148Y276113D01*
X211061Y276264D01*
X210977Y276418D01*
X210960Y276439D01*
X210947Y276462D01*
X210732Y276715D01*
X208147Y279300D01*
X206755Y282661D01*
X206755Y301539D01*
X208147Y304900D01*
X210720Y307473D01*
X214081Y308865D01*
X217719Y308865D01*
X221080Y307473D01*
X223653Y304900D01*
X225045Y301539D01*
X225045Y282661D01*
X223653Y279300D01*
X221068Y276715D01*
X221051Y276694D01*
X221030Y276677D01*
X220923Y276539D01*
X220813Y276404D01*
X220800Y276380D01*
X220784Y276359D01*
X220706Y276202D01*
X220624Y276048D01*
X220616Y276022D01*
X220604Y275998D01*
X220559Y275829D01*
X220509Y275662D01*
X220507Y275635D01*
X220500Y275609D01*
X220473Y275279D01*
X220473Y269435D01*
X220475Y269409D01*
X220473Y269382D01*
X220495Y269208D01*
X220513Y269035D01*
X220520Y269009D01*
X220524Y268983D01*
X220579Y268817D01*
X220631Y268650D01*
X220644Y268626D01*
X220652Y268601D01*
X220739Y268449D01*
X220823Y268296D01*
X220840Y268275D01*
X220853Y268252D01*
X221068Y267999D01*
X237255Y251812D01*
X238827Y250240D01*
X239523Y248560D01*
X239523Y202290D01*
X238827Y200610D01*
X237255Y199038D01*
X225602Y187385D01*
X223922Y186689D01*
X217795Y186689D01*
X217773Y186687D01*
X217751Y186689D01*
X217573Y186667D01*
X217395Y186649D01*
X217374Y186643D01*
X217351Y186640D01*
X217181Y186584D01*
X217010Y186531D01*
X216990Y186521D01*
X216969Y186514D01*
X216813Y186425D01*
X216656Y186339D01*
X216639Y186325D01*
X216619Y186314D01*
X216484Y186196D01*
X216347Y186082D01*
X216333Y186064D01*
X216316Y186050D01*
X216206Y185907D01*
X216094Y185768D01*
X216084Y185748D01*
X216070Y185731D01*
X215919Y185435D01*
X215024Y183276D01*
X211059Y179311D01*
X205877Y177164D01*
X175123Y177164D01*
G37*
%LPD*%
%LPC*%
G36*
X175123Y812164D02*
X175123Y812164D01*
X169941Y814311D01*
X165976Y818276D01*
X163829Y823458D01*
X163829Y829066D01*
X165976Y834248D01*
X169941Y838213D01*
X175123Y840360D01*
X205877Y840360D01*
X211059Y838213D01*
X215024Y834248D01*
X217171Y829066D01*
X217171Y823458D01*
X215024Y818276D01*
X211059Y814311D01*
X205877Y812164D01*
X175123Y812164D01*
G37*
%LPD*%
%LPC*%
G36*
X54473Y812164D02*
X54473Y812164D01*
X49291Y814311D01*
X45326Y818276D01*
X43179Y823458D01*
X43179Y829066D01*
X45326Y834248D01*
X49291Y838213D01*
X54473Y840360D01*
X85227Y840360D01*
X90409Y838213D01*
X94374Y834248D01*
X96521Y829066D01*
X96521Y823458D01*
X94374Y818276D01*
X90409Y814311D01*
X85227Y812164D01*
X54473Y812164D01*
G37*
%LPD*%
%LPC*%
G36*
X416423Y812164D02*
X416423Y812164D01*
X411241Y814311D01*
X407276Y818276D01*
X405129Y823458D01*
X405129Y829066D01*
X407276Y834248D01*
X411241Y838213D01*
X416423Y840360D01*
X447177Y840360D01*
X452359Y838213D01*
X456324Y834248D01*
X458471Y829066D01*
X458471Y823458D01*
X456324Y818276D01*
X452359Y814311D01*
X447177Y812164D01*
X416423Y812164D01*
G37*
%LPD*%
%LPC*%
G36*
X295773Y812164D02*
X295773Y812164D01*
X290591Y814311D01*
X286626Y818276D01*
X284479Y823458D01*
X284479Y829066D01*
X286626Y834248D01*
X290591Y838213D01*
X295773Y840360D01*
X326527Y840360D01*
X331709Y838213D01*
X335674Y834248D01*
X337821Y829066D01*
X337821Y823458D01*
X335674Y818276D01*
X331709Y814311D01*
X326527Y812164D01*
X295773Y812164D01*
G37*
%LPD*%
%LPC*%
G36*
X416423Y772540D02*
X416423Y772540D01*
X411241Y774687D01*
X407276Y778652D01*
X405129Y783834D01*
X405129Y789442D01*
X407276Y794624D01*
X411241Y798589D01*
X416423Y800736D01*
X447177Y800736D01*
X452359Y798589D01*
X456324Y794624D01*
X458471Y789442D01*
X458471Y783834D01*
X456324Y778652D01*
X452359Y774687D01*
X447177Y772540D01*
X416423Y772540D01*
G37*
%LPD*%
%LPC*%
G36*
X295773Y772540D02*
X295773Y772540D01*
X290591Y774687D01*
X286626Y778652D01*
X284479Y783834D01*
X284479Y789442D01*
X286626Y794624D01*
X290591Y798589D01*
X295773Y800736D01*
X326527Y800736D01*
X331709Y798589D01*
X335674Y794624D01*
X337821Y789442D01*
X337821Y783834D01*
X335674Y778652D01*
X331709Y774687D01*
X326527Y772540D01*
X295773Y772540D01*
G37*
%LPD*%
%LPC*%
G36*
X175123Y772540D02*
X175123Y772540D01*
X169941Y774687D01*
X165976Y778652D01*
X163829Y783834D01*
X163829Y789442D01*
X165976Y794624D01*
X169941Y798589D01*
X175123Y800736D01*
X205877Y800736D01*
X211059Y798589D01*
X215024Y794624D01*
X217171Y789442D01*
X217171Y783834D01*
X215024Y778652D01*
X211059Y774687D01*
X205877Y772540D01*
X175123Y772540D01*
G37*
%LPD*%
%LPC*%
G36*
X54473Y772540D02*
X54473Y772540D01*
X49291Y774687D01*
X45326Y778652D01*
X43179Y783834D01*
X43179Y789442D01*
X45326Y794624D01*
X49291Y798589D01*
X54473Y800736D01*
X85227Y800736D01*
X90409Y798589D01*
X94374Y794624D01*
X96521Y789442D01*
X96521Y783834D01*
X94374Y778652D01*
X90409Y774687D01*
X85227Y772540D01*
X54473Y772540D01*
G37*
%LPD*%
%LPC*%
G36*
X295773Y628014D02*
X295773Y628014D01*
X290591Y630161D01*
X286626Y634126D01*
X284479Y639308D01*
X284479Y644916D01*
X286626Y650098D01*
X290591Y654063D01*
X295773Y656210D01*
X326527Y656210D01*
X331709Y654063D01*
X335674Y650098D01*
X337821Y644916D01*
X337821Y639308D01*
X335674Y634126D01*
X331709Y630161D01*
X326527Y628014D01*
X295773Y628014D01*
G37*
%LPD*%
%LPC*%
G36*
X54473Y137540D02*
X54473Y137540D01*
X49291Y139687D01*
X45326Y143652D01*
X43179Y148834D01*
X43179Y154442D01*
X45326Y159624D01*
X49291Y163589D01*
X54473Y165736D01*
X85227Y165736D01*
X90409Y163589D01*
X94374Y159624D01*
X96521Y154442D01*
X96521Y148834D01*
X94374Y143652D01*
X90409Y139687D01*
X85227Y137540D01*
X54473Y137540D01*
G37*
%LPD*%
%LPC*%
G36*
X416423Y137540D02*
X416423Y137540D01*
X411241Y139687D01*
X407276Y143652D01*
X405129Y148834D01*
X405129Y154442D01*
X407276Y159624D01*
X411241Y163589D01*
X416423Y165736D01*
X447177Y165736D01*
X452359Y163589D01*
X456324Y159624D01*
X458471Y154442D01*
X458471Y148834D01*
X456324Y143652D01*
X452359Y139687D01*
X447177Y137540D01*
X416423Y137540D01*
G37*
%LPD*%
%LPC*%
G36*
X175123Y137540D02*
X175123Y137540D01*
X169941Y139687D01*
X165976Y143652D01*
X163829Y148834D01*
X163829Y154442D01*
X165976Y159624D01*
X169941Y163589D01*
X175123Y165736D01*
X205877Y165736D01*
X211059Y163589D01*
X215024Y159624D01*
X217171Y154442D01*
X217171Y148834D01*
X215024Y143652D01*
X211059Y139687D01*
X205877Y137540D01*
X175123Y137540D01*
G37*
%LPD*%
%LPC*%
G36*
X54473Y177164D02*
X54473Y177164D01*
X49291Y179311D01*
X45326Y183276D01*
X43179Y188458D01*
X43179Y194066D01*
X45326Y199248D01*
X49291Y203213D01*
X54473Y205360D01*
X85227Y205360D01*
X90409Y203213D01*
X94374Y199248D01*
X96521Y194066D01*
X96521Y188458D01*
X94374Y183276D01*
X90409Y179311D01*
X85227Y177164D01*
X54473Y177164D01*
G37*
%LPD*%
%LPC*%
G36*
X295773Y177164D02*
X295773Y177164D01*
X290591Y179311D01*
X286626Y183276D01*
X284479Y188458D01*
X284479Y194066D01*
X286626Y199248D01*
X290591Y203213D01*
X295773Y205360D01*
X326527Y205360D01*
X331709Y203213D01*
X335674Y199248D01*
X337821Y194066D01*
X337821Y188458D01*
X335674Y183276D01*
X331709Y179311D01*
X326527Y177164D01*
X295773Y177164D01*
G37*
%LPD*%
%LPC*%
G36*
X54473Y216788D02*
X54473Y216788D01*
X49291Y218935D01*
X45326Y222900D01*
X43179Y228082D01*
X43179Y233690D01*
X45326Y238872D01*
X49291Y242837D01*
X54473Y244984D01*
X85227Y244984D01*
X90409Y242837D01*
X94374Y238872D01*
X96521Y233690D01*
X96521Y228082D01*
X94374Y222900D01*
X90409Y218935D01*
X85227Y216788D01*
X54473Y216788D01*
G37*
%LPD*%
%LPC*%
G36*
X416423Y216788D02*
X416423Y216788D01*
X411241Y218935D01*
X407276Y222900D01*
X405129Y228082D01*
X405129Y233690D01*
X407276Y238872D01*
X411241Y242837D01*
X416423Y244984D01*
X447177Y244984D01*
X452359Y242837D01*
X456324Y238872D01*
X458471Y233690D01*
X458471Y228082D01*
X456324Y222900D01*
X452359Y218935D01*
X447177Y216788D01*
X416423Y216788D01*
G37*
%LPD*%
%LPC*%
G36*
X175123Y216788D02*
X175123Y216788D01*
X169941Y218935D01*
X165976Y222900D01*
X163829Y228082D01*
X163829Y233690D01*
X165976Y238872D01*
X169941Y242837D01*
X175123Y244984D01*
X205877Y244984D01*
X211059Y242837D01*
X215024Y238872D01*
X217171Y233690D01*
X217171Y228082D01*
X215024Y222900D01*
X211059Y218935D01*
X205877Y216788D01*
X175123Y216788D01*
G37*
%LPD*%
%LPC*%
G36*
X295773Y216788D02*
X295773Y216788D01*
X290591Y218935D01*
X286626Y222900D01*
X284479Y228082D01*
X284479Y233690D01*
X286626Y238872D01*
X290591Y242837D01*
X295773Y244984D01*
X326527Y244984D01*
X331709Y242837D01*
X335674Y238872D01*
X337821Y233690D01*
X337821Y228082D01*
X335674Y222900D01*
X331709Y218935D01*
X326527Y216788D01*
X295773Y216788D01*
G37*
%LPD*%
%LPC*%
G36*
X416423Y177164D02*
X416423Y177164D01*
X411241Y179311D01*
X407276Y183276D01*
X405129Y188458D01*
X405129Y194066D01*
X407276Y199248D01*
X411241Y203213D01*
X416423Y205360D01*
X447177Y205360D01*
X452359Y203213D01*
X456324Y199248D01*
X458471Y194066D01*
X458471Y188458D01*
X456324Y183276D01*
X452359Y179311D01*
X447177Y177164D01*
X416423Y177164D01*
G37*
%LPD*%
%LPC*%
G36*
X54473Y374014D02*
X54473Y374014D01*
X49291Y376161D01*
X45326Y380126D01*
X43179Y385308D01*
X43179Y390916D01*
X45326Y396098D01*
X49291Y400063D01*
X54473Y402210D01*
X85227Y402210D01*
X90409Y400063D01*
X94374Y396098D01*
X96521Y390916D01*
X96521Y385308D01*
X94374Y380126D01*
X90409Y376161D01*
X85227Y374014D01*
X54473Y374014D01*
G37*
%LPD*%
%LPC*%
G36*
X295773Y588390D02*
X295773Y588390D01*
X290591Y590537D01*
X286626Y594502D01*
X284479Y599684D01*
X284479Y605292D01*
X286626Y610474D01*
X290591Y614439D01*
X295773Y616586D01*
X326527Y616586D01*
X331709Y614439D01*
X335674Y610474D01*
X337821Y605292D01*
X337821Y599684D01*
X335674Y594502D01*
X331709Y590537D01*
X326527Y588390D01*
X295773Y588390D01*
G37*
%LPD*%
%LPC*%
G36*
X175123Y628014D02*
X175123Y628014D01*
X169941Y630161D01*
X165976Y634126D01*
X163829Y639308D01*
X163829Y644916D01*
X165976Y650098D01*
X169941Y654063D01*
X175123Y656210D01*
X205877Y656210D01*
X211059Y654063D01*
X215024Y650098D01*
X217171Y644916D01*
X217171Y639308D01*
X215024Y634126D01*
X211059Y630161D01*
X205877Y628014D01*
X175123Y628014D01*
G37*
%LPD*%
%LPC*%
G36*
X54473Y588390D02*
X54473Y588390D01*
X49291Y590537D01*
X45326Y594502D01*
X43179Y599684D01*
X43179Y605292D01*
X45326Y610474D01*
X49291Y614439D01*
X54473Y616586D01*
X85227Y616586D01*
X90409Y614439D01*
X94374Y610474D01*
X96521Y605292D01*
X96521Y599684D01*
X94374Y594502D01*
X90409Y590537D01*
X85227Y588390D01*
X54473Y588390D01*
G37*
%LPD*%
%LPC*%
G36*
X175123Y588390D02*
X175123Y588390D01*
X169941Y590537D01*
X165976Y594502D01*
X163829Y599684D01*
X163829Y605292D01*
X165976Y610474D01*
X169941Y614439D01*
X175123Y616586D01*
X205877Y616586D01*
X211059Y614439D01*
X215024Y610474D01*
X217171Y605292D01*
X217171Y599684D01*
X215024Y594502D01*
X211059Y590537D01*
X205877Y588390D01*
X175123Y588390D01*
G37*
%LPD*%
%LPC*%
G36*
X416423Y588390D02*
X416423Y588390D01*
X411241Y590537D01*
X407276Y594502D01*
X405129Y599684D01*
X405129Y605292D01*
X407276Y610474D01*
X411241Y614439D01*
X416423Y616586D01*
X447177Y616586D01*
X452359Y614439D01*
X456324Y610474D01*
X458471Y605292D01*
X458471Y599684D01*
X456324Y594502D01*
X452359Y590537D01*
X447177Y588390D01*
X416423Y588390D01*
G37*
%LPD*%
%LPC*%
G36*
X54473Y628014D02*
X54473Y628014D01*
X49291Y630161D01*
X45326Y634126D01*
X43179Y639308D01*
X43179Y644916D01*
X45326Y650098D01*
X49291Y654063D01*
X54473Y656210D01*
X85227Y656210D01*
X90409Y654063D01*
X94374Y650098D01*
X96521Y644916D01*
X96521Y639308D01*
X94374Y634126D01*
X90409Y630161D01*
X85227Y628014D01*
X54473Y628014D01*
G37*
%LPD*%
%LPC*%
G36*
X442681Y275335D02*
X442681Y275335D01*
X439320Y276727D01*
X436747Y279300D01*
X435355Y282661D01*
X435355Y301539D01*
X436747Y304900D01*
X439320Y307473D01*
X439689Y307626D01*
X439709Y307636D01*
X439730Y307643D01*
X439886Y307731D01*
X440044Y307816D01*
X440061Y307830D01*
X440081Y307841D01*
X440217Y307958D01*
X440355Y308072D01*
X440369Y308089D01*
X440386Y308104D01*
X440495Y308245D01*
X440608Y308385D01*
X440619Y308405D01*
X440632Y308422D01*
X440712Y308582D01*
X440795Y308741D01*
X440802Y308763D01*
X440812Y308783D01*
X440858Y308956D01*
X440908Y309128D01*
X440910Y309150D01*
X440916Y309171D01*
X440943Y309502D01*
X440943Y400903D01*
X440941Y400930D01*
X440943Y400957D01*
X440921Y401131D01*
X440903Y401304D01*
X440896Y401330D01*
X440892Y401356D01*
X440837Y401522D01*
X440785Y401689D01*
X440772Y401713D01*
X440764Y401738D01*
X440677Y401889D01*
X440593Y402043D01*
X440576Y402063D01*
X440563Y402087D01*
X440348Y402340D01*
X439577Y403111D01*
X438693Y405245D01*
X438693Y407555D01*
X439577Y409689D01*
X441211Y411323D01*
X443345Y412207D01*
X445655Y412207D01*
X447789Y411323D01*
X449423Y409689D01*
X450307Y407555D01*
X450307Y405245D01*
X449423Y403111D01*
X448652Y402340D01*
X448635Y402319D01*
X448614Y402302D01*
X448507Y402164D01*
X448397Y402028D01*
X448384Y402005D01*
X448368Y401983D01*
X448290Y401826D01*
X448208Y401672D01*
X448200Y401647D01*
X448188Y401623D01*
X448143Y401453D01*
X448093Y401287D01*
X448091Y401260D01*
X448084Y401234D01*
X448057Y400903D01*
X448057Y309502D01*
X448059Y309480D01*
X448057Y309458D01*
X448079Y309280D01*
X448097Y309102D01*
X448103Y309080D01*
X448106Y309058D01*
X448162Y308888D01*
X448215Y308717D01*
X448225Y308697D01*
X448232Y308676D01*
X448322Y308519D01*
X448407Y308363D01*
X448421Y308345D01*
X448432Y308326D01*
X448550Y308191D01*
X448664Y308053D01*
X448682Y308039D01*
X448696Y308023D01*
X448839Y307913D01*
X448978Y307801D01*
X448998Y307791D01*
X449016Y307777D01*
X449311Y307626D01*
X449680Y307473D01*
X452253Y304900D01*
X453645Y301539D01*
X453645Y282661D01*
X452253Y279300D01*
X449680Y276727D01*
X446319Y275335D01*
X442681Y275335D01*
G37*
%LPD*%
%LPC*%
G36*
X341081Y275335D02*
X341081Y275335D01*
X337720Y276727D01*
X335147Y279300D01*
X333755Y282661D01*
X333755Y301539D01*
X335147Y304900D01*
X337720Y307473D01*
X341081Y308865D01*
X344719Y308865D01*
X348080Y307473D01*
X350653Y304900D01*
X352045Y301539D01*
X352045Y282661D01*
X350653Y279300D01*
X348080Y276727D01*
X344719Y275335D01*
X341081Y275335D01*
G37*
%LPD*%
%LPC*%
G36*
X163281Y275335D02*
X163281Y275335D01*
X159920Y276727D01*
X157347Y279300D01*
X155955Y282661D01*
X155955Y301539D01*
X157347Y304900D01*
X159920Y307473D01*
X163281Y308865D01*
X166919Y308865D01*
X170280Y307473D01*
X172853Y304900D01*
X174245Y301539D01*
X174245Y282661D01*
X172853Y279300D01*
X170280Y276727D01*
X166919Y275335D01*
X163281Y275335D01*
G37*
%LPD*%
%LPC*%
G36*
X417281Y275335D02*
X417281Y275335D01*
X413920Y276727D01*
X411347Y279300D01*
X409955Y282661D01*
X409955Y301539D01*
X411347Y304900D01*
X413920Y307473D01*
X417281Y308865D01*
X420919Y308865D01*
X424280Y307473D01*
X426853Y304900D01*
X428245Y301539D01*
X428245Y282661D01*
X426853Y279300D01*
X424280Y276727D01*
X420919Y275335D01*
X417281Y275335D01*
G37*
%LPD*%
%LPC*%
G36*
X391881Y275335D02*
X391881Y275335D01*
X388520Y276727D01*
X385947Y279300D01*
X384555Y282661D01*
X384555Y301539D01*
X385947Y304900D01*
X388520Y307473D01*
X391881Y308865D01*
X395519Y308865D01*
X398880Y307473D01*
X401453Y304900D01*
X402845Y301539D01*
X402845Y282661D01*
X401453Y279300D01*
X398880Y276727D01*
X395519Y275335D01*
X391881Y275335D01*
G37*
%LPD*%
%LPC*%
G36*
X290281Y275335D02*
X290281Y275335D01*
X286920Y276727D01*
X284347Y279300D01*
X282955Y282661D01*
X282955Y301539D01*
X284347Y304900D01*
X286920Y307473D01*
X290281Y308865D01*
X293919Y308865D01*
X297280Y307473D01*
X299853Y304900D01*
X301245Y301539D01*
X301245Y282661D01*
X299853Y279300D01*
X297280Y276727D01*
X293919Y275335D01*
X290281Y275335D01*
G37*
%LPD*%
%LPC*%
G36*
X264881Y275335D02*
X264881Y275335D01*
X261520Y276727D01*
X258947Y279300D01*
X257555Y282661D01*
X257555Y301539D01*
X258947Y304900D01*
X261520Y307473D01*
X264881Y308865D01*
X268519Y308865D01*
X271880Y307473D01*
X274453Y304900D01*
X275845Y301539D01*
X275845Y282661D01*
X274453Y279300D01*
X271880Y276727D01*
X268519Y275335D01*
X264881Y275335D01*
G37*
%LPD*%
%LPC*%
G36*
X315681Y275335D02*
X315681Y275335D01*
X312320Y276727D01*
X309747Y279300D01*
X308355Y282661D01*
X308355Y301539D01*
X309747Y304900D01*
X312320Y307473D01*
X315681Y308865D01*
X319319Y308865D01*
X322680Y307473D01*
X325253Y304900D01*
X326645Y301539D01*
X326645Y282661D01*
X325253Y279300D01*
X322680Y276727D01*
X319319Y275335D01*
X315681Y275335D01*
G37*
%LPD*%
%LPC*%
G36*
X366481Y275335D02*
X366481Y275335D01*
X363120Y276727D01*
X360547Y279300D01*
X359155Y282661D01*
X359155Y301539D01*
X360547Y304900D01*
X363120Y307473D01*
X366481Y308865D01*
X370119Y308865D01*
X373480Y307473D01*
X376053Y304900D01*
X377445Y301539D01*
X377445Y282661D01*
X376053Y279300D01*
X373480Y276727D01*
X370119Y275335D01*
X366481Y275335D01*
G37*
%LPD*%
%LPC*%
G36*
X341081Y427735D02*
X341081Y427735D01*
X337720Y429127D01*
X335147Y431700D01*
X333755Y435061D01*
X333755Y453939D01*
X335147Y457300D01*
X337720Y459873D01*
X341081Y461265D01*
X344719Y461265D01*
X348080Y459873D01*
X350653Y457300D01*
X352045Y453939D01*
X352045Y435061D01*
X350653Y431700D01*
X348080Y429127D01*
X346421Y428440D01*
X344719Y427735D01*
X341081Y427735D01*
G37*
%LPD*%
%LPC*%
G36*
X391881Y427735D02*
X391881Y427735D01*
X388520Y429127D01*
X385947Y431700D01*
X384555Y435061D01*
X384555Y453939D01*
X385947Y457300D01*
X388520Y459873D01*
X391881Y461265D01*
X395519Y461265D01*
X398880Y459873D01*
X401453Y457300D01*
X402845Y453939D01*
X402845Y435061D01*
X401453Y431700D01*
X398880Y429127D01*
X397221Y428440D01*
X395519Y427735D01*
X391881Y427735D01*
G37*
%LPD*%
%LPC*%
G36*
X366481Y427735D02*
X366481Y427735D01*
X363120Y429127D01*
X360547Y431700D01*
X359155Y435061D01*
X359155Y453939D01*
X360547Y457300D01*
X363120Y459873D01*
X366481Y461265D01*
X370119Y461265D01*
X373480Y459873D01*
X376053Y457300D01*
X377445Y453939D01*
X377445Y435061D01*
X376053Y431700D01*
X373480Y429127D01*
X371821Y428440D01*
X370119Y427735D01*
X366481Y427735D01*
G37*
%LPD*%
%LPC*%
G36*
X417281Y427735D02*
X417281Y427735D01*
X413920Y429127D01*
X411347Y431700D01*
X409955Y435061D01*
X409955Y453939D01*
X411347Y457300D01*
X413920Y459873D01*
X417281Y461265D01*
X420919Y461265D01*
X424280Y459873D01*
X426853Y457300D01*
X428245Y453939D01*
X428245Y435061D01*
X426853Y431700D01*
X424280Y429127D01*
X422621Y428440D01*
X420919Y427735D01*
X417281Y427735D01*
G37*
%LPD*%
%LPC*%
G36*
X442681Y427735D02*
X442681Y427735D01*
X439320Y429127D01*
X436747Y431700D01*
X435355Y435061D01*
X435355Y453939D01*
X436747Y457300D01*
X439320Y459873D01*
X442681Y461265D01*
X446319Y461265D01*
X449680Y459873D01*
X452253Y457300D01*
X453645Y453939D01*
X453645Y435061D01*
X452253Y431700D01*
X449680Y429127D01*
X448021Y428440D01*
X446319Y427735D01*
X442681Y427735D01*
G37*
%LPD*%
%LPC*%
G36*
X163281Y427735D02*
X163281Y427735D01*
X159920Y429127D01*
X157347Y431700D01*
X155955Y435061D01*
X155955Y453939D01*
X157347Y457300D01*
X159920Y459873D01*
X163281Y461265D01*
X166919Y461265D01*
X170280Y459873D01*
X172853Y457300D01*
X174245Y453939D01*
X174245Y435061D01*
X172853Y431700D01*
X170280Y429127D01*
X168621Y428440D01*
X166919Y427735D01*
X163281Y427735D01*
G37*
%LPD*%
%LPC*%
G36*
X188681Y427735D02*
X188681Y427735D01*
X185320Y429127D01*
X182747Y431700D01*
X181355Y435061D01*
X181355Y453939D01*
X182747Y457300D01*
X185320Y459873D01*
X188681Y461265D01*
X192319Y461265D01*
X195680Y459873D01*
X198253Y457300D01*
X199645Y453939D01*
X199645Y435061D01*
X198253Y431700D01*
X195680Y429127D01*
X194021Y428440D01*
X192319Y427735D01*
X188681Y427735D01*
G37*
%LPD*%
%LPC*%
G36*
X214081Y427735D02*
X214081Y427735D01*
X210720Y429127D01*
X208147Y431700D01*
X206755Y435061D01*
X206755Y453939D01*
X208147Y457300D01*
X210720Y459873D01*
X214081Y461265D01*
X217719Y461265D01*
X221080Y459873D01*
X223653Y457300D01*
X225045Y453939D01*
X225045Y435061D01*
X223653Y431700D01*
X221080Y429127D01*
X219421Y428440D01*
X217719Y427735D01*
X214081Y427735D01*
G37*
%LPD*%
%LPC*%
G36*
X239481Y427735D02*
X239481Y427735D01*
X236120Y429127D01*
X233547Y431700D01*
X232155Y435061D01*
X232155Y453939D01*
X233547Y457300D01*
X236120Y459873D01*
X239481Y461265D01*
X243119Y461265D01*
X246480Y459873D01*
X249053Y457300D01*
X250445Y453939D01*
X250445Y435061D01*
X249053Y431700D01*
X246480Y429127D01*
X244821Y428440D01*
X243119Y427735D01*
X239481Y427735D01*
G37*
%LPD*%
%LPC*%
G36*
X315681Y427735D02*
X315681Y427735D01*
X312320Y429127D01*
X309747Y431700D01*
X308355Y435061D01*
X308355Y453939D01*
X309747Y457300D01*
X312320Y459873D01*
X315681Y461265D01*
X319319Y461265D01*
X322680Y459873D01*
X325253Y457300D01*
X326645Y453939D01*
X326645Y435061D01*
X325253Y431700D01*
X322680Y429127D01*
X321021Y428440D01*
X319319Y427735D01*
X315681Y427735D01*
G37*
%LPD*%
%LPC*%
G36*
X290281Y427735D02*
X290281Y427735D01*
X286920Y429127D01*
X284347Y431700D01*
X282955Y435061D01*
X282955Y453939D01*
X284347Y457300D01*
X286920Y459873D01*
X290281Y461265D01*
X293919Y461265D01*
X297280Y459873D01*
X299853Y457300D01*
X301245Y453939D01*
X301245Y435061D01*
X299853Y431700D01*
X297280Y429127D01*
X295621Y428440D01*
X293919Y427735D01*
X290281Y427735D01*
G37*
%LPD*%
%LPC*%
G36*
X264881Y427735D02*
X264881Y427735D01*
X261520Y429127D01*
X258947Y431700D01*
X257555Y435061D01*
X257555Y453939D01*
X258947Y457300D01*
X261520Y459873D01*
X264881Y461265D01*
X268519Y461265D01*
X271880Y459873D01*
X274453Y457300D01*
X275845Y453939D01*
X275845Y435061D01*
X274453Y431700D01*
X271880Y429127D01*
X270221Y428440D01*
X268519Y427735D01*
X264881Y427735D01*
G37*
%LPD*%
%LPC*%
G36*
X315213Y566927D02*
X315213Y566927D01*
X315213Y577978D01*
X324714Y577978D01*
X326678Y577719D01*
X328592Y577206D01*
X330422Y576448D01*
X332138Y575457D01*
X333710Y574252D01*
X335111Y572851D01*
X336316Y571279D01*
X337307Y569563D01*
X338065Y567733D01*
X338281Y566927D01*
X315213Y566927D01*
G37*
%LPD*%
%LPC*%
G36*
X73913Y352551D02*
X73913Y352551D01*
X73913Y363602D01*
X83414Y363602D01*
X85378Y363343D01*
X87292Y362830D01*
X89122Y362072D01*
X90838Y361081D01*
X92410Y359876D01*
X93811Y358475D01*
X95016Y356903D01*
X96007Y355187D01*
X96765Y353357D01*
X96981Y352551D01*
X73913Y352551D01*
G37*
%LPD*%
%LPC*%
G36*
X194563Y116077D02*
X194563Y116077D01*
X194563Y127128D01*
X204064Y127128D01*
X206028Y126869D01*
X207942Y126356D01*
X209772Y125598D01*
X211488Y124607D01*
X213060Y123402D01*
X214461Y122001D01*
X215666Y120429D01*
X216657Y118713D01*
X217415Y116883D01*
X217631Y116077D01*
X194563Y116077D01*
G37*
%LPD*%
%LPC*%
G36*
X73913Y751077D02*
X73913Y751077D01*
X73913Y762128D01*
X83414Y762128D01*
X85378Y761869D01*
X87292Y761356D01*
X89122Y760598D01*
X90838Y759607D01*
X92410Y758402D01*
X93811Y757001D01*
X95016Y755429D01*
X96007Y753713D01*
X96765Y751883D01*
X96981Y751077D01*
X73913Y751077D01*
G37*
%LPD*%
%LPC*%
G36*
X194563Y566927D02*
X194563Y566927D01*
X194563Y577978D01*
X204064Y577978D01*
X206028Y577719D01*
X207942Y577206D01*
X209772Y576448D01*
X211488Y575457D01*
X213060Y574252D01*
X214461Y572851D01*
X215666Y571279D01*
X216657Y569563D01*
X217415Y567733D01*
X217631Y566927D01*
X194563Y566927D01*
G37*
%LPD*%
%LPC*%
G36*
X194563Y751077D02*
X194563Y751077D01*
X194563Y762128D01*
X204064Y762128D01*
X206028Y761869D01*
X207942Y761356D01*
X209772Y760598D01*
X211488Y759607D01*
X213060Y758402D01*
X214461Y757001D01*
X215666Y755429D01*
X216657Y753713D01*
X217415Y751883D01*
X217631Y751077D01*
X194563Y751077D01*
G37*
%LPD*%
%LPC*%
G36*
X315213Y751077D02*
X315213Y751077D01*
X315213Y762128D01*
X324714Y762128D01*
X326678Y761869D01*
X328592Y761356D01*
X330422Y760598D01*
X332138Y759607D01*
X333710Y758402D01*
X335111Y757001D01*
X336316Y755429D01*
X337307Y753713D01*
X338065Y751883D01*
X338281Y751077D01*
X315213Y751077D01*
G37*
%LPD*%
%LPC*%
G36*
X73913Y566927D02*
X73913Y566927D01*
X73913Y577978D01*
X83414Y577978D01*
X85378Y577719D01*
X87292Y577206D01*
X89122Y576448D01*
X90838Y575457D01*
X92410Y574252D01*
X93811Y572851D01*
X95016Y571279D01*
X96007Y569563D01*
X96765Y567733D01*
X96981Y566927D01*
X73913Y566927D01*
G37*
%LPD*%
%LPC*%
G36*
X435863Y751077D02*
X435863Y751077D01*
X435863Y762128D01*
X445364Y762128D01*
X447328Y761869D01*
X449242Y761356D01*
X451072Y760598D01*
X452788Y759607D01*
X454360Y758402D01*
X455761Y757001D01*
X456966Y755429D01*
X457957Y753713D01*
X458715Y751883D01*
X458931Y751077D01*
X435863Y751077D01*
G37*
%LPD*%
%LPC*%
G36*
X435863Y566927D02*
X435863Y566927D01*
X435863Y577978D01*
X445364Y577978D01*
X447328Y577719D01*
X449242Y577206D01*
X451072Y576448D01*
X452788Y575457D01*
X454360Y574252D01*
X455761Y572851D01*
X456966Y571279D01*
X457957Y569563D01*
X458715Y567733D01*
X458931Y566927D01*
X435863Y566927D01*
G37*
%LPD*%
%LPC*%
G36*
X435863Y116077D02*
X435863Y116077D01*
X435863Y127128D01*
X445364Y127128D01*
X447328Y126869D01*
X449242Y126356D01*
X451072Y125598D01*
X452788Y124607D01*
X454360Y123402D01*
X455761Y122001D01*
X456966Y120429D01*
X457957Y118713D01*
X458715Y116883D01*
X458931Y116077D01*
X435863Y116077D01*
G37*
%LPD*%
%LPC*%
G36*
X315213Y116077D02*
X315213Y116077D01*
X315213Y127128D01*
X324714Y127128D01*
X326678Y126869D01*
X328592Y126356D01*
X330422Y125598D01*
X332138Y124607D01*
X333710Y123402D01*
X335111Y122001D01*
X336316Y120429D01*
X337307Y118713D01*
X338065Y116883D01*
X338281Y116077D01*
X315213Y116077D01*
G37*
%LPD*%
%LPC*%
G36*
X73913Y116077D02*
X73913Y116077D01*
X73913Y127128D01*
X83414Y127128D01*
X85378Y126869D01*
X87292Y126356D01*
X89122Y125598D01*
X90838Y124607D01*
X92410Y123402D01*
X93811Y122001D01*
X95016Y120429D01*
X96007Y118713D01*
X96765Y116883D01*
X96981Y116077D01*
X73913Y116077D01*
G37*
%LPD*%
%LPC*%
G36*
X284019Y751077D02*
X284019Y751077D01*
X284235Y751883D01*
X284993Y753713D01*
X285984Y755429D01*
X287189Y757001D01*
X288590Y758402D01*
X290162Y759607D01*
X291878Y760598D01*
X293708Y761356D01*
X295622Y761869D01*
X297586Y762128D01*
X307087Y762128D01*
X307087Y751077D01*
X284019Y751077D01*
G37*
%LPD*%
%LPC*%
G36*
X163369Y566927D02*
X163369Y566927D01*
X163585Y567733D01*
X164343Y569563D01*
X165334Y571279D01*
X166539Y572851D01*
X167940Y574252D01*
X169512Y575457D01*
X171228Y576448D01*
X173058Y577206D01*
X174972Y577719D01*
X176936Y577978D01*
X186437Y577978D01*
X186437Y566927D01*
X163369Y566927D01*
G37*
%LPD*%
%LPC*%
G36*
X42719Y566927D02*
X42719Y566927D01*
X42935Y567733D01*
X43693Y569563D01*
X44684Y571279D01*
X45889Y572851D01*
X47290Y574252D01*
X48862Y575457D01*
X50578Y576448D01*
X52408Y577206D01*
X54322Y577719D01*
X56286Y577978D01*
X65787Y577978D01*
X65787Y566927D01*
X42719Y566927D01*
G37*
%LPD*%
%LPC*%
G36*
X404669Y566927D02*
X404669Y566927D01*
X404885Y567733D01*
X405643Y569563D01*
X406634Y571279D01*
X407839Y572851D01*
X409240Y574252D01*
X410812Y575457D01*
X412528Y576448D01*
X414358Y577206D01*
X416272Y577719D01*
X418236Y577978D01*
X427737Y577978D01*
X427737Y566927D01*
X404669Y566927D01*
G37*
%LPD*%
%LPC*%
G36*
X284019Y566927D02*
X284019Y566927D01*
X284235Y567733D01*
X284993Y569563D01*
X285984Y571279D01*
X287189Y572851D01*
X288590Y574252D01*
X290162Y575457D01*
X291878Y576448D01*
X293708Y577206D01*
X295622Y577719D01*
X297586Y577978D01*
X307087Y577978D01*
X307087Y566927D01*
X284019Y566927D01*
G37*
%LPD*%
%LPC*%
G36*
X42719Y352551D02*
X42719Y352551D01*
X42935Y353357D01*
X43693Y355187D01*
X44684Y356903D01*
X45889Y358475D01*
X47290Y359876D01*
X48862Y361081D01*
X50578Y362072D01*
X52408Y362830D01*
X54322Y363343D01*
X56286Y363602D01*
X65787Y363602D01*
X65787Y352551D01*
X42719Y352551D01*
G37*
%LPD*%
%LPC*%
G36*
X42719Y751077D02*
X42719Y751077D01*
X42935Y751883D01*
X43693Y753713D01*
X44684Y755429D01*
X45889Y757001D01*
X47290Y758402D01*
X48862Y759607D01*
X50578Y760598D01*
X52408Y761356D01*
X54322Y761869D01*
X56286Y762128D01*
X65787Y762128D01*
X65787Y751077D01*
X42719Y751077D01*
G37*
%LPD*%
%LPC*%
G36*
X404669Y116077D02*
X404669Y116077D01*
X404885Y116883D01*
X405643Y118713D01*
X406634Y120429D01*
X407839Y122001D01*
X409240Y123402D01*
X410812Y124607D01*
X412528Y125598D01*
X414358Y126356D01*
X416272Y126869D01*
X418236Y127128D01*
X427737Y127128D01*
X427737Y116077D01*
X404669Y116077D01*
G37*
%LPD*%
%LPC*%
G36*
X404669Y751077D02*
X404669Y751077D01*
X404885Y751883D01*
X405643Y753713D01*
X406634Y755429D01*
X407839Y757001D01*
X409240Y758402D01*
X410812Y759607D01*
X412528Y760598D01*
X414358Y761356D01*
X416272Y761869D01*
X418236Y762128D01*
X427737Y762128D01*
X427737Y751077D01*
X404669Y751077D01*
G37*
%LPD*%
%LPC*%
G36*
X284019Y116077D02*
X284019Y116077D01*
X284235Y116883D01*
X284993Y118713D01*
X285984Y120429D01*
X287189Y122001D01*
X288590Y123402D01*
X290162Y124607D01*
X291878Y125598D01*
X293708Y126356D01*
X295622Y126869D01*
X297586Y127128D01*
X307087Y127128D01*
X307087Y116077D01*
X284019Y116077D01*
G37*
%LPD*%
%LPC*%
G36*
X163369Y116077D02*
X163369Y116077D01*
X163585Y116883D01*
X164343Y118713D01*
X165334Y120429D01*
X166539Y122001D01*
X167940Y123402D01*
X169512Y124607D01*
X171228Y125598D01*
X173058Y126356D01*
X174972Y126869D01*
X176936Y127128D01*
X186437Y127128D01*
X186437Y116077D01*
X163369Y116077D01*
G37*
%LPD*%
%LPC*%
G36*
X163369Y751077D02*
X163369Y751077D01*
X163585Y751883D01*
X164343Y753713D01*
X165334Y755429D01*
X166539Y757001D01*
X167940Y758402D01*
X169512Y759607D01*
X171228Y760598D01*
X173058Y761356D01*
X174972Y761869D01*
X176936Y762128D01*
X186437Y762128D01*
X186437Y751077D01*
X163369Y751077D01*
G37*
%LPD*%
%LPC*%
G36*
X42719Y116077D02*
X42719Y116077D01*
X42935Y116883D01*
X43693Y118713D01*
X44684Y120429D01*
X45889Y122001D01*
X47290Y123402D01*
X48862Y124607D01*
X50578Y125598D01*
X52408Y126356D01*
X54322Y126869D01*
X56286Y127128D01*
X65787Y127128D01*
X65787Y116077D01*
X42719Y116077D01*
G37*
%LPD*%
%LPC*%
G36*
X194563Y731900D02*
X194563Y731900D01*
X194563Y742951D01*
X217631Y742951D01*
X217415Y742145D01*
X216657Y740315D01*
X215666Y738599D01*
X214461Y737027D01*
X213060Y735626D01*
X211488Y734421D01*
X209772Y733430D01*
X207942Y732672D01*
X206028Y732159D01*
X204064Y731900D01*
X194563Y731900D01*
G37*
%LPD*%
%LPC*%
G36*
X315213Y731900D02*
X315213Y731900D01*
X315213Y742951D01*
X338281Y742951D01*
X338065Y742145D01*
X337307Y740315D01*
X336316Y738599D01*
X335111Y737027D01*
X333710Y735626D01*
X332138Y734421D01*
X330422Y733430D01*
X328592Y732672D01*
X326678Y732159D01*
X324714Y731900D01*
X315213Y731900D01*
G37*
%LPD*%
%LPC*%
G36*
X435863Y731900D02*
X435863Y731900D01*
X435863Y742951D01*
X458931Y742951D01*
X458715Y742145D01*
X457957Y740315D01*
X456966Y738599D01*
X455761Y737027D01*
X454360Y735626D01*
X452788Y734421D01*
X451072Y733430D01*
X449242Y732672D01*
X447328Y732159D01*
X445364Y731900D01*
X435863Y731900D01*
G37*
%LPD*%
%LPC*%
G36*
X73913Y731900D02*
X73913Y731900D01*
X73913Y742951D01*
X96981Y742951D01*
X96765Y742145D01*
X96007Y740315D01*
X95016Y738599D01*
X93811Y737027D01*
X92410Y735626D01*
X90838Y734421D01*
X89122Y733430D01*
X87292Y732672D01*
X85378Y732159D01*
X83414Y731900D01*
X73913Y731900D01*
G37*
%LPD*%
%LPC*%
G36*
X73913Y333374D02*
X73913Y333374D01*
X73913Y344425D01*
X96981Y344425D01*
X96765Y343619D01*
X96007Y341789D01*
X95016Y340073D01*
X93811Y338501D01*
X92410Y337100D01*
X90838Y335895D01*
X89122Y334904D01*
X87292Y334146D01*
X85378Y333633D01*
X83414Y333374D01*
X73913Y333374D01*
G37*
%LPD*%
%LPC*%
G36*
X315213Y547750D02*
X315213Y547750D01*
X315213Y558801D01*
X338281Y558801D01*
X338065Y557995D01*
X337307Y556165D01*
X336316Y554449D01*
X335111Y552877D01*
X333710Y551476D01*
X332138Y550271D01*
X330422Y549280D01*
X328592Y548522D01*
X326678Y548009D01*
X324714Y547750D01*
X315213Y547750D01*
G37*
%LPD*%
%LPC*%
G36*
X73913Y547750D02*
X73913Y547750D01*
X73913Y558801D01*
X96981Y558801D01*
X96765Y557995D01*
X96007Y556165D01*
X95016Y554449D01*
X93811Y552877D01*
X92410Y551476D01*
X90838Y550271D01*
X89122Y549280D01*
X87292Y548522D01*
X85378Y548009D01*
X83414Y547750D01*
X73913Y547750D01*
G37*
%LPD*%
%LPC*%
G36*
X194563Y547750D02*
X194563Y547750D01*
X194563Y558801D01*
X217631Y558801D01*
X217415Y557995D01*
X216657Y556165D01*
X215666Y554449D01*
X214461Y552877D01*
X213060Y551476D01*
X211488Y550271D01*
X209772Y549280D01*
X207942Y548522D01*
X206028Y548009D01*
X204064Y547750D01*
X194563Y547750D01*
G37*
%LPD*%
%LPC*%
G36*
X435863Y547750D02*
X435863Y547750D01*
X435863Y558801D01*
X458931Y558801D01*
X458715Y557995D01*
X457957Y556165D01*
X456966Y554449D01*
X455761Y552877D01*
X454360Y551476D01*
X452788Y550271D01*
X451072Y549280D01*
X449242Y548522D01*
X447328Y548009D01*
X445364Y547750D01*
X435863Y547750D01*
G37*
%LPD*%
%LPC*%
G36*
X315213Y96900D02*
X315213Y96900D01*
X315213Y107951D01*
X338281Y107951D01*
X338065Y107145D01*
X337307Y105315D01*
X336316Y103599D01*
X335111Y102027D01*
X333710Y100626D01*
X332138Y99421D01*
X330422Y98430D01*
X328592Y97672D01*
X326678Y97159D01*
X324714Y96900D01*
X315213Y96900D01*
G37*
%LPD*%
%LPC*%
G36*
X435863Y96900D02*
X435863Y96900D01*
X435863Y107951D01*
X458931Y107951D01*
X458715Y107145D01*
X457957Y105315D01*
X456966Y103599D01*
X455761Y102027D01*
X454360Y100626D01*
X452788Y99421D01*
X451072Y98430D01*
X449242Y97672D01*
X447328Y97159D01*
X445364Y96900D01*
X435863Y96900D01*
G37*
%LPD*%
%LPC*%
G36*
X194563Y96900D02*
X194563Y96900D01*
X194563Y107951D01*
X217631Y107951D01*
X217415Y107145D01*
X216657Y105315D01*
X215666Y103599D01*
X214461Y102027D01*
X213060Y100626D01*
X211488Y99421D01*
X209772Y98430D01*
X207942Y97672D01*
X206028Y97159D01*
X204064Y96900D01*
X194563Y96900D01*
G37*
%LPD*%
%LPC*%
G36*
X73913Y96900D02*
X73913Y96900D01*
X73913Y107951D01*
X96981Y107951D01*
X96765Y107145D01*
X96007Y105315D01*
X95016Y103599D01*
X93811Y102027D01*
X92410Y100626D01*
X90838Y99421D01*
X89122Y98430D01*
X87292Y97672D01*
X85378Y97159D01*
X83414Y96900D01*
X73913Y96900D01*
G37*
%LPD*%
%LPC*%
G36*
X418236Y731900D02*
X418236Y731900D01*
X416272Y732159D01*
X414358Y732672D01*
X412528Y733430D01*
X410812Y734421D01*
X409240Y735626D01*
X407839Y737027D01*
X406634Y738599D01*
X405643Y740315D01*
X404885Y742145D01*
X404669Y742951D01*
X427737Y742951D01*
X427737Y731900D01*
X418236Y731900D01*
G37*
%LPD*%
%LPC*%
G36*
X176936Y731900D02*
X176936Y731900D01*
X174972Y732159D01*
X173058Y732672D01*
X171228Y733430D01*
X169512Y734421D01*
X167940Y735626D01*
X166539Y737027D01*
X165334Y738599D01*
X164343Y740315D01*
X163585Y742145D01*
X163369Y742951D01*
X186437Y742951D01*
X186437Y731900D01*
X176936Y731900D01*
G37*
%LPD*%
%LPC*%
G36*
X297586Y731900D02*
X297586Y731900D01*
X295622Y732159D01*
X293708Y732672D01*
X291878Y733430D01*
X290162Y734421D01*
X288590Y735626D01*
X287189Y737027D01*
X285984Y738599D01*
X284993Y740315D01*
X284235Y742145D01*
X284019Y742951D01*
X307087Y742951D01*
X307087Y731900D01*
X297586Y731900D01*
G37*
%LPD*%
%LPC*%
G36*
X56286Y731900D02*
X56286Y731900D01*
X54322Y732159D01*
X52408Y732672D01*
X50578Y733430D01*
X48862Y734421D01*
X47290Y735626D01*
X45889Y737027D01*
X44684Y738599D01*
X43693Y740315D01*
X42935Y742145D01*
X42719Y742951D01*
X65787Y742951D01*
X65787Y731900D01*
X56286Y731900D01*
G37*
%LPD*%
%LPC*%
G36*
X56286Y333374D02*
X56286Y333374D01*
X54322Y333633D01*
X52408Y334146D01*
X50578Y334904D01*
X48862Y335895D01*
X47290Y337100D01*
X45889Y338501D01*
X44684Y340073D01*
X43693Y341789D01*
X42935Y343619D01*
X42719Y344425D01*
X65787Y344425D01*
X65787Y333374D01*
X56286Y333374D01*
G37*
%LPD*%
%LPC*%
G36*
X56286Y96900D02*
X56286Y96900D01*
X54322Y97159D01*
X52408Y97672D01*
X50578Y98430D01*
X48862Y99421D01*
X47290Y100626D01*
X45889Y102027D01*
X44684Y103599D01*
X43693Y105315D01*
X42935Y107145D01*
X42719Y107951D01*
X65787Y107951D01*
X65787Y96900D01*
X56286Y96900D01*
G37*
%LPD*%
%LPC*%
G36*
X418236Y547750D02*
X418236Y547750D01*
X416272Y548009D01*
X414358Y548522D01*
X412528Y549280D01*
X410812Y550271D01*
X409240Y551476D01*
X407839Y552877D01*
X406634Y554449D01*
X405643Y556165D01*
X404885Y557995D01*
X404669Y558801D01*
X427737Y558801D01*
X427737Y547750D01*
X418236Y547750D01*
G37*
%LPD*%
%LPC*%
G36*
X56286Y547750D02*
X56286Y547750D01*
X54322Y548009D01*
X52408Y548522D01*
X50578Y549280D01*
X48862Y550271D01*
X47290Y551476D01*
X45889Y552877D01*
X44684Y554449D01*
X43693Y556165D01*
X42935Y557995D01*
X42719Y558801D01*
X65787Y558801D01*
X65787Y547750D01*
X56286Y547750D01*
G37*
%LPD*%
%LPC*%
G36*
X176936Y547750D02*
X176936Y547750D01*
X174972Y548009D01*
X173058Y548522D01*
X171228Y549280D01*
X169512Y550271D01*
X167940Y551476D01*
X166539Y552877D01*
X165334Y554449D01*
X164343Y556165D01*
X163585Y557995D01*
X163369Y558801D01*
X186437Y558801D01*
X186437Y547750D01*
X176936Y547750D01*
G37*
%LPD*%
%LPC*%
G36*
X297586Y547750D02*
X297586Y547750D01*
X295622Y548009D01*
X293708Y548522D01*
X291878Y549280D01*
X290162Y550271D01*
X288590Y551476D01*
X287189Y552877D01*
X285984Y554449D01*
X284993Y556165D01*
X284235Y557995D01*
X284019Y558801D01*
X307087Y558801D01*
X307087Y547750D01*
X297586Y547750D01*
G37*
%LPD*%
%LPC*%
G36*
X418236Y96900D02*
X418236Y96900D01*
X416272Y97159D01*
X414358Y97672D01*
X412528Y98430D01*
X410812Y99421D01*
X409240Y100626D01*
X407839Y102027D01*
X406634Y103599D01*
X405643Y105315D01*
X404885Y107145D01*
X404669Y107951D01*
X427737Y107951D01*
X427737Y96900D01*
X418236Y96900D01*
G37*
%LPD*%
%LPC*%
G36*
X297586Y96900D02*
X297586Y96900D01*
X295622Y97159D01*
X293708Y97672D01*
X291878Y98430D01*
X290162Y99421D01*
X288590Y100626D01*
X287189Y102027D01*
X285984Y103599D01*
X284993Y105315D01*
X284235Y107145D01*
X284019Y107951D01*
X307087Y107951D01*
X307087Y96900D01*
X297586Y96900D01*
G37*
%LPD*%
%LPC*%
G36*
X176936Y96900D02*
X176936Y96900D01*
X174972Y97159D01*
X173058Y97672D01*
X171228Y98430D01*
X169512Y99421D01*
X167940Y100626D01*
X166539Y102027D01*
X165334Y103599D01*
X164343Y105315D01*
X163585Y107145D01*
X163369Y107951D01*
X186437Y107951D01*
X186437Y96900D01*
X176936Y96900D01*
G37*
%LPD*%
%LPC*%
G36*
X193039Y294639D02*
X193039Y294639D01*
X193039Y309579D01*
X194400Y309136D01*
X195825Y308410D01*
X197119Y307470D01*
X198250Y306339D01*
X199190Y305045D01*
X199916Y303620D01*
X200411Y302099D01*
X200661Y300520D01*
X200661Y294639D01*
X193039Y294639D01*
G37*
%LPD*%
%LPC*%
G36*
X193039Y289561D02*
X193039Y289561D01*
X200661Y289561D01*
X200661Y283680D01*
X200411Y282101D01*
X199916Y280580D01*
X199190Y279155D01*
X198250Y277861D01*
X197119Y276730D01*
X195825Y275790D01*
X194400Y275064D01*
X193039Y274621D01*
X193039Y289561D01*
G37*
%LPD*%
%LPC*%
G36*
X180339Y294639D02*
X180339Y294639D01*
X180339Y300520D01*
X180589Y302099D01*
X181084Y303620D01*
X181810Y305045D01*
X182750Y306339D01*
X183881Y307470D01*
X185175Y308410D01*
X186600Y309136D01*
X187961Y309579D01*
X187961Y294639D01*
X180339Y294639D01*
G37*
%LPD*%
%LPC*%
G36*
X186600Y275064D02*
X186600Y275064D01*
X185175Y275790D01*
X183881Y276730D01*
X182750Y277861D01*
X181810Y279155D01*
X181084Y280580D01*
X180589Y282101D01*
X180339Y283680D01*
X180339Y289561D01*
X187961Y289561D01*
X187961Y274621D01*
X186600Y275064D01*
G37*
%LPD*%
%LPC*%
G36*
X190499Y562863D02*
X190499Y562863D01*
X190499Y562865D01*
X190501Y562865D01*
X190501Y562863D01*
X190499Y562863D01*
G37*
%LPD*%
%LPC*%
G36*
X431799Y112013D02*
X431799Y112013D01*
X431799Y112015D01*
X431801Y112015D01*
X431801Y112013D01*
X431799Y112013D01*
G37*
%LPD*%
%LPC*%
G36*
X311149Y562863D02*
X311149Y562863D01*
X311149Y562865D01*
X311151Y562865D01*
X311151Y562863D01*
X311149Y562863D01*
G37*
%LPD*%
%LPC*%
G36*
X190499Y112013D02*
X190499Y112013D01*
X190499Y112015D01*
X190501Y112015D01*
X190501Y112013D01*
X190499Y112013D01*
G37*
%LPD*%
%LPC*%
G36*
X69849Y112013D02*
X69849Y112013D01*
X69849Y112015D01*
X69851Y112015D01*
X69851Y112013D01*
X69849Y112013D01*
G37*
%LPD*%
%LPC*%
G36*
X431799Y562863D02*
X431799Y562863D01*
X431799Y562865D01*
X431801Y562865D01*
X431801Y562863D01*
X431799Y562863D01*
G37*
%LPD*%
%LPC*%
G36*
X431799Y747013D02*
X431799Y747013D01*
X431799Y747015D01*
X431801Y747015D01*
X431801Y747013D01*
X431799Y747013D01*
G37*
%LPD*%
%LPC*%
G36*
X69849Y562863D02*
X69849Y562863D01*
X69849Y562865D01*
X69851Y562865D01*
X69851Y562863D01*
X69849Y562863D01*
G37*
%LPD*%
%LPC*%
G36*
X69849Y348487D02*
X69849Y348487D01*
X69849Y348489D01*
X69851Y348489D01*
X69851Y348487D01*
X69849Y348487D01*
G37*
%LPD*%
%LPC*%
G36*
X311149Y747013D02*
X311149Y747013D01*
X311149Y747015D01*
X311151Y747015D01*
X311151Y747013D01*
X311149Y747013D01*
G37*
%LPD*%
%LPC*%
G36*
X190499Y747013D02*
X190499Y747013D01*
X190499Y747015D01*
X190501Y747015D01*
X190501Y747013D01*
X190499Y747013D01*
G37*
%LPD*%
%LPC*%
G36*
X69849Y747013D02*
X69849Y747013D01*
X69849Y747015D01*
X69851Y747015D01*
X69851Y747013D01*
X69849Y747013D01*
G37*
%LPD*%
%LPC*%
G36*
X311149Y112013D02*
X311149Y112013D01*
X311149Y112015D01*
X311151Y112015D01*
X311151Y112013D01*
X311149Y112013D01*
G37*
%LPD*%
D10*
X0Y0D02*
X0Y-70300D01*
X508000Y-70300D02*
X508000Y0D01*
X507350Y-50800D02*
X650Y-50800D01*
X26000Y-47608D01*
X26000Y-53992D01*
X650Y-50800D01*
X26000Y-49500D01*
X26000Y-52100D02*
X650Y-50800D01*
X26000Y-48200D01*
X26000Y-53400D02*
X650Y-50800D01*
X482000Y-47608D02*
X507350Y-50800D01*
X482000Y-47608D02*
X482000Y-53992D01*
X507350Y-50800D01*
X482000Y-49500D01*
X482000Y-52100D02*
X507350Y-50800D01*
X482000Y-48200D01*
X482000Y-53400D02*
X507350Y-50800D01*
D11*
X228271Y-44293D02*
X222852Y-44293D01*
X228271Y-44293D02*
X228389Y-44291D01*
X228507Y-44285D01*
X228625Y-44276D01*
X228742Y-44262D01*
X228859Y-44245D01*
X228976Y-44224D01*
X229091Y-44199D01*
X229206Y-44170D01*
X229320Y-44137D01*
X229432Y-44101D01*
X229543Y-44061D01*
X229653Y-44018D01*
X229762Y-43971D01*
X229869Y-43921D01*
X229974Y-43866D01*
X230077Y-43809D01*
X230178Y-43748D01*
X230278Y-43684D01*
X230375Y-43617D01*
X230470Y-43547D01*
X230562Y-43473D01*
X230653Y-43397D01*
X230740Y-43317D01*
X230825Y-43235D01*
X230907Y-43150D01*
X230987Y-43063D01*
X231063Y-42972D01*
X231137Y-42880D01*
X231207Y-42785D01*
X231274Y-42688D01*
X231338Y-42588D01*
X231399Y-42487D01*
X231456Y-42384D01*
X231511Y-42279D01*
X231561Y-42172D01*
X231608Y-42063D01*
X231651Y-41953D01*
X231691Y-41842D01*
X231727Y-41730D01*
X231760Y-41616D01*
X231789Y-41501D01*
X231814Y-41386D01*
X231835Y-41269D01*
X231852Y-41152D01*
X231866Y-41035D01*
X231875Y-40917D01*
X231881Y-40799D01*
X231883Y-40681D01*
X231883Y-38874D01*
X231881Y-38756D01*
X231875Y-38638D01*
X231866Y-38520D01*
X231852Y-38403D01*
X231835Y-38286D01*
X231814Y-38169D01*
X231789Y-38054D01*
X231760Y-37939D01*
X231727Y-37825D01*
X231691Y-37713D01*
X231651Y-37602D01*
X231608Y-37492D01*
X231561Y-37383D01*
X231511Y-37276D01*
X231456Y-37171D01*
X231399Y-37068D01*
X231338Y-36967D01*
X231274Y-36867D01*
X231207Y-36770D01*
X231137Y-36675D01*
X231063Y-36583D01*
X230987Y-36492D01*
X230907Y-36405D01*
X230825Y-36320D01*
X230740Y-36238D01*
X230653Y-36158D01*
X230562Y-36082D01*
X230470Y-36008D01*
X230375Y-35938D01*
X230278Y-35871D01*
X230178Y-35807D01*
X230077Y-35746D01*
X229974Y-35689D01*
X229869Y-35634D01*
X229762Y-35584D01*
X229653Y-35537D01*
X229543Y-35494D01*
X229432Y-35454D01*
X229320Y-35418D01*
X229206Y-35385D01*
X229091Y-35356D01*
X228976Y-35331D01*
X228859Y-35310D01*
X228742Y-35293D01*
X228625Y-35279D01*
X228507Y-35270D01*
X228389Y-35264D01*
X228271Y-35262D01*
X222852Y-35262D01*
X222852Y-28037D01*
X231883Y-28037D01*
X239839Y-30295D02*
X239702Y-30584D01*
X239572Y-30876D01*
X239449Y-31172D01*
X239334Y-31470D01*
X239225Y-31771D01*
X239124Y-32074D01*
X239030Y-32380D01*
X238943Y-32687D01*
X238864Y-32997D01*
X238792Y-33309D01*
X238728Y-33622D01*
X238671Y-33937D01*
X238621Y-34253D01*
X238579Y-34570D01*
X238545Y-34888D01*
X238518Y-35206D01*
X238499Y-35526D01*
X238488Y-35845D01*
X238484Y-36165D01*
X239839Y-30294D02*
X239878Y-30186D01*
X239921Y-30079D01*
X239967Y-29974D01*
X240017Y-29871D01*
X240071Y-29769D01*
X240128Y-29669D01*
X240189Y-29571D01*
X240253Y-29475D01*
X240320Y-29382D01*
X240390Y-29291D01*
X240464Y-29202D01*
X240540Y-29116D01*
X240620Y-29033D01*
X240702Y-28952D01*
X240787Y-28874D01*
X240874Y-28800D01*
X240965Y-28728D01*
X241057Y-28659D01*
X241152Y-28594D01*
X241249Y-28532D01*
X241348Y-28473D01*
X241449Y-28418D01*
X241552Y-28367D01*
X241657Y-28319D01*
X241763Y-28274D01*
X241870Y-28233D01*
X241979Y-28196D01*
X242090Y-28163D01*
X242201Y-28134D01*
X242313Y-28108D01*
X242426Y-28086D01*
X242540Y-28069D01*
X242654Y-28055D01*
X242769Y-28045D01*
X242884Y-28039D01*
X242999Y-28037D01*
X243114Y-28039D01*
X243229Y-28045D01*
X243344Y-28055D01*
X243458Y-28069D01*
X243572Y-28086D01*
X243685Y-28108D01*
X243797Y-28134D01*
X243909Y-28163D01*
X244019Y-28196D01*
X244128Y-28233D01*
X244236Y-28274D01*
X244342Y-28319D01*
X244447Y-28367D01*
X244549Y-28418D01*
X244651Y-28474D01*
X244750Y-28532D01*
X244847Y-28594D01*
X244942Y-28660D01*
X245034Y-28728D01*
X245124Y-28800D01*
X245212Y-28874D01*
X245297Y-28952D01*
X245379Y-29033D01*
X245458Y-29116D01*
X245535Y-29202D01*
X245608Y-29291D01*
X245679Y-29382D01*
X245746Y-29476D01*
X245810Y-29571D01*
X245871Y-29669D01*
X245928Y-29769D01*
X245981Y-29871D01*
X246032Y-29975D01*
X246078Y-30080D01*
X246121Y-30187D01*
X246160Y-30295D01*
X246159Y-30295D02*
X246296Y-30584D01*
X246426Y-30876D01*
X246549Y-31172D01*
X246664Y-31470D01*
X246773Y-31771D01*
X246874Y-32074D01*
X246968Y-32380D01*
X247055Y-32687D01*
X247134Y-32997D01*
X247206Y-33309D01*
X247270Y-33622D01*
X247327Y-33937D01*
X247377Y-34253D01*
X247419Y-34570D01*
X247453Y-34888D01*
X247480Y-35206D01*
X247499Y-35526D01*
X247510Y-35845D01*
X247514Y-36165D01*
X238484Y-36165D02*
X238488Y-36485D01*
X238499Y-36804D01*
X238518Y-37124D01*
X238545Y-37442D01*
X238579Y-37760D01*
X238621Y-38077D01*
X238671Y-38393D01*
X238728Y-38708D01*
X238792Y-39021D01*
X238864Y-39333D01*
X238943Y-39643D01*
X239030Y-39950D01*
X239124Y-40256D01*
X239225Y-40559D01*
X239334Y-40860D01*
X239449Y-41158D01*
X239572Y-41454D01*
X239702Y-41746D01*
X239839Y-42035D01*
X239838Y-42036D02*
X239877Y-42144D01*
X239920Y-42251D01*
X239966Y-42356D01*
X240017Y-42460D01*
X240070Y-42562D01*
X240127Y-42662D01*
X240188Y-42760D01*
X240252Y-42855D01*
X240319Y-42949D01*
X240390Y-43040D01*
X240463Y-43129D01*
X240540Y-43215D01*
X240619Y-43298D01*
X240701Y-43379D01*
X240786Y-43457D01*
X240874Y-43531D01*
X240964Y-43603D01*
X241057Y-43672D01*
X241151Y-43737D01*
X241248Y-43799D01*
X241348Y-43857D01*
X241449Y-43913D01*
X241551Y-43964D01*
X241656Y-44012D01*
X241762Y-44057D01*
X241870Y-44098D01*
X241979Y-44135D01*
X242089Y-44168D01*
X242201Y-44197D01*
X242313Y-44223D01*
X242426Y-44245D01*
X242540Y-44262D01*
X242654Y-44276D01*
X242769Y-44286D01*
X242884Y-44292D01*
X242999Y-44294D01*
X246159Y-42035D02*
X246296Y-41746D01*
X246426Y-41454D01*
X246549Y-41158D01*
X246664Y-40860D01*
X246773Y-40559D01*
X246874Y-40256D01*
X246968Y-39950D01*
X247055Y-39643D01*
X247134Y-39333D01*
X247206Y-39021D01*
X247270Y-38708D01*
X247327Y-38393D01*
X247377Y-38077D01*
X247419Y-37760D01*
X247453Y-37442D01*
X247480Y-37124D01*
X247499Y-36804D01*
X247510Y-36485D01*
X247514Y-36165D01*
X246160Y-42035D02*
X246121Y-42143D01*
X246078Y-42250D01*
X246032Y-42355D01*
X245981Y-42459D01*
X245928Y-42561D01*
X245871Y-42661D01*
X245810Y-42759D01*
X245746Y-42854D01*
X245679Y-42948D01*
X245608Y-43039D01*
X245535Y-43128D01*
X245458Y-43214D01*
X245379Y-43297D01*
X245297Y-43378D01*
X245212Y-43456D01*
X245124Y-43530D01*
X245034Y-43602D01*
X244941Y-43671D01*
X244847Y-43736D01*
X244750Y-43798D01*
X244650Y-43856D01*
X244549Y-43912D01*
X244446Y-43963D01*
X244342Y-44011D01*
X244236Y-44056D01*
X244128Y-44097D01*
X244019Y-44134D01*
X243909Y-44167D01*
X243797Y-44196D01*
X243685Y-44222D01*
X243572Y-44244D01*
X243458Y-44261D01*
X243344Y-44275D01*
X243229Y-44285D01*
X243114Y-44291D01*
X242999Y-44293D01*
X239386Y-40681D02*
X246611Y-31649D01*
X253489Y-43390D02*
X253489Y-44293D01*
X253489Y-43390D02*
X254392Y-43390D01*
X254392Y-44293D01*
X253489Y-44293D01*
X260366Y-39777D02*
X260368Y-39644D01*
X260374Y-39512D01*
X260384Y-39380D01*
X260397Y-39248D01*
X260415Y-39116D01*
X260436Y-38986D01*
X260461Y-38855D01*
X260490Y-38726D01*
X260523Y-38598D01*
X260559Y-38470D01*
X260599Y-38344D01*
X260643Y-38219D01*
X260691Y-38095D01*
X260742Y-37973D01*
X260797Y-37852D01*
X260855Y-37733D01*
X260917Y-37615D01*
X260982Y-37500D01*
X261051Y-37386D01*
X261122Y-37275D01*
X261198Y-37166D01*
X261276Y-37059D01*
X261357Y-36954D01*
X261442Y-36852D01*
X261529Y-36752D01*
X261619Y-36655D01*
X261712Y-36560D01*
X261808Y-36469D01*
X261906Y-36380D01*
X262007Y-36294D01*
X262111Y-36211D01*
X262217Y-36131D01*
X262325Y-36055D01*
X262435Y-35981D01*
X262548Y-35911D01*
X262662Y-35844D01*
X262779Y-35781D01*
X262897Y-35721D01*
X263017Y-35664D01*
X263139Y-35611D01*
X263262Y-35562D01*
X263386Y-35516D01*
X263512Y-35474D01*
X263639Y-35436D01*
X263767Y-35401D01*
X263896Y-35370D01*
X264025Y-35343D01*
X264156Y-35320D01*
X264287Y-35300D01*
X264419Y-35285D01*
X264551Y-35273D01*
X264683Y-35265D01*
X264816Y-35261D01*
X264948Y-35261D01*
X265081Y-35265D01*
X265213Y-35273D01*
X265345Y-35285D01*
X265477Y-35300D01*
X265608Y-35320D01*
X265739Y-35343D01*
X265868Y-35370D01*
X265997Y-35401D01*
X266125Y-35436D01*
X266252Y-35474D01*
X266378Y-35516D01*
X266502Y-35562D01*
X266625Y-35611D01*
X266747Y-35664D01*
X266867Y-35721D01*
X266985Y-35781D01*
X267102Y-35844D01*
X267216Y-35911D01*
X267329Y-35981D01*
X267439Y-36055D01*
X267547Y-36131D01*
X267653Y-36211D01*
X267757Y-36294D01*
X267858Y-36380D01*
X267956Y-36469D01*
X268052Y-36560D01*
X268145Y-36655D01*
X268235Y-36752D01*
X268322Y-36852D01*
X268407Y-36954D01*
X268488Y-37059D01*
X268566Y-37166D01*
X268642Y-37275D01*
X268713Y-37386D01*
X268782Y-37500D01*
X268847Y-37615D01*
X268909Y-37733D01*
X268967Y-37852D01*
X269022Y-37973D01*
X269073Y-38095D01*
X269121Y-38219D01*
X269165Y-38344D01*
X269205Y-38470D01*
X269241Y-38598D01*
X269274Y-38726D01*
X269303Y-38855D01*
X269328Y-38986D01*
X269349Y-39116D01*
X269367Y-39248D01*
X269380Y-39380D01*
X269390Y-39512D01*
X269396Y-39644D01*
X269398Y-39777D01*
X269396Y-39910D01*
X269390Y-40042D01*
X269380Y-40174D01*
X269367Y-40306D01*
X269349Y-40438D01*
X269328Y-40568D01*
X269303Y-40699D01*
X269274Y-40828D01*
X269241Y-40956D01*
X269205Y-41084D01*
X269165Y-41210D01*
X269121Y-41335D01*
X269073Y-41459D01*
X269022Y-41581D01*
X268967Y-41702D01*
X268909Y-41821D01*
X268847Y-41939D01*
X268782Y-42054D01*
X268713Y-42168D01*
X268642Y-42279D01*
X268566Y-42388D01*
X268488Y-42495D01*
X268407Y-42600D01*
X268322Y-42702D01*
X268235Y-42802D01*
X268145Y-42899D01*
X268052Y-42994D01*
X267956Y-43085D01*
X267858Y-43174D01*
X267757Y-43260D01*
X267653Y-43343D01*
X267547Y-43423D01*
X267439Y-43499D01*
X267329Y-43573D01*
X267216Y-43643D01*
X267102Y-43710D01*
X266985Y-43773D01*
X266867Y-43833D01*
X266747Y-43890D01*
X266625Y-43943D01*
X266502Y-43992D01*
X266378Y-44038D01*
X266252Y-44080D01*
X266125Y-44118D01*
X265997Y-44153D01*
X265868Y-44184D01*
X265739Y-44211D01*
X265608Y-44234D01*
X265477Y-44254D01*
X265345Y-44269D01*
X265213Y-44281D01*
X265081Y-44289D01*
X264948Y-44293D01*
X264816Y-44293D01*
X264683Y-44289D01*
X264551Y-44281D01*
X264419Y-44269D01*
X264287Y-44254D01*
X264156Y-44234D01*
X264025Y-44211D01*
X263896Y-44184D01*
X263767Y-44153D01*
X263639Y-44118D01*
X263512Y-44080D01*
X263386Y-44038D01*
X263262Y-43992D01*
X263139Y-43943D01*
X263017Y-43890D01*
X262897Y-43833D01*
X262779Y-43773D01*
X262662Y-43710D01*
X262548Y-43643D01*
X262435Y-43573D01*
X262325Y-43499D01*
X262217Y-43423D01*
X262111Y-43343D01*
X262007Y-43260D01*
X261906Y-43174D01*
X261808Y-43085D01*
X261712Y-42994D01*
X261619Y-42899D01*
X261529Y-42802D01*
X261442Y-42702D01*
X261357Y-42600D01*
X261276Y-42495D01*
X261198Y-42388D01*
X261122Y-42279D01*
X261051Y-42168D01*
X260982Y-42054D01*
X260917Y-41939D01*
X260855Y-41821D01*
X260797Y-41702D01*
X260742Y-41581D01*
X260691Y-41459D01*
X260643Y-41335D01*
X260599Y-41210D01*
X260559Y-41084D01*
X260523Y-40956D01*
X260490Y-40828D01*
X260461Y-40699D01*
X260436Y-40568D01*
X260415Y-40438D01*
X260397Y-40306D01*
X260384Y-40174D01*
X260374Y-40042D01*
X260368Y-39910D01*
X260366Y-39777D01*
X261270Y-31649D02*
X261272Y-31530D01*
X261278Y-31410D01*
X261288Y-31291D01*
X261302Y-31173D01*
X261319Y-31054D01*
X261341Y-30937D01*
X261366Y-30820D01*
X261396Y-30705D01*
X261429Y-30590D01*
X261466Y-30476D01*
X261506Y-30364D01*
X261551Y-30253D01*
X261599Y-30144D01*
X261650Y-30036D01*
X261705Y-29930D01*
X261764Y-29826D01*
X261826Y-29724D01*
X261891Y-29624D01*
X261960Y-29526D01*
X262032Y-29430D01*
X262107Y-29337D01*
X262184Y-29247D01*
X262265Y-29159D01*
X262349Y-29074D01*
X262436Y-28992D01*
X262525Y-28912D01*
X262617Y-28836D01*
X262711Y-28762D01*
X262808Y-28692D01*
X262906Y-28625D01*
X263007Y-28561D01*
X263111Y-28501D01*
X263216Y-28444D01*
X263323Y-28391D01*
X263431Y-28341D01*
X263541Y-28295D01*
X263653Y-28253D01*
X263766Y-28214D01*
X263880Y-28179D01*
X263995Y-28148D01*
X264112Y-28120D01*
X264229Y-28097D01*
X264346Y-28077D01*
X264465Y-28061D01*
X264584Y-28049D01*
X264703Y-28041D01*
X264822Y-28037D01*
X264942Y-28037D01*
X265061Y-28041D01*
X265180Y-28049D01*
X265299Y-28061D01*
X265418Y-28077D01*
X265535Y-28097D01*
X265652Y-28120D01*
X265769Y-28148D01*
X265884Y-28179D01*
X265998Y-28214D01*
X266111Y-28253D01*
X266223Y-28295D01*
X266333Y-28341D01*
X266441Y-28391D01*
X266548Y-28444D01*
X266653Y-28501D01*
X266757Y-28561D01*
X266858Y-28625D01*
X266956Y-28692D01*
X267053Y-28762D01*
X267147Y-28836D01*
X267239Y-28912D01*
X267328Y-28992D01*
X267415Y-29074D01*
X267499Y-29159D01*
X267580Y-29247D01*
X267657Y-29337D01*
X267732Y-29430D01*
X267804Y-29526D01*
X267873Y-29624D01*
X267938Y-29724D01*
X268000Y-29826D01*
X268059Y-29930D01*
X268114Y-30036D01*
X268165Y-30144D01*
X268213Y-30253D01*
X268258Y-30364D01*
X268298Y-30476D01*
X268335Y-30590D01*
X268368Y-30705D01*
X268398Y-30820D01*
X268423Y-30937D01*
X268445Y-31054D01*
X268462Y-31173D01*
X268476Y-31291D01*
X268486Y-31410D01*
X268492Y-31530D01*
X268494Y-31649D01*
X268492Y-31768D01*
X268486Y-31888D01*
X268476Y-32007D01*
X268462Y-32125D01*
X268445Y-32244D01*
X268423Y-32361D01*
X268398Y-32478D01*
X268368Y-32593D01*
X268335Y-32708D01*
X268298Y-32822D01*
X268258Y-32934D01*
X268213Y-33045D01*
X268165Y-33154D01*
X268114Y-33262D01*
X268059Y-33368D01*
X268000Y-33472D01*
X267938Y-33574D01*
X267873Y-33674D01*
X267804Y-33772D01*
X267732Y-33868D01*
X267657Y-33961D01*
X267580Y-34051D01*
X267499Y-34139D01*
X267415Y-34224D01*
X267328Y-34306D01*
X267239Y-34386D01*
X267147Y-34462D01*
X267053Y-34536D01*
X266956Y-34606D01*
X266858Y-34673D01*
X266757Y-34737D01*
X266653Y-34797D01*
X266548Y-34854D01*
X266441Y-34907D01*
X266333Y-34957D01*
X266223Y-35003D01*
X266111Y-35045D01*
X265998Y-35084D01*
X265884Y-35119D01*
X265769Y-35150D01*
X265652Y-35178D01*
X265535Y-35201D01*
X265418Y-35221D01*
X265299Y-35237D01*
X265180Y-35249D01*
X265061Y-35257D01*
X264942Y-35261D01*
X264822Y-35261D01*
X264703Y-35257D01*
X264584Y-35249D01*
X264465Y-35237D01*
X264346Y-35221D01*
X264229Y-35201D01*
X264112Y-35178D01*
X263995Y-35150D01*
X263880Y-35119D01*
X263766Y-35084D01*
X263653Y-35045D01*
X263541Y-35003D01*
X263431Y-34957D01*
X263323Y-34907D01*
X263216Y-34854D01*
X263111Y-34797D01*
X263007Y-34737D01*
X262906Y-34673D01*
X262808Y-34606D01*
X262711Y-34536D01*
X262617Y-34462D01*
X262525Y-34386D01*
X262436Y-34306D01*
X262349Y-34224D01*
X262265Y-34139D01*
X262184Y-34051D01*
X262107Y-33961D01*
X262032Y-33868D01*
X261960Y-33772D01*
X261891Y-33674D01*
X261826Y-33574D01*
X261764Y-33472D01*
X261705Y-33368D01*
X261650Y-33262D01*
X261599Y-33154D01*
X261551Y-33045D01*
X261506Y-32934D01*
X261466Y-32822D01*
X261429Y-32708D01*
X261396Y-32593D01*
X261366Y-32478D01*
X261341Y-32361D01*
X261319Y-32244D01*
X261302Y-32125D01*
X261288Y-32007D01*
X261278Y-31888D01*
X261272Y-31768D01*
X261270Y-31649D01*
X275998Y-36165D02*
X276002Y-35845D01*
X276013Y-35526D01*
X276032Y-35206D01*
X276059Y-34888D01*
X276093Y-34570D01*
X276135Y-34253D01*
X276185Y-33937D01*
X276242Y-33622D01*
X276306Y-33309D01*
X276378Y-32997D01*
X276457Y-32687D01*
X276544Y-32380D01*
X276638Y-32074D01*
X276739Y-31771D01*
X276848Y-31470D01*
X276963Y-31172D01*
X277086Y-30876D01*
X277216Y-30584D01*
X277353Y-30295D01*
X277354Y-30294D02*
X277393Y-30186D01*
X277436Y-30079D01*
X277482Y-29974D01*
X277532Y-29871D01*
X277586Y-29769D01*
X277643Y-29669D01*
X277704Y-29571D01*
X277768Y-29475D01*
X277835Y-29382D01*
X277905Y-29291D01*
X277979Y-29202D01*
X278055Y-29116D01*
X278135Y-29033D01*
X278217Y-28952D01*
X278302Y-28874D01*
X278389Y-28800D01*
X278480Y-28728D01*
X278572Y-28659D01*
X278667Y-28594D01*
X278764Y-28532D01*
X278863Y-28473D01*
X278964Y-28418D01*
X279067Y-28367D01*
X279172Y-28319D01*
X279278Y-28274D01*
X279385Y-28233D01*
X279494Y-28196D01*
X279605Y-28163D01*
X279716Y-28134D01*
X279828Y-28108D01*
X279941Y-28086D01*
X280055Y-28069D01*
X280169Y-28055D01*
X280284Y-28045D01*
X280399Y-28039D01*
X280514Y-28037D01*
X280629Y-28039D01*
X280744Y-28045D01*
X280859Y-28055D01*
X280973Y-28069D01*
X281087Y-28086D01*
X281200Y-28108D01*
X281312Y-28134D01*
X281424Y-28163D01*
X281534Y-28196D01*
X281643Y-28233D01*
X281751Y-28274D01*
X281857Y-28319D01*
X281962Y-28367D01*
X282064Y-28418D01*
X282166Y-28474D01*
X282265Y-28532D01*
X282362Y-28594D01*
X282457Y-28660D01*
X282549Y-28728D01*
X282639Y-28800D01*
X282727Y-28874D01*
X282812Y-28952D01*
X282894Y-29033D01*
X282973Y-29116D01*
X283050Y-29202D01*
X283123Y-29291D01*
X283194Y-29382D01*
X283261Y-29476D01*
X283325Y-29571D01*
X283386Y-29669D01*
X283443Y-29769D01*
X283496Y-29871D01*
X283547Y-29975D01*
X283593Y-30080D01*
X283636Y-30187D01*
X283675Y-30295D01*
X283674Y-30295D02*
X283811Y-30584D01*
X283941Y-30876D01*
X284064Y-31172D01*
X284179Y-31470D01*
X284288Y-31771D01*
X284389Y-32074D01*
X284483Y-32380D01*
X284570Y-32687D01*
X284649Y-32997D01*
X284721Y-33309D01*
X284785Y-33622D01*
X284842Y-33937D01*
X284892Y-34253D01*
X284934Y-34570D01*
X284968Y-34888D01*
X284995Y-35206D01*
X285014Y-35526D01*
X285025Y-35845D01*
X285029Y-36165D01*
X275998Y-36165D02*
X276002Y-36485D01*
X276013Y-36804D01*
X276032Y-37124D01*
X276059Y-37442D01*
X276093Y-37760D01*
X276135Y-38077D01*
X276185Y-38393D01*
X276242Y-38708D01*
X276306Y-39021D01*
X276378Y-39333D01*
X276457Y-39643D01*
X276544Y-39950D01*
X276638Y-40256D01*
X276739Y-40559D01*
X276848Y-40860D01*
X276963Y-41158D01*
X277086Y-41454D01*
X277216Y-41746D01*
X277353Y-42035D01*
X277353Y-42036D02*
X277392Y-42144D01*
X277435Y-42251D01*
X277481Y-42356D01*
X277532Y-42460D01*
X277585Y-42562D01*
X277642Y-42662D01*
X277703Y-42760D01*
X277767Y-42855D01*
X277834Y-42949D01*
X277905Y-43040D01*
X277978Y-43129D01*
X278055Y-43215D01*
X278134Y-43298D01*
X278216Y-43379D01*
X278301Y-43457D01*
X278389Y-43531D01*
X278479Y-43603D01*
X278572Y-43672D01*
X278666Y-43737D01*
X278763Y-43799D01*
X278863Y-43857D01*
X278964Y-43913D01*
X279066Y-43964D01*
X279171Y-44012D01*
X279277Y-44057D01*
X279385Y-44098D01*
X279494Y-44135D01*
X279604Y-44168D01*
X279716Y-44197D01*
X279828Y-44223D01*
X279941Y-44245D01*
X280055Y-44262D01*
X280169Y-44276D01*
X280284Y-44286D01*
X280399Y-44292D01*
X280514Y-44294D01*
X283674Y-42035D02*
X283811Y-41746D01*
X283941Y-41454D01*
X284064Y-41158D01*
X284179Y-40860D01*
X284288Y-40559D01*
X284389Y-40256D01*
X284483Y-39950D01*
X284570Y-39643D01*
X284649Y-39333D01*
X284721Y-39021D01*
X284785Y-38708D01*
X284842Y-38393D01*
X284892Y-38077D01*
X284934Y-37760D01*
X284968Y-37442D01*
X284995Y-37124D01*
X285014Y-36804D01*
X285025Y-36485D01*
X285029Y-36165D01*
X283675Y-42035D02*
X283636Y-42143D01*
X283593Y-42250D01*
X283547Y-42355D01*
X283496Y-42459D01*
X283443Y-42561D01*
X283386Y-42661D01*
X283325Y-42759D01*
X283261Y-42854D01*
X283194Y-42948D01*
X283123Y-43039D01*
X283050Y-43128D01*
X282973Y-43214D01*
X282894Y-43297D01*
X282812Y-43378D01*
X282727Y-43456D01*
X282639Y-43530D01*
X282549Y-43602D01*
X282456Y-43671D01*
X282362Y-43736D01*
X282265Y-43798D01*
X282165Y-43856D01*
X282064Y-43912D01*
X281961Y-43963D01*
X281857Y-44011D01*
X281751Y-44056D01*
X281643Y-44097D01*
X281534Y-44134D01*
X281424Y-44167D01*
X281312Y-44196D01*
X281200Y-44222D01*
X281087Y-44244D01*
X280973Y-44261D01*
X280859Y-44275D01*
X280744Y-44285D01*
X280629Y-44291D01*
X280514Y-44293D01*
X276901Y-40681D02*
X284126Y-31649D01*
D10*
X508000Y0D02*
X584845Y16D01*
X584645Y974616D02*
X507800Y974600D01*
X565146Y973962D02*
X565345Y662D01*
X568533Y26012D01*
X562148Y26011D01*
X565345Y662D01*
X566640Y26012D01*
X564040Y26012D02*
X565345Y662D01*
X567940Y26012D01*
X562740Y26011D02*
X565345Y662D01*
X568343Y948612D02*
X565146Y973962D01*
X568343Y948612D02*
X561958Y948611D01*
X565146Y973962D01*
X566451Y948612D01*
X563851Y948612D02*
X565146Y973962D01*
X567751Y948612D01*
X562551Y948611D02*
X565146Y973962D01*
D11*
X580777Y465315D02*
X580777Y459896D01*
X580775Y459778D01*
X580769Y459660D01*
X580760Y459542D01*
X580746Y459425D01*
X580729Y459308D01*
X580708Y459191D01*
X580683Y459076D01*
X580654Y458961D01*
X580621Y458847D01*
X580585Y458735D01*
X580545Y458624D01*
X580502Y458514D01*
X580455Y458405D01*
X580405Y458298D01*
X580350Y458193D01*
X580293Y458090D01*
X580232Y457989D01*
X580168Y457889D01*
X580101Y457792D01*
X580031Y457697D01*
X579957Y457605D01*
X579881Y457514D01*
X579801Y457427D01*
X579719Y457342D01*
X579634Y457260D01*
X579547Y457180D01*
X579456Y457104D01*
X579364Y457030D01*
X579269Y456960D01*
X579172Y456893D01*
X579072Y456829D01*
X578971Y456768D01*
X578868Y456711D01*
X578763Y456656D01*
X578656Y456606D01*
X578547Y456559D01*
X578437Y456516D01*
X578326Y456476D01*
X578214Y456440D01*
X578100Y456407D01*
X577985Y456378D01*
X577870Y456353D01*
X577753Y456332D01*
X577636Y456315D01*
X577519Y456301D01*
X577401Y456292D01*
X577283Y456286D01*
X577165Y456284D01*
X576261Y456284D01*
X576261Y456283D02*
X576128Y456285D01*
X575996Y456291D01*
X575864Y456301D01*
X575732Y456314D01*
X575600Y456332D01*
X575470Y456353D01*
X575339Y456378D01*
X575210Y456407D01*
X575082Y456440D01*
X574954Y456476D01*
X574828Y456516D01*
X574703Y456560D01*
X574579Y456608D01*
X574457Y456659D01*
X574336Y456714D01*
X574217Y456772D01*
X574099Y456834D01*
X573984Y456899D01*
X573870Y456968D01*
X573759Y457039D01*
X573650Y457115D01*
X573543Y457193D01*
X573438Y457274D01*
X573336Y457359D01*
X573236Y457446D01*
X573139Y457536D01*
X573044Y457629D01*
X572953Y457725D01*
X572864Y457823D01*
X572778Y457924D01*
X572695Y458028D01*
X572615Y458134D01*
X572539Y458242D01*
X572465Y458352D01*
X572395Y458465D01*
X572328Y458579D01*
X572265Y458696D01*
X572205Y458814D01*
X572148Y458934D01*
X572095Y459056D01*
X572046Y459179D01*
X572000Y459303D01*
X571958Y459429D01*
X571920Y459556D01*
X571885Y459684D01*
X571854Y459813D01*
X571827Y459942D01*
X571804Y460073D01*
X571784Y460204D01*
X571769Y460336D01*
X571757Y460468D01*
X571749Y460600D01*
X571745Y460733D01*
X571745Y460865D01*
X571749Y460998D01*
X571757Y461130D01*
X571769Y461262D01*
X571784Y461394D01*
X571804Y461525D01*
X571827Y461656D01*
X571854Y461785D01*
X571885Y461914D01*
X571920Y462042D01*
X571958Y462169D01*
X572000Y462295D01*
X572046Y462419D01*
X572095Y462542D01*
X572148Y462664D01*
X572205Y462784D01*
X572265Y462902D01*
X572328Y463019D01*
X572395Y463133D01*
X572465Y463246D01*
X572539Y463356D01*
X572615Y463464D01*
X572695Y463570D01*
X572778Y463674D01*
X572864Y463775D01*
X572953Y463873D01*
X573044Y463969D01*
X573139Y464062D01*
X573236Y464152D01*
X573336Y464239D01*
X573438Y464324D01*
X573543Y464405D01*
X573650Y464483D01*
X573759Y464559D01*
X573870Y464630D01*
X573984Y464699D01*
X574099Y464764D01*
X574217Y464826D01*
X574336Y464884D01*
X574457Y464939D01*
X574579Y464990D01*
X574703Y465038D01*
X574828Y465082D01*
X574954Y465122D01*
X575082Y465158D01*
X575210Y465191D01*
X575339Y465220D01*
X575470Y465245D01*
X575600Y465266D01*
X575732Y465284D01*
X575864Y465297D01*
X575996Y465307D01*
X576128Y465313D01*
X576261Y465315D01*
X580777Y465315D01*
X580952Y465313D01*
X581126Y465307D01*
X581300Y465296D01*
X581474Y465281D01*
X581648Y465262D01*
X581821Y465239D01*
X581993Y465212D01*
X582165Y465180D01*
X582336Y465145D01*
X582506Y465105D01*
X582675Y465061D01*
X582843Y465013D01*
X583010Y464961D01*
X583175Y464905D01*
X583339Y464845D01*
X583502Y464782D01*
X583662Y464714D01*
X583822Y464642D01*
X583979Y464567D01*
X584135Y464487D01*
X584288Y464404D01*
X584440Y464318D01*
X584589Y464227D01*
X584736Y464133D01*
X584881Y464036D01*
X585024Y463935D01*
X585164Y463831D01*
X585301Y463723D01*
X585436Y463612D01*
X585568Y463498D01*
X585697Y463381D01*
X585824Y463260D01*
X585947Y463137D01*
X586068Y463010D01*
X586185Y462881D01*
X586299Y462749D01*
X586410Y462614D01*
X586518Y462477D01*
X586622Y462337D01*
X586723Y462194D01*
X586820Y462049D01*
X586914Y461902D01*
X587005Y461753D01*
X587091Y461601D01*
X587174Y461448D01*
X587254Y461292D01*
X587329Y461135D01*
X587401Y460975D01*
X587469Y460815D01*
X587532Y460652D01*
X587592Y460488D01*
X587648Y460323D01*
X587700Y460156D01*
X587748Y459988D01*
X587792Y459819D01*
X587832Y459649D01*
X587867Y459478D01*
X587899Y459306D01*
X587926Y459134D01*
X587949Y458961D01*
X587968Y458787D01*
X587983Y458613D01*
X587994Y458439D01*
X588000Y458265D01*
X588002Y458090D01*
X573552Y471915D02*
X571746Y471915D01*
X571746Y480946D01*
X588002Y476430D01*
X588002Y486921D02*
X587099Y486921D01*
X587099Y487824D01*
X588002Y487824D01*
X588002Y486921D01*
X584389Y493799D02*
X571746Y497411D01*
X584389Y493799D02*
X584389Y502830D01*
X580777Y500120D02*
X588002Y500120D01*
X578971Y509430D02*
X578971Y514849D01*
X578973Y514967D01*
X578979Y515085D01*
X578988Y515203D01*
X579002Y515320D01*
X579019Y515437D01*
X579040Y515554D01*
X579065Y515669D01*
X579094Y515784D01*
X579127Y515898D01*
X579163Y516010D01*
X579203Y516121D01*
X579246Y516231D01*
X579293Y516340D01*
X579343Y516447D01*
X579398Y516552D01*
X579455Y516655D01*
X579516Y516756D01*
X579580Y516856D01*
X579647Y516953D01*
X579717Y517048D01*
X579791Y517140D01*
X579867Y517231D01*
X579947Y517318D01*
X580029Y517403D01*
X580114Y517485D01*
X580201Y517565D01*
X580292Y517641D01*
X580384Y517715D01*
X580479Y517785D01*
X580576Y517852D01*
X580676Y517916D01*
X580777Y517977D01*
X580880Y518034D01*
X580985Y518089D01*
X581092Y518139D01*
X581201Y518186D01*
X581311Y518229D01*
X581422Y518269D01*
X581534Y518305D01*
X581648Y518338D01*
X581763Y518367D01*
X581878Y518392D01*
X581995Y518413D01*
X582112Y518430D01*
X582229Y518444D01*
X582347Y518453D01*
X582465Y518459D01*
X582583Y518461D01*
X583486Y518461D01*
X583619Y518459D01*
X583751Y518453D01*
X583883Y518443D01*
X584015Y518430D01*
X584147Y518412D01*
X584277Y518391D01*
X584408Y518366D01*
X584537Y518337D01*
X584665Y518304D01*
X584793Y518268D01*
X584919Y518228D01*
X585044Y518184D01*
X585168Y518136D01*
X585290Y518085D01*
X585411Y518030D01*
X585530Y517972D01*
X585648Y517910D01*
X585763Y517845D01*
X585877Y517776D01*
X585988Y517705D01*
X586097Y517629D01*
X586204Y517551D01*
X586309Y517470D01*
X586411Y517385D01*
X586511Y517298D01*
X586608Y517208D01*
X586703Y517115D01*
X586794Y517019D01*
X586883Y516921D01*
X586969Y516820D01*
X587052Y516716D01*
X587132Y516610D01*
X587208Y516502D01*
X587282Y516392D01*
X587352Y516279D01*
X587419Y516165D01*
X587482Y516048D01*
X587542Y515930D01*
X587599Y515810D01*
X587652Y515688D01*
X587701Y515565D01*
X587747Y515441D01*
X587789Y515315D01*
X587827Y515188D01*
X587862Y515060D01*
X587893Y514931D01*
X587920Y514802D01*
X587943Y514671D01*
X587963Y514540D01*
X587978Y514408D01*
X587990Y514276D01*
X587998Y514144D01*
X588002Y514011D01*
X588002Y513879D01*
X587998Y513746D01*
X587990Y513614D01*
X587978Y513482D01*
X587963Y513350D01*
X587943Y513219D01*
X587920Y513088D01*
X587893Y512959D01*
X587862Y512830D01*
X587827Y512702D01*
X587789Y512575D01*
X587747Y512449D01*
X587701Y512325D01*
X587652Y512202D01*
X587599Y512080D01*
X587542Y511960D01*
X587482Y511842D01*
X587419Y511725D01*
X587352Y511611D01*
X587282Y511498D01*
X587208Y511388D01*
X587132Y511280D01*
X587052Y511174D01*
X586969Y511070D01*
X586883Y510969D01*
X586794Y510871D01*
X586703Y510775D01*
X586608Y510682D01*
X586511Y510592D01*
X586411Y510505D01*
X586309Y510420D01*
X586204Y510339D01*
X586097Y510261D01*
X585988Y510185D01*
X585877Y510114D01*
X585763Y510045D01*
X585648Y509980D01*
X585530Y509918D01*
X585411Y509860D01*
X585290Y509805D01*
X585168Y509754D01*
X585044Y509706D01*
X584919Y509662D01*
X584793Y509622D01*
X584665Y509586D01*
X584537Y509553D01*
X584408Y509524D01*
X584277Y509499D01*
X584147Y509478D01*
X584015Y509460D01*
X583883Y509447D01*
X583751Y509437D01*
X583619Y509431D01*
X583486Y509429D01*
X583486Y509430D02*
X578971Y509430D01*
X578794Y509432D01*
X578616Y509439D01*
X578439Y509450D01*
X578263Y509465D01*
X578087Y509484D01*
X577911Y509508D01*
X577736Y509536D01*
X577561Y509569D01*
X577388Y509606D01*
X577215Y509647D01*
X577044Y509692D01*
X576874Y509741D01*
X576705Y509795D01*
X576537Y509852D01*
X576371Y509914D01*
X576206Y509980D01*
X576043Y510050D01*
X575882Y510124D01*
X575723Y510201D01*
X575565Y510283D01*
X575410Y510369D01*
X575257Y510458D01*
X575106Y510551D01*
X574957Y510648D01*
X574811Y510748D01*
X574667Y510852D01*
X574526Y510959D01*
X574388Y511070D01*
X574252Y511184D01*
X574119Y511302D01*
X573989Y511422D01*
X573862Y511546D01*
X573738Y511673D01*
X573618Y511803D01*
X573500Y511936D01*
X573386Y512071D01*
X573275Y512210D01*
X573168Y512351D01*
X573064Y512495D01*
X572964Y512641D01*
X572867Y512790D01*
X572774Y512941D01*
X572685Y513094D01*
X572599Y513249D01*
X572517Y513407D01*
X572440Y513566D01*
X572366Y513727D01*
X572296Y513890D01*
X572230Y514055D01*
X572168Y514221D01*
X572111Y514389D01*
X572057Y514558D01*
X572008Y514728D01*
X571963Y514899D01*
X571922Y515072D01*
X571885Y515245D01*
X571852Y515420D01*
X571824Y515595D01*
X571800Y515771D01*
X571781Y515947D01*
X571766Y516123D01*
X571755Y516300D01*
X571748Y516478D01*
X571746Y516655D01*
D12*
X82423Y191262D02*
X57277Y191262D01*
X57277Y151638D02*
X82423Y151638D01*
X82423Y112014D02*
X57277Y112014D01*
X57277Y230886D02*
X82423Y230886D01*
X177927Y642112D02*
X203073Y642112D01*
X203073Y602488D02*
X177927Y602488D01*
X177927Y562864D02*
X203073Y562864D01*
X203073Y681736D02*
X177927Y681736D01*
X82423Y826262D02*
X57277Y826262D01*
X57277Y786638D02*
X82423Y786638D01*
X82423Y747014D02*
X57277Y747014D01*
X57277Y865886D02*
X82423Y865886D01*
X82423Y642112D02*
X57277Y642112D01*
X57277Y602488D02*
X82423Y602488D01*
X82423Y562864D02*
X57277Y562864D01*
X57277Y681736D02*
X82423Y681736D01*
X82423Y348488D02*
X57277Y348488D01*
X57277Y388112D02*
X82423Y388112D01*
X177927Y191262D02*
X203073Y191262D01*
X203073Y151638D02*
X177927Y151638D01*
X177927Y112014D02*
X203073Y112014D01*
X203073Y230886D02*
X177927Y230886D01*
X298577Y191262D02*
X323723Y191262D01*
X323723Y151638D02*
X298577Y151638D01*
X298577Y112014D02*
X323723Y112014D01*
X323723Y230886D02*
X298577Y230886D01*
X419227Y191262D02*
X444373Y191262D01*
X444373Y151638D02*
X419227Y151638D01*
X419227Y112014D02*
X444373Y112014D01*
X444373Y230886D02*
X419227Y230886D01*
X419227Y826262D02*
X444373Y826262D01*
X444373Y786638D02*
X419227Y786638D01*
X419227Y747014D02*
X444373Y747014D01*
X444373Y865886D02*
X419227Y865886D01*
X419227Y642112D02*
X444373Y642112D01*
X444373Y602488D02*
X419227Y602488D01*
X419227Y562864D02*
X444373Y562864D01*
X444373Y681736D02*
X419227Y681736D01*
X323723Y826262D02*
X298577Y826262D01*
X298577Y786638D02*
X323723Y786638D01*
X323723Y747014D02*
X298577Y747014D01*
X298577Y865886D02*
X323723Y865886D01*
X323723Y642112D02*
X298577Y642112D01*
X298577Y602488D02*
X323723Y602488D01*
X323723Y562864D02*
X298577Y562864D01*
X298577Y681736D02*
X323723Y681736D01*
X203073Y826262D02*
X177927Y826262D01*
X177927Y786638D02*
X203073Y786638D01*
X203073Y747014D02*
X177927Y747014D01*
X177927Y865886D02*
X203073Y865886D01*
D13*
X165100Y299720D02*
X165100Y284480D01*
X190500Y284480D02*
X190500Y299720D01*
X215900Y299720D02*
X215900Y284480D01*
X241300Y284480D02*
X241300Y299720D01*
X266700Y299720D02*
X266700Y284480D01*
X292100Y284480D02*
X292100Y299720D01*
X317500Y299720D02*
X317500Y284480D01*
X342900Y284480D02*
X342900Y299720D01*
X368300Y299720D02*
X368300Y284480D01*
X393700Y284480D02*
X393700Y299720D01*
X419100Y299720D02*
X419100Y284480D01*
X444500Y284480D02*
X444500Y299720D01*
X165100Y436880D02*
X165100Y452120D01*
X190500Y452120D02*
X190500Y436880D01*
X215900Y436880D02*
X215900Y452120D01*
X241300Y452120D02*
X241300Y436880D01*
X266700Y436880D02*
X266700Y452120D01*
X292100Y452120D02*
X292100Y436880D01*
X317500Y436880D02*
X317500Y452120D01*
X342900Y452120D02*
X342900Y436880D01*
X368300Y436880D02*
X368300Y452120D01*
X393700Y452120D02*
X393700Y436880D01*
X419100Y436880D02*
X419100Y452120D01*
X444500Y452120D02*
X444500Y436880D01*
D14*
X215900Y292100D02*
X215900Y266700D01*
X234950Y247650D01*
X223012Y191262D02*
X190500Y191262D01*
X223012Y191262D02*
X234950Y203200D01*
X234950Y247650D01*
X241300Y266700D02*
X241300Y292100D01*
X241300Y266700D02*
X254000Y254000D01*
X280162Y151638D02*
X311150Y151638D01*
X280162Y151638D02*
X254000Y177800D01*
X254000Y254000D01*
D15*
X463550Y336550D03*
D16*
X488950Y361950D01*
X462788Y642112D02*
X431800Y642112D01*
X488950Y615950D02*
X488950Y361950D01*
X488950Y615950D02*
X462788Y642112D01*
D15*
X444500Y406400D03*
D16*
X444500Y292100D01*
D17*
X190500Y865886D02*
X69850Y865886D01*
X190500Y865886D02*
X311150Y865886D01*
X431800Y865886D01*
X431800Y681736D02*
X311150Y681736D01*
X190500Y681736D01*
X69850Y681736D01*
X69850Y112014D02*
X40386Y112014D01*
X25400Y127000D01*
X43688Y348488D02*
X69850Y348488D01*
X43688Y348488D02*
X25400Y330200D01*
X25400Y127000D01*
X43688Y348488D02*
X25400Y366776D01*
X42164Y562864D02*
X69850Y562864D01*
X42164Y562864D02*
X25400Y546100D01*
X25400Y366776D01*
X42164Y562864D02*
X25400Y579628D01*
X42164Y747014D02*
X69850Y747014D01*
X42164Y747014D02*
X25400Y730250D01*
X25400Y579628D01*
D18*
X69850Y348488D02*
X172212Y348488D01*
X190500Y330200D01*
X190500Y292100D01*
D17*
X311150Y747014D02*
X431800Y747014D01*
X311150Y747014D02*
X190500Y747014D01*
X69850Y747014D01*
X311150Y562864D02*
X431800Y562864D01*
X311150Y562864D02*
X190500Y562864D01*
X69850Y562864D01*
M02*
