G04 EAGLE Gerber RS-274X export*
G75*
%MOMM*%
%FSLAX34Y34*%
%LPD*%
%IN*%
%IPPOS*%
%AMOC8*
5,1,8,0,0,1.08239X$1,22.5*%
G01*
%ADD10C,0.254000*%


D10*
X0Y0D02*
X507800Y0D01*
X507800Y974600D01*
X0Y974600D01*
X0Y0D01*
X83850Y43950D02*
X83779Y42953D01*
X83636Y41963D01*
X83424Y40986D01*
X83142Y40026D01*
X82793Y39089D01*
X82377Y38179D01*
X81898Y37302D01*
X81357Y36460D01*
X80758Y35660D01*
X80103Y34904D01*
X79396Y34197D01*
X78640Y33542D01*
X77840Y32943D01*
X76998Y32402D01*
X76121Y31923D01*
X75211Y31507D01*
X74274Y31158D01*
X73315Y30876D01*
X72337Y30664D01*
X71348Y30521D01*
X70350Y30450D01*
X69350Y30450D01*
X68353Y30521D01*
X67363Y30664D01*
X66386Y30876D01*
X65426Y31158D01*
X64489Y31507D01*
X63579Y31923D01*
X62702Y32402D01*
X61860Y32943D01*
X61060Y33542D01*
X60304Y34197D01*
X59597Y34904D01*
X58942Y35660D01*
X58343Y36460D01*
X57802Y37302D01*
X57323Y38179D01*
X56907Y39089D01*
X56558Y40026D01*
X56276Y40986D01*
X56064Y41963D01*
X55921Y42953D01*
X55850Y43950D01*
X55850Y44950D01*
X55921Y45948D01*
X56064Y46937D01*
X56276Y47915D01*
X56558Y48874D01*
X56907Y49811D01*
X57323Y50721D01*
X57802Y51598D01*
X58343Y52440D01*
X58942Y53240D01*
X59597Y53996D01*
X60304Y54703D01*
X61060Y55358D01*
X61860Y55957D01*
X62702Y56498D01*
X63579Y56977D01*
X64489Y57393D01*
X65426Y57742D01*
X66386Y58024D01*
X67363Y58236D01*
X68353Y58379D01*
X69350Y58450D01*
X70350Y58450D01*
X71348Y58379D01*
X72337Y58236D01*
X73315Y58024D01*
X74274Y57742D01*
X75211Y57393D01*
X76121Y56977D01*
X76998Y56498D01*
X77840Y55957D01*
X78640Y55358D01*
X79396Y54703D01*
X80103Y53996D01*
X80758Y53240D01*
X81357Y52440D01*
X81898Y51598D01*
X82377Y50721D01*
X82793Y49811D01*
X83142Y48874D01*
X83424Y47915D01*
X83636Y46937D01*
X83779Y45948D01*
X83850Y44950D01*
X83850Y43950D01*
X471200Y43950D02*
X471129Y42953D01*
X470986Y41963D01*
X470774Y40986D01*
X470492Y40026D01*
X470143Y39089D01*
X469727Y38179D01*
X469248Y37302D01*
X468707Y36460D01*
X468108Y35660D01*
X467453Y34904D01*
X466746Y34197D01*
X465990Y33542D01*
X465190Y32943D01*
X464348Y32402D01*
X463471Y31923D01*
X462561Y31507D01*
X461624Y31158D01*
X460665Y30876D01*
X459687Y30664D01*
X458698Y30521D01*
X457700Y30450D01*
X456700Y30450D01*
X455703Y30521D01*
X454713Y30664D01*
X453736Y30876D01*
X452776Y31158D01*
X451839Y31507D01*
X450929Y31923D01*
X450052Y32402D01*
X449210Y32943D01*
X448410Y33542D01*
X447654Y34197D01*
X446947Y34904D01*
X446292Y35660D01*
X445693Y36460D01*
X445152Y37302D01*
X444673Y38179D01*
X444257Y39089D01*
X443908Y40026D01*
X443626Y40986D01*
X443414Y41963D01*
X443271Y42953D01*
X443200Y43950D01*
X443200Y44950D01*
X443271Y45948D01*
X443414Y46937D01*
X443626Y47915D01*
X443908Y48874D01*
X444257Y49811D01*
X444673Y50721D01*
X445152Y51598D01*
X445693Y52440D01*
X446292Y53240D01*
X446947Y53996D01*
X447654Y54703D01*
X448410Y55358D01*
X449210Y55957D01*
X450052Y56498D01*
X450929Y56977D01*
X451839Y57393D01*
X452776Y57742D01*
X453736Y58024D01*
X454713Y58236D01*
X455703Y58379D01*
X456700Y58450D01*
X457700Y58450D01*
X458698Y58379D01*
X459687Y58236D01*
X460665Y58024D01*
X461624Y57742D01*
X462561Y57393D01*
X463471Y56977D01*
X464348Y56498D01*
X465190Y55957D01*
X465990Y55358D01*
X466746Y54703D01*
X467453Y53996D01*
X468108Y53240D01*
X468707Y52440D01*
X469248Y51598D01*
X469727Y50721D01*
X470143Y49811D01*
X470492Y48874D01*
X470774Y47915D01*
X470986Y46937D01*
X471129Y45948D01*
X471200Y44950D01*
X471200Y43950D01*
X477550Y932950D02*
X477479Y931953D01*
X477336Y930963D01*
X477124Y929986D01*
X476842Y929026D01*
X476493Y928089D01*
X476077Y927179D01*
X475598Y926302D01*
X475057Y925460D01*
X474458Y924660D01*
X473803Y923904D01*
X473096Y923197D01*
X472340Y922542D01*
X471540Y921943D01*
X470698Y921402D01*
X469821Y920923D01*
X468911Y920507D01*
X467974Y920158D01*
X467015Y919876D01*
X466037Y919664D01*
X465048Y919521D01*
X464050Y919450D01*
X463050Y919450D01*
X462053Y919521D01*
X461063Y919664D01*
X460086Y919876D01*
X459126Y920158D01*
X458189Y920507D01*
X457279Y920923D01*
X456402Y921402D01*
X455560Y921943D01*
X454760Y922542D01*
X454004Y923197D01*
X453297Y923904D01*
X452642Y924660D01*
X452043Y925460D01*
X451502Y926302D01*
X451023Y927179D01*
X450607Y928089D01*
X450258Y929026D01*
X449976Y929986D01*
X449764Y930963D01*
X449621Y931953D01*
X449550Y932950D01*
X449550Y933950D01*
X449621Y934948D01*
X449764Y935937D01*
X449976Y936915D01*
X450258Y937874D01*
X450607Y938811D01*
X451023Y939721D01*
X451502Y940598D01*
X452043Y941440D01*
X452642Y942240D01*
X453297Y942996D01*
X454004Y943703D01*
X454760Y944358D01*
X455560Y944957D01*
X456402Y945498D01*
X457279Y945977D01*
X458189Y946393D01*
X459126Y946742D01*
X460086Y947024D01*
X461063Y947236D01*
X462053Y947379D01*
X463050Y947450D01*
X464050Y947450D01*
X465048Y947379D01*
X466037Y947236D01*
X467015Y947024D01*
X467974Y946742D01*
X468911Y946393D01*
X469821Y945977D01*
X470698Y945498D01*
X471540Y944957D01*
X472340Y944358D01*
X473096Y943703D01*
X473803Y942996D01*
X474458Y942240D01*
X475057Y941440D01*
X475598Y940598D01*
X476077Y939721D01*
X476493Y938811D01*
X476842Y937874D01*
X477124Y936915D01*
X477336Y935937D01*
X477479Y934948D01*
X477550Y933950D01*
X477550Y932950D01*
X71150Y932950D02*
X71079Y931953D01*
X70936Y930963D01*
X70724Y929986D01*
X70442Y929026D01*
X70093Y928089D01*
X69677Y927179D01*
X69198Y926302D01*
X68657Y925460D01*
X68058Y924660D01*
X67403Y923904D01*
X66696Y923197D01*
X65940Y922542D01*
X65140Y921943D01*
X64298Y921402D01*
X63421Y920923D01*
X62511Y920507D01*
X61574Y920158D01*
X60615Y919876D01*
X59637Y919664D01*
X58648Y919521D01*
X57650Y919450D01*
X56650Y919450D01*
X55653Y919521D01*
X54663Y919664D01*
X53686Y919876D01*
X52726Y920158D01*
X51789Y920507D01*
X50879Y920923D01*
X50002Y921402D01*
X49160Y921943D01*
X48360Y922542D01*
X47604Y923197D01*
X46897Y923904D01*
X46242Y924660D01*
X45643Y925460D01*
X45102Y926302D01*
X44623Y927179D01*
X44207Y928089D01*
X43858Y929026D01*
X43576Y929986D01*
X43364Y930963D01*
X43221Y931953D01*
X43150Y932950D01*
X43150Y933950D01*
X43221Y934948D01*
X43364Y935937D01*
X43576Y936915D01*
X43858Y937874D01*
X44207Y938811D01*
X44623Y939721D01*
X45102Y940598D01*
X45643Y941440D01*
X46242Y942240D01*
X46897Y942996D01*
X47604Y943703D01*
X48360Y944358D01*
X49160Y944957D01*
X50002Y945498D01*
X50879Y945977D01*
X51789Y946393D01*
X52726Y946742D01*
X53686Y947024D01*
X54663Y947236D01*
X55653Y947379D01*
X56650Y947450D01*
X57650Y947450D01*
X58648Y947379D01*
X59637Y947236D01*
X60615Y947024D01*
X61574Y946742D01*
X62511Y946393D01*
X63421Y945977D01*
X64298Y945498D01*
X65140Y944957D01*
X65940Y944358D01*
X66696Y943703D01*
X67403Y942996D01*
X68058Y942240D01*
X68657Y941440D01*
X69198Y940598D01*
X69677Y939721D01*
X70093Y938811D01*
X70442Y937874D01*
X70724Y936915D01*
X70936Y935937D01*
X71079Y934948D01*
X71150Y933950D01*
X71150Y932950D01*
M02*
