G04 EAGLE Gerber RS-274X export*
G75*
%MOMM*%
%FSLAX34Y34*%
%LPD*%
%IN*%
%IPPOS*%
%AMOC8*
5,1,8,0,0,1.08239X$1,22.5*%
G01*
%ADD10C,0.254000*%


D10*
X0Y0D02*
X431600Y0D01*
X431600Y809500D01*
X0Y809500D01*
X0Y0D01*
X52100Y37600D02*
X52029Y36603D01*
X51886Y35613D01*
X51674Y34636D01*
X51392Y33676D01*
X51043Y32739D01*
X50627Y31829D01*
X50148Y30952D01*
X49607Y30110D01*
X49008Y29310D01*
X48353Y28554D01*
X47646Y27847D01*
X46890Y27192D01*
X46090Y26593D01*
X45248Y26052D01*
X44371Y25573D01*
X43461Y25157D01*
X42524Y24808D01*
X41565Y24526D01*
X40587Y24314D01*
X39598Y24171D01*
X38600Y24100D01*
X37600Y24100D01*
X36603Y24171D01*
X35613Y24314D01*
X34636Y24526D01*
X33676Y24808D01*
X32739Y25157D01*
X31829Y25573D01*
X30952Y26052D01*
X30110Y26593D01*
X29310Y27192D01*
X28554Y27847D01*
X27847Y28554D01*
X27192Y29310D01*
X26593Y30110D01*
X26052Y30952D01*
X25573Y31829D01*
X25157Y32739D01*
X24808Y33676D01*
X24526Y34636D01*
X24314Y35613D01*
X24171Y36603D01*
X24100Y37600D01*
X24100Y38600D01*
X24171Y39598D01*
X24314Y40587D01*
X24526Y41565D01*
X24808Y42524D01*
X25157Y43461D01*
X25573Y44371D01*
X26052Y45248D01*
X26593Y46090D01*
X27192Y46890D01*
X27847Y47646D01*
X28554Y48353D01*
X29310Y49008D01*
X30110Y49607D01*
X30952Y50148D01*
X31829Y50627D01*
X32739Y51043D01*
X33676Y51392D01*
X34636Y51674D01*
X35613Y51886D01*
X36603Y52029D01*
X37600Y52100D01*
X38600Y52100D01*
X39598Y52029D01*
X40587Y51886D01*
X41565Y51674D01*
X42524Y51392D01*
X43461Y51043D01*
X44371Y50627D01*
X45248Y50148D01*
X46090Y49607D01*
X46890Y49008D01*
X47646Y48353D01*
X48353Y47646D01*
X49008Y46890D01*
X49607Y46090D01*
X50148Y45248D01*
X50627Y44371D01*
X51043Y43461D01*
X51392Y42524D01*
X51674Y41565D01*
X51886Y40587D01*
X52029Y39598D01*
X52100Y38600D01*
X52100Y37600D01*
X407700Y37600D02*
X407629Y36603D01*
X407486Y35613D01*
X407274Y34636D01*
X406992Y33676D01*
X406643Y32739D01*
X406227Y31829D01*
X405748Y30952D01*
X405207Y30110D01*
X404608Y29310D01*
X403953Y28554D01*
X403246Y27847D01*
X402490Y27192D01*
X401690Y26593D01*
X400848Y26052D01*
X399971Y25573D01*
X399061Y25157D01*
X398124Y24808D01*
X397165Y24526D01*
X396187Y24314D01*
X395198Y24171D01*
X394200Y24100D01*
X393200Y24100D01*
X392203Y24171D01*
X391213Y24314D01*
X390236Y24526D01*
X389276Y24808D01*
X388339Y25157D01*
X387429Y25573D01*
X386552Y26052D01*
X385710Y26593D01*
X384910Y27192D01*
X384154Y27847D01*
X383447Y28554D01*
X382792Y29310D01*
X382193Y30110D01*
X381652Y30952D01*
X381173Y31829D01*
X380757Y32739D01*
X380408Y33676D01*
X380126Y34636D01*
X379914Y35613D01*
X379771Y36603D01*
X379700Y37600D01*
X379700Y38600D01*
X379771Y39598D01*
X379914Y40587D01*
X380126Y41565D01*
X380408Y42524D01*
X380757Y43461D01*
X381173Y44371D01*
X381652Y45248D01*
X382193Y46090D01*
X382792Y46890D01*
X383447Y47646D01*
X384154Y48353D01*
X384910Y49008D01*
X385710Y49607D01*
X386552Y50148D01*
X387429Y50627D01*
X388339Y51043D01*
X389276Y51392D01*
X390236Y51674D01*
X391213Y51886D01*
X392203Y52029D01*
X393200Y52100D01*
X394200Y52100D01*
X395198Y52029D01*
X396187Y51886D01*
X397165Y51674D01*
X398124Y51392D01*
X399061Y51043D01*
X399971Y50627D01*
X400848Y50148D01*
X401690Y49607D01*
X402490Y49008D01*
X403246Y48353D01*
X403953Y47646D01*
X404608Y46890D01*
X405207Y46090D01*
X405748Y45248D01*
X406227Y44371D01*
X406643Y43461D01*
X406992Y42524D01*
X407274Y41565D01*
X407486Y40587D01*
X407629Y39598D01*
X407700Y38600D01*
X407700Y37600D01*
X407700Y767850D02*
X407629Y766853D01*
X407486Y765863D01*
X407274Y764886D01*
X406992Y763926D01*
X406643Y762989D01*
X406227Y762079D01*
X405748Y761202D01*
X405207Y760360D01*
X404608Y759560D01*
X403953Y758804D01*
X403246Y758097D01*
X402490Y757442D01*
X401690Y756843D01*
X400848Y756302D01*
X399971Y755823D01*
X399061Y755407D01*
X398124Y755058D01*
X397165Y754776D01*
X396187Y754564D01*
X395198Y754421D01*
X394200Y754350D01*
X393200Y754350D01*
X392203Y754421D01*
X391213Y754564D01*
X390236Y754776D01*
X389276Y755058D01*
X388339Y755407D01*
X387429Y755823D01*
X386552Y756302D01*
X385710Y756843D01*
X384910Y757442D01*
X384154Y758097D01*
X383447Y758804D01*
X382792Y759560D01*
X382193Y760360D01*
X381652Y761202D01*
X381173Y762079D01*
X380757Y762989D01*
X380408Y763926D01*
X380126Y764886D01*
X379914Y765863D01*
X379771Y766853D01*
X379700Y767850D01*
X379700Y768850D01*
X379771Y769848D01*
X379914Y770837D01*
X380126Y771815D01*
X380408Y772774D01*
X380757Y773711D01*
X381173Y774621D01*
X381652Y775498D01*
X382193Y776340D01*
X382792Y777140D01*
X383447Y777896D01*
X384154Y778603D01*
X384910Y779258D01*
X385710Y779857D01*
X386552Y780398D01*
X387429Y780877D01*
X388339Y781293D01*
X389276Y781642D01*
X390236Y781924D01*
X391213Y782136D01*
X392203Y782279D01*
X393200Y782350D01*
X394200Y782350D01*
X395198Y782279D01*
X396187Y782136D01*
X397165Y781924D01*
X398124Y781642D01*
X399061Y781293D01*
X399971Y780877D01*
X400848Y780398D01*
X401690Y779857D01*
X402490Y779258D01*
X403246Y778603D01*
X403953Y777896D01*
X404608Y777140D01*
X405207Y776340D01*
X405748Y775498D01*
X406227Y774621D01*
X406643Y773711D01*
X406992Y772774D01*
X407274Y771815D01*
X407486Y770837D01*
X407629Y769848D01*
X407700Y768850D01*
X407700Y767850D01*
X52100Y767850D02*
X52029Y766853D01*
X51886Y765863D01*
X51674Y764886D01*
X51392Y763926D01*
X51043Y762989D01*
X50627Y762079D01*
X50148Y761202D01*
X49607Y760360D01*
X49008Y759560D01*
X48353Y758804D01*
X47646Y758097D01*
X46890Y757442D01*
X46090Y756843D01*
X45248Y756302D01*
X44371Y755823D01*
X43461Y755407D01*
X42524Y755058D01*
X41565Y754776D01*
X40587Y754564D01*
X39598Y754421D01*
X38600Y754350D01*
X37600Y754350D01*
X36603Y754421D01*
X35613Y754564D01*
X34636Y754776D01*
X33676Y755058D01*
X32739Y755407D01*
X31829Y755823D01*
X30952Y756302D01*
X30110Y756843D01*
X29310Y757442D01*
X28554Y758097D01*
X27847Y758804D01*
X27192Y759560D01*
X26593Y760360D01*
X26052Y761202D01*
X25573Y762079D01*
X25157Y762989D01*
X24808Y763926D01*
X24526Y764886D01*
X24314Y765863D01*
X24171Y766853D01*
X24100Y767850D01*
X24100Y768850D01*
X24171Y769848D01*
X24314Y770837D01*
X24526Y771815D01*
X24808Y772774D01*
X25157Y773711D01*
X25573Y774621D01*
X26052Y775498D01*
X26593Y776340D01*
X27192Y777140D01*
X27847Y777896D01*
X28554Y778603D01*
X29310Y779258D01*
X30110Y779857D01*
X30952Y780398D01*
X31829Y780877D01*
X32739Y781293D01*
X33676Y781642D01*
X34636Y781924D01*
X35613Y782136D01*
X36603Y782279D01*
X37600Y782350D01*
X38600Y782350D01*
X39598Y782279D01*
X40587Y782136D01*
X41565Y781924D01*
X42524Y781642D01*
X43461Y781293D01*
X44371Y780877D01*
X45248Y780398D01*
X46090Y779857D01*
X46890Y779258D01*
X47646Y778603D01*
X48353Y777896D01*
X49008Y777140D01*
X49607Y776340D01*
X50148Y775498D01*
X50627Y774621D01*
X51043Y773711D01*
X51392Y772774D01*
X51674Y771815D01*
X51886Y770837D01*
X52029Y769848D01*
X52100Y768850D01*
X52100Y767850D01*
M02*
