G04 EAGLE Gerber RS-274X export*
G75*
%MOMM*%
%FSLAX34Y34*%
%LPD*%
%INSilkscreen Top*%
%IPPOS*%
%AMOC8*
5,1,8,0,0,1.08239X$1,22.5*%
G01*
%ADD10C,0.254000*%
%ADD11C,0.177800*%
%ADD12C,0.152400*%
%ADD13C,0.355600*%
%ADD14C,0.406400*%
%ADD15C,0.304800*%
%ADD16R,1.016000X1.016000*%
%ADD17C,0.203200*%


D10*
X154529Y486410D02*
X162149Y486410D01*
X157069Y494030D02*
X157069Y474980D01*
X157071Y474858D01*
X157077Y474736D01*
X157087Y474614D01*
X157100Y474493D01*
X157118Y474372D01*
X157139Y474252D01*
X157165Y474132D01*
X157194Y474014D01*
X157226Y473896D01*
X157263Y473779D01*
X157303Y473664D01*
X157347Y473550D01*
X157395Y473438D01*
X157446Y473327D01*
X157501Y473218D01*
X157559Y473110D01*
X157621Y473005D01*
X157686Y472902D01*
X157754Y472800D01*
X157826Y472701D01*
X157900Y472605D01*
X157978Y472510D01*
X158059Y472419D01*
X158142Y472329D01*
X158228Y472243D01*
X158318Y472160D01*
X158409Y472079D01*
X158504Y472001D01*
X158600Y471927D01*
X158699Y471855D01*
X158801Y471787D01*
X158904Y471722D01*
X159009Y471660D01*
X159117Y471602D01*
X159226Y471547D01*
X159337Y471496D01*
X159449Y471448D01*
X159563Y471404D01*
X159678Y471364D01*
X159795Y471327D01*
X159913Y471295D01*
X160031Y471266D01*
X160151Y471240D01*
X160271Y471219D01*
X160392Y471201D01*
X160513Y471188D01*
X160635Y471178D01*
X160757Y471172D01*
X160879Y471170D01*
X162149Y471170D01*
X173185Y471170D02*
X179535Y471170D01*
X173185Y471170D02*
X173063Y471172D01*
X172941Y471178D01*
X172819Y471188D01*
X172698Y471201D01*
X172577Y471219D01*
X172457Y471240D01*
X172337Y471266D01*
X172219Y471295D01*
X172101Y471327D01*
X171984Y471364D01*
X171869Y471404D01*
X171755Y471448D01*
X171643Y471496D01*
X171532Y471547D01*
X171423Y471602D01*
X171315Y471660D01*
X171210Y471722D01*
X171107Y471787D01*
X171005Y471855D01*
X170906Y471927D01*
X170810Y472001D01*
X170715Y472079D01*
X170624Y472160D01*
X170534Y472243D01*
X170448Y472329D01*
X170365Y472419D01*
X170284Y472510D01*
X170206Y472605D01*
X170132Y472701D01*
X170060Y472800D01*
X169992Y472902D01*
X169927Y473005D01*
X169865Y473110D01*
X169807Y473218D01*
X169752Y473327D01*
X169701Y473438D01*
X169653Y473550D01*
X169609Y473664D01*
X169569Y473779D01*
X169532Y473896D01*
X169500Y474014D01*
X169471Y474132D01*
X169445Y474252D01*
X169424Y474372D01*
X169406Y474493D01*
X169393Y474614D01*
X169383Y474736D01*
X169377Y474858D01*
X169375Y474980D01*
X169375Y481330D01*
X169377Y481471D01*
X169383Y481612D01*
X169393Y481753D01*
X169406Y481894D01*
X169424Y482034D01*
X169446Y482173D01*
X169471Y482312D01*
X169500Y482451D01*
X169533Y482588D01*
X169570Y482724D01*
X169611Y482859D01*
X169655Y482994D01*
X169703Y483126D01*
X169755Y483258D01*
X169810Y483388D01*
X169869Y483516D01*
X169932Y483643D01*
X169998Y483767D01*
X170067Y483890D01*
X170140Y484011D01*
X170216Y484130D01*
X170296Y484247D01*
X170379Y484361D01*
X170464Y484474D01*
X170553Y484583D01*
X170645Y484691D01*
X170740Y484795D01*
X170838Y484897D01*
X170939Y484996D01*
X171042Y485093D01*
X171148Y485186D01*
X171256Y485276D01*
X171367Y485364D01*
X171480Y485448D01*
X171596Y485529D01*
X171714Y485607D01*
X171834Y485682D01*
X171956Y485753D01*
X172080Y485821D01*
X172206Y485885D01*
X172333Y485946D01*
X172462Y486003D01*
X172593Y486056D01*
X172725Y486106D01*
X172858Y486153D01*
X172993Y486195D01*
X173129Y486234D01*
X173266Y486269D01*
X173403Y486300D01*
X173542Y486327D01*
X173681Y486351D01*
X173821Y486370D01*
X173961Y486386D01*
X174102Y486398D01*
X174243Y486406D01*
X174384Y486410D01*
X174526Y486410D01*
X174667Y486406D01*
X174808Y486398D01*
X174949Y486386D01*
X175089Y486370D01*
X175229Y486351D01*
X175368Y486327D01*
X175507Y486300D01*
X175644Y486269D01*
X175781Y486234D01*
X175917Y486195D01*
X176052Y486153D01*
X176185Y486106D01*
X176317Y486056D01*
X176448Y486003D01*
X176577Y485946D01*
X176704Y485885D01*
X176830Y485821D01*
X176954Y485753D01*
X177076Y485682D01*
X177196Y485607D01*
X177314Y485529D01*
X177430Y485448D01*
X177543Y485364D01*
X177654Y485276D01*
X177762Y485186D01*
X177868Y485093D01*
X177971Y484996D01*
X178072Y484897D01*
X178170Y484795D01*
X178265Y484691D01*
X178357Y484583D01*
X178446Y484474D01*
X178531Y484361D01*
X178614Y484247D01*
X178694Y484130D01*
X178770Y484011D01*
X178843Y483890D01*
X178912Y483767D01*
X178978Y483643D01*
X179041Y483516D01*
X179100Y483388D01*
X179155Y483258D01*
X179207Y483126D01*
X179255Y482994D01*
X179299Y482859D01*
X179340Y482724D01*
X179377Y482588D01*
X179410Y482451D01*
X179439Y482312D01*
X179464Y482173D01*
X179486Y482034D01*
X179504Y481894D01*
X179517Y481753D01*
X179527Y481612D01*
X179533Y481471D01*
X179535Y481330D01*
X179535Y478790D01*
X169375Y478790D01*
X191849Y480060D02*
X197564Y480060D01*
X191849Y480060D02*
X191717Y480058D01*
X191586Y480052D01*
X191454Y480042D01*
X191323Y480029D01*
X191193Y480011D01*
X191063Y479990D01*
X190933Y479965D01*
X190805Y479936D01*
X190677Y479903D01*
X190551Y479866D01*
X190425Y479826D01*
X190301Y479782D01*
X190178Y479734D01*
X190057Y479683D01*
X189937Y479628D01*
X189819Y479570D01*
X189703Y479508D01*
X189589Y479442D01*
X189476Y479374D01*
X189366Y479302D01*
X189258Y479227D01*
X189152Y479148D01*
X189048Y479067D01*
X188947Y478982D01*
X188849Y478895D01*
X188753Y478804D01*
X188660Y478711D01*
X188569Y478615D01*
X188482Y478517D01*
X188397Y478416D01*
X188316Y478312D01*
X188237Y478206D01*
X188162Y478098D01*
X188090Y477988D01*
X188022Y477875D01*
X187956Y477761D01*
X187894Y477645D01*
X187836Y477527D01*
X187781Y477407D01*
X187730Y477286D01*
X187682Y477163D01*
X187638Y477039D01*
X187598Y476913D01*
X187561Y476787D01*
X187528Y476659D01*
X187499Y476531D01*
X187474Y476401D01*
X187453Y476271D01*
X187435Y476141D01*
X187422Y476010D01*
X187412Y475878D01*
X187406Y475747D01*
X187404Y475615D01*
X187406Y475483D01*
X187412Y475352D01*
X187422Y475220D01*
X187435Y475089D01*
X187453Y474959D01*
X187474Y474829D01*
X187499Y474699D01*
X187528Y474571D01*
X187561Y474443D01*
X187598Y474317D01*
X187638Y474191D01*
X187682Y474067D01*
X187730Y473944D01*
X187781Y473823D01*
X187836Y473703D01*
X187894Y473585D01*
X187956Y473469D01*
X188022Y473355D01*
X188090Y473242D01*
X188162Y473132D01*
X188237Y473024D01*
X188316Y472918D01*
X188397Y472814D01*
X188482Y472713D01*
X188569Y472615D01*
X188660Y472519D01*
X188753Y472426D01*
X188849Y472335D01*
X188947Y472248D01*
X189048Y472163D01*
X189152Y472082D01*
X189258Y472003D01*
X189366Y471928D01*
X189476Y471856D01*
X189589Y471788D01*
X189703Y471722D01*
X189819Y471660D01*
X189937Y471602D01*
X190057Y471547D01*
X190178Y471496D01*
X190301Y471448D01*
X190425Y471404D01*
X190551Y471364D01*
X190677Y471327D01*
X190805Y471294D01*
X190933Y471265D01*
X191063Y471240D01*
X191193Y471219D01*
X191323Y471201D01*
X191454Y471188D01*
X191586Y471178D01*
X191717Y471172D01*
X191849Y471170D01*
X197564Y471170D01*
X197564Y482600D01*
X197562Y482722D01*
X197556Y482844D01*
X197546Y482966D01*
X197533Y483087D01*
X197515Y483208D01*
X197494Y483328D01*
X197468Y483448D01*
X197439Y483566D01*
X197407Y483684D01*
X197370Y483801D01*
X197330Y483916D01*
X197286Y484030D01*
X197238Y484142D01*
X197187Y484253D01*
X197132Y484362D01*
X197074Y484470D01*
X197012Y484575D01*
X196947Y484678D01*
X196879Y484780D01*
X196807Y484879D01*
X196733Y484975D01*
X196655Y485070D01*
X196574Y485161D01*
X196491Y485251D01*
X196405Y485337D01*
X196315Y485420D01*
X196224Y485501D01*
X196129Y485579D01*
X196033Y485653D01*
X195934Y485725D01*
X195832Y485793D01*
X195729Y485858D01*
X195624Y485920D01*
X195516Y485978D01*
X195407Y486033D01*
X195296Y486084D01*
X195184Y486132D01*
X195070Y486176D01*
X194955Y486216D01*
X194838Y486253D01*
X194720Y486285D01*
X194602Y486314D01*
X194482Y486340D01*
X194362Y486361D01*
X194241Y486379D01*
X194120Y486392D01*
X193998Y486402D01*
X193876Y486408D01*
X193754Y486410D01*
X188674Y486410D01*
X207201Y486410D02*
X207201Y471170D01*
X207201Y486410D02*
X218631Y486410D01*
X218753Y486408D01*
X218875Y486402D01*
X218997Y486392D01*
X219118Y486379D01*
X219239Y486361D01*
X219359Y486340D01*
X219479Y486314D01*
X219597Y486285D01*
X219715Y486253D01*
X219832Y486216D01*
X219947Y486176D01*
X220061Y486132D01*
X220173Y486084D01*
X220284Y486033D01*
X220393Y485978D01*
X220501Y485920D01*
X220606Y485858D01*
X220709Y485793D01*
X220811Y485725D01*
X220910Y485653D01*
X221006Y485579D01*
X221101Y485501D01*
X221192Y485420D01*
X221282Y485337D01*
X221368Y485251D01*
X221451Y485161D01*
X221532Y485070D01*
X221610Y484975D01*
X221684Y484879D01*
X221756Y484780D01*
X221824Y484678D01*
X221889Y484575D01*
X221951Y484470D01*
X222009Y484362D01*
X222064Y484253D01*
X222115Y484142D01*
X222163Y484030D01*
X222207Y483916D01*
X222247Y483801D01*
X222284Y483684D01*
X222316Y483566D01*
X222345Y483448D01*
X222371Y483328D01*
X222392Y483208D01*
X222410Y483087D01*
X222423Y482966D01*
X222433Y482844D01*
X222439Y482722D01*
X222441Y482600D01*
X222441Y471170D01*
X214821Y471170D02*
X214821Y486410D01*
X231560Y480060D02*
X246800Y480060D01*
X254978Y481330D02*
X254978Y476250D01*
X254978Y481330D02*
X254980Y481471D01*
X254986Y481612D01*
X254996Y481753D01*
X255009Y481894D01*
X255027Y482034D01*
X255049Y482173D01*
X255074Y482312D01*
X255103Y482451D01*
X255136Y482588D01*
X255173Y482724D01*
X255214Y482859D01*
X255258Y482994D01*
X255306Y483126D01*
X255358Y483258D01*
X255413Y483388D01*
X255472Y483516D01*
X255535Y483643D01*
X255601Y483767D01*
X255670Y483890D01*
X255743Y484011D01*
X255819Y484130D01*
X255899Y484247D01*
X255982Y484361D01*
X256067Y484474D01*
X256156Y484583D01*
X256248Y484691D01*
X256343Y484795D01*
X256441Y484897D01*
X256542Y484996D01*
X256645Y485093D01*
X256751Y485186D01*
X256859Y485276D01*
X256970Y485364D01*
X257083Y485448D01*
X257199Y485529D01*
X257317Y485607D01*
X257437Y485682D01*
X257559Y485753D01*
X257683Y485821D01*
X257809Y485885D01*
X257936Y485946D01*
X258065Y486003D01*
X258196Y486056D01*
X258328Y486106D01*
X258461Y486153D01*
X258596Y486195D01*
X258732Y486234D01*
X258869Y486269D01*
X259006Y486300D01*
X259145Y486327D01*
X259284Y486351D01*
X259424Y486370D01*
X259564Y486386D01*
X259705Y486398D01*
X259846Y486406D01*
X259987Y486410D01*
X260129Y486410D01*
X260270Y486406D01*
X260411Y486398D01*
X260552Y486386D01*
X260692Y486370D01*
X260832Y486351D01*
X260971Y486327D01*
X261110Y486300D01*
X261247Y486269D01*
X261384Y486234D01*
X261520Y486195D01*
X261655Y486153D01*
X261788Y486106D01*
X261920Y486056D01*
X262051Y486003D01*
X262180Y485946D01*
X262307Y485885D01*
X262433Y485821D01*
X262557Y485753D01*
X262679Y485682D01*
X262799Y485607D01*
X262917Y485529D01*
X263033Y485448D01*
X263146Y485364D01*
X263257Y485276D01*
X263365Y485186D01*
X263471Y485093D01*
X263574Y484996D01*
X263675Y484897D01*
X263773Y484795D01*
X263868Y484691D01*
X263960Y484583D01*
X264049Y484474D01*
X264134Y484361D01*
X264217Y484247D01*
X264297Y484130D01*
X264373Y484011D01*
X264446Y483890D01*
X264515Y483767D01*
X264581Y483643D01*
X264644Y483516D01*
X264703Y483388D01*
X264758Y483258D01*
X264810Y483126D01*
X264858Y482994D01*
X264902Y482859D01*
X264943Y482724D01*
X264980Y482588D01*
X265013Y482451D01*
X265042Y482312D01*
X265067Y482173D01*
X265089Y482034D01*
X265107Y481894D01*
X265120Y481753D01*
X265130Y481612D01*
X265136Y481471D01*
X265138Y481330D01*
X265138Y476250D01*
X265136Y476109D01*
X265130Y475968D01*
X265120Y475827D01*
X265107Y475686D01*
X265089Y475546D01*
X265067Y475407D01*
X265042Y475268D01*
X265013Y475129D01*
X264980Y474992D01*
X264943Y474856D01*
X264902Y474721D01*
X264858Y474586D01*
X264810Y474454D01*
X264758Y474322D01*
X264703Y474192D01*
X264644Y474064D01*
X264581Y473937D01*
X264515Y473813D01*
X264446Y473690D01*
X264373Y473569D01*
X264297Y473450D01*
X264217Y473333D01*
X264134Y473219D01*
X264049Y473106D01*
X263960Y472997D01*
X263868Y472889D01*
X263773Y472785D01*
X263675Y472683D01*
X263574Y472584D01*
X263471Y472487D01*
X263365Y472394D01*
X263257Y472304D01*
X263146Y472216D01*
X263033Y472132D01*
X262917Y472051D01*
X262799Y471973D01*
X262679Y471898D01*
X262557Y471827D01*
X262433Y471759D01*
X262307Y471695D01*
X262180Y471634D01*
X262051Y471577D01*
X261920Y471524D01*
X261788Y471474D01*
X261655Y471427D01*
X261520Y471385D01*
X261384Y471346D01*
X261247Y471311D01*
X261110Y471280D01*
X260971Y471253D01*
X260832Y471229D01*
X260692Y471210D01*
X260552Y471194D01*
X260411Y471182D01*
X260270Y471174D01*
X260129Y471170D01*
X259987Y471170D01*
X259846Y471174D01*
X259705Y471182D01*
X259564Y471194D01*
X259424Y471210D01*
X259284Y471229D01*
X259145Y471253D01*
X259006Y471280D01*
X258869Y471311D01*
X258732Y471346D01*
X258596Y471385D01*
X258461Y471427D01*
X258328Y471474D01*
X258196Y471524D01*
X258065Y471577D01*
X257936Y471634D01*
X257809Y471695D01*
X257683Y471759D01*
X257559Y471827D01*
X257437Y471898D01*
X257317Y471973D01*
X257199Y472051D01*
X257083Y472132D01*
X256970Y472216D01*
X256859Y472304D01*
X256751Y472394D01*
X256645Y472487D01*
X256542Y472584D01*
X256441Y472683D01*
X256343Y472785D01*
X256248Y472889D01*
X256156Y472997D01*
X256067Y473106D01*
X255982Y473219D01*
X255899Y473333D01*
X255819Y473450D01*
X255743Y473569D01*
X255670Y473690D01*
X255601Y473813D01*
X255535Y473937D01*
X255472Y474064D01*
X255413Y474192D01*
X255358Y474322D01*
X255306Y474454D01*
X255258Y474586D01*
X255214Y474721D01*
X255173Y474856D01*
X255136Y474992D01*
X255103Y475129D01*
X255074Y475268D01*
X255049Y475407D01*
X255027Y475546D01*
X255009Y475686D01*
X254996Y475827D01*
X254986Y475968D01*
X254980Y476109D01*
X254978Y476250D01*
X273769Y471170D02*
X273769Y486410D01*
X280119Y486410D01*
X280241Y486408D01*
X280363Y486402D01*
X280485Y486392D01*
X280606Y486379D01*
X280727Y486361D01*
X280847Y486340D01*
X280967Y486314D01*
X281085Y486285D01*
X281203Y486253D01*
X281320Y486216D01*
X281435Y486176D01*
X281549Y486132D01*
X281661Y486084D01*
X281772Y486033D01*
X281881Y485978D01*
X281989Y485920D01*
X282094Y485858D01*
X282197Y485793D01*
X282299Y485725D01*
X282398Y485653D01*
X282494Y485579D01*
X282589Y485501D01*
X282680Y485420D01*
X282770Y485337D01*
X282856Y485251D01*
X282939Y485161D01*
X283020Y485070D01*
X283098Y484975D01*
X283172Y484879D01*
X283244Y484780D01*
X283312Y484678D01*
X283377Y484575D01*
X283439Y484470D01*
X283497Y484362D01*
X283552Y484253D01*
X283603Y484142D01*
X283651Y484030D01*
X283695Y483916D01*
X283735Y483801D01*
X283772Y483684D01*
X283804Y483566D01*
X283833Y483448D01*
X283859Y483328D01*
X283880Y483208D01*
X283898Y483087D01*
X283911Y482966D01*
X283921Y482844D01*
X283927Y482722D01*
X283929Y482600D01*
X283929Y471170D01*
X296370Y471170D02*
X302720Y471170D01*
X296370Y471170D02*
X296248Y471172D01*
X296126Y471178D01*
X296004Y471188D01*
X295883Y471201D01*
X295762Y471219D01*
X295642Y471240D01*
X295522Y471266D01*
X295404Y471295D01*
X295286Y471327D01*
X295169Y471364D01*
X295054Y471404D01*
X294940Y471448D01*
X294828Y471496D01*
X294717Y471547D01*
X294608Y471602D01*
X294500Y471660D01*
X294395Y471722D01*
X294292Y471787D01*
X294190Y471855D01*
X294091Y471927D01*
X293995Y472001D01*
X293900Y472079D01*
X293809Y472160D01*
X293719Y472243D01*
X293633Y472329D01*
X293550Y472419D01*
X293469Y472510D01*
X293391Y472605D01*
X293317Y472701D01*
X293245Y472800D01*
X293177Y472902D01*
X293112Y473005D01*
X293050Y473110D01*
X292992Y473218D01*
X292937Y473327D01*
X292886Y473438D01*
X292838Y473550D01*
X292794Y473664D01*
X292754Y473779D01*
X292717Y473896D01*
X292685Y474014D01*
X292656Y474132D01*
X292630Y474252D01*
X292609Y474372D01*
X292591Y474493D01*
X292578Y474614D01*
X292568Y474736D01*
X292562Y474858D01*
X292560Y474980D01*
X292560Y481330D01*
X292562Y481471D01*
X292568Y481612D01*
X292578Y481753D01*
X292591Y481894D01*
X292609Y482034D01*
X292631Y482173D01*
X292656Y482312D01*
X292685Y482451D01*
X292718Y482588D01*
X292755Y482724D01*
X292796Y482859D01*
X292840Y482994D01*
X292888Y483126D01*
X292940Y483258D01*
X292995Y483388D01*
X293054Y483516D01*
X293117Y483643D01*
X293183Y483767D01*
X293252Y483890D01*
X293325Y484011D01*
X293401Y484130D01*
X293481Y484247D01*
X293564Y484361D01*
X293649Y484474D01*
X293738Y484583D01*
X293830Y484691D01*
X293925Y484795D01*
X294023Y484897D01*
X294124Y484996D01*
X294227Y485093D01*
X294333Y485186D01*
X294441Y485276D01*
X294552Y485364D01*
X294665Y485448D01*
X294781Y485529D01*
X294899Y485607D01*
X295019Y485682D01*
X295141Y485753D01*
X295265Y485821D01*
X295391Y485885D01*
X295518Y485946D01*
X295647Y486003D01*
X295778Y486056D01*
X295910Y486106D01*
X296043Y486153D01*
X296178Y486195D01*
X296314Y486234D01*
X296451Y486269D01*
X296588Y486300D01*
X296727Y486327D01*
X296866Y486351D01*
X297006Y486370D01*
X297146Y486386D01*
X297287Y486398D01*
X297428Y486406D01*
X297569Y486410D01*
X297711Y486410D01*
X297852Y486406D01*
X297993Y486398D01*
X298134Y486386D01*
X298274Y486370D01*
X298414Y486351D01*
X298553Y486327D01*
X298692Y486300D01*
X298829Y486269D01*
X298966Y486234D01*
X299102Y486195D01*
X299237Y486153D01*
X299370Y486106D01*
X299502Y486056D01*
X299633Y486003D01*
X299762Y485946D01*
X299889Y485885D01*
X300015Y485821D01*
X300139Y485753D01*
X300261Y485682D01*
X300381Y485607D01*
X300499Y485529D01*
X300615Y485448D01*
X300728Y485364D01*
X300839Y485276D01*
X300947Y485186D01*
X301053Y485093D01*
X301156Y484996D01*
X301257Y484897D01*
X301355Y484795D01*
X301450Y484691D01*
X301542Y484583D01*
X301631Y484474D01*
X301716Y484361D01*
X301799Y484247D01*
X301879Y484130D01*
X301955Y484011D01*
X302028Y483890D01*
X302097Y483767D01*
X302163Y483643D01*
X302226Y483516D01*
X302285Y483388D01*
X302340Y483258D01*
X302392Y483126D01*
X302440Y482994D01*
X302484Y482859D01*
X302525Y482724D01*
X302562Y482588D01*
X302595Y482451D01*
X302624Y482312D01*
X302649Y482173D01*
X302671Y482034D01*
X302689Y481894D01*
X302702Y481753D01*
X302712Y481612D01*
X302718Y481471D01*
X302720Y481330D01*
X302720Y478790D01*
X292560Y478790D01*
X312560Y480060D02*
X318910Y477520D01*
X312560Y480060D02*
X312455Y480104D01*
X312351Y480152D01*
X312249Y480203D01*
X312149Y480258D01*
X312051Y480316D01*
X311955Y480378D01*
X311861Y480443D01*
X311769Y480512D01*
X311680Y480583D01*
X311593Y480658D01*
X311509Y480735D01*
X311428Y480815D01*
X311350Y480898D01*
X311274Y480984D01*
X311202Y481072D01*
X311132Y481163D01*
X311066Y481256D01*
X311003Y481352D01*
X310944Y481449D01*
X310888Y481549D01*
X310835Y481650D01*
X310786Y481753D01*
X310740Y481858D01*
X310698Y481964D01*
X310660Y482072D01*
X310626Y482181D01*
X310595Y482291D01*
X310569Y482402D01*
X310546Y482514D01*
X310527Y482626D01*
X310512Y482740D01*
X310501Y482853D01*
X310493Y482967D01*
X310490Y483082D01*
X310491Y483196D01*
X310496Y483310D01*
X310504Y483424D01*
X310517Y483537D01*
X310533Y483650D01*
X310554Y483763D01*
X310578Y483874D01*
X310606Y483985D01*
X310639Y484095D01*
X310674Y484203D01*
X310714Y484310D01*
X310757Y484416D01*
X310804Y484520D01*
X310854Y484623D01*
X310908Y484723D01*
X310966Y484822D01*
X311027Y484919D01*
X311091Y485013D01*
X311158Y485106D01*
X311229Y485196D01*
X311302Y485283D01*
X311379Y485368D01*
X311459Y485450D01*
X311541Y485529D01*
X311626Y485605D01*
X311714Y485678D01*
X311804Y485749D01*
X311896Y485816D01*
X311991Y485880D01*
X312088Y485940D01*
X312187Y485997D01*
X312288Y486051D01*
X312390Y486101D01*
X312495Y486147D01*
X312600Y486190D01*
X312708Y486229D01*
X312816Y486265D01*
X312926Y486297D01*
X313037Y486324D01*
X313149Y486348D01*
X313261Y486368D01*
X313374Y486385D01*
X313488Y486397D01*
X313602Y486405D01*
X313716Y486409D01*
X313830Y486410D01*
X314177Y486400D01*
X314523Y486383D01*
X314869Y486357D01*
X315214Y486323D01*
X315558Y486281D01*
X315901Y486230D01*
X316243Y486171D01*
X316583Y486104D01*
X316922Y486029D01*
X317258Y485946D01*
X317593Y485854D01*
X317925Y485755D01*
X318255Y485647D01*
X318582Y485532D01*
X318906Y485409D01*
X319227Y485278D01*
X319545Y485140D01*
X318910Y477520D02*
X319015Y477476D01*
X319119Y477428D01*
X319221Y477377D01*
X319321Y477322D01*
X319419Y477264D01*
X319515Y477202D01*
X319609Y477137D01*
X319701Y477068D01*
X319790Y476997D01*
X319877Y476922D01*
X319961Y476845D01*
X320042Y476765D01*
X320120Y476682D01*
X320196Y476596D01*
X320268Y476508D01*
X320338Y476417D01*
X320404Y476324D01*
X320467Y476228D01*
X320526Y476131D01*
X320582Y476031D01*
X320635Y475930D01*
X320684Y475827D01*
X320730Y475722D01*
X320772Y475616D01*
X320810Y475508D01*
X320844Y475399D01*
X320875Y475289D01*
X320901Y475178D01*
X320924Y475066D01*
X320943Y474954D01*
X320958Y474840D01*
X320969Y474727D01*
X320977Y474613D01*
X320980Y474498D01*
X320979Y474384D01*
X320974Y474270D01*
X320966Y474156D01*
X320953Y474043D01*
X320937Y473930D01*
X320916Y473817D01*
X320892Y473706D01*
X320864Y473595D01*
X320831Y473485D01*
X320796Y473377D01*
X320756Y473270D01*
X320713Y473164D01*
X320666Y473060D01*
X320616Y472957D01*
X320562Y472857D01*
X320504Y472758D01*
X320443Y472661D01*
X320379Y472567D01*
X320312Y472474D01*
X320241Y472384D01*
X320168Y472297D01*
X320091Y472212D01*
X320011Y472130D01*
X319929Y472051D01*
X319844Y471975D01*
X319756Y471902D01*
X319666Y471831D01*
X319574Y471764D01*
X319479Y471700D01*
X319382Y471640D01*
X319283Y471583D01*
X319182Y471529D01*
X319080Y471479D01*
X318975Y471433D01*
X318870Y471390D01*
X318762Y471351D01*
X318654Y471315D01*
X318544Y471283D01*
X318433Y471256D01*
X318321Y471232D01*
X318209Y471212D01*
X318096Y471195D01*
X317982Y471183D01*
X317868Y471175D01*
X317754Y471171D01*
X317640Y471170D01*
X317131Y471183D01*
X316622Y471209D01*
X316114Y471246D01*
X315607Y471296D01*
X315102Y471357D01*
X314597Y471430D01*
X314095Y471515D01*
X313595Y471612D01*
X313097Y471721D01*
X312602Y471842D01*
X312110Y471974D01*
X311622Y472118D01*
X311137Y472273D01*
X310655Y472440D01*
X327127Y486410D02*
X334747Y486410D01*
X329667Y494030D02*
X329667Y474980D01*
X329669Y474858D01*
X329675Y474736D01*
X329685Y474614D01*
X329698Y474493D01*
X329716Y474372D01*
X329737Y474252D01*
X329763Y474132D01*
X329792Y474014D01*
X329824Y473896D01*
X329861Y473779D01*
X329901Y473664D01*
X329945Y473550D01*
X329993Y473438D01*
X330044Y473327D01*
X330099Y473218D01*
X330157Y473110D01*
X330219Y473005D01*
X330284Y472902D01*
X330352Y472800D01*
X330424Y472701D01*
X330498Y472605D01*
X330576Y472510D01*
X330657Y472419D01*
X330740Y472329D01*
X330826Y472243D01*
X330916Y472160D01*
X331007Y472079D01*
X331102Y472001D01*
X331198Y471927D01*
X331297Y471855D01*
X331399Y471787D01*
X331502Y471722D01*
X331607Y471660D01*
X331715Y471602D01*
X331824Y471547D01*
X331935Y471496D01*
X332047Y471448D01*
X332161Y471404D01*
X332276Y471364D01*
X332393Y471327D01*
X332511Y471295D01*
X332629Y471266D01*
X332749Y471240D01*
X332869Y471219D01*
X332990Y471201D01*
X333111Y471188D01*
X333233Y471178D01*
X333355Y471172D01*
X333477Y471170D01*
X334747Y471170D01*
X341973Y476250D02*
X341973Y481330D01*
X341975Y481471D01*
X341981Y481612D01*
X341991Y481753D01*
X342004Y481894D01*
X342022Y482034D01*
X342044Y482173D01*
X342069Y482312D01*
X342098Y482451D01*
X342131Y482588D01*
X342168Y482724D01*
X342209Y482859D01*
X342253Y482994D01*
X342301Y483126D01*
X342353Y483258D01*
X342408Y483388D01*
X342467Y483516D01*
X342530Y483643D01*
X342596Y483767D01*
X342665Y483890D01*
X342738Y484011D01*
X342814Y484130D01*
X342894Y484247D01*
X342977Y484361D01*
X343062Y484474D01*
X343151Y484583D01*
X343243Y484691D01*
X343338Y484795D01*
X343436Y484897D01*
X343537Y484996D01*
X343640Y485093D01*
X343746Y485186D01*
X343854Y485276D01*
X343965Y485364D01*
X344078Y485448D01*
X344194Y485529D01*
X344312Y485607D01*
X344432Y485682D01*
X344554Y485753D01*
X344678Y485821D01*
X344804Y485885D01*
X344931Y485946D01*
X345060Y486003D01*
X345191Y486056D01*
X345323Y486106D01*
X345456Y486153D01*
X345591Y486195D01*
X345727Y486234D01*
X345864Y486269D01*
X346001Y486300D01*
X346140Y486327D01*
X346279Y486351D01*
X346419Y486370D01*
X346559Y486386D01*
X346700Y486398D01*
X346841Y486406D01*
X346982Y486410D01*
X347124Y486410D01*
X347265Y486406D01*
X347406Y486398D01*
X347547Y486386D01*
X347687Y486370D01*
X347827Y486351D01*
X347966Y486327D01*
X348105Y486300D01*
X348242Y486269D01*
X348379Y486234D01*
X348515Y486195D01*
X348650Y486153D01*
X348783Y486106D01*
X348915Y486056D01*
X349046Y486003D01*
X349175Y485946D01*
X349302Y485885D01*
X349428Y485821D01*
X349552Y485753D01*
X349674Y485682D01*
X349794Y485607D01*
X349912Y485529D01*
X350028Y485448D01*
X350141Y485364D01*
X350252Y485276D01*
X350360Y485186D01*
X350466Y485093D01*
X350569Y484996D01*
X350670Y484897D01*
X350768Y484795D01*
X350863Y484691D01*
X350955Y484583D01*
X351044Y484474D01*
X351129Y484361D01*
X351212Y484247D01*
X351292Y484130D01*
X351368Y484011D01*
X351441Y483890D01*
X351510Y483767D01*
X351576Y483643D01*
X351639Y483516D01*
X351698Y483388D01*
X351753Y483258D01*
X351805Y483126D01*
X351853Y482994D01*
X351897Y482859D01*
X351938Y482724D01*
X351975Y482588D01*
X352008Y482451D01*
X352037Y482312D01*
X352062Y482173D01*
X352084Y482034D01*
X352102Y481894D01*
X352115Y481753D01*
X352125Y481612D01*
X352131Y481471D01*
X352133Y481330D01*
X352133Y476250D01*
X352131Y476109D01*
X352125Y475968D01*
X352115Y475827D01*
X352102Y475686D01*
X352084Y475546D01*
X352062Y475407D01*
X352037Y475268D01*
X352008Y475129D01*
X351975Y474992D01*
X351938Y474856D01*
X351897Y474721D01*
X351853Y474586D01*
X351805Y474454D01*
X351753Y474322D01*
X351698Y474192D01*
X351639Y474064D01*
X351576Y473937D01*
X351510Y473813D01*
X351441Y473690D01*
X351368Y473569D01*
X351292Y473450D01*
X351212Y473333D01*
X351129Y473219D01*
X351044Y473106D01*
X350955Y472997D01*
X350863Y472889D01*
X350768Y472785D01*
X350670Y472683D01*
X350569Y472584D01*
X350466Y472487D01*
X350360Y472394D01*
X350252Y472304D01*
X350141Y472216D01*
X350028Y472132D01*
X349912Y472051D01*
X349794Y471973D01*
X349674Y471898D01*
X349552Y471827D01*
X349428Y471759D01*
X349302Y471695D01*
X349175Y471634D01*
X349046Y471577D01*
X348915Y471524D01*
X348783Y471474D01*
X348650Y471427D01*
X348515Y471385D01*
X348379Y471346D01*
X348242Y471311D01*
X348105Y471280D01*
X347966Y471253D01*
X347827Y471229D01*
X347687Y471210D01*
X347547Y471194D01*
X347406Y471182D01*
X347265Y471174D01*
X347124Y471170D01*
X346982Y471170D01*
X346841Y471174D01*
X346700Y471182D01*
X346559Y471194D01*
X346419Y471210D01*
X346279Y471229D01*
X346140Y471253D01*
X346001Y471280D01*
X345864Y471311D01*
X345727Y471346D01*
X345591Y471385D01*
X345456Y471427D01*
X345323Y471474D01*
X345191Y471524D01*
X345060Y471577D01*
X344931Y471634D01*
X344804Y471695D01*
X344678Y471759D01*
X344554Y471827D01*
X344432Y471898D01*
X344312Y471973D01*
X344194Y472051D01*
X344078Y472132D01*
X343965Y472216D01*
X343854Y472304D01*
X343746Y472394D01*
X343640Y472487D01*
X343537Y472584D01*
X343436Y472683D01*
X343338Y472785D01*
X343243Y472889D01*
X343151Y472997D01*
X343062Y473106D01*
X342977Y473219D01*
X342894Y473333D01*
X342814Y473450D01*
X342738Y473569D01*
X342665Y473690D01*
X342596Y473813D01*
X342530Y473937D01*
X342467Y474064D01*
X342408Y474192D01*
X342353Y474322D01*
X342301Y474454D01*
X342253Y474586D01*
X342209Y474721D01*
X342168Y474856D01*
X342131Y474992D01*
X342098Y475129D01*
X342069Y475268D01*
X342044Y475407D01*
X342022Y475546D01*
X342004Y475686D01*
X341991Y475827D01*
X341981Y475968D01*
X341975Y476109D01*
X341973Y476250D01*
X360764Y471170D02*
X360764Y486410D01*
X367114Y486410D01*
X367236Y486408D01*
X367358Y486402D01*
X367480Y486392D01*
X367601Y486379D01*
X367722Y486361D01*
X367842Y486340D01*
X367962Y486314D01*
X368080Y486285D01*
X368198Y486253D01*
X368315Y486216D01*
X368430Y486176D01*
X368544Y486132D01*
X368656Y486084D01*
X368767Y486033D01*
X368876Y485978D01*
X368984Y485920D01*
X369089Y485858D01*
X369192Y485793D01*
X369294Y485725D01*
X369393Y485653D01*
X369489Y485579D01*
X369584Y485501D01*
X369675Y485420D01*
X369765Y485337D01*
X369851Y485251D01*
X369934Y485161D01*
X370015Y485070D01*
X370093Y484975D01*
X370167Y484879D01*
X370239Y484780D01*
X370307Y484678D01*
X370372Y484575D01*
X370434Y484470D01*
X370492Y484362D01*
X370547Y484253D01*
X370598Y484142D01*
X370646Y484030D01*
X370690Y483916D01*
X370730Y483801D01*
X370767Y483684D01*
X370799Y483566D01*
X370828Y483448D01*
X370854Y483328D01*
X370875Y483208D01*
X370893Y483087D01*
X370906Y482966D01*
X370916Y482844D01*
X370922Y482722D01*
X370924Y482600D01*
X370924Y471170D01*
X383365Y471170D02*
X389715Y471170D01*
X383365Y471170D02*
X383243Y471172D01*
X383121Y471178D01*
X382999Y471188D01*
X382878Y471201D01*
X382757Y471219D01*
X382637Y471240D01*
X382517Y471266D01*
X382399Y471295D01*
X382281Y471327D01*
X382164Y471364D01*
X382049Y471404D01*
X381935Y471448D01*
X381823Y471496D01*
X381712Y471547D01*
X381603Y471602D01*
X381495Y471660D01*
X381390Y471722D01*
X381287Y471787D01*
X381185Y471855D01*
X381086Y471927D01*
X380990Y472001D01*
X380895Y472079D01*
X380804Y472160D01*
X380714Y472243D01*
X380628Y472329D01*
X380545Y472419D01*
X380464Y472510D01*
X380386Y472605D01*
X380312Y472701D01*
X380240Y472800D01*
X380172Y472902D01*
X380107Y473005D01*
X380045Y473110D01*
X379987Y473218D01*
X379932Y473327D01*
X379881Y473438D01*
X379833Y473550D01*
X379789Y473664D01*
X379749Y473779D01*
X379712Y473896D01*
X379680Y474014D01*
X379651Y474132D01*
X379625Y474252D01*
X379604Y474372D01*
X379586Y474493D01*
X379573Y474614D01*
X379563Y474736D01*
X379557Y474858D01*
X379555Y474980D01*
X379555Y481330D01*
X379557Y481471D01*
X379563Y481612D01*
X379573Y481753D01*
X379586Y481894D01*
X379604Y482034D01*
X379626Y482173D01*
X379651Y482312D01*
X379680Y482451D01*
X379713Y482588D01*
X379750Y482724D01*
X379791Y482859D01*
X379835Y482994D01*
X379883Y483126D01*
X379935Y483258D01*
X379990Y483388D01*
X380049Y483516D01*
X380112Y483643D01*
X380178Y483767D01*
X380247Y483890D01*
X380320Y484011D01*
X380396Y484130D01*
X380476Y484247D01*
X380559Y484361D01*
X380644Y484474D01*
X380733Y484583D01*
X380825Y484691D01*
X380920Y484795D01*
X381018Y484897D01*
X381119Y484996D01*
X381222Y485093D01*
X381328Y485186D01*
X381436Y485276D01*
X381547Y485364D01*
X381660Y485448D01*
X381776Y485529D01*
X381894Y485607D01*
X382014Y485682D01*
X382136Y485753D01*
X382260Y485821D01*
X382386Y485885D01*
X382513Y485946D01*
X382642Y486003D01*
X382773Y486056D01*
X382905Y486106D01*
X383038Y486153D01*
X383173Y486195D01*
X383309Y486234D01*
X383446Y486269D01*
X383583Y486300D01*
X383722Y486327D01*
X383861Y486351D01*
X384001Y486370D01*
X384141Y486386D01*
X384282Y486398D01*
X384423Y486406D01*
X384564Y486410D01*
X384706Y486410D01*
X384847Y486406D01*
X384988Y486398D01*
X385129Y486386D01*
X385269Y486370D01*
X385409Y486351D01*
X385548Y486327D01*
X385687Y486300D01*
X385824Y486269D01*
X385961Y486234D01*
X386097Y486195D01*
X386232Y486153D01*
X386365Y486106D01*
X386497Y486056D01*
X386628Y486003D01*
X386757Y485946D01*
X386884Y485885D01*
X387010Y485821D01*
X387134Y485753D01*
X387256Y485682D01*
X387376Y485607D01*
X387494Y485529D01*
X387610Y485448D01*
X387723Y485364D01*
X387834Y485276D01*
X387942Y485186D01*
X388048Y485093D01*
X388151Y484996D01*
X388252Y484897D01*
X388350Y484795D01*
X388445Y484691D01*
X388537Y484583D01*
X388626Y484474D01*
X388711Y484361D01*
X388794Y484247D01*
X388874Y484130D01*
X388950Y484011D01*
X389023Y483890D01*
X389092Y483767D01*
X389158Y483643D01*
X389221Y483516D01*
X389280Y483388D01*
X389335Y483258D01*
X389387Y483126D01*
X389435Y482994D01*
X389479Y482859D01*
X389520Y482724D01*
X389557Y482588D01*
X389590Y482451D01*
X389619Y482312D01*
X389644Y482173D01*
X389666Y482034D01*
X389684Y481894D01*
X389697Y481753D01*
X389707Y481612D01*
X389713Y481471D01*
X389715Y481330D01*
X389715Y478790D01*
X379555Y478790D01*
X397223Y472440D02*
X397223Y471170D01*
X397223Y472440D02*
X398493Y472440D01*
X398493Y471170D01*
X397223Y471170D01*
X406697Y471170D02*
X406697Y486410D01*
X413047Y486410D01*
X413169Y486408D01*
X413291Y486402D01*
X413413Y486392D01*
X413534Y486379D01*
X413655Y486361D01*
X413775Y486340D01*
X413895Y486314D01*
X414013Y486285D01*
X414131Y486253D01*
X414248Y486216D01*
X414363Y486176D01*
X414477Y486132D01*
X414589Y486084D01*
X414700Y486033D01*
X414809Y485978D01*
X414917Y485920D01*
X415022Y485858D01*
X415125Y485793D01*
X415227Y485725D01*
X415326Y485653D01*
X415422Y485579D01*
X415517Y485501D01*
X415608Y485420D01*
X415698Y485337D01*
X415784Y485251D01*
X415867Y485161D01*
X415948Y485070D01*
X416026Y484975D01*
X416100Y484879D01*
X416172Y484780D01*
X416240Y484678D01*
X416305Y484575D01*
X416367Y484470D01*
X416425Y484362D01*
X416480Y484253D01*
X416531Y484142D01*
X416579Y484030D01*
X416623Y483916D01*
X416663Y483801D01*
X416700Y483684D01*
X416732Y483566D01*
X416761Y483448D01*
X416787Y483328D01*
X416808Y483208D01*
X416826Y483087D01*
X416839Y482966D01*
X416849Y482844D01*
X416855Y482722D01*
X416857Y482600D01*
X416857Y471170D01*
X429298Y471170D02*
X435648Y471170D01*
X429298Y471170D02*
X429176Y471172D01*
X429054Y471178D01*
X428932Y471188D01*
X428811Y471201D01*
X428690Y471219D01*
X428570Y471240D01*
X428450Y471266D01*
X428332Y471295D01*
X428214Y471327D01*
X428097Y471364D01*
X427982Y471404D01*
X427868Y471448D01*
X427756Y471496D01*
X427645Y471547D01*
X427536Y471602D01*
X427428Y471660D01*
X427323Y471722D01*
X427220Y471787D01*
X427118Y471855D01*
X427019Y471927D01*
X426923Y472001D01*
X426828Y472079D01*
X426737Y472160D01*
X426647Y472243D01*
X426561Y472329D01*
X426478Y472419D01*
X426397Y472510D01*
X426319Y472605D01*
X426245Y472701D01*
X426173Y472800D01*
X426105Y472902D01*
X426040Y473005D01*
X425978Y473110D01*
X425920Y473218D01*
X425865Y473327D01*
X425814Y473438D01*
X425766Y473550D01*
X425722Y473664D01*
X425682Y473779D01*
X425645Y473896D01*
X425613Y474014D01*
X425584Y474132D01*
X425558Y474252D01*
X425537Y474372D01*
X425519Y474493D01*
X425506Y474614D01*
X425496Y474736D01*
X425490Y474858D01*
X425488Y474980D01*
X425488Y481330D01*
X425490Y481471D01*
X425496Y481612D01*
X425506Y481753D01*
X425519Y481894D01*
X425537Y482034D01*
X425559Y482173D01*
X425584Y482312D01*
X425613Y482451D01*
X425646Y482588D01*
X425683Y482724D01*
X425724Y482859D01*
X425768Y482994D01*
X425816Y483126D01*
X425868Y483258D01*
X425923Y483388D01*
X425982Y483516D01*
X426045Y483643D01*
X426111Y483767D01*
X426180Y483890D01*
X426253Y484011D01*
X426329Y484130D01*
X426409Y484247D01*
X426492Y484361D01*
X426577Y484474D01*
X426666Y484583D01*
X426758Y484691D01*
X426853Y484795D01*
X426951Y484897D01*
X427052Y484996D01*
X427155Y485093D01*
X427261Y485186D01*
X427369Y485276D01*
X427480Y485364D01*
X427593Y485448D01*
X427709Y485529D01*
X427827Y485607D01*
X427947Y485682D01*
X428069Y485753D01*
X428193Y485821D01*
X428319Y485885D01*
X428446Y485946D01*
X428575Y486003D01*
X428706Y486056D01*
X428838Y486106D01*
X428971Y486153D01*
X429106Y486195D01*
X429242Y486234D01*
X429379Y486269D01*
X429516Y486300D01*
X429655Y486327D01*
X429794Y486351D01*
X429934Y486370D01*
X430074Y486386D01*
X430215Y486398D01*
X430356Y486406D01*
X430497Y486410D01*
X430639Y486410D01*
X430780Y486406D01*
X430921Y486398D01*
X431062Y486386D01*
X431202Y486370D01*
X431342Y486351D01*
X431481Y486327D01*
X431620Y486300D01*
X431757Y486269D01*
X431894Y486234D01*
X432030Y486195D01*
X432165Y486153D01*
X432298Y486106D01*
X432430Y486056D01*
X432561Y486003D01*
X432690Y485946D01*
X432817Y485885D01*
X432943Y485821D01*
X433067Y485753D01*
X433189Y485682D01*
X433309Y485607D01*
X433427Y485529D01*
X433543Y485448D01*
X433656Y485364D01*
X433767Y485276D01*
X433875Y485186D01*
X433981Y485093D01*
X434084Y484996D01*
X434185Y484897D01*
X434283Y484795D01*
X434378Y484691D01*
X434470Y484583D01*
X434559Y484474D01*
X434644Y484361D01*
X434727Y484247D01*
X434807Y484130D01*
X434883Y484011D01*
X434956Y483890D01*
X435025Y483767D01*
X435091Y483643D01*
X435154Y483516D01*
X435213Y483388D01*
X435268Y483258D01*
X435320Y483126D01*
X435368Y482994D01*
X435412Y482859D01*
X435453Y482724D01*
X435490Y482588D01*
X435523Y482451D01*
X435552Y482312D01*
X435577Y482173D01*
X435599Y482034D01*
X435617Y481894D01*
X435630Y481753D01*
X435640Y481612D01*
X435646Y481471D01*
X435648Y481330D01*
X435648Y478790D01*
X425488Y478790D01*
X441960Y486410D02*
X449580Y486410D01*
X444500Y494030D02*
X444500Y474980D01*
X444502Y474858D01*
X444508Y474736D01*
X444518Y474614D01*
X444531Y474493D01*
X444549Y474372D01*
X444570Y474252D01*
X444596Y474132D01*
X444625Y474014D01*
X444657Y473896D01*
X444694Y473779D01*
X444734Y473664D01*
X444778Y473550D01*
X444826Y473438D01*
X444877Y473327D01*
X444932Y473218D01*
X444990Y473110D01*
X445052Y473005D01*
X445117Y472902D01*
X445185Y472800D01*
X445257Y472701D01*
X445331Y472605D01*
X445409Y472510D01*
X445490Y472419D01*
X445573Y472329D01*
X445659Y472243D01*
X445749Y472160D01*
X445840Y472079D01*
X445935Y472001D01*
X446031Y471927D01*
X446130Y471855D01*
X446232Y471787D01*
X446335Y471722D01*
X446440Y471660D01*
X446548Y471602D01*
X446657Y471547D01*
X446768Y471496D01*
X446880Y471448D01*
X446994Y471404D01*
X447109Y471364D01*
X447226Y471327D01*
X447344Y471295D01*
X447462Y471266D01*
X447582Y471240D01*
X447702Y471219D01*
X447823Y471201D01*
X447944Y471188D01*
X448066Y471178D01*
X448188Y471172D01*
X448310Y471170D01*
X449580Y471170D01*
D11*
X206503Y27940D02*
X206501Y28124D01*
X206494Y28308D01*
X206483Y28492D01*
X206467Y28675D01*
X206447Y28858D01*
X206422Y29040D01*
X206393Y29222D01*
X206360Y29403D01*
X206322Y29583D01*
X206280Y29762D01*
X206233Y29940D01*
X206183Y30117D01*
X206127Y30293D01*
X206068Y30467D01*
X206004Y30640D01*
X205937Y30811D01*
X205865Y30980D01*
X205788Y31148D01*
X205708Y31313D01*
X205624Y31477D01*
X205536Y31639D01*
X205444Y31798D01*
X205348Y31955D01*
X205249Y32110D01*
X205145Y32262D01*
X205038Y32412D01*
X204927Y32559D01*
X204813Y32703D01*
X204695Y32844D01*
X204574Y32983D01*
X204450Y33118D01*
X204322Y33251D01*
X204191Y33380D01*
X204057Y33506D01*
X203920Y33629D01*
X203780Y33749D01*
X203637Y33865D01*
X203491Y33977D01*
X203343Y34086D01*
X203192Y34191D01*
X203039Y34293D01*
X202883Y34391D01*
X202725Y34485D01*
X202564Y34575D01*
X202401Y34661D01*
X202237Y34743D01*
X202070Y34821D01*
X201902Y34895D01*
X201731Y34965D01*
X201559Y35031D01*
X201386Y35092D01*
X201211Y35150D01*
X201035Y35203D01*
X200857Y35251D01*
X200679Y35296D01*
X200499Y35336D01*
X200319Y35371D01*
X200137Y35403D01*
X199955Y35429D01*
X199773Y35452D01*
X199589Y35470D01*
X199406Y35483D01*
X199222Y35492D01*
X199038Y35496D01*
X198854Y35496D01*
X198670Y35492D01*
X198486Y35483D01*
X198303Y35470D01*
X198119Y35452D01*
X197937Y35429D01*
X197755Y35403D01*
X197573Y35371D01*
X197393Y35336D01*
X197213Y35296D01*
X197035Y35251D01*
X196857Y35203D01*
X196681Y35150D01*
X196506Y35092D01*
X196333Y35031D01*
X196161Y34965D01*
X195990Y34895D01*
X195822Y34821D01*
X195655Y34743D01*
X195491Y34661D01*
X195328Y34575D01*
X195168Y34485D01*
X195009Y34391D01*
X194853Y34293D01*
X194700Y34191D01*
X194549Y34086D01*
X194401Y33977D01*
X194255Y33865D01*
X194112Y33749D01*
X193972Y33629D01*
X193835Y33506D01*
X193701Y33380D01*
X193570Y33251D01*
X193442Y33118D01*
X193318Y32983D01*
X193197Y32844D01*
X193079Y32703D01*
X192965Y32559D01*
X192854Y32412D01*
X192747Y32262D01*
X192643Y32110D01*
X192544Y31955D01*
X192448Y31798D01*
X192356Y31639D01*
X192268Y31477D01*
X192184Y31313D01*
X192104Y31148D01*
X192027Y30980D01*
X191955Y30811D01*
X191888Y30640D01*
X191824Y30467D01*
X191765Y30293D01*
X191709Y30117D01*
X191659Y29940D01*
X191612Y29762D01*
X191570Y29583D01*
X191532Y29403D01*
X191499Y29222D01*
X191470Y29040D01*
X191445Y28858D01*
X191425Y28675D01*
X191409Y28492D01*
X191398Y28308D01*
X191391Y28124D01*
X191389Y27940D01*
X191391Y27756D01*
X191398Y27572D01*
X191409Y27388D01*
X191425Y27205D01*
X191445Y27022D01*
X191470Y26840D01*
X191499Y26658D01*
X191532Y26477D01*
X191570Y26297D01*
X191612Y26118D01*
X191659Y25940D01*
X191709Y25763D01*
X191765Y25587D01*
X191824Y25413D01*
X191888Y25240D01*
X191955Y25069D01*
X192027Y24900D01*
X192104Y24732D01*
X192184Y24567D01*
X192268Y24403D01*
X192356Y24241D01*
X192448Y24082D01*
X192544Y23925D01*
X192643Y23770D01*
X192747Y23618D01*
X192854Y23468D01*
X192965Y23321D01*
X193079Y23177D01*
X193197Y23036D01*
X193318Y22897D01*
X193442Y22762D01*
X193570Y22629D01*
X193701Y22500D01*
X193835Y22374D01*
X193972Y22251D01*
X194112Y22131D01*
X194255Y22015D01*
X194401Y21903D01*
X194549Y21794D01*
X194700Y21689D01*
X194853Y21587D01*
X195009Y21489D01*
X195168Y21395D01*
X195328Y21305D01*
X195491Y21219D01*
X195655Y21137D01*
X195822Y21059D01*
X195990Y20985D01*
X196161Y20915D01*
X196333Y20849D01*
X196506Y20788D01*
X196681Y20730D01*
X196857Y20677D01*
X197035Y20629D01*
X197213Y20584D01*
X197393Y20544D01*
X197573Y20509D01*
X197755Y20477D01*
X197937Y20451D01*
X198119Y20428D01*
X198303Y20410D01*
X198486Y20397D01*
X198670Y20388D01*
X198854Y20384D01*
X199038Y20384D01*
X199222Y20388D01*
X199406Y20397D01*
X199589Y20410D01*
X199773Y20428D01*
X199955Y20451D01*
X200137Y20477D01*
X200319Y20509D01*
X200499Y20544D01*
X200679Y20584D01*
X200857Y20629D01*
X201035Y20677D01*
X201211Y20730D01*
X201386Y20788D01*
X201559Y20849D01*
X201731Y20915D01*
X201902Y20985D01*
X202070Y21059D01*
X202237Y21137D01*
X202401Y21219D01*
X202564Y21305D01*
X202725Y21395D01*
X202883Y21489D01*
X203039Y21587D01*
X203192Y21689D01*
X203343Y21794D01*
X203491Y21903D01*
X203637Y22015D01*
X203780Y22131D01*
X203920Y22251D01*
X204057Y22374D01*
X204191Y22500D01*
X204322Y22629D01*
X204450Y22762D01*
X204574Y22897D01*
X204695Y23036D01*
X204813Y23177D01*
X204927Y23321D01*
X205038Y23468D01*
X205145Y23618D01*
X205249Y23770D01*
X205348Y23925D01*
X205444Y24082D01*
X205536Y24241D01*
X205624Y24403D01*
X205708Y24567D01*
X205788Y24732D01*
X205865Y24900D01*
X205937Y25069D01*
X206004Y25240D01*
X206068Y25413D01*
X206127Y25587D01*
X206183Y25763D01*
X206233Y25940D01*
X206280Y26118D01*
X206322Y26297D01*
X206360Y26477D01*
X206393Y26658D01*
X206422Y26840D01*
X206447Y27022D01*
X206467Y27205D01*
X206483Y27388D01*
X206494Y27572D01*
X206501Y27756D01*
X206503Y27940D01*
X200724Y24384D02*
X198501Y24384D01*
X198419Y24386D01*
X198337Y24392D01*
X198255Y24401D01*
X198174Y24414D01*
X198094Y24431D01*
X198014Y24452D01*
X197936Y24476D01*
X197859Y24504D01*
X197783Y24535D01*
X197708Y24570D01*
X197636Y24609D01*
X197565Y24650D01*
X197496Y24695D01*
X197430Y24743D01*
X197365Y24794D01*
X197303Y24848D01*
X197244Y24905D01*
X197187Y24964D01*
X197133Y25026D01*
X197082Y25091D01*
X197034Y25157D01*
X196989Y25226D01*
X196948Y25297D01*
X196909Y25369D01*
X196874Y25444D01*
X196843Y25520D01*
X196815Y25597D01*
X196791Y25675D01*
X196770Y25755D01*
X196753Y25835D01*
X196740Y25916D01*
X196731Y25998D01*
X196725Y26080D01*
X196723Y26162D01*
X196723Y29718D01*
X196725Y29800D01*
X196731Y29882D01*
X196740Y29964D01*
X196753Y30045D01*
X196770Y30125D01*
X196791Y30205D01*
X196815Y30283D01*
X196843Y30360D01*
X196874Y30436D01*
X196909Y30511D01*
X196948Y30583D01*
X196989Y30654D01*
X197034Y30723D01*
X197082Y30789D01*
X197133Y30854D01*
X197187Y30916D01*
X197244Y30975D01*
X197303Y31032D01*
X197365Y31086D01*
X197430Y31137D01*
X197496Y31185D01*
X197565Y31230D01*
X197636Y31271D01*
X197708Y31310D01*
X197783Y31345D01*
X197859Y31376D01*
X197936Y31404D01*
X198014Y31428D01*
X198094Y31449D01*
X198174Y31466D01*
X198255Y31479D01*
X198337Y31488D01*
X198419Y31494D01*
X198501Y31496D01*
X200724Y31496D01*
X225334Y35941D02*
X225334Y23495D01*
X225332Y23379D01*
X225326Y23262D01*
X225317Y23146D01*
X225304Y23031D01*
X225287Y22916D01*
X225266Y22801D01*
X225241Y22688D01*
X225213Y22575D01*
X225181Y22463D01*
X225145Y22352D01*
X225106Y22242D01*
X225063Y22134D01*
X225017Y22027D01*
X224967Y21922D01*
X224914Y21819D01*
X224858Y21717D01*
X224798Y21617D01*
X224735Y21519D01*
X224668Y21424D01*
X224599Y21330D01*
X224527Y21239D01*
X224452Y21150D01*
X224373Y21064D01*
X224292Y20981D01*
X224209Y20900D01*
X224123Y20821D01*
X224034Y20746D01*
X223943Y20674D01*
X223849Y20605D01*
X223754Y20538D01*
X223656Y20475D01*
X223556Y20415D01*
X223454Y20359D01*
X223351Y20306D01*
X223246Y20256D01*
X223139Y20210D01*
X223031Y20167D01*
X222921Y20128D01*
X222810Y20092D01*
X222698Y20060D01*
X222585Y20032D01*
X222472Y20007D01*
X222357Y19986D01*
X222242Y19969D01*
X222127Y19956D01*
X222011Y19947D01*
X221894Y19941D01*
X221778Y19939D01*
X220000Y19939D01*
X236276Y23495D02*
X236276Y35941D01*
X236276Y23495D02*
X236274Y23379D01*
X236268Y23262D01*
X236259Y23146D01*
X236246Y23031D01*
X236229Y22916D01*
X236208Y22801D01*
X236183Y22688D01*
X236155Y22575D01*
X236123Y22463D01*
X236087Y22352D01*
X236048Y22242D01*
X236005Y22134D01*
X235959Y22027D01*
X235909Y21922D01*
X235856Y21819D01*
X235800Y21717D01*
X235740Y21617D01*
X235677Y21519D01*
X235610Y21424D01*
X235541Y21330D01*
X235469Y21239D01*
X235394Y21150D01*
X235315Y21064D01*
X235234Y20981D01*
X235151Y20900D01*
X235065Y20821D01*
X234976Y20746D01*
X234885Y20674D01*
X234791Y20605D01*
X234696Y20538D01*
X234598Y20475D01*
X234498Y20415D01*
X234396Y20359D01*
X234293Y20306D01*
X234188Y20256D01*
X234081Y20210D01*
X233973Y20167D01*
X233863Y20128D01*
X233752Y20092D01*
X233640Y20060D01*
X233527Y20032D01*
X233414Y20007D01*
X233299Y19986D01*
X233184Y19969D01*
X233069Y19956D01*
X232953Y19947D01*
X232836Y19941D01*
X232720Y19939D01*
X230942Y19939D01*
X244152Y19939D02*
X244152Y35941D01*
X249486Y27051D01*
X254820Y35941D01*
X254820Y19939D01*
X275462Y35942D02*
X275588Y35940D01*
X275713Y35934D01*
X275839Y35924D01*
X275963Y35910D01*
X276088Y35893D01*
X276212Y35871D01*
X276335Y35846D01*
X276457Y35816D01*
X276578Y35783D01*
X276698Y35746D01*
X276817Y35705D01*
X276935Y35661D01*
X277051Y35613D01*
X277166Y35561D01*
X277278Y35506D01*
X277389Y35447D01*
X277499Y35385D01*
X277606Y35319D01*
X277711Y35250D01*
X277814Y35178D01*
X277914Y35102D01*
X278012Y35024D01*
X278108Y34942D01*
X278201Y34858D01*
X278291Y34770D01*
X278379Y34680D01*
X278463Y34587D01*
X278545Y34491D01*
X278623Y34393D01*
X278699Y34293D01*
X278771Y34190D01*
X278840Y34085D01*
X278906Y33978D01*
X278968Y33868D01*
X279027Y33757D01*
X279082Y33645D01*
X279134Y33530D01*
X279182Y33414D01*
X279226Y33296D01*
X279267Y33177D01*
X279304Y33057D01*
X279337Y32936D01*
X279367Y32814D01*
X279392Y32691D01*
X279414Y32567D01*
X279431Y32442D01*
X279445Y32318D01*
X279455Y32192D01*
X279461Y32067D01*
X279463Y31941D01*
X275462Y35941D02*
X275321Y35939D01*
X275181Y35933D01*
X275041Y35924D01*
X274901Y35910D01*
X274762Y35893D01*
X274623Y35872D01*
X274484Y35847D01*
X274347Y35819D01*
X274210Y35786D01*
X274074Y35750D01*
X273939Y35710D01*
X273806Y35667D01*
X273673Y35620D01*
X273542Y35569D01*
X273413Y35515D01*
X273285Y35457D01*
X273158Y35396D01*
X273033Y35331D01*
X272911Y35263D01*
X272790Y35192D01*
X272670Y35117D01*
X272554Y35039D01*
X272439Y34958D01*
X272326Y34874D01*
X272216Y34786D01*
X272108Y34696D01*
X272003Y34603D01*
X271901Y34507D01*
X271801Y34408D01*
X271703Y34307D01*
X271609Y34203D01*
X271517Y34096D01*
X271429Y33987D01*
X271343Y33876D01*
X271261Y33762D01*
X271181Y33646D01*
X271105Y33528D01*
X271032Y33408D01*
X270963Y33286D01*
X270896Y33162D01*
X270833Y33036D01*
X270774Y32909D01*
X270718Y32780D01*
X270666Y32650D01*
X270617Y32518D01*
X270572Y32385D01*
X278129Y28829D02*
X278221Y28920D01*
X278311Y29013D01*
X278397Y29108D01*
X278481Y29206D01*
X278561Y29307D01*
X278639Y29410D01*
X278713Y29515D01*
X278784Y29623D01*
X278852Y29732D01*
X278916Y29844D01*
X278978Y29957D01*
X279035Y30072D01*
X279090Y30189D01*
X279141Y30308D01*
X279188Y30428D01*
X279231Y30549D01*
X279271Y30671D01*
X279307Y30795D01*
X279340Y30920D01*
X279369Y31045D01*
X279394Y31172D01*
X279415Y31299D01*
X279432Y31427D01*
X279446Y31555D01*
X279455Y31683D01*
X279461Y31812D01*
X279463Y31941D01*
X278129Y28829D02*
X270572Y19939D01*
X279462Y19939D01*
X286204Y27940D02*
X286208Y28255D01*
X286219Y28569D01*
X286238Y28884D01*
X286264Y29197D01*
X286298Y29510D01*
X286339Y29822D01*
X286388Y30133D01*
X286444Y30443D01*
X286507Y30752D01*
X286578Y31058D01*
X286656Y31363D01*
X286741Y31666D01*
X286834Y31967D01*
X286934Y32266D01*
X287041Y32562D01*
X287154Y32856D01*
X287275Y33146D01*
X287403Y33434D01*
X287538Y33719D01*
X287576Y33825D01*
X287619Y33930D01*
X287664Y34034D01*
X287714Y34136D01*
X287767Y34236D01*
X287823Y34335D01*
X287883Y34431D01*
X287946Y34525D01*
X288012Y34617D01*
X288081Y34707D01*
X288153Y34794D01*
X288229Y34879D01*
X288307Y34961D01*
X288388Y35040D01*
X288471Y35117D01*
X288558Y35190D01*
X288646Y35261D01*
X288737Y35328D01*
X288831Y35393D01*
X288926Y35454D01*
X289024Y35511D01*
X289123Y35566D01*
X289224Y35616D01*
X289327Y35664D01*
X289432Y35708D01*
X289538Y35748D01*
X289645Y35784D01*
X289754Y35817D01*
X289863Y35846D01*
X289974Y35871D01*
X290085Y35892D01*
X290197Y35910D01*
X290310Y35923D01*
X290423Y35933D01*
X290536Y35939D01*
X290649Y35941D01*
X290762Y35939D01*
X290875Y35933D01*
X290988Y35923D01*
X291101Y35910D01*
X291213Y35892D01*
X291324Y35871D01*
X291435Y35846D01*
X291544Y35817D01*
X291653Y35784D01*
X291760Y35748D01*
X291866Y35708D01*
X291971Y35664D01*
X292074Y35616D01*
X292175Y35566D01*
X292274Y35511D01*
X292372Y35454D01*
X292467Y35393D01*
X292561Y35328D01*
X292652Y35261D01*
X292740Y35190D01*
X292827Y35117D01*
X292910Y35040D01*
X292991Y34961D01*
X293069Y34879D01*
X293145Y34794D01*
X293217Y34707D01*
X293286Y34617D01*
X293352Y34525D01*
X293415Y34431D01*
X293475Y34335D01*
X293531Y34236D01*
X293584Y34136D01*
X293634Y34034D01*
X293679Y33930D01*
X293722Y33825D01*
X293760Y33719D01*
X293895Y33434D01*
X294023Y33146D01*
X294144Y32856D01*
X294257Y32562D01*
X294364Y32266D01*
X294464Y31967D01*
X294557Y31666D01*
X294642Y31363D01*
X294720Y31058D01*
X294791Y30752D01*
X294854Y30443D01*
X294910Y30133D01*
X294959Y29822D01*
X295000Y29510D01*
X295034Y29197D01*
X295060Y28884D01*
X295079Y28569D01*
X295090Y28255D01*
X295094Y27940D01*
X286204Y27940D02*
X286208Y27625D01*
X286219Y27311D01*
X286238Y26996D01*
X286264Y26683D01*
X286298Y26370D01*
X286339Y26058D01*
X286388Y25747D01*
X286444Y25437D01*
X286507Y25128D01*
X286578Y24822D01*
X286656Y24517D01*
X286741Y24214D01*
X286834Y23913D01*
X286934Y23614D01*
X287041Y23318D01*
X287154Y23024D01*
X287275Y22734D01*
X287403Y22446D01*
X287538Y22161D01*
X287576Y22055D01*
X287619Y21950D01*
X287664Y21846D01*
X287714Y21744D01*
X287767Y21644D01*
X287823Y21545D01*
X287883Y21449D01*
X287946Y21355D01*
X288012Y21263D01*
X288081Y21173D01*
X288153Y21086D01*
X288229Y21001D01*
X288307Y20919D01*
X288388Y20840D01*
X288471Y20763D01*
X288558Y20690D01*
X288646Y20619D01*
X288737Y20552D01*
X288831Y20487D01*
X288926Y20426D01*
X289024Y20369D01*
X289123Y20314D01*
X289224Y20264D01*
X289327Y20216D01*
X289432Y20172D01*
X289538Y20132D01*
X289645Y20096D01*
X289754Y20063D01*
X289863Y20034D01*
X289974Y20009D01*
X290085Y19988D01*
X290197Y19970D01*
X290310Y19957D01*
X290423Y19947D01*
X290536Y19941D01*
X290649Y19939D01*
X293760Y22161D02*
X293895Y22446D01*
X294023Y22734D01*
X294144Y23024D01*
X294257Y23318D01*
X294364Y23614D01*
X294464Y23913D01*
X294557Y24214D01*
X294642Y24517D01*
X294720Y24822D01*
X294791Y25128D01*
X294854Y25437D01*
X294910Y25747D01*
X294959Y26058D01*
X295000Y26370D01*
X295034Y26683D01*
X295060Y26996D01*
X295079Y27311D01*
X295090Y27625D01*
X295094Y27940D01*
X293760Y22161D02*
X293722Y22055D01*
X293679Y21950D01*
X293634Y21846D01*
X293584Y21744D01*
X293531Y21644D01*
X293475Y21545D01*
X293415Y21449D01*
X293352Y21355D01*
X293286Y21263D01*
X293217Y21173D01*
X293145Y21086D01*
X293069Y21001D01*
X292991Y20919D01*
X292910Y20840D01*
X292827Y20763D01*
X292740Y20690D01*
X292652Y20619D01*
X292561Y20552D01*
X292467Y20487D01*
X292372Y20426D01*
X292274Y20369D01*
X292175Y20314D01*
X292074Y20264D01*
X291971Y20216D01*
X291866Y20172D01*
X291760Y20132D01*
X291653Y20096D01*
X291544Y20063D01*
X291435Y20034D01*
X291324Y20009D01*
X291213Y19988D01*
X291101Y19970D01*
X290988Y19957D01*
X290875Y19947D01*
X290762Y19941D01*
X290649Y19939D01*
X287093Y23495D02*
X294205Y32385D01*
X301835Y32385D02*
X306280Y35941D01*
X306280Y19939D01*
X301835Y19939D02*
X310725Y19939D01*
X317466Y24384D02*
X317468Y24516D01*
X317474Y24647D01*
X317484Y24779D01*
X317497Y24910D01*
X317515Y25040D01*
X317536Y25170D01*
X317561Y25300D01*
X317590Y25428D01*
X317623Y25556D01*
X317660Y25682D01*
X317700Y25808D01*
X317744Y25932D01*
X317792Y26055D01*
X317843Y26176D01*
X317898Y26296D01*
X317956Y26414D01*
X318018Y26530D01*
X318084Y26644D01*
X318152Y26757D01*
X318224Y26867D01*
X318299Y26975D01*
X318378Y27081D01*
X318459Y27185D01*
X318544Y27286D01*
X318631Y27384D01*
X318722Y27480D01*
X318815Y27573D01*
X318911Y27664D01*
X319009Y27751D01*
X319110Y27836D01*
X319214Y27917D01*
X319320Y27996D01*
X319428Y28071D01*
X319538Y28143D01*
X319651Y28211D01*
X319765Y28277D01*
X319881Y28339D01*
X319999Y28397D01*
X320119Y28452D01*
X320240Y28503D01*
X320363Y28551D01*
X320487Y28595D01*
X320613Y28635D01*
X320739Y28672D01*
X320867Y28705D01*
X320995Y28734D01*
X321125Y28759D01*
X321255Y28780D01*
X321385Y28798D01*
X321516Y28811D01*
X321648Y28821D01*
X321779Y28827D01*
X321911Y28829D01*
X322043Y28827D01*
X322174Y28821D01*
X322306Y28811D01*
X322437Y28798D01*
X322567Y28780D01*
X322697Y28759D01*
X322827Y28734D01*
X322955Y28705D01*
X323083Y28672D01*
X323209Y28635D01*
X323335Y28595D01*
X323459Y28551D01*
X323582Y28503D01*
X323703Y28452D01*
X323823Y28397D01*
X323941Y28339D01*
X324057Y28277D01*
X324171Y28211D01*
X324284Y28143D01*
X324394Y28071D01*
X324502Y27996D01*
X324608Y27917D01*
X324712Y27836D01*
X324813Y27751D01*
X324911Y27664D01*
X325007Y27573D01*
X325100Y27480D01*
X325191Y27384D01*
X325278Y27286D01*
X325363Y27185D01*
X325444Y27081D01*
X325523Y26975D01*
X325598Y26867D01*
X325670Y26757D01*
X325738Y26644D01*
X325804Y26530D01*
X325866Y26414D01*
X325924Y26296D01*
X325979Y26176D01*
X326030Y26055D01*
X326078Y25932D01*
X326122Y25808D01*
X326162Y25682D01*
X326199Y25556D01*
X326232Y25428D01*
X326261Y25300D01*
X326286Y25170D01*
X326307Y25040D01*
X326325Y24910D01*
X326338Y24779D01*
X326348Y24647D01*
X326354Y24516D01*
X326356Y24384D01*
X326354Y24252D01*
X326348Y24121D01*
X326338Y23989D01*
X326325Y23858D01*
X326307Y23728D01*
X326286Y23598D01*
X326261Y23468D01*
X326232Y23340D01*
X326199Y23212D01*
X326162Y23086D01*
X326122Y22960D01*
X326078Y22836D01*
X326030Y22713D01*
X325979Y22592D01*
X325924Y22472D01*
X325866Y22354D01*
X325804Y22238D01*
X325738Y22124D01*
X325670Y22011D01*
X325598Y21901D01*
X325523Y21793D01*
X325444Y21687D01*
X325363Y21583D01*
X325278Y21482D01*
X325191Y21384D01*
X325100Y21288D01*
X325007Y21195D01*
X324911Y21104D01*
X324813Y21017D01*
X324712Y20932D01*
X324608Y20851D01*
X324502Y20772D01*
X324394Y20697D01*
X324284Y20625D01*
X324171Y20557D01*
X324057Y20491D01*
X323941Y20429D01*
X323823Y20371D01*
X323703Y20316D01*
X323582Y20265D01*
X323459Y20217D01*
X323335Y20173D01*
X323209Y20133D01*
X323083Y20096D01*
X322955Y20063D01*
X322827Y20034D01*
X322697Y20009D01*
X322567Y19988D01*
X322437Y19970D01*
X322306Y19957D01*
X322174Y19947D01*
X322043Y19941D01*
X321911Y19939D01*
X321779Y19941D01*
X321648Y19947D01*
X321516Y19957D01*
X321385Y19970D01*
X321255Y19988D01*
X321125Y20009D01*
X320995Y20034D01*
X320867Y20063D01*
X320739Y20096D01*
X320613Y20133D01*
X320487Y20173D01*
X320363Y20217D01*
X320240Y20265D01*
X320119Y20316D01*
X319999Y20371D01*
X319881Y20429D01*
X319765Y20491D01*
X319651Y20557D01*
X319538Y20625D01*
X319428Y20697D01*
X319320Y20772D01*
X319214Y20851D01*
X319110Y20932D01*
X319009Y21017D01*
X318911Y21104D01*
X318815Y21195D01*
X318722Y21288D01*
X318631Y21384D01*
X318544Y21482D01*
X318459Y21583D01*
X318378Y21687D01*
X318299Y21793D01*
X318224Y21901D01*
X318152Y22011D01*
X318084Y22124D01*
X318018Y22238D01*
X317956Y22354D01*
X317898Y22472D01*
X317843Y22592D01*
X317792Y22713D01*
X317744Y22836D01*
X317700Y22960D01*
X317660Y23086D01*
X317623Y23212D01*
X317590Y23340D01*
X317561Y23468D01*
X317536Y23598D01*
X317515Y23728D01*
X317497Y23858D01*
X317484Y23989D01*
X317474Y24121D01*
X317468Y24252D01*
X317466Y24384D01*
X318355Y32385D02*
X318357Y32503D01*
X318363Y32620D01*
X318372Y32737D01*
X318386Y32854D01*
X318403Y32970D01*
X318425Y33086D01*
X318450Y33201D01*
X318479Y33315D01*
X318511Y33428D01*
X318548Y33540D01*
X318588Y33650D01*
X318631Y33759D01*
X318679Y33867D01*
X318729Y33973D01*
X318784Y34077D01*
X318841Y34180D01*
X318902Y34280D01*
X318967Y34379D01*
X319034Y34475D01*
X319105Y34569D01*
X319179Y34661D01*
X319255Y34750D01*
X319335Y34836D01*
X319417Y34920D01*
X319503Y35001D01*
X319590Y35079D01*
X319681Y35155D01*
X319774Y35227D01*
X319869Y35296D01*
X319966Y35362D01*
X320066Y35425D01*
X320167Y35484D01*
X320270Y35540D01*
X320376Y35592D01*
X320483Y35641D01*
X320591Y35687D01*
X320701Y35729D01*
X320812Y35767D01*
X320925Y35801D01*
X321038Y35832D01*
X321153Y35859D01*
X321268Y35882D01*
X321384Y35902D01*
X321500Y35917D01*
X321617Y35929D01*
X321735Y35937D01*
X321852Y35941D01*
X321970Y35941D01*
X322087Y35937D01*
X322205Y35929D01*
X322322Y35917D01*
X322438Y35902D01*
X322554Y35882D01*
X322669Y35859D01*
X322784Y35832D01*
X322897Y35801D01*
X323010Y35767D01*
X323121Y35729D01*
X323231Y35687D01*
X323339Y35641D01*
X323446Y35592D01*
X323552Y35540D01*
X323655Y35484D01*
X323756Y35425D01*
X323856Y35362D01*
X323953Y35296D01*
X324048Y35227D01*
X324141Y35155D01*
X324232Y35079D01*
X324319Y35001D01*
X324405Y34920D01*
X324487Y34836D01*
X324567Y34750D01*
X324643Y34661D01*
X324717Y34569D01*
X324788Y34475D01*
X324855Y34379D01*
X324920Y34280D01*
X324981Y34180D01*
X325038Y34077D01*
X325093Y33973D01*
X325143Y33867D01*
X325191Y33759D01*
X325234Y33650D01*
X325274Y33540D01*
X325311Y33428D01*
X325343Y33315D01*
X325372Y33201D01*
X325397Y33086D01*
X325419Y32970D01*
X325436Y32854D01*
X325450Y32737D01*
X325459Y32620D01*
X325465Y32503D01*
X325467Y32385D01*
X325465Y32267D01*
X325459Y32150D01*
X325450Y32033D01*
X325436Y31916D01*
X325419Y31800D01*
X325397Y31684D01*
X325372Y31569D01*
X325343Y31455D01*
X325311Y31342D01*
X325274Y31230D01*
X325234Y31120D01*
X325191Y31011D01*
X325143Y30903D01*
X325093Y30797D01*
X325038Y30693D01*
X324981Y30590D01*
X324920Y30490D01*
X324855Y30391D01*
X324788Y30295D01*
X324717Y30201D01*
X324643Y30109D01*
X324567Y30020D01*
X324487Y29934D01*
X324405Y29850D01*
X324319Y29769D01*
X324232Y29691D01*
X324141Y29615D01*
X324048Y29543D01*
X323953Y29474D01*
X323856Y29408D01*
X323756Y29345D01*
X323655Y29286D01*
X323552Y29230D01*
X323446Y29178D01*
X323339Y29129D01*
X323231Y29083D01*
X323121Y29041D01*
X323010Y29003D01*
X322897Y28969D01*
X322784Y28938D01*
X322669Y28911D01*
X322554Y28888D01*
X322438Y28868D01*
X322322Y28853D01*
X322205Y28841D01*
X322087Y28833D01*
X321970Y28829D01*
X321852Y28829D01*
X321735Y28833D01*
X321617Y28841D01*
X321500Y28853D01*
X321384Y28868D01*
X321268Y28888D01*
X321153Y28911D01*
X321038Y28938D01*
X320925Y28969D01*
X320812Y29003D01*
X320701Y29041D01*
X320591Y29083D01*
X320483Y29129D01*
X320376Y29178D01*
X320270Y29230D01*
X320167Y29286D01*
X320066Y29345D01*
X319966Y29408D01*
X319869Y29474D01*
X319774Y29543D01*
X319681Y29615D01*
X319590Y29691D01*
X319503Y29769D01*
X319417Y29850D01*
X319335Y29934D01*
X319255Y30020D01*
X319179Y30109D01*
X319105Y30201D01*
X319034Y30295D01*
X318967Y30391D01*
X318902Y30490D01*
X318841Y30590D01*
X318784Y30693D01*
X318729Y30797D01*
X318679Y30903D01*
X318631Y31011D01*
X318588Y31120D01*
X318548Y31230D01*
X318511Y31342D01*
X318479Y31455D01*
X318450Y31569D01*
X318425Y31684D01*
X318403Y31800D01*
X318386Y31916D01*
X318372Y32033D01*
X318363Y32150D01*
X318357Y32267D01*
X318355Y32385D01*
D12*
X52832Y300482D02*
X50546Y300482D01*
X52832Y300482D02*
X52832Y292862D01*
X48260Y292862D01*
X48151Y292864D01*
X48043Y292870D01*
X47934Y292879D01*
X47826Y292893D01*
X47719Y292910D01*
X47612Y292932D01*
X47506Y292957D01*
X47401Y292985D01*
X47297Y293018D01*
X47195Y293054D01*
X47094Y293094D01*
X46994Y293137D01*
X46896Y293184D01*
X46799Y293235D01*
X46705Y293289D01*
X46612Y293346D01*
X46522Y293406D01*
X46433Y293470D01*
X46347Y293537D01*
X46264Y293606D01*
X46183Y293679D01*
X46105Y293755D01*
X46029Y293833D01*
X45956Y293914D01*
X45887Y293997D01*
X45820Y294083D01*
X45756Y294172D01*
X45696Y294262D01*
X45639Y294355D01*
X45585Y294449D01*
X45534Y294546D01*
X45487Y294644D01*
X45444Y294744D01*
X45404Y294845D01*
X45368Y294947D01*
X45335Y295051D01*
X45307Y295156D01*
X45282Y295262D01*
X45260Y295369D01*
X45243Y295476D01*
X45229Y295584D01*
X45220Y295693D01*
X45214Y295801D01*
X45212Y295910D01*
X45212Y303530D01*
X45214Y303639D01*
X45220Y303747D01*
X45229Y303856D01*
X45243Y303964D01*
X45260Y304071D01*
X45282Y304178D01*
X45307Y304284D01*
X45335Y304389D01*
X45368Y304493D01*
X45404Y304595D01*
X45444Y304696D01*
X45487Y304796D01*
X45534Y304894D01*
X45585Y304991D01*
X45639Y305085D01*
X45696Y305178D01*
X45756Y305268D01*
X45820Y305357D01*
X45887Y305443D01*
X45956Y305526D01*
X46029Y305607D01*
X46105Y305685D01*
X46183Y305761D01*
X46264Y305834D01*
X46347Y305903D01*
X46433Y305970D01*
X46522Y306034D01*
X46612Y306094D01*
X46705Y306151D01*
X46799Y306205D01*
X46896Y306256D01*
X46994Y306303D01*
X47094Y306346D01*
X47195Y306386D01*
X47297Y306422D01*
X47401Y306455D01*
X47506Y306483D01*
X47612Y306508D01*
X47719Y306530D01*
X47826Y306547D01*
X47934Y306561D01*
X48043Y306570D01*
X48151Y306576D01*
X48260Y306578D01*
X52832Y306578D01*
X59813Y306578D02*
X59813Y292862D01*
X67433Y292862D02*
X59813Y306578D01*
X67433Y306578D02*
X67433Y292862D01*
X74414Y292862D02*
X74414Y306578D01*
X78224Y306578D01*
X78346Y306576D01*
X78468Y306570D01*
X78590Y306560D01*
X78711Y306547D01*
X78832Y306529D01*
X78952Y306508D01*
X79072Y306482D01*
X79190Y306453D01*
X79308Y306421D01*
X79425Y306384D01*
X79540Y306344D01*
X79654Y306300D01*
X79766Y306252D01*
X79877Y306201D01*
X79986Y306146D01*
X80094Y306088D01*
X80199Y306026D01*
X80302Y305961D01*
X80404Y305893D01*
X80503Y305821D01*
X80599Y305747D01*
X80694Y305669D01*
X80785Y305588D01*
X80875Y305505D01*
X80961Y305419D01*
X81044Y305329D01*
X81125Y305238D01*
X81203Y305143D01*
X81277Y305047D01*
X81349Y304948D01*
X81417Y304846D01*
X81482Y304743D01*
X81544Y304638D01*
X81602Y304530D01*
X81657Y304421D01*
X81708Y304310D01*
X81756Y304198D01*
X81800Y304084D01*
X81840Y303969D01*
X81877Y303852D01*
X81909Y303734D01*
X81938Y303616D01*
X81964Y303496D01*
X81985Y303376D01*
X82003Y303255D01*
X82016Y303134D01*
X82026Y303012D01*
X82032Y302890D01*
X82034Y302768D01*
X82034Y296672D01*
X82032Y296550D01*
X82026Y296428D01*
X82016Y296306D01*
X82003Y296185D01*
X81985Y296064D01*
X81964Y295944D01*
X81938Y295824D01*
X81909Y295706D01*
X81877Y295588D01*
X81840Y295471D01*
X81800Y295356D01*
X81756Y295242D01*
X81708Y295130D01*
X81657Y295019D01*
X81602Y294910D01*
X81544Y294802D01*
X81482Y294697D01*
X81417Y294594D01*
X81349Y294492D01*
X81277Y294393D01*
X81203Y294297D01*
X81125Y294202D01*
X81044Y294111D01*
X80961Y294021D01*
X80875Y293935D01*
X80785Y293852D01*
X80694Y293771D01*
X80599Y293693D01*
X80503Y293619D01*
X80404Y293547D01*
X80302Y293479D01*
X80199Y293414D01*
X80094Y293352D01*
X79986Y293294D01*
X79877Y293239D01*
X79766Y293188D01*
X79654Y293140D01*
X79540Y293096D01*
X79425Y293056D01*
X79308Y293019D01*
X79190Y292987D01*
X79072Y292958D01*
X78952Y292932D01*
X78832Y292911D01*
X78711Y292893D01*
X78590Y292880D01*
X78468Y292870D01*
X78346Y292864D01*
X78224Y292862D01*
X74414Y292862D01*
X54356Y431546D02*
X45212Y431546D01*
X49784Y426974D02*
X49784Y436118D01*
X60575Y426212D02*
X65147Y426212D01*
X65256Y426214D01*
X65364Y426220D01*
X65473Y426229D01*
X65581Y426243D01*
X65688Y426260D01*
X65795Y426282D01*
X65901Y426307D01*
X66006Y426335D01*
X66110Y426368D01*
X66212Y426404D01*
X66313Y426444D01*
X66413Y426487D01*
X66511Y426534D01*
X66608Y426585D01*
X66702Y426639D01*
X66795Y426696D01*
X66885Y426756D01*
X66974Y426820D01*
X67060Y426887D01*
X67143Y426956D01*
X67224Y427029D01*
X67302Y427105D01*
X67378Y427183D01*
X67451Y427264D01*
X67520Y427347D01*
X67587Y427433D01*
X67651Y427522D01*
X67711Y427612D01*
X67768Y427705D01*
X67822Y427799D01*
X67873Y427896D01*
X67920Y427994D01*
X67963Y428094D01*
X68003Y428195D01*
X68039Y428297D01*
X68072Y428401D01*
X68100Y428506D01*
X68125Y428612D01*
X68147Y428719D01*
X68164Y428826D01*
X68178Y428934D01*
X68187Y429043D01*
X68193Y429151D01*
X68195Y429260D01*
X68195Y430784D01*
X68193Y430893D01*
X68187Y431001D01*
X68178Y431110D01*
X68164Y431218D01*
X68147Y431325D01*
X68125Y431432D01*
X68100Y431538D01*
X68072Y431643D01*
X68039Y431747D01*
X68003Y431849D01*
X67963Y431950D01*
X67920Y432050D01*
X67873Y432148D01*
X67822Y432245D01*
X67768Y432339D01*
X67711Y432432D01*
X67651Y432522D01*
X67587Y432611D01*
X67520Y432697D01*
X67451Y432780D01*
X67378Y432861D01*
X67302Y432939D01*
X67224Y433015D01*
X67143Y433088D01*
X67060Y433157D01*
X66974Y433224D01*
X66885Y433288D01*
X66795Y433348D01*
X66702Y433405D01*
X66608Y433459D01*
X66511Y433510D01*
X66413Y433557D01*
X66313Y433600D01*
X66212Y433640D01*
X66110Y433676D01*
X66006Y433709D01*
X65901Y433737D01*
X65795Y433762D01*
X65688Y433784D01*
X65581Y433801D01*
X65473Y433815D01*
X65364Y433824D01*
X65256Y433830D01*
X65147Y433832D01*
X60575Y433832D01*
X60575Y439928D01*
X68195Y439928D01*
X73502Y439928D02*
X78074Y426212D01*
X82646Y439928D01*
D13*
X219823Y405130D02*
X219823Y385826D01*
X217678Y385826D02*
X221968Y385826D01*
X221968Y405130D02*
X217678Y405130D01*
X228783Y407275D02*
X228785Y407387D01*
X228791Y407499D01*
X228801Y407611D01*
X228814Y407723D01*
X228832Y407834D01*
X228853Y407944D01*
X228879Y408053D01*
X228908Y408162D01*
X228940Y408269D01*
X228977Y408375D01*
X229017Y408480D01*
X229061Y408583D01*
X229109Y408685D01*
X229160Y408785D01*
X229214Y408884D01*
X229272Y408980D01*
X229333Y409074D01*
X229397Y409166D01*
X229465Y409256D01*
X229536Y409343D01*
X229609Y409428D01*
X229686Y409510D01*
X229765Y409589D01*
X229847Y409666D01*
X229932Y409739D01*
X230019Y409810D01*
X230109Y409878D01*
X230201Y409942D01*
X230295Y410003D01*
X230392Y410061D01*
X230490Y410115D01*
X230590Y410166D01*
X230692Y410214D01*
X230795Y410258D01*
X230900Y410298D01*
X231006Y410335D01*
X231113Y410367D01*
X231222Y410396D01*
X231331Y410422D01*
X231441Y410443D01*
X231552Y410461D01*
X231664Y410474D01*
X231776Y410484D01*
X231888Y410490D01*
X232000Y410492D01*
X232112Y410490D01*
X232224Y410484D01*
X232336Y410474D01*
X232448Y410461D01*
X232559Y410443D01*
X232669Y410422D01*
X232778Y410396D01*
X232887Y410367D01*
X232994Y410335D01*
X233100Y410298D01*
X233205Y410258D01*
X233308Y410214D01*
X233410Y410166D01*
X233510Y410115D01*
X233609Y410061D01*
X233705Y410003D01*
X233799Y409942D01*
X233891Y409878D01*
X233981Y409810D01*
X234068Y409739D01*
X234153Y409666D01*
X234235Y409589D01*
X234314Y409510D01*
X234391Y409428D01*
X234464Y409343D01*
X234535Y409256D01*
X234603Y409166D01*
X234667Y409074D01*
X234728Y408980D01*
X234786Y408884D01*
X234840Y408785D01*
X234891Y408685D01*
X234939Y408583D01*
X234983Y408480D01*
X235023Y408375D01*
X235060Y408269D01*
X235092Y408162D01*
X235121Y408053D01*
X235147Y407944D01*
X235168Y407834D01*
X235186Y407723D01*
X235199Y407611D01*
X235209Y407499D01*
X235215Y407387D01*
X235217Y407275D01*
X235215Y407152D01*
X235209Y407029D01*
X235199Y406906D01*
X235186Y406783D01*
X235168Y406661D01*
X235147Y406540D01*
X235122Y406419D01*
X235093Y406299D01*
X235060Y406180D01*
X235023Y406063D01*
X234983Y405946D01*
X234939Y405831D01*
X234891Y405717D01*
X234840Y405605D01*
X234785Y405495D01*
X234727Y405386D01*
X234666Y405279D01*
X234601Y405174D01*
X234532Y405072D01*
X234461Y404971D01*
X234386Y404873D01*
X234309Y404777D01*
X234228Y404684D01*
X234144Y404594D01*
X228782Y397623D01*
X235217Y397623D01*
X246894Y385826D02*
X251184Y385826D01*
X246894Y385826D02*
X246764Y385828D01*
X246635Y385834D01*
X246506Y385844D01*
X246377Y385857D01*
X246249Y385875D01*
X246121Y385896D01*
X245994Y385922D01*
X245867Y385951D01*
X245742Y385984D01*
X245618Y386020D01*
X245495Y386061D01*
X245373Y386105D01*
X245252Y386153D01*
X245133Y386204D01*
X245016Y386259D01*
X244900Y386317D01*
X244787Y386379D01*
X244675Y386445D01*
X244565Y386513D01*
X244457Y386585D01*
X244351Y386661D01*
X244248Y386739D01*
X244147Y386820D01*
X244049Y386905D01*
X243954Y386992D01*
X243861Y387083D01*
X243770Y387176D01*
X243683Y387271D01*
X243598Y387369D01*
X243517Y387470D01*
X243439Y387573D01*
X243363Y387679D01*
X243291Y387787D01*
X243223Y387897D01*
X243157Y388009D01*
X243095Y388122D01*
X243037Y388238D01*
X242982Y388355D01*
X242931Y388474D01*
X242883Y388595D01*
X242839Y388717D01*
X242798Y388840D01*
X242762Y388964D01*
X242729Y389089D01*
X242700Y389216D01*
X242674Y389343D01*
X242653Y389471D01*
X242635Y389599D01*
X242622Y389728D01*
X242612Y389857D01*
X242606Y389986D01*
X242604Y390116D01*
X242604Y400840D01*
X242606Y400970D01*
X242612Y401099D01*
X242622Y401228D01*
X242635Y401357D01*
X242653Y401485D01*
X242674Y401613D01*
X242700Y401740D01*
X242729Y401867D01*
X242762Y401992D01*
X242798Y402116D01*
X242839Y402239D01*
X242883Y402361D01*
X242931Y402482D01*
X242982Y402601D01*
X243037Y402718D01*
X243095Y402834D01*
X243157Y402947D01*
X243223Y403059D01*
X243291Y403169D01*
X243363Y403277D01*
X243439Y403383D01*
X243517Y403486D01*
X243598Y403587D01*
X243683Y403685D01*
X243770Y403780D01*
X243861Y403873D01*
X243954Y403964D01*
X244049Y404051D01*
X244147Y404136D01*
X244248Y404217D01*
X244351Y404295D01*
X244457Y404371D01*
X244565Y404443D01*
X244675Y404511D01*
X244786Y404577D01*
X244900Y404639D01*
X245016Y404697D01*
X245133Y404752D01*
X245252Y404803D01*
X245373Y404851D01*
X245495Y404895D01*
X245618Y404936D01*
X245742Y404972D01*
X245867Y405005D01*
X245994Y405034D01*
X246121Y405060D01*
X246248Y405081D01*
X246377Y405099D01*
X246506Y405112D01*
X246635Y405122D01*
X246764Y405128D01*
X246894Y405130D01*
X251184Y405130D01*
X217678Y363982D02*
X217678Y344678D01*
X224113Y353258D02*
X217678Y363982D01*
X224113Y353258D02*
X230547Y363982D01*
X230547Y344678D01*
X240331Y347895D02*
X240331Y357547D01*
X240331Y347895D02*
X240333Y347783D01*
X240339Y347671D01*
X240349Y347559D01*
X240362Y347447D01*
X240380Y347336D01*
X240401Y347226D01*
X240427Y347117D01*
X240456Y347008D01*
X240488Y346901D01*
X240525Y346795D01*
X240565Y346690D01*
X240609Y346587D01*
X240657Y346485D01*
X240708Y346385D01*
X240762Y346287D01*
X240820Y346190D01*
X240881Y346096D01*
X240945Y346004D01*
X241013Y345914D01*
X241084Y345827D01*
X241157Y345742D01*
X241234Y345660D01*
X241313Y345581D01*
X241395Y345504D01*
X241480Y345431D01*
X241567Y345360D01*
X241657Y345292D01*
X241749Y345228D01*
X241843Y345167D01*
X241940Y345109D01*
X242038Y345055D01*
X242138Y345004D01*
X242240Y344956D01*
X242343Y344912D01*
X242448Y344872D01*
X242554Y344835D01*
X242661Y344803D01*
X242770Y344774D01*
X242879Y344748D01*
X242989Y344727D01*
X243100Y344709D01*
X243212Y344696D01*
X243324Y344686D01*
X243436Y344680D01*
X243548Y344678D01*
X248911Y344678D01*
X248911Y357547D01*
X257850Y363982D02*
X257850Y347895D01*
X257852Y347783D01*
X257858Y347671D01*
X257868Y347559D01*
X257881Y347447D01*
X257899Y347336D01*
X257920Y347226D01*
X257946Y347117D01*
X257975Y347008D01*
X258007Y346901D01*
X258044Y346795D01*
X258084Y346690D01*
X258128Y346587D01*
X258176Y346485D01*
X258227Y346385D01*
X258281Y346287D01*
X258339Y346190D01*
X258400Y346096D01*
X258464Y346004D01*
X258532Y345914D01*
X258603Y345827D01*
X258676Y345742D01*
X258753Y345660D01*
X258832Y345581D01*
X258914Y345504D01*
X258999Y345431D01*
X259086Y345360D01*
X259176Y345292D01*
X259268Y345228D01*
X259362Y345167D01*
X259459Y345109D01*
X259557Y345055D01*
X259657Y345004D01*
X259759Y344956D01*
X259862Y344912D01*
X259967Y344872D01*
X260073Y344835D01*
X260180Y344803D01*
X260289Y344774D01*
X260398Y344748D01*
X260508Y344727D01*
X260619Y344709D01*
X260731Y344696D01*
X260843Y344686D01*
X260955Y344680D01*
X261067Y344678D01*
X266215Y357547D02*
X272649Y357547D01*
X268360Y363982D02*
X268360Y347895D01*
X268362Y347783D01*
X268368Y347671D01*
X268378Y347559D01*
X268391Y347447D01*
X268409Y347336D01*
X268430Y347226D01*
X268456Y347117D01*
X268485Y347008D01*
X268517Y346901D01*
X268554Y346795D01*
X268594Y346690D01*
X268638Y346587D01*
X268686Y346485D01*
X268737Y346385D01*
X268791Y346286D01*
X268849Y346190D01*
X268910Y346096D01*
X268974Y346004D01*
X269042Y345914D01*
X269113Y345827D01*
X269186Y345742D01*
X269263Y345660D01*
X269342Y345581D01*
X269424Y345504D01*
X269509Y345431D01*
X269596Y345360D01*
X269686Y345292D01*
X269778Y345228D01*
X269872Y345167D01*
X269969Y345109D01*
X270067Y345055D01*
X270167Y345004D01*
X270269Y344956D01*
X270372Y344912D01*
X270477Y344872D01*
X270583Y344835D01*
X270690Y344803D01*
X270799Y344774D01*
X270908Y344748D01*
X271018Y344727D01*
X271129Y344709D01*
X271241Y344696D01*
X271353Y344686D01*
X271465Y344680D01*
X271577Y344678D01*
X272649Y344678D01*
X279869Y344678D02*
X279869Y357547D01*
X279333Y362910D02*
X279333Y363982D01*
X280405Y363982D01*
X280405Y362910D01*
X279333Y362910D01*
X288509Y357547D02*
X288509Y338243D01*
X288509Y357547D02*
X293872Y357547D01*
X293984Y357545D01*
X294096Y357539D01*
X294208Y357529D01*
X294320Y357516D01*
X294431Y357498D01*
X294541Y357477D01*
X294650Y357451D01*
X294759Y357422D01*
X294866Y357390D01*
X294972Y357353D01*
X295077Y357313D01*
X295180Y357269D01*
X295282Y357221D01*
X295382Y357170D01*
X295481Y357116D01*
X295577Y357058D01*
X295671Y356997D01*
X295763Y356933D01*
X295853Y356865D01*
X295940Y356794D01*
X296025Y356721D01*
X296107Y356644D01*
X296186Y356565D01*
X296263Y356483D01*
X296336Y356398D01*
X296407Y356311D01*
X296475Y356221D01*
X296539Y356129D01*
X296600Y356035D01*
X296658Y355939D01*
X296712Y355840D01*
X296763Y355740D01*
X296811Y355638D01*
X296855Y355535D01*
X296895Y355430D01*
X296932Y355324D01*
X296964Y355217D01*
X296993Y355108D01*
X297019Y354999D01*
X297040Y354889D01*
X297058Y354778D01*
X297071Y354666D01*
X297081Y354554D01*
X297087Y354442D01*
X297089Y354330D01*
X297089Y347895D01*
X297087Y347783D01*
X297081Y347671D01*
X297071Y347559D01*
X297058Y347447D01*
X297040Y347336D01*
X297019Y347226D01*
X296993Y347117D01*
X296964Y347008D01*
X296932Y346901D01*
X296895Y346795D01*
X296855Y346690D01*
X296811Y346587D01*
X296763Y346485D01*
X296712Y346385D01*
X296658Y346286D01*
X296600Y346190D01*
X296539Y346096D01*
X296475Y346004D01*
X296407Y345914D01*
X296336Y345827D01*
X296263Y345742D01*
X296186Y345660D01*
X296107Y345581D01*
X296025Y345504D01*
X295940Y345431D01*
X295853Y345360D01*
X295763Y345292D01*
X295671Y345228D01*
X295577Y345167D01*
X295481Y345109D01*
X295382Y345055D01*
X295282Y345004D01*
X295180Y344956D01*
X295077Y344912D01*
X294972Y344872D01*
X294866Y344835D01*
X294759Y344803D01*
X294650Y344774D01*
X294541Y344748D01*
X294431Y344727D01*
X294320Y344709D01*
X294208Y344696D01*
X294096Y344686D01*
X293984Y344680D01*
X293872Y344678D01*
X288509Y344678D01*
X305275Y347895D02*
X305275Y363982D01*
X305275Y347895D02*
X305277Y347783D01*
X305283Y347671D01*
X305293Y347559D01*
X305306Y347447D01*
X305324Y347336D01*
X305345Y347226D01*
X305371Y347117D01*
X305400Y347008D01*
X305432Y346901D01*
X305469Y346795D01*
X305509Y346690D01*
X305553Y346587D01*
X305601Y346485D01*
X305652Y346385D01*
X305706Y346287D01*
X305764Y346190D01*
X305825Y346096D01*
X305889Y346004D01*
X305957Y345914D01*
X306028Y345827D01*
X306101Y345742D01*
X306178Y345660D01*
X306257Y345581D01*
X306339Y345504D01*
X306424Y345431D01*
X306511Y345360D01*
X306601Y345292D01*
X306693Y345228D01*
X306787Y345167D01*
X306884Y345109D01*
X306982Y345055D01*
X307082Y345004D01*
X307184Y344956D01*
X307287Y344912D01*
X307392Y344872D01*
X307498Y344835D01*
X307605Y344803D01*
X307714Y344774D01*
X307823Y344748D01*
X307933Y344727D01*
X308044Y344709D01*
X308156Y344696D01*
X308268Y344686D01*
X308380Y344680D01*
X308492Y344678D01*
X318531Y344678D02*
X323893Y344678D01*
X318531Y344678D02*
X318419Y344680D01*
X318307Y344686D01*
X318195Y344696D01*
X318083Y344709D01*
X317972Y344727D01*
X317862Y344748D01*
X317753Y344774D01*
X317644Y344803D01*
X317537Y344835D01*
X317431Y344872D01*
X317326Y344912D01*
X317223Y344956D01*
X317121Y345004D01*
X317021Y345055D01*
X316923Y345109D01*
X316826Y345167D01*
X316732Y345228D01*
X316640Y345292D01*
X316550Y345360D01*
X316463Y345431D01*
X316378Y345504D01*
X316296Y345581D01*
X316217Y345660D01*
X316140Y345742D01*
X316067Y345827D01*
X315996Y345914D01*
X315928Y346004D01*
X315864Y346096D01*
X315803Y346190D01*
X315745Y346287D01*
X315691Y346385D01*
X315640Y346485D01*
X315592Y346587D01*
X315548Y346690D01*
X315508Y346795D01*
X315471Y346901D01*
X315439Y347008D01*
X315410Y347117D01*
X315384Y347226D01*
X315363Y347336D01*
X315345Y347447D01*
X315332Y347559D01*
X315322Y347671D01*
X315316Y347783D01*
X315314Y347895D01*
X315314Y353258D01*
X315313Y353258D02*
X315315Y353388D01*
X315321Y353517D01*
X315331Y353646D01*
X315344Y353775D01*
X315362Y353903D01*
X315383Y354031D01*
X315409Y354158D01*
X315438Y354285D01*
X315471Y354410D01*
X315507Y354534D01*
X315548Y354657D01*
X315592Y354779D01*
X315640Y354900D01*
X315691Y355019D01*
X315746Y355136D01*
X315804Y355252D01*
X315866Y355365D01*
X315932Y355477D01*
X316000Y355587D01*
X316072Y355695D01*
X316148Y355801D01*
X316226Y355904D01*
X316307Y356005D01*
X316392Y356103D01*
X316479Y356198D01*
X316570Y356291D01*
X316663Y356382D01*
X316758Y356469D01*
X316856Y356554D01*
X316957Y356635D01*
X317060Y356713D01*
X317166Y356789D01*
X317274Y356861D01*
X317384Y356929D01*
X317496Y356995D01*
X317609Y357057D01*
X317725Y357115D01*
X317842Y357170D01*
X317961Y357221D01*
X318082Y357269D01*
X318204Y357313D01*
X318327Y357354D01*
X318451Y357390D01*
X318576Y357423D01*
X318703Y357452D01*
X318830Y357478D01*
X318958Y357499D01*
X319086Y357517D01*
X319215Y357530D01*
X319344Y357540D01*
X319473Y357546D01*
X319603Y357548D01*
X319733Y357546D01*
X319862Y357540D01*
X319991Y357530D01*
X320120Y357517D01*
X320248Y357499D01*
X320376Y357478D01*
X320503Y357452D01*
X320630Y357423D01*
X320755Y357390D01*
X320879Y357354D01*
X321002Y357313D01*
X321124Y357269D01*
X321245Y357221D01*
X321364Y357170D01*
X321481Y357115D01*
X321597Y357057D01*
X321710Y356995D01*
X321822Y356929D01*
X321932Y356861D01*
X322040Y356789D01*
X322146Y356713D01*
X322249Y356635D01*
X322350Y356554D01*
X322448Y356469D01*
X322543Y356382D01*
X322636Y356291D01*
X322727Y356198D01*
X322814Y356103D01*
X322899Y356005D01*
X322980Y355904D01*
X323058Y355801D01*
X323134Y355695D01*
X323206Y355587D01*
X323274Y355477D01*
X323340Y355365D01*
X323402Y355252D01*
X323460Y355136D01*
X323515Y355019D01*
X323566Y354900D01*
X323614Y354779D01*
X323658Y354657D01*
X323699Y354534D01*
X323735Y354410D01*
X323768Y354285D01*
X323797Y354158D01*
X323823Y354031D01*
X323844Y353903D01*
X323862Y353775D01*
X323875Y353646D01*
X323885Y353517D01*
X323891Y353388D01*
X323893Y353258D01*
X323893Y351113D01*
X315314Y351113D01*
X331336Y344678D02*
X339915Y357547D01*
X331336Y357547D02*
X339915Y344678D01*
X350575Y344678D02*
X355937Y344678D01*
X350575Y344678D02*
X350463Y344680D01*
X350351Y344686D01*
X350239Y344696D01*
X350127Y344709D01*
X350016Y344727D01*
X349906Y344748D01*
X349797Y344774D01*
X349688Y344803D01*
X349581Y344835D01*
X349475Y344872D01*
X349370Y344912D01*
X349267Y344956D01*
X349165Y345004D01*
X349065Y345055D01*
X348967Y345109D01*
X348870Y345167D01*
X348776Y345228D01*
X348684Y345292D01*
X348594Y345360D01*
X348507Y345431D01*
X348422Y345504D01*
X348340Y345581D01*
X348261Y345660D01*
X348184Y345742D01*
X348111Y345827D01*
X348040Y345914D01*
X347972Y346004D01*
X347908Y346096D01*
X347847Y346190D01*
X347789Y346287D01*
X347735Y346385D01*
X347684Y346485D01*
X347636Y346587D01*
X347592Y346690D01*
X347552Y346795D01*
X347515Y346901D01*
X347483Y347008D01*
X347454Y347117D01*
X347428Y347226D01*
X347407Y347336D01*
X347389Y347447D01*
X347376Y347559D01*
X347366Y347671D01*
X347360Y347783D01*
X347358Y347895D01*
X347358Y353258D01*
X347357Y353258D02*
X347359Y353388D01*
X347365Y353517D01*
X347375Y353646D01*
X347388Y353775D01*
X347406Y353903D01*
X347427Y354031D01*
X347453Y354158D01*
X347482Y354285D01*
X347515Y354410D01*
X347551Y354534D01*
X347592Y354657D01*
X347636Y354779D01*
X347684Y354900D01*
X347735Y355019D01*
X347790Y355136D01*
X347848Y355252D01*
X347910Y355365D01*
X347976Y355477D01*
X348044Y355587D01*
X348116Y355695D01*
X348192Y355801D01*
X348270Y355904D01*
X348351Y356005D01*
X348436Y356103D01*
X348523Y356198D01*
X348614Y356291D01*
X348707Y356382D01*
X348802Y356469D01*
X348900Y356554D01*
X349001Y356635D01*
X349104Y356713D01*
X349210Y356789D01*
X349318Y356861D01*
X349428Y356929D01*
X349540Y356995D01*
X349653Y357057D01*
X349769Y357115D01*
X349886Y357170D01*
X350005Y357221D01*
X350126Y357269D01*
X350248Y357313D01*
X350371Y357354D01*
X350495Y357390D01*
X350620Y357423D01*
X350747Y357452D01*
X350874Y357478D01*
X351002Y357499D01*
X351130Y357517D01*
X351259Y357530D01*
X351388Y357540D01*
X351517Y357546D01*
X351647Y357548D01*
X351777Y357546D01*
X351906Y357540D01*
X352035Y357530D01*
X352164Y357517D01*
X352292Y357499D01*
X352420Y357478D01*
X352547Y357452D01*
X352674Y357423D01*
X352799Y357390D01*
X352923Y357354D01*
X353046Y357313D01*
X353168Y357269D01*
X353289Y357221D01*
X353408Y357170D01*
X353525Y357115D01*
X353641Y357057D01*
X353754Y356995D01*
X353866Y356929D01*
X353976Y356861D01*
X354084Y356789D01*
X354190Y356713D01*
X354293Y356635D01*
X354394Y356554D01*
X354492Y356469D01*
X354587Y356382D01*
X354680Y356291D01*
X354771Y356198D01*
X354858Y356103D01*
X354943Y356005D01*
X355024Y355904D01*
X355102Y355801D01*
X355178Y355695D01*
X355250Y355587D01*
X355318Y355477D01*
X355384Y355365D01*
X355446Y355252D01*
X355504Y355136D01*
X355559Y355019D01*
X355610Y354900D01*
X355658Y354779D01*
X355702Y354657D01*
X355743Y354534D01*
X355779Y354410D01*
X355812Y354285D01*
X355841Y354158D01*
X355867Y354031D01*
X355888Y353903D01*
X355906Y353775D01*
X355919Y353646D01*
X355929Y353517D01*
X355935Y353388D01*
X355937Y353258D01*
X355937Y351113D01*
X347358Y351113D01*
X364799Y357547D02*
X364799Y344678D01*
X364799Y357547D02*
X371233Y357547D01*
X371233Y355402D01*
D11*
X53467Y508889D02*
X53467Y524891D01*
X51689Y508889D02*
X55245Y508889D01*
X55245Y524891D02*
X51689Y524891D01*
X60700Y526669D02*
X60702Y526771D01*
X60708Y526873D01*
X60718Y526975D01*
X60731Y527076D01*
X60749Y527177D01*
X60770Y527277D01*
X60795Y527376D01*
X60824Y527474D01*
X60857Y527570D01*
X60893Y527666D01*
X60933Y527760D01*
X60977Y527852D01*
X61024Y527943D01*
X61075Y528032D01*
X61128Y528119D01*
X61186Y528203D01*
X61246Y528286D01*
X61309Y528366D01*
X61376Y528443D01*
X61445Y528518D01*
X61518Y528591D01*
X61593Y528660D01*
X61670Y528727D01*
X61750Y528790D01*
X61833Y528850D01*
X61917Y528908D01*
X62004Y528961D01*
X62093Y529012D01*
X62184Y529059D01*
X62276Y529103D01*
X62370Y529143D01*
X62466Y529179D01*
X62562Y529212D01*
X62660Y529241D01*
X62759Y529266D01*
X62859Y529287D01*
X62960Y529305D01*
X63061Y529318D01*
X63163Y529328D01*
X63265Y529334D01*
X63367Y529336D01*
X63469Y529334D01*
X63571Y529328D01*
X63673Y529318D01*
X63774Y529305D01*
X63875Y529287D01*
X63975Y529266D01*
X64074Y529241D01*
X64172Y529212D01*
X64268Y529179D01*
X64364Y529143D01*
X64458Y529103D01*
X64550Y529059D01*
X64641Y529012D01*
X64730Y528961D01*
X64817Y528908D01*
X64901Y528850D01*
X64984Y528790D01*
X65064Y528727D01*
X65141Y528660D01*
X65216Y528591D01*
X65289Y528518D01*
X65358Y528443D01*
X65425Y528366D01*
X65488Y528286D01*
X65548Y528203D01*
X65606Y528119D01*
X65659Y528032D01*
X65710Y527943D01*
X65757Y527852D01*
X65801Y527760D01*
X65841Y527666D01*
X65877Y527570D01*
X65910Y527474D01*
X65939Y527376D01*
X65964Y527277D01*
X65985Y527177D01*
X66003Y527076D01*
X66016Y526975D01*
X66026Y526873D01*
X66032Y526771D01*
X66034Y526669D01*
X66032Y526558D01*
X66026Y526446D01*
X66017Y526335D01*
X66003Y526224D01*
X65986Y526114D01*
X65965Y526005D01*
X65940Y525896D01*
X65911Y525788D01*
X65879Y525682D01*
X65843Y525576D01*
X65803Y525472D01*
X65760Y525369D01*
X65714Y525268D01*
X65663Y525168D01*
X65610Y525071D01*
X65553Y524975D01*
X65493Y524881D01*
X65429Y524789D01*
X65363Y524700D01*
X65293Y524613D01*
X65220Y524528D01*
X65145Y524446D01*
X65145Y524447D02*
X60700Y518668D01*
X66034Y518668D01*
X75460Y508889D02*
X79016Y508889D01*
X75460Y508889D02*
X75344Y508891D01*
X75227Y508897D01*
X75111Y508906D01*
X74996Y508919D01*
X74881Y508936D01*
X74766Y508957D01*
X74653Y508982D01*
X74540Y509010D01*
X74428Y509042D01*
X74317Y509078D01*
X74207Y509117D01*
X74099Y509160D01*
X73992Y509206D01*
X73887Y509256D01*
X73784Y509309D01*
X73682Y509365D01*
X73582Y509425D01*
X73484Y509488D01*
X73389Y509555D01*
X73295Y509624D01*
X73204Y509696D01*
X73115Y509771D01*
X73029Y509850D01*
X72946Y509931D01*
X72865Y510014D01*
X72786Y510100D01*
X72711Y510189D01*
X72639Y510280D01*
X72570Y510374D01*
X72503Y510469D01*
X72440Y510567D01*
X72380Y510667D01*
X72324Y510769D01*
X72271Y510872D01*
X72221Y510977D01*
X72175Y511084D01*
X72132Y511192D01*
X72093Y511302D01*
X72057Y511413D01*
X72025Y511525D01*
X71997Y511638D01*
X71972Y511751D01*
X71951Y511866D01*
X71934Y511981D01*
X71921Y512096D01*
X71912Y512212D01*
X71906Y512329D01*
X71904Y512445D01*
X71904Y521335D01*
X71906Y521451D01*
X71912Y521568D01*
X71921Y521684D01*
X71934Y521799D01*
X71951Y521914D01*
X71972Y522029D01*
X71997Y522142D01*
X72025Y522255D01*
X72057Y522367D01*
X72093Y522478D01*
X72132Y522588D01*
X72175Y522696D01*
X72221Y522803D01*
X72271Y522908D01*
X72324Y523011D01*
X72380Y523113D01*
X72440Y523213D01*
X72503Y523311D01*
X72570Y523406D01*
X72639Y523500D01*
X72711Y523591D01*
X72786Y523680D01*
X72865Y523766D01*
X72946Y523849D01*
X73029Y523930D01*
X73115Y524009D01*
X73204Y524084D01*
X73295Y524156D01*
X73389Y524225D01*
X73484Y524292D01*
X73582Y524355D01*
X73682Y524415D01*
X73784Y524471D01*
X73887Y524524D01*
X73992Y524574D01*
X74099Y524620D01*
X74207Y524663D01*
X74317Y524702D01*
X74428Y524738D01*
X74540Y524770D01*
X74653Y524798D01*
X74766Y524823D01*
X74881Y524844D01*
X74996Y524861D01*
X75111Y524874D01*
X75227Y524883D01*
X75344Y524889D01*
X75460Y524891D01*
X79016Y524891D01*
X93310Y524891D02*
X93310Y523113D01*
X93310Y524891D02*
X102200Y524891D01*
X97755Y508889D01*
X174117Y508889D02*
X174117Y524891D01*
X172339Y508889D02*
X175895Y508889D01*
X175895Y524891D02*
X172339Y524891D01*
X181350Y526669D02*
X181352Y526771D01*
X181358Y526873D01*
X181368Y526975D01*
X181381Y527076D01*
X181399Y527177D01*
X181420Y527277D01*
X181445Y527376D01*
X181474Y527474D01*
X181507Y527570D01*
X181543Y527666D01*
X181583Y527760D01*
X181627Y527852D01*
X181674Y527943D01*
X181725Y528032D01*
X181778Y528119D01*
X181836Y528203D01*
X181896Y528286D01*
X181959Y528366D01*
X182026Y528443D01*
X182095Y528518D01*
X182168Y528591D01*
X182243Y528660D01*
X182320Y528727D01*
X182400Y528790D01*
X182483Y528850D01*
X182567Y528908D01*
X182654Y528961D01*
X182743Y529012D01*
X182834Y529059D01*
X182926Y529103D01*
X183020Y529143D01*
X183116Y529179D01*
X183212Y529212D01*
X183310Y529241D01*
X183409Y529266D01*
X183509Y529287D01*
X183610Y529305D01*
X183711Y529318D01*
X183813Y529328D01*
X183915Y529334D01*
X184017Y529336D01*
X184119Y529334D01*
X184221Y529328D01*
X184323Y529318D01*
X184424Y529305D01*
X184525Y529287D01*
X184625Y529266D01*
X184724Y529241D01*
X184822Y529212D01*
X184918Y529179D01*
X185014Y529143D01*
X185108Y529103D01*
X185200Y529059D01*
X185291Y529012D01*
X185380Y528961D01*
X185467Y528908D01*
X185551Y528850D01*
X185634Y528790D01*
X185714Y528727D01*
X185791Y528660D01*
X185866Y528591D01*
X185939Y528518D01*
X186008Y528443D01*
X186075Y528366D01*
X186138Y528286D01*
X186198Y528203D01*
X186256Y528119D01*
X186309Y528032D01*
X186360Y527943D01*
X186407Y527852D01*
X186451Y527760D01*
X186491Y527666D01*
X186527Y527570D01*
X186560Y527474D01*
X186589Y527376D01*
X186614Y527277D01*
X186635Y527177D01*
X186653Y527076D01*
X186666Y526975D01*
X186676Y526873D01*
X186682Y526771D01*
X186684Y526669D01*
X186682Y526558D01*
X186676Y526446D01*
X186667Y526335D01*
X186653Y526224D01*
X186636Y526114D01*
X186615Y526005D01*
X186590Y525896D01*
X186561Y525788D01*
X186529Y525682D01*
X186493Y525576D01*
X186453Y525472D01*
X186410Y525369D01*
X186364Y525268D01*
X186313Y525168D01*
X186260Y525071D01*
X186203Y524975D01*
X186143Y524881D01*
X186079Y524789D01*
X186013Y524700D01*
X185943Y524613D01*
X185870Y524528D01*
X185795Y524446D01*
X185795Y524447D02*
X181350Y518668D01*
X186684Y518668D01*
X196110Y508889D02*
X199666Y508889D01*
X196110Y508889D02*
X195994Y508891D01*
X195877Y508897D01*
X195761Y508906D01*
X195646Y508919D01*
X195531Y508936D01*
X195416Y508957D01*
X195303Y508982D01*
X195190Y509010D01*
X195078Y509042D01*
X194967Y509078D01*
X194857Y509117D01*
X194749Y509160D01*
X194642Y509206D01*
X194537Y509256D01*
X194434Y509309D01*
X194332Y509365D01*
X194232Y509425D01*
X194134Y509488D01*
X194039Y509555D01*
X193945Y509624D01*
X193854Y509696D01*
X193765Y509771D01*
X193679Y509850D01*
X193596Y509931D01*
X193515Y510014D01*
X193436Y510100D01*
X193361Y510189D01*
X193289Y510280D01*
X193220Y510374D01*
X193153Y510469D01*
X193090Y510567D01*
X193030Y510667D01*
X192974Y510769D01*
X192921Y510872D01*
X192871Y510977D01*
X192825Y511084D01*
X192782Y511192D01*
X192743Y511302D01*
X192707Y511413D01*
X192675Y511525D01*
X192647Y511638D01*
X192622Y511751D01*
X192601Y511866D01*
X192584Y511981D01*
X192571Y512096D01*
X192562Y512212D01*
X192556Y512329D01*
X192554Y512445D01*
X192554Y521335D01*
X192556Y521451D01*
X192562Y521568D01*
X192571Y521684D01*
X192584Y521799D01*
X192601Y521914D01*
X192622Y522029D01*
X192647Y522142D01*
X192675Y522255D01*
X192707Y522367D01*
X192743Y522478D01*
X192782Y522588D01*
X192825Y522696D01*
X192871Y522803D01*
X192921Y522908D01*
X192974Y523011D01*
X193030Y523113D01*
X193090Y523213D01*
X193153Y523311D01*
X193220Y523406D01*
X193289Y523500D01*
X193361Y523591D01*
X193436Y523680D01*
X193515Y523766D01*
X193596Y523849D01*
X193679Y523930D01*
X193765Y524009D01*
X193854Y524084D01*
X193945Y524156D01*
X194039Y524225D01*
X194134Y524292D01*
X194232Y524355D01*
X194332Y524415D01*
X194434Y524471D01*
X194537Y524524D01*
X194642Y524574D01*
X194749Y524620D01*
X194857Y524663D01*
X194967Y524702D01*
X195078Y524738D01*
X195190Y524770D01*
X195303Y524798D01*
X195416Y524823D01*
X195531Y524844D01*
X195646Y524861D01*
X195761Y524874D01*
X195877Y524883D01*
X195994Y524889D01*
X196110Y524891D01*
X199666Y524891D01*
X213960Y508889D02*
X219294Y508889D01*
X219410Y508891D01*
X219527Y508897D01*
X219643Y508906D01*
X219758Y508919D01*
X219873Y508936D01*
X219988Y508957D01*
X220101Y508982D01*
X220214Y509010D01*
X220326Y509042D01*
X220437Y509078D01*
X220547Y509117D01*
X220655Y509160D01*
X220762Y509206D01*
X220867Y509256D01*
X220970Y509309D01*
X221072Y509365D01*
X221172Y509425D01*
X221270Y509488D01*
X221365Y509555D01*
X221459Y509624D01*
X221550Y509696D01*
X221639Y509771D01*
X221725Y509850D01*
X221808Y509931D01*
X221889Y510014D01*
X221968Y510100D01*
X222043Y510189D01*
X222115Y510280D01*
X222184Y510374D01*
X222251Y510469D01*
X222314Y510567D01*
X222374Y510667D01*
X222430Y510769D01*
X222483Y510872D01*
X222533Y510977D01*
X222579Y511084D01*
X222622Y511192D01*
X222661Y511302D01*
X222697Y511413D01*
X222729Y511525D01*
X222757Y511638D01*
X222782Y511751D01*
X222803Y511866D01*
X222820Y511981D01*
X222833Y512096D01*
X222842Y512212D01*
X222848Y512329D01*
X222850Y512445D01*
X222850Y514223D01*
X222848Y514339D01*
X222842Y514456D01*
X222833Y514572D01*
X222820Y514687D01*
X222803Y514802D01*
X222782Y514917D01*
X222757Y515030D01*
X222729Y515143D01*
X222697Y515255D01*
X222661Y515366D01*
X222622Y515476D01*
X222579Y515584D01*
X222533Y515691D01*
X222483Y515796D01*
X222430Y515899D01*
X222374Y516001D01*
X222314Y516101D01*
X222251Y516199D01*
X222184Y516294D01*
X222115Y516388D01*
X222043Y516479D01*
X221968Y516568D01*
X221889Y516654D01*
X221808Y516737D01*
X221725Y516818D01*
X221639Y516897D01*
X221550Y516972D01*
X221459Y517044D01*
X221365Y517113D01*
X221270Y517180D01*
X221172Y517243D01*
X221072Y517303D01*
X220970Y517359D01*
X220867Y517412D01*
X220762Y517462D01*
X220655Y517508D01*
X220547Y517551D01*
X220437Y517590D01*
X220326Y517626D01*
X220214Y517658D01*
X220101Y517686D01*
X219988Y517711D01*
X219873Y517732D01*
X219758Y517749D01*
X219643Y517762D01*
X219527Y517771D01*
X219410Y517777D01*
X219294Y517779D01*
X213960Y517779D01*
X213960Y524891D01*
X222850Y524891D01*
X294767Y524891D02*
X294767Y508889D01*
X292989Y508889D02*
X296545Y508889D01*
X296545Y524891D02*
X292989Y524891D01*
X302000Y526669D02*
X302002Y526771D01*
X302008Y526873D01*
X302018Y526975D01*
X302031Y527076D01*
X302049Y527177D01*
X302070Y527277D01*
X302095Y527376D01*
X302124Y527474D01*
X302157Y527570D01*
X302193Y527666D01*
X302233Y527760D01*
X302277Y527852D01*
X302324Y527943D01*
X302375Y528032D01*
X302428Y528119D01*
X302486Y528203D01*
X302546Y528286D01*
X302609Y528366D01*
X302676Y528443D01*
X302745Y528518D01*
X302818Y528591D01*
X302893Y528660D01*
X302970Y528727D01*
X303050Y528790D01*
X303133Y528850D01*
X303217Y528908D01*
X303304Y528961D01*
X303393Y529012D01*
X303484Y529059D01*
X303576Y529103D01*
X303670Y529143D01*
X303766Y529179D01*
X303862Y529212D01*
X303960Y529241D01*
X304059Y529266D01*
X304159Y529287D01*
X304260Y529305D01*
X304361Y529318D01*
X304463Y529328D01*
X304565Y529334D01*
X304667Y529336D01*
X304769Y529334D01*
X304871Y529328D01*
X304973Y529318D01*
X305074Y529305D01*
X305175Y529287D01*
X305275Y529266D01*
X305374Y529241D01*
X305472Y529212D01*
X305568Y529179D01*
X305664Y529143D01*
X305758Y529103D01*
X305850Y529059D01*
X305941Y529012D01*
X306030Y528961D01*
X306117Y528908D01*
X306201Y528850D01*
X306284Y528790D01*
X306364Y528727D01*
X306441Y528660D01*
X306516Y528591D01*
X306589Y528518D01*
X306658Y528443D01*
X306725Y528366D01*
X306788Y528286D01*
X306848Y528203D01*
X306906Y528119D01*
X306959Y528032D01*
X307010Y527943D01*
X307057Y527852D01*
X307101Y527760D01*
X307141Y527666D01*
X307177Y527570D01*
X307210Y527474D01*
X307239Y527376D01*
X307264Y527277D01*
X307285Y527177D01*
X307303Y527076D01*
X307316Y526975D01*
X307326Y526873D01*
X307332Y526771D01*
X307334Y526669D01*
X307332Y526558D01*
X307326Y526446D01*
X307317Y526335D01*
X307303Y526224D01*
X307286Y526114D01*
X307265Y526005D01*
X307240Y525896D01*
X307211Y525788D01*
X307179Y525682D01*
X307143Y525576D01*
X307103Y525472D01*
X307060Y525369D01*
X307014Y525268D01*
X306963Y525168D01*
X306910Y525071D01*
X306853Y524975D01*
X306793Y524881D01*
X306729Y524789D01*
X306663Y524700D01*
X306593Y524613D01*
X306520Y524528D01*
X306445Y524446D01*
X306445Y524447D02*
X302000Y518668D01*
X307334Y518668D01*
X316760Y508889D02*
X320316Y508889D01*
X316760Y508889D02*
X316644Y508891D01*
X316527Y508897D01*
X316411Y508906D01*
X316296Y508919D01*
X316181Y508936D01*
X316066Y508957D01*
X315953Y508982D01*
X315840Y509010D01*
X315728Y509042D01*
X315617Y509078D01*
X315507Y509117D01*
X315399Y509160D01*
X315292Y509206D01*
X315187Y509256D01*
X315084Y509309D01*
X314982Y509365D01*
X314882Y509425D01*
X314784Y509488D01*
X314689Y509555D01*
X314595Y509624D01*
X314504Y509696D01*
X314415Y509771D01*
X314329Y509850D01*
X314246Y509931D01*
X314165Y510014D01*
X314086Y510100D01*
X314011Y510189D01*
X313939Y510280D01*
X313870Y510374D01*
X313803Y510469D01*
X313740Y510567D01*
X313680Y510667D01*
X313624Y510769D01*
X313571Y510872D01*
X313521Y510977D01*
X313475Y511084D01*
X313432Y511192D01*
X313393Y511302D01*
X313357Y511413D01*
X313325Y511525D01*
X313297Y511638D01*
X313272Y511751D01*
X313251Y511866D01*
X313234Y511981D01*
X313221Y512096D01*
X313212Y512212D01*
X313206Y512329D01*
X313204Y512445D01*
X313204Y521335D01*
X313206Y521451D01*
X313212Y521568D01*
X313221Y521684D01*
X313234Y521799D01*
X313251Y521914D01*
X313272Y522029D01*
X313297Y522142D01*
X313325Y522255D01*
X313357Y522367D01*
X313393Y522478D01*
X313432Y522588D01*
X313475Y522696D01*
X313521Y522803D01*
X313571Y522908D01*
X313624Y523011D01*
X313680Y523113D01*
X313740Y523213D01*
X313803Y523311D01*
X313870Y523406D01*
X313939Y523500D01*
X314011Y523591D01*
X314086Y523680D01*
X314165Y523766D01*
X314246Y523849D01*
X314329Y523930D01*
X314415Y524009D01*
X314504Y524084D01*
X314595Y524156D01*
X314689Y524225D01*
X314784Y524292D01*
X314882Y524355D01*
X314982Y524415D01*
X315084Y524471D01*
X315187Y524524D01*
X315292Y524574D01*
X315399Y524620D01*
X315507Y524663D01*
X315617Y524702D01*
X315728Y524738D01*
X315840Y524770D01*
X315953Y524798D01*
X316066Y524823D01*
X316181Y524844D01*
X316296Y524861D01*
X316411Y524874D01*
X316527Y524883D01*
X316644Y524889D01*
X316760Y524891D01*
X320316Y524891D01*
X334610Y508889D02*
X339055Y508889D01*
X339187Y508891D01*
X339318Y508897D01*
X339450Y508907D01*
X339581Y508920D01*
X339711Y508938D01*
X339841Y508959D01*
X339971Y508984D01*
X340099Y509013D01*
X340227Y509046D01*
X340353Y509083D01*
X340479Y509123D01*
X340603Y509167D01*
X340726Y509215D01*
X340847Y509266D01*
X340967Y509321D01*
X341085Y509379D01*
X341201Y509441D01*
X341315Y509507D01*
X341428Y509575D01*
X341538Y509647D01*
X341646Y509722D01*
X341752Y509801D01*
X341856Y509882D01*
X341957Y509967D01*
X342055Y510054D01*
X342151Y510145D01*
X342244Y510238D01*
X342335Y510334D01*
X342422Y510432D01*
X342507Y510533D01*
X342588Y510637D01*
X342667Y510743D01*
X342742Y510851D01*
X342814Y510961D01*
X342882Y511074D01*
X342948Y511188D01*
X343010Y511304D01*
X343068Y511422D01*
X343123Y511542D01*
X343174Y511663D01*
X343222Y511786D01*
X343266Y511910D01*
X343306Y512036D01*
X343343Y512162D01*
X343376Y512290D01*
X343405Y512418D01*
X343430Y512548D01*
X343451Y512678D01*
X343469Y512808D01*
X343482Y512939D01*
X343492Y513071D01*
X343498Y513202D01*
X343500Y513334D01*
X343498Y513466D01*
X343492Y513597D01*
X343482Y513729D01*
X343469Y513860D01*
X343451Y513990D01*
X343430Y514120D01*
X343405Y514250D01*
X343376Y514378D01*
X343343Y514506D01*
X343306Y514632D01*
X343266Y514758D01*
X343222Y514882D01*
X343174Y515005D01*
X343123Y515126D01*
X343068Y515246D01*
X343010Y515364D01*
X342948Y515480D01*
X342882Y515594D01*
X342814Y515707D01*
X342742Y515817D01*
X342667Y515925D01*
X342588Y516031D01*
X342507Y516135D01*
X342422Y516236D01*
X342335Y516334D01*
X342244Y516430D01*
X342151Y516523D01*
X342055Y516614D01*
X341957Y516701D01*
X341856Y516786D01*
X341752Y516867D01*
X341646Y516946D01*
X341538Y517021D01*
X341428Y517093D01*
X341315Y517161D01*
X341201Y517227D01*
X341085Y517289D01*
X340967Y517347D01*
X340847Y517402D01*
X340726Y517453D01*
X340603Y517501D01*
X340479Y517545D01*
X340353Y517585D01*
X340227Y517622D01*
X340099Y517655D01*
X339971Y517684D01*
X339841Y517709D01*
X339711Y517730D01*
X339581Y517748D01*
X339450Y517761D01*
X339318Y517771D01*
X339187Y517777D01*
X339055Y517779D01*
X339944Y524891D02*
X334610Y524891D01*
X339944Y524891D02*
X340062Y524889D01*
X340179Y524883D01*
X340296Y524874D01*
X340413Y524860D01*
X340529Y524843D01*
X340645Y524821D01*
X340760Y524796D01*
X340874Y524767D01*
X340987Y524735D01*
X341099Y524698D01*
X341209Y524658D01*
X341318Y524615D01*
X341426Y524567D01*
X341532Y524517D01*
X341636Y524462D01*
X341739Y524405D01*
X341839Y524344D01*
X341938Y524279D01*
X342034Y524212D01*
X342128Y524141D01*
X342220Y524067D01*
X342309Y523991D01*
X342395Y523911D01*
X342479Y523829D01*
X342560Y523743D01*
X342638Y523656D01*
X342714Y523565D01*
X342786Y523472D01*
X342855Y523377D01*
X342921Y523280D01*
X342984Y523180D01*
X343043Y523079D01*
X343099Y522976D01*
X343151Y522870D01*
X343200Y522763D01*
X343246Y522655D01*
X343288Y522545D01*
X343326Y522434D01*
X343360Y522321D01*
X343391Y522208D01*
X343418Y522093D01*
X343441Y521978D01*
X343461Y521862D01*
X343476Y521746D01*
X343488Y521629D01*
X343496Y521511D01*
X343500Y521394D01*
X343500Y521276D01*
X343496Y521159D01*
X343488Y521041D01*
X343476Y520924D01*
X343461Y520808D01*
X343441Y520692D01*
X343418Y520577D01*
X343391Y520462D01*
X343360Y520349D01*
X343326Y520236D01*
X343288Y520125D01*
X343246Y520015D01*
X343200Y519907D01*
X343151Y519800D01*
X343099Y519694D01*
X343043Y519591D01*
X342984Y519490D01*
X342921Y519390D01*
X342855Y519293D01*
X342786Y519198D01*
X342714Y519105D01*
X342638Y519014D01*
X342560Y518927D01*
X342479Y518841D01*
X342395Y518759D01*
X342309Y518679D01*
X342220Y518603D01*
X342128Y518529D01*
X342034Y518458D01*
X341938Y518391D01*
X341839Y518326D01*
X341739Y518265D01*
X341636Y518208D01*
X341532Y518153D01*
X341426Y518103D01*
X341318Y518055D01*
X341209Y518012D01*
X341099Y517972D01*
X340987Y517935D01*
X340874Y517903D01*
X340760Y517874D01*
X340645Y517849D01*
X340529Y517827D01*
X340413Y517810D01*
X340296Y517796D01*
X340179Y517787D01*
X340062Y517781D01*
X339944Y517779D01*
X336388Y517779D01*
X415417Y524891D02*
X415417Y508889D01*
X413639Y508889D02*
X417195Y508889D01*
X417195Y524891D02*
X413639Y524891D01*
X422650Y526669D02*
X422652Y526771D01*
X422658Y526873D01*
X422668Y526975D01*
X422681Y527076D01*
X422699Y527177D01*
X422720Y527277D01*
X422745Y527376D01*
X422774Y527474D01*
X422807Y527570D01*
X422843Y527666D01*
X422883Y527760D01*
X422927Y527852D01*
X422974Y527943D01*
X423025Y528032D01*
X423078Y528119D01*
X423136Y528203D01*
X423196Y528286D01*
X423259Y528366D01*
X423326Y528443D01*
X423395Y528518D01*
X423468Y528591D01*
X423543Y528660D01*
X423620Y528727D01*
X423700Y528790D01*
X423783Y528850D01*
X423867Y528908D01*
X423954Y528961D01*
X424043Y529012D01*
X424134Y529059D01*
X424226Y529103D01*
X424320Y529143D01*
X424416Y529179D01*
X424512Y529212D01*
X424610Y529241D01*
X424709Y529266D01*
X424809Y529287D01*
X424910Y529305D01*
X425011Y529318D01*
X425113Y529328D01*
X425215Y529334D01*
X425317Y529336D01*
X425419Y529334D01*
X425521Y529328D01*
X425623Y529318D01*
X425724Y529305D01*
X425825Y529287D01*
X425925Y529266D01*
X426024Y529241D01*
X426122Y529212D01*
X426218Y529179D01*
X426314Y529143D01*
X426408Y529103D01*
X426500Y529059D01*
X426591Y529012D01*
X426680Y528961D01*
X426767Y528908D01*
X426851Y528850D01*
X426934Y528790D01*
X427014Y528727D01*
X427091Y528660D01*
X427166Y528591D01*
X427239Y528518D01*
X427308Y528443D01*
X427375Y528366D01*
X427438Y528286D01*
X427498Y528203D01*
X427556Y528119D01*
X427609Y528032D01*
X427660Y527943D01*
X427707Y527852D01*
X427751Y527760D01*
X427791Y527666D01*
X427827Y527570D01*
X427860Y527474D01*
X427889Y527376D01*
X427914Y527277D01*
X427935Y527177D01*
X427953Y527076D01*
X427966Y526975D01*
X427976Y526873D01*
X427982Y526771D01*
X427984Y526669D01*
X427982Y526558D01*
X427976Y526446D01*
X427967Y526335D01*
X427953Y526224D01*
X427936Y526114D01*
X427915Y526005D01*
X427890Y525896D01*
X427861Y525788D01*
X427829Y525682D01*
X427793Y525576D01*
X427753Y525472D01*
X427710Y525369D01*
X427664Y525268D01*
X427613Y525168D01*
X427560Y525071D01*
X427503Y524975D01*
X427443Y524881D01*
X427379Y524789D01*
X427313Y524700D01*
X427243Y524613D01*
X427170Y524528D01*
X427095Y524446D01*
X427095Y524447D02*
X422650Y518668D01*
X427984Y518668D01*
X437410Y508889D02*
X440966Y508889D01*
X437410Y508889D02*
X437294Y508891D01*
X437177Y508897D01*
X437061Y508906D01*
X436946Y508919D01*
X436831Y508936D01*
X436716Y508957D01*
X436603Y508982D01*
X436490Y509010D01*
X436378Y509042D01*
X436267Y509078D01*
X436157Y509117D01*
X436049Y509160D01*
X435942Y509206D01*
X435837Y509256D01*
X435734Y509309D01*
X435632Y509365D01*
X435532Y509425D01*
X435434Y509488D01*
X435339Y509555D01*
X435245Y509624D01*
X435154Y509696D01*
X435065Y509771D01*
X434979Y509850D01*
X434896Y509931D01*
X434815Y510014D01*
X434736Y510100D01*
X434661Y510189D01*
X434589Y510280D01*
X434520Y510374D01*
X434453Y510469D01*
X434390Y510567D01*
X434330Y510667D01*
X434274Y510769D01*
X434221Y510872D01*
X434171Y510977D01*
X434125Y511084D01*
X434082Y511192D01*
X434043Y511302D01*
X434007Y511413D01*
X433975Y511525D01*
X433947Y511638D01*
X433922Y511751D01*
X433901Y511866D01*
X433884Y511981D01*
X433871Y512096D01*
X433862Y512212D01*
X433856Y512329D01*
X433854Y512445D01*
X433854Y521335D01*
X433856Y521451D01*
X433862Y521568D01*
X433871Y521684D01*
X433884Y521799D01*
X433901Y521914D01*
X433922Y522029D01*
X433947Y522142D01*
X433975Y522255D01*
X434007Y522367D01*
X434043Y522478D01*
X434082Y522588D01*
X434125Y522696D01*
X434171Y522803D01*
X434221Y522908D01*
X434274Y523011D01*
X434330Y523113D01*
X434390Y523213D01*
X434453Y523311D01*
X434520Y523406D01*
X434589Y523500D01*
X434661Y523591D01*
X434736Y523680D01*
X434815Y523766D01*
X434896Y523849D01*
X434979Y523930D01*
X435065Y524009D01*
X435154Y524084D01*
X435245Y524156D01*
X435339Y524225D01*
X435434Y524292D01*
X435532Y524355D01*
X435632Y524415D01*
X435734Y524471D01*
X435837Y524524D01*
X435942Y524574D01*
X436049Y524620D01*
X436157Y524663D01*
X436267Y524702D01*
X436378Y524738D01*
X436490Y524770D01*
X436603Y524798D01*
X436716Y524823D01*
X436831Y524844D01*
X436946Y524861D01*
X437061Y524874D01*
X437177Y524883D01*
X437294Y524889D01*
X437410Y524891D01*
X440966Y524891D01*
X455260Y521335D02*
X459705Y524891D01*
X459705Y508889D01*
X455260Y508889D02*
X464150Y508889D01*
X126111Y910717D02*
X110109Y910717D01*
X126111Y908939D02*
X126111Y912495D01*
X110109Y912495D02*
X110109Y908939D01*
X108331Y917950D02*
X108229Y917952D01*
X108127Y917958D01*
X108025Y917968D01*
X107924Y917981D01*
X107823Y917999D01*
X107723Y918020D01*
X107624Y918045D01*
X107526Y918074D01*
X107430Y918107D01*
X107334Y918143D01*
X107240Y918183D01*
X107148Y918227D01*
X107057Y918274D01*
X106968Y918325D01*
X106881Y918378D01*
X106797Y918436D01*
X106714Y918496D01*
X106634Y918559D01*
X106557Y918626D01*
X106482Y918695D01*
X106409Y918768D01*
X106340Y918843D01*
X106273Y918920D01*
X106210Y919000D01*
X106150Y919083D01*
X106092Y919167D01*
X106039Y919254D01*
X105988Y919343D01*
X105941Y919434D01*
X105897Y919526D01*
X105857Y919620D01*
X105821Y919716D01*
X105788Y919812D01*
X105759Y919910D01*
X105734Y920009D01*
X105713Y920109D01*
X105695Y920210D01*
X105682Y920311D01*
X105672Y920413D01*
X105666Y920515D01*
X105664Y920617D01*
X105666Y920719D01*
X105672Y920821D01*
X105682Y920923D01*
X105695Y921024D01*
X105713Y921125D01*
X105734Y921225D01*
X105759Y921324D01*
X105788Y921422D01*
X105821Y921518D01*
X105857Y921614D01*
X105897Y921708D01*
X105941Y921800D01*
X105988Y921891D01*
X106039Y921980D01*
X106092Y922067D01*
X106150Y922151D01*
X106210Y922234D01*
X106273Y922314D01*
X106340Y922391D01*
X106409Y922466D01*
X106482Y922539D01*
X106557Y922608D01*
X106634Y922675D01*
X106714Y922738D01*
X106797Y922798D01*
X106881Y922856D01*
X106968Y922909D01*
X107057Y922960D01*
X107148Y923007D01*
X107240Y923051D01*
X107334Y923091D01*
X107430Y923127D01*
X107526Y923160D01*
X107624Y923189D01*
X107723Y923214D01*
X107823Y923235D01*
X107924Y923253D01*
X108025Y923266D01*
X108127Y923276D01*
X108229Y923282D01*
X108331Y923284D01*
X108442Y923282D01*
X108554Y923276D01*
X108665Y923267D01*
X108776Y923253D01*
X108886Y923236D01*
X108995Y923215D01*
X109104Y923190D01*
X109212Y923161D01*
X109318Y923129D01*
X109424Y923093D01*
X109528Y923053D01*
X109631Y923010D01*
X109732Y922964D01*
X109832Y922913D01*
X109929Y922860D01*
X110025Y922803D01*
X110119Y922743D01*
X110211Y922679D01*
X110300Y922613D01*
X110387Y922543D01*
X110472Y922470D01*
X110554Y922395D01*
X116332Y917950D01*
X116332Y923284D01*
X126111Y932710D02*
X126111Y936266D01*
X126111Y932710D02*
X126109Y932594D01*
X126103Y932477D01*
X126094Y932361D01*
X126081Y932246D01*
X126064Y932131D01*
X126043Y932016D01*
X126018Y931903D01*
X125990Y931790D01*
X125958Y931678D01*
X125922Y931567D01*
X125883Y931457D01*
X125840Y931349D01*
X125794Y931242D01*
X125744Y931137D01*
X125691Y931034D01*
X125635Y930932D01*
X125575Y930832D01*
X125512Y930734D01*
X125445Y930639D01*
X125376Y930545D01*
X125304Y930454D01*
X125229Y930365D01*
X125150Y930279D01*
X125069Y930196D01*
X124986Y930115D01*
X124900Y930036D01*
X124811Y929961D01*
X124720Y929889D01*
X124626Y929820D01*
X124531Y929753D01*
X124433Y929690D01*
X124333Y929630D01*
X124231Y929574D01*
X124128Y929521D01*
X124023Y929471D01*
X123916Y929425D01*
X123808Y929382D01*
X123698Y929343D01*
X123587Y929307D01*
X123475Y929275D01*
X123362Y929247D01*
X123249Y929222D01*
X123134Y929201D01*
X123019Y929184D01*
X122904Y929171D01*
X122788Y929162D01*
X122671Y929156D01*
X122555Y929154D01*
X113665Y929154D01*
X113549Y929156D01*
X113432Y929162D01*
X113316Y929171D01*
X113201Y929184D01*
X113086Y929201D01*
X112971Y929222D01*
X112858Y929247D01*
X112745Y929275D01*
X112633Y929307D01*
X112522Y929343D01*
X112412Y929382D01*
X112304Y929425D01*
X112197Y929471D01*
X112092Y929521D01*
X111989Y929574D01*
X111887Y929630D01*
X111787Y929690D01*
X111689Y929753D01*
X111594Y929820D01*
X111500Y929889D01*
X111409Y929961D01*
X111320Y930036D01*
X111234Y930115D01*
X111151Y930196D01*
X111070Y930279D01*
X110991Y930365D01*
X110916Y930454D01*
X110844Y930545D01*
X110775Y930639D01*
X110708Y930734D01*
X110645Y930832D01*
X110585Y930932D01*
X110529Y931034D01*
X110476Y931137D01*
X110426Y931242D01*
X110380Y931349D01*
X110337Y931457D01*
X110298Y931567D01*
X110262Y931678D01*
X110230Y931790D01*
X110202Y931903D01*
X110177Y932016D01*
X110156Y932131D01*
X110139Y932246D01*
X110126Y932361D01*
X110117Y932477D01*
X110111Y932594D01*
X110109Y932710D01*
X110109Y936266D01*
X117221Y950560D02*
X117221Y955894D01*
X117223Y956010D01*
X117229Y956127D01*
X117238Y956243D01*
X117251Y956358D01*
X117268Y956473D01*
X117289Y956588D01*
X117314Y956701D01*
X117342Y956814D01*
X117374Y956926D01*
X117410Y957037D01*
X117449Y957147D01*
X117492Y957255D01*
X117538Y957362D01*
X117588Y957467D01*
X117641Y957570D01*
X117697Y957672D01*
X117757Y957772D01*
X117820Y957870D01*
X117887Y957965D01*
X117956Y958059D01*
X118028Y958150D01*
X118103Y958239D01*
X118182Y958325D01*
X118263Y958408D01*
X118346Y958489D01*
X118432Y958568D01*
X118521Y958643D01*
X118612Y958715D01*
X118706Y958784D01*
X118801Y958851D01*
X118899Y958914D01*
X118999Y958974D01*
X119101Y959030D01*
X119204Y959083D01*
X119309Y959133D01*
X119416Y959179D01*
X119524Y959222D01*
X119634Y959261D01*
X119745Y959297D01*
X119857Y959329D01*
X119970Y959357D01*
X120083Y959382D01*
X120198Y959403D01*
X120313Y959420D01*
X120428Y959433D01*
X120544Y959442D01*
X120661Y959448D01*
X120777Y959450D01*
X121666Y959450D01*
X121798Y959448D01*
X121929Y959442D01*
X122061Y959432D01*
X122192Y959419D01*
X122322Y959401D01*
X122452Y959380D01*
X122582Y959355D01*
X122710Y959326D01*
X122838Y959293D01*
X122964Y959256D01*
X123090Y959216D01*
X123214Y959172D01*
X123337Y959124D01*
X123458Y959073D01*
X123578Y959018D01*
X123696Y958960D01*
X123812Y958898D01*
X123926Y958832D01*
X124039Y958764D01*
X124149Y958692D01*
X124257Y958617D01*
X124363Y958538D01*
X124467Y958457D01*
X124568Y958372D01*
X124666Y958285D01*
X124762Y958194D01*
X124855Y958101D01*
X124946Y958005D01*
X125033Y957907D01*
X125118Y957806D01*
X125199Y957702D01*
X125278Y957596D01*
X125353Y957488D01*
X125425Y957378D01*
X125493Y957265D01*
X125559Y957151D01*
X125621Y957035D01*
X125679Y956917D01*
X125734Y956797D01*
X125785Y956676D01*
X125833Y956553D01*
X125877Y956429D01*
X125917Y956303D01*
X125954Y956177D01*
X125987Y956049D01*
X126016Y955921D01*
X126041Y955791D01*
X126062Y955661D01*
X126080Y955531D01*
X126093Y955400D01*
X126103Y955268D01*
X126109Y955137D01*
X126111Y955005D01*
X126109Y954873D01*
X126103Y954742D01*
X126093Y954610D01*
X126080Y954479D01*
X126062Y954349D01*
X126041Y954219D01*
X126016Y954089D01*
X125987Y953961D01*
X125954Y953833D01*
X125917Y953707D01*
X125877Y953581D01*
X125833Y953457D01*
X125785Y953334D01*
X125734Y953213D01*
X125679Y953093D01*
X125621Y952975D01*
X125559Y952859D01*
X125493Y952745D01*
X125425Y952632D01*
X125353Y952522D01*
X125278Y952414D01*
X125199Y952308D01*
X125118Y952204D01*
X125033Y952103D01*
X124946Y952005D01*
X124855Y951909D01*
X124762Y951816D01*
X124666Y951725D01*
X124568Y951638D01*
X124467Y951553D01*
X124363Y951472D01*
X124257Y951393D01*
X124149Y951318D01*
X124039Y951246D01*
X123926Y951178D01*
X123812Y951112D01*
X123696Y951050D01*
X123578Y950992D01*
X123458Y950937D01*
X123337Y950886D01*
X123214Y950838D01*
X123090Y950794D01*
X122964Y950754D01*
X122838Y950717D01*
X122710Y950684D01*
X122582Y950655D01*
X122452Y950630D01*
X122322Y950609D01*
X122192Y950591D01*
X122061Y950578D01*
X121929Y950568D01*
X121798Y950562D01*
X121666Y950560D01*
X117221Y950560D01*
X117049Y950562D01*
X116877Y950568D01*
X116706Y950579D01*
X116535Y950593D01*
X116364Y950612D01*
X116193Y950635D01*
X116024Y950662D01*
X115855Y950692D01*
X115686Y950728D01*
X115519Y950767D01*
X115353Y950810D01*
X115187Y950857D01*
X115023Y950908D01*
X114860Y950963D01*
X114699Y951022D01*
X114539Y951085D01*
X114381Y951152D01*
X114224Y951222D01*
X114069Y951297D01*
X113916Y951375D01*
X113765Y951456D01*
X113616Y951542D01*
X113468Y951631D01*
X113324Y951723D01*
X113181Y951819D01*
X113041Y951918D01*
X112903Y952021D01*
X112768Y952127D01*
X112635Y952236D01*
X112505Y952349D01*
X112378Y952464D01*
X112253Y952583D01*
X112132Y952704D01*
X112013Y952829D01*
X111898Y952956D01*
X111785Y953086D01*
X111676Y953219D01*
X111570Y953354D01*
X111467Y953492D01*
X111368Y953632D01*
X111272Y953775D01*
X111180Y953919D01*
X111091Y954067D01*
X111005Y954216D01*
X110924Y954367D01*
X110846Y954520D01*
X110771Y954675D01*
X110701Y954832D01*
X110634Y954990D01*
X110571Y955150D01*
X110512Y955311D01*
X110457Y955474D01*
X110406Y955638D01*
X110359Y955804D01*
X110316Y955970D01*
X110277Y956137D01*
X110241Y956306D01*
X110211Y956475D01*
X110184Y956644D01*
X110161Y956815D01*
X110142Y956986D01*
X110128Y957157D01*
X110117Y957328D01*
X110111Y957500D01*
X110109Y957672D01*
X180467Y924941D02*
X180467Y908939D01*
X178689Y908939D02*
X182245Y908939D01*
X182245Y924941D02*
X178689Y924941D01*
X187700Y926719D02*
X187702Y926821D01*
X187708Y926923D01*
X187718Y927025D01*
X187731Y927126D01*
X187749Y927227D01*
X187770Y927327D01*
X187795Y927426D01*
X187824Y927524D01*
X187857Y927620D01*
X187893Y927716D01*
X187933Y927810D01*
X187977Y927902D01*
X188024Y927993D01*
X188075Y928082D01*
X188128Y928169D01*
X188186Y928253D01*
X188246Y928336D01*
X188309Y928416D01*
X188376Y928493D01*
X188445Y928568D01*
X188518Y928641D01*
X188593Y928710D01*
X188670Y928777D01*
X188750Y928840D01*
X188833Y928900D01*
X188917Y928958D01*
X189004Y929011D01*
X189093Y929062D01*
X189184Y929109D01*
X189276Y929153D01*
X189370Y929193D01*
X189466Y929229D01*
X189562Y929262D01*
X189660Y929291D01*
X189759Y929316D01*
X189859Y929337D01*
X189960Y929355D01*
X190061Y929368D01*
X190163Y929378D01*
X190265Y929384D01*
X190367Y929386D01*
X190469Y929384D01*
X190571Y929378D01*
X190673Y929368D01*
X190774Y929355D01*
X190875Y929337D01*
X190975Y929316D01*
X191074Y929291D01*
X191172Y929262D01*
X191268Y929229D01*
X191364Y929193D01*
X191458Y929153D01*
X191550Y929109D01*
X191641Y929062D01*
X191730Y929011D01*
X191817Y928958D01*
X191901Y928900D01*
X191984Y928840D01*
X192064Y928777D01*
X192141Y928710D01*
X192216Y928641D01*
X192289Y928568D01*
X192358Y928493D01*
X192425Y928416D01*
X192488Y928336D01*
X192548Y928253D01*
X192606Y928169D01*
X192659Y928082D01*
X192710Y927993D01*
X192757Y927902D01*
X192801Y927810D01*
X192841Y927716D01*
X192877Y927620D01*
X192910Y927524D01*
X192939Y927426D01*
X192964Y927327D01*
X192985Y927227D01*
X193003Y927126D01*
X193016Y927025D01*
X193026Y926923D01*
X193032Y926821D01*
X193034Y926719D01*
X193032Y926608D01*
X193026Y926496D01*
X193017Y926385D01*
X193003Y926274D01*
X192986Y926164D01*
X192965Y926055D01*
X192940Y925946D01*
X192911Y925838D01*
X192879Y925732D01*
X192843Y925626D01*
X192803Y925522D01*
X192760Y925419D01*
X192714Y925318D01*
X192663Y925218D01*
X192610Y925121D01*
X192553Y925025D01*
X192493Y924931D01*
X192429Y924839D01*
X192363Y924750D01*
X192293Y924663D01*
X192220Y924578D01*
X192145Y924496D01*
X192145Y924497D02*
X187700Y918718D01*
X193034Y918718D01*
X202460Y908939D02*
X206016Y908939D01*
X202460Y908939D02*
X202344Y908941D01*
X202227Y908947D01*
X202111Y908956D01*
X201996Y908969D01*
X201881Y908986D01*
X201766Y909007D01*
X201653Y909032D01*
X201540Y909060D01*
X201428Y909092D01*
X201317Y909128D01*
X201207Y909167D01*
X201099Y909210D01*
X200992Y909256D01*
X200887Y909306D01*
X200784Y909359D01*
X200682Y909415D01*
X200582Y909475D01*
X200484Y909538D01*
X200389Y909605D01*
X200295Y909674D01*
X200204Y909746D01*
X200115Y909821D01*
X200029Y909900D01*
X199946Y909981D01*
X199865Y910064D01*
X199786Y910150D01*
X199711Y910239D01*
X199639Y910330D01*
X199570Y910424D01*
X199503Y910519D01*
X199440Y910617D01*
X199380Y910717D01*
X199324Y910819D01*
X199271Y910922D01*
X199221Y911027D01*
X199175Y911134D01*
X199132Y911242D01*
X199093Y911352D01*
X199057Y911463D01*
X199025Y911575D01*
X198997Y911688D01*
X198972Y911801D01*
X198951Y911916D01*
X198934Y912031D01*
X198921Y912146D01*
X198912Y912262D01*
X198906Y912379D01*
X198904Y912495D01*
X198904Y921385D01*
X198906Y921501D01*
X198912Y921618D01*
X198921Y921734D01*
X198934Y921849D01*
X198951Y921964D01*
X198972Y922079D01*
X198997Y922192D01*
X199025Y922305D01*
X199057Y922417D01*
X199093Y922528D01*
X199132Y922638D01*
X199175Y922746D01*
X199221Y922853D01*
X199271Y922958D01*
X199324Y923061D01*
X199380Y923163D01*
X199440Y923263D01*
X199503Y923361D01*
X199570Y923456D01*
X199639Y923550D01*
X199711Y923641D01*
X199786Y923730D01*
X199865Y923816D01*
X199946Y923899D01*
X200029Y923980D01*
X200115Y924059D01*
X200204Y924134D01*
X200295Y924206D01*
X200389Y924275D01*
X200484Y924342D01*
X200582Y924405D01*
X200682Y924465D01*
X200784Y924521D01*
X200887Y924574D01*
X200992Y924624D01*
X201099Y924670D01*
X201207Y924713D01*
X201317Y924752D01*
X201428Y924788D01*
X201540Y924820D01*
X201653Y924848D01*
X201766Y924873D01*
X201881Y924894D01*
X201996Y924911D01*
X202111Y924924D01*
X202227Y924933D01*
X202344Y924939D01*
X202460Y924941D01*
X206016Y924941D01*
X223866Y924941D02*
X220310Y912495D01*
X229200Y912495D01*
X226533Y916051D02*
X226533Y908939D01*
X301117Y908939D02*
X301117Y924941D01*
X299339Y908939D02*
X302895Y908939D01*
X302895Y924941D02*
X299339Y924941D01*
X308350Y926719D02*
X308352Y926821D01*
X308358Y926923D01*
X308368Y927025D01*
X308381Y927126D01*
X308399Y927227D01*
X308420Y927327D01*
X308445Y927426D01*
X308474Y927524D01*
X308507Y927620D01*
X308543Y927716D01*
X308583Y927810D01*
X308627Y927902D01*
X308674Y927993D01*
X308725Y928082D01*
X308778Y928169D01*
X308836Y928253D01*
X308896Y928336D01*
X308959Y928416D01*
X309026Y928493D01*
X309095Y928568D01*
X309168Y928641D01*
X309243Y928710D01*
X309320Y928777D01*
X309400Y928840D01*
X309483Y928900D01*
X309567Y928958D01*
X309654Y929011D01*
X309743Y929062D01*
X309834Y929109D01*
X309926Y929153D01*
X310020Y929193D01*
X310116Y929229D01*
X310212Y929262D01*
X310310Y929291D01*
X310409Y929316D01*
X310509Y929337D01*
X310610Y929355D01*
X310711Y929368D01*
X310813Y929378D01*
X310915Y929384D01*
X311017Y929386D01*
X311119Y929384D01*
X311221Y929378D01*
X311323Y929368D01*
X311424Y929355D01*
X311525Y929337D01*
X311625Y929316D01*
X311724Y929291D01*
X311822Y929262D01*
X311918Y929229D01*
X312014Y929193D01*
X312108Y929153D01*
X312200Y929109D01*
X312291Y929062D01*
X312380Y929011D01*
X312467Y928958D01*
X312551Y928900D01*
X312634Y928840D01*
X312714Y928777D01*
X312791Y928710D01*
X312866Y928641D01*
X312939Y928568D01*
X313008Y928493D01*
X313075Y928416D01*
X313138Y928336D01*
X313198Y928253D01*
X313256Y928169D01*
X313309Y928082D01*
X313360Y927993D01*
X313407Y927902D01*
X313451Y927810D01*
X313491Y927716D01*
X313527Y927620D01*
X313560Y927524D01*
X313589Y927426D01*
X313614Y927327D01*
X313635Y927227D01*
X313653Y927126D01*
X313666Y927025D01*
X313676Y926923D01*
X313682Y926821D01*
X313684Y926719D01*
X313682Y926608D01*
X313676Y926496D01*
X313667Y926385D01*
X313653Y926274D01*
X313636Y926164D01*
X313615Y926055D01*
X313590Y925946D01*
X313561Y925838D01*
X313529Y925732D01*
X313493Y925626D01*
X313453Y925522D01*
X313410Y925419D01*
X313364Y925318D01*
X313313Y925218D01*
X313260Y925121D01*
X313203Y925025D01*
X313143Y924931D01*
X313079Y924839D01*
X313013Y924750D01*
X312943Y924663D01*
X312870Y924578D01*
X312795Y924496D01*
X312795Y924497D02*
X308350Y918718D01*
X313684Y918718D01*
X323110Y908939D02*
X326666Y908939D01*
X323110Y908939D02*
X322994Y908941D01*
X322877Y908947D01*
X322761Y908956D01*
X322646Y908969D01*
X322531Y908986D01*
X322416Y909007D01*
X322303Y909032D01*
X322190Y909060D01*
X322078Y909092D01*
X321967Y909128D01*
X321857Y909167D01*
X321749Y909210D01*
X321642Y909256D01*
X321537Y909306D01*
X321434Y909359D01*
X321332Y909415D01*
X321232Y909475D01*
X321134Y909538D01*
X321039Y909605D01*
X320945Y909674D01*
X320854Y909746D01*
X320765Y909821D01*
X320679Y909900D01*
X320596Y909981D01*
X320515Y910064D01*
X320436Y910150D01*
X320361Y910239D01*
X320289Y910330D01*
X320220Y910424D01*
X320153Y910519D01*
X320090Y910617D01*
X320030Y910717D01*
X319974Y910819D01*
X319921Y910922D01*
X319871Y911027D01*
X319825Y911134D01*
X319782Y911242D01*
X319743Y911352D01*
X319707Y911463D01*
X319675Y911575D01*
X319647Y911688D01*
X319622Y911801D01*
X319601Y911916D01*
X319584Y912031D01*
X319571Y912146D01*
X319562Y912262D01*
X319556Y912379D01*
X319554Y912495D01*
X319554Y921385D01*
X319556Y921501D01*
X319562Y921618D01*
X319571Y921734D01*
X319584Y921849D01*
X319601Y921964D01*
X319622Y922079D01*
X319647Y922192D01*
X319675Y922305D01*
X319707Y922417D01*
X319743Y922528D01*
X319782Y922638D01*
X319825Y922746D01*
X319871Y922853D01*
X319921Y922958D01*
X319974Y923061D01*
X320030Y923163D01*
X320090Y923263D01*
X320153Y923361D01*
X320220Y923456D01*
X320289Y923550D01*
X320361Y923641D01*
X320436Y923730D01*
X320515Y923816D01*
X320596Y923899D01*
X320679Y923980D01*
X320765Y924059D01*
X320854Y924134D01*
X320945Y924206D01*
X321039Y924275D01*
X321134Y924342D01*
X321232Y924405D01*
X321332Y924465D01*
X321434Y924521D01*
X321537Y924574D01*
X321642Y924624D01*
X321749Y924670D01*
X321857Y924713D01*
X321967Y924752D01*
X322078Y924788D01*
X322190Y924820D01*
X322303Y924848D01*
X322416Y924873D01*
X322531Y924894D01*
X322646Y924911D01*
X322761Y924924D01*
X322877Y924933D01*
X322994Y924939D01*
X323110Y924941D01*
X326666Y924941D01*
X345850Y924942D02*
X345976Y924940D01*
X346101Y924934D01*
X346227Y924924D01*
X346351Y924910D01*
X346476Y924893D01*
X346600Y924871D01*
X346723Y924846D01*
X346845Y924816D01*
X346966Y924783D01*
X347086Y924746D01*
X347205Y924705D01*
X347323Y924661D01*
X347439Y924613D01*
X347554Y924561D01*
X347666Y924506D01*
X347777Y924447D01*
X347887Y924385D01*
X347994Y924319D01*
X348099Y924250D01*
X348202Y924178D01*
X348302Y924102D01*
X348400Y924024D01*
X348496Y923942D01*
X348589Y923858D01*
X348679Y923770D01*
X348767Y923680D01*
X348851Y923587D01*
X348933Y923491D01*
X349011Y923393D01*
X349087Y923293D01*
X349159Y923190D01*
X349228Y923085D01*
X349294Y922978D01*
X349356Y922868D01*
X349415Y922757D01*
X349470Y922645D01*
X349522Y922530D01*
X349570Y922414D01*
X349614Y922296D01*
X349655Y922177D01*
X349692Y922057D01*
X349725Y921936D01*
X349755Y921814D01*
X349780Y921691D01*
X349802Y921567D01*
X349819Y921442D01*
X349833Y921318D01*
X349843Y921192D01*
X349849Y921067D01*
X349851Y920941D01*
X345850Y924941D02*
X345709Y924939D01*
X345569Y924933D01*
X345429Y924924D01*
X345289Y924910D01*
X345150Y924893D01*
X345011Y924872D01*
X344872Y924847D01*
X344735Y924819D01*
X344598Y924786D01*
X344462Y924750D01*
X344327Y924710D01*
X344194Y924667D01*
X344061Y924620D01*
X343930Y924569D01*
X343801Y924515D01*
X343673Y924457D01*
X343546Y924396D01*
X343421Y924331D01*
X343299Y924263D01*
X343178Y924192D01*
X343058Y924117D01*
X342942Y924039D01*
X342827Y923958D01*
X342714Y923874D01*
X342604Y923786D01*
X342496Y923696D01*
X342391Y923603D01*
X342289Y923507D01*
X342189Y923408D01*
X342091Y923307D01*
X341997Y923203D01*
X341905Y923096D01*
X341817Y922987D01*
X341731Y922876D01*
X341649Y922762D01*
X341569Y922646D01*
X341493Y922528D01*
X341420Y922408D01*
X341351Y922286D01*
X341284Y922162D01*
X341221Y922036D01*
X341162Y921909D01*
X341106Y921780D01*
X341054Y921650D01*
X341005Y921518D01*
X340960Y921385D01*
X348517Y917829D02*
X348609Y917920D01*
X348699Y918013D01*
X348785Y918108D01*
X348869Y918206D01*
X348949Y918307D01*
X349027Y918410D01*
X349101Y918515D01*
X349172Y918623D01*
X349240Y918732D01*
X349304Y918844D01*
X349366Y918957D01*
X349423Y919072D01*
X349478Y919189D01*
X349529Y919308D01*
X349576Y919428D01*
X349619Y919549D01*
X349659Y919671D01*
X349695Y919795D01*
X349728Y919920D01*
X349757Y920045D01*
X349782Y920172D01*
X349803Y920299D01*
X349820Y920427D01*
X349834Y920555D01*
X349843Y920683D01*
X349849Y920812D01*
X349851Y920941D01*
X348517Y917829D02*
X340960Y908939D01*
X349850Y908939D01*
X395859Y910717D02*
X411861Y910717D01*
X411861Y908939D02*
X411861Y912495D01*
X395859Y912495D02*
X395859Y908939D01*
X394081Y917950D02*
X393979Y917952D01*
X393877Y917958D01*
X393775Y917968D01*
X393674Y917981D01*
X393573Y917999D01*
X393473Y918020D01*
X393374Y918045D01*
X393276Y918074D01*
X393180Y918107D01*
X393084Y918143D01*
X392990Y918183D01*
X392898Y918227D01*
X392807Y918274D01*
X392718Y918325D01*
X392631Y918378D01*
X392547Y918436D01*
X392464Y918496D01*
X392384Y918559D01*
X392307Y918626D01*
X392232Y918695D01*
X392159Y918768D01*
X392090Y918843D01*
X392023Y918920D01*
X391960Y919000D01*
X391900Y919083D01*
X391842Y919167D01*
X391789Y919254D01*
X391738Y919343D01*
X391691Y919434D01*
X391647Y919526D01*
X391607Y919620D01*
X391571Y919716D01*
X391538Y919812D01*
X391509Y919910D01*
X391484Y920009D01*
X391463Y920109D01*
X391445Y920210D01*
X391432Y920311D01*
X391422Y920413D01*
X391416Y920515D01*
X391414Y920617D01*
X391416Y920719D01*
X391422Y920821D01*
X391432Y920923D01*
X391445Y921024D01*
X391463Y921125D01*
X391484Y921225D01*
X391509Y921324D01*
X391538Y921422D01*
X391571Y921518D01*
X391607Y921614D01*
X391647Y921708D01*
X391691Y921800D01*
X391738Y921891D01*
X391789Y921980D01*
X391842Y922067D01*
X391900Y922151D01*
X391960Y922234D01*
X392023Y922314D01*
X392090Y922391D01*
X392159Y922466D01*
X392232Y922539D01*
X392307Y922608D01*
X392384Y922675D01*
X392464Y922738D01*
X392547Y922798D01*
X392631Y922856D01*
X392718Y922909D01*
X392807Y922960D01*
X392898Y923007D01*
X392990Y923051D01*
X393084Y923091D01*
X393180Y923127D01*
X393276Y923160D01*
X393374Y923189D01*
X393473Y923214D01*
X393573Y923235D01*
X393674Y923253D01*
X393775Y923266D01*
X393877Y923276D01*
X393979Y923282D01*
X394081Y923284D01*
X394192Y923282D01*
X394304Y923276D01*
X394415Y923267D01*
X394526Y923253D01*
X394636Y923236D01*
X394745Y923215D01*
X394854Y923190D01*
X394962Y923161D01*
X395068Y923129D01*
X395174Y923093D01*
X395278Y923053D01*
X395381Y923010D01*
X395482Y922964D01*
X395582Y922913D01*
X395679Y922860D01*
X395775Y922803D01*
X395869Y922743D01*
X395961Y922679D01*
X396050Y922613D01*
X396137Y922543D01*
X396222Y922470D01*
X396304Y922395D01*
X402082Y917950D01*
X402082Y923284D01*
X411861Y932710D02*
X411861Y936266D01*
X411861Y932710D02*
X411859Y932594D01*
X411853Y932477D01*
X411844Y932361D01*
X411831Y932246D01*
X411814Y932131D01*
X411793Y932016D01*
X411768Y931903D01*
X411740Y931790D01*
X411708Y931678D01*
X411672Y931567D01*
X411633Y931457D01*
X411590Y931349D01*
X411544Y931242D01*
X411494Y931137D01*
X411441Y931034D01*
X411385Y930932D01*
X411325Y930832D01*
X411262Y930734D01*
X411195Y930639D01*
X411126Y930545D01*
X411054Y930454D01*
X410979Y930365D01*
X410900Y930279D01*
X410819Y930196D01*
X410736Y930115D01*
X410650Y930036D01*
X410561Y929961D01*
X410470Y929889D01*
X410376Y929820D01*
X410281Y929753D01*
X410183Y929690D01*
X410083Y929630D01*
X409981Y929574D01*
X409878Y929521D01*
X409773Y929471D01*
X409666Y929425D01*
X409558Y929382D01*
X409448Y929343D01*
X409337Y929307D01*
X409225Y929275D01*
X409112Y929247D01*
X408999Y929222D01*
X408884Y929201D01*
X408769Y929184D01*
X408654Y929171D01*
X408538Y929162D01*
X408421Y929156D01*
X408305Y929154D01*
X399415Y929154D01*
X399299Y929156D01*
X399182Y929162D01*
X399066Y929171D01*
X398951Y929184D01*
X398836Y929201D01*
X398721Y929222D01*
X398608Y929247D01*
X398495Y929275D01*
X398383Y929307D01*
X398272Y929343D01*
X398162Y929382D01*
X398054Y929425D01*
X397947Y929471D01*
X397842Y929521D01*
X397739Y929574D01*
X397637Y929630D01*
X397537Y929690D01*
X397439Y929753D01*
X397344Y929820D01*
X397250Y929889D01*
X397159Y929961D01*
X397070Y930036D01*
X396984Y930115D01*
X396901Y930196D01*
X396820Y930279D01*
X396741Y930365D01*
X396666Y930454D01*
X396594Y930545D01*
X396525Y930639D01*
X396458Y930734D01*
X396395Y930832D01*
X396335Y930932D01*
X396279Y931034D01*
X396226Y931137D01*
X396176Y931242D01*
X396130Y931349D01*
X396087Y931457D01*
X396048Y931567D01*
X396012Y931678D01*
X395980Y931790D01*
X395952Y931903D01*
X395927Y932016D01*
X395906Y932131D01*
X395889Y932246D01*
X395876Y932361D01*
X395867Y932477D01*
X395861Y932594D01*
X395859Y932710D01*
X395859Y936266D01*
X398081Y951894D02*
X398366Y951759D01*
X398654Y951631D01*
X398944Y951510D01*
X399238Y951397D01*
X399534Y951290D01*
X399833Y951190D01*
X400134Y951097D01*
X400437Y951012D01*
X400742Y950934D01*
X401048Y950863D01*
X401357Y950800D01*
X401667Y950744D01*
X401978Y950695D01*
X402290Y950654D01*
X402603Y950620D01*
X402916Y950594D01*
X403231Y950575D01*
X403545Y950564D01*
X403860Y950560D01*
X398081Y951894D02*
X397975Y951932D01*
X397870Y951975D01*
X397766Y952020D01*
X397664Y952070D01*
X397564Y952123D01*
X397465Y952179D01*
X397369Y952239D01*
X397275Y952302D01*
X397183Y952368D01*
X397093Y952437D01*
X397006Y952509D01*
X396921Y952585D01*
X396839Y952663D01*
X396760Y952744D01*
X396683Y952827D01*
X396610Y952914D01*
X396539Y953002D01*
X396472Y953093D01*
X396407Y953187D01*
X396346Y953282D01*
X396289Y953380D01*
X396234Y953479D01*
X396184Y953580D01*
X396136Y953683D01*
X396092Y953788D01*
X396052Y953894D01*
X396016Y954001D01*
X395983Y954110D01*
X395954Y954219D01*
X395929Y954330D01*
X395908Y954441D01*
X395890Y954553D01*
X395877Y954666D01*
X395867Y954779D01*
X395861Y954892D01*
X395859Y955005D01*
X395861Y955118D01*
X395867Y955231D01*
X395877Y955344D01*
X395890Y955457D01*
X395908Y955569D01*
X395929Y955680D01*
X395954Y955791D01*
X395983Y955900D01*
X396016Y956009D01*
X396052Y956116D01*
X396092Y956222D01*
X396136Y956327D01*
X396184Y956430D01*
X396234Y956531D01*
X396289Y956630D01*
X396346Y956728D01*
X396407Y956823D01*
X396472Y956917D01*
X396539Y957008D01*
X396610Y957096D01*
X396683Y957183D01*
X396760Y957266D01*
X396839Y957347D01*
X396921Y957425D01*
X397006Y957501D01*
X397093Y957573D01*
X397183Y957642D01*
X397275Y957708D01*
X397369Y957771D01*
X397465Y957831D01*
X397564Y957887D01*
X397664Y957940D01*
X397766Y957990D01*
X397870Y958035D01*
X397975Y958078D01*
X398081Y958116D01*
X398081Y958117D02*
X398366Y958252D01*
X398654Y958380D01*
X398944Y958501D01*
X399238Y958614D01*
X399534Y958721D01*
X399833Y958821D01*
X400134Y958914D01*
X400437Y958999D01*
X400742Y959077D01*
X401048Y959148D01*
X401357Y959211D01*
X401667Y959267D01*
X401978Y959316D01*
X402290Y959357D01*
X402603Y959391D01*
X402916Y959417D01*
X403231Y959436D01*
X403545Y959447D01*
X403860Y959451D01*
X403860Y950560D02*
X404175Y950564D01*
X404489Y950575D01*
X404804Y950594D01*
X405117Y950620D01*
X405430Y950654D01*
X405742Y950695D01*
X406053Y950744D01*
X406363Y950800D01*
X406672Y950863D01*
X406978Y950934D01*
X407283Y951012D01*
X407586Y951097D01*
X407887Y951190D01*
X408186Y951290D01*
X408482Y951397D01*
X408776Y951510D01*
X409066Y951631D01*
X409354Y951759D01*
X409639Y951894D01*
X409745Y951932D01*
X409850Y951975D01*
X409954Y952020D01*
X410056Y952070D01*
X410156Y952123D01*
X410255Y952179D01*
X410351Y952239D01*
X410445Y952302D01*
X410537Y952368D01*
X410627Y952437D01*
X410714Y952509D01*
X410799Y952585D01*
X410881Y952663D01*
X410960Y952744D01*
X411037Y952827D01*
X411110Y952914D01*
X411181Y953002D01*
X411248Y953093D01*
X411313Y953187D01*
X411374Y953282D01*
X411431Y953380D01*
X411486Y953479D01*
X411536Y953580D01*
X411584Y953683D01*
X411628Y953788D01*
X411668Y953894D01*
X411704Y954001D01*
X411737Y954110D01*
X411766Y954219D01*
X411791Y954330D01*
X411812Y954441D01*
X411830Y954553D01*
X411843Y954666D01*
X411853Y954779D01*
X411859Y954892D01*
X411861Y955005D01*
X409639Y958117D02*
X409354Y958252D01*
X409066Y958380D01*
X408776Y958501D01*
X408482Y958614D01*
X408186Y958721D01*
X407887Y958821D01*
X407586Y958914D01*
X407283Y958999D01*
X406978Y959077D01*
X406672Y959148D01*
X406363Y959211D01*
X406053Y959267D01*
X405742Y959316D01*
X405430Y959357D01*
X405117Y959391D01*
X404804Y959417D01*
X404489Y959436D01*
X404175Y959447D01*
X403860Y959451D01*
X409639Y958116D02*
X409745Y958078D01*
X409850Y958035D01*
X409954Y957990D01*
X410056Y957940D01*
X410156Y957887D01*
X410255Y957831D01*
X410351Y957771D01*
X410445Y957708D01*
X410537Y957642D01*
X410627Y957573D01*
X410714Y957501D01*
X410799Y957425D01*
X410881Y957347D01*
X410960Y957266D01*
X411037Y957183D01*
X411110Y957096D01*
X411181Y957008D01*
X411248Y956917D01*
X411313Y956823D01*
X411374Y956728D01*
X411431Y956630D01*
X411486Y956531D01*
X411536Y956430D01*
X411584Y956327D01*
X411628Y956222D01*
X411668Y956116D01*
X411704Y956009D01*
X411737Y955900D01*
X411766Y955791D01*
X411791Y955680D01*
X411812Y955569D01*
X411830Y955457D01*
X411843Y955344D01*
X411853Y955231D01*
X411859Y955118D01*
X411861Y955005D01*
X408305Y951449D02*
X399415Y958561D01*
X142367Y67691D02*
X142367Y51689D01*
X140589Y51689D02*
X144145Y51689D01*
X144145Y67691D02*
X140589Y67691D01*
X149600Y69469D02*
X149602Y69571D01*
X149608Y69673D01*
X149618Y69775D01*
X149631Y69876D01*
X149649Y69977D01*
X149670Y70077D01*
X149695Y70176D01*
X149724Y70274D01*
X149757Y70370D01*
X149793Y70466D01*
X149833Y70560D01*
X149877Y70652D01*
X149924Y70743D01*
X149975Y70832D01*
X150028Y70919D01*
X150086Y71003D01*
X150146Y71086D01*
X150209Y71166D01*
X150276Y71243D01*
X150345Y71318D01*
X150418Y71391D01*
X150493Y71460D01*
X150570Y71527D01*
X150650Y71590D01*
X150733Y71650D01*
X150817Y71708D01*
X150904Y71761D01*
X150993Y71812D01*
X151084Y71859D01*
X151176Y71903D01*
X151270Y71943D01*
X151366Y71979D01*
X151462Y72012D01*
X151560Y72041D01*
X151659Y72066D01*
X151759Y72087D01*
X151860Y72105D01*
X151961Y72118D01*
X152063Y72128D01*
X152165Y72134D01*
X152267Y72136D01*
X152369Y72134D01*
X152471Y72128D01*
X152573Y72118D01*
X152674Y72105D01*
X152775Y72087D01*
X152875Y72066D01*
X152974Y72041D01*
X153072Y72012D01*
X153168Y71979D01*
X153264Y71943D01*
X153358Y71903D01*
X153450Y71859D01*
X153541Y71812D01*
X153630Y71761D01*
X153717Y71708D01*
X153801Y71650D01*
X153884Y71590D01*
X153964Y71527D01*
X154041Y71460D01*
X154116Y71391D01*
X154189Y71318D01*
X154258Y71243D01*
X154325Y71166D01*
X154388Y71086D01*
X154448Y71003D01*
X154506Y70919D01*
X154559Y70832D01*
X154610Y70743D01*
X154657Y70652D01*
X154701Y70560D01*
X154741Y70466D01*
X154777Y70370D01*
X154810Y70274D01*
X154839Y70176D01*
X154864Y70077D01*
X154885Y69977D01*
X154903Y69876D01*
X154916Y69775D01*
X154926Y69673D01*
X154932Y69571D01*
X154934Y69469D01*
X154932Y69358D01*
X154926Y69246D01*
X154917Y69135D01*
X154903Y69024D01*
X154886Y68914D01*
X154865Y68805D01*
X154840Y68696D01*
X154811Y68588D01*
X154779Y68482D01*
X154743Y68376D01*
X154703Y68272D01*
X154660Y68169D01*
X154614Y68068D01*
X154563Y67968D01*
X154510Y67871D01*
X154453Y67775D01*
X154393Y67681D01*
X154329Y67589D01*
X154263Y67500D01*
X154193Y67413D01*
X154120Y67328D01*
X154045Y67246D01*
X154045Y67247D02*
X149600Y61468D01*
X154934Y61468D01*
X164360Y51689D02*
X167916Y51689D01*
X164360Y51689D02*
X164244Y51691D01*
X164127Y51697D01*
X164011Y51706D01*
X163896Y51719D01*
X163781Y51736D01*
X163666Y51757D01*
X163553Y51782D01*
X163440Y51810D01*
X163328Y51842D01*
X163217Y51878D01*
X163107Y51917D01*
X162999Y51960D01*
X162892Y52006D01*
X162787Y52056D01*
X162684Y52109D01*
X162582Y52165D01*
X162482Y52225D01*
X162384Y52288D01*
X162289Y52355D01*
X162195Y52424D01*
X162104Y52496D01*
X162015Y52571D01*
X161929Y52650D01*
X161846Y52731D01*
X161765Y52814D01*
X161686Y52900D01*
X161611Y52989D01*
X161539Y53080D01*
X161470Y53174D01*
X161403Y53269D01*
X161340Y53367D01*
X161280Y53467D01*
X161224Y53569D01*
X161171Y53672D01*
X161121Y53777D01*
X161075Y53884D01*
X161032Y53992D01*
X160993Y54102D01*
X160957Y54213D01*
X160925Y54325D01*
X160897Y54438D01*
X160872Y54551D01*
X160851Y54666D01*
X160834Y54781D01*
X160821Y54896D01*
X160812Y55012D01*
X160806Y55129D01*
X160804Y55245D01*
X160804Y64135D01*
X160806Y64251D01*
X160812Y64368D01*
X160821Y64484D01*
X160834Y64599D01*
X160851Y64714D01*
X160872Y64829D01*
X160897Y64942D01*
X160925Y65055D01*
X160957Y65167D01*
X160993Y65278D01*
X161032Y65388D01*
X161075Y65496D01*
X161121Y65603D01*
X161171Y65708D01*
X161224Y65811D01*
X161280Y65913D01*
X161340Y66013D01*
X161403Y66111D01*
X161470Y66206D01*
X161539Y66300D01*
X161611Y66391D01*
X161686Y66480D01*
X161765Y66566D01*
X161846Y66649D01*
X161929Y66730D01*
X162015Y66809D01*
X162104Y66884D01*
X162195Y66956D01*
X162289Y67025D01*
X162384Y67092D01*
X162482Y67155D01*
X162582Y67215D01*
X162684Y67271D01*
X162787Y67324D01*
X162892Y67374D01*
X162999Y67420D01*
X163107Y67463D01*
X163217Y67502D01*
X163328Y67538D01*
X163440Y67570D01*
X163553Y67598D01*
X163666Y67623D01*
X163781Y67644D01*
X163896Y67661D01*
X164011Y67674D01*
X164127Y67683D01*
X164244Y67689D01*
X164360Y67691D01*
X167916Y67691D01*
X183529Y67691D02*
X183529Y51689D01*
X181751Y51689D02*
X185307Y51689D01*
X185307Y67691D02*
X181751Y67691D01*
X191957Y62357D02*
X191957Y51689D01*
X191957Y62357D02*
X196402Y62357D01*
X196504Y62355D01*
X196606Y62349D01*
X196708Y62339D01*
X196809Y62326D01*
X196910Y62308D01*
X197010Y62287D01*
X197109Y62262D01*
X197207Y62233D01*
X197303Y62200D01*
X197399Y62164D01*
X197493Y62124D01*
X197585Y62080D01*
X197676Y62033D01*
X197765Y61982D01*
X197852Y61929D01*
X197936Y61871D01*
X198019Y61811D01*
X198099Y61748D01*
X198176Y61681D01*
X198251Y61612D01*
X198324Y61539D01*
X198393Y61464D01*
X198460Y61387D01*
X198523Y61307D01*
X198583Y61224D01*
X198641Y61140D01*
X198694Y61053D01*
X198745Y60964D01*
X198792Y60873D01*
X198836Y60781D01*
X198876Y60687D01*
X198912Y60591D01*
X198945Y60495D01*
X198974Y60397D01*
X198999Y60298D01*
X199020Y60198D01*
X199038Y60097D01*
X199051Y59996D01*
X199061Y59894D01*
X199067Y59792D01*
X199069Y59690D01*
X199069Y51689D01*
X206627Y46355D02*
X206627Y62357D01*
X211072Y62357D01*
X211174Y62355D01*
X211276Y62349D01*
X211378Y62339D01*
X211479Y62326D01*
X211580Y62308D01*
X211680Y62287D01*
X211779Y62262D01*
X211877Y62233D01*
X211973Y62200D01*
X212069Y62164D01*
X212163Y62124D01*
X212255Y62080D01*
X212346Y62033D01*
X212435Y61982D01*
X212522Y61929D01*
X212606Y61871D01*
X212689Y61811D01*
X212769Y61748D01*
X212846Y61681D01*
X212921Y61612D01*
X212994Y61539D01*
X213063Y61464D01*
X213130Y61387D01*
X213193Y61307D01*
X213253Y61224D01*
X213311Y61140D01*
X213364Y61053D01*
X213415Y60964D01*
X213462Y60873D01*
X213506Y60781D01*
X213546Y60687D01*
X213582Y60591D01*
X213615Y60495D01*
X213644Y60397D01*
X213669Y60298D01*
X213690Y60198D01*
X213708Y60097D01*
X213721Y59996D01*
X213731Y59894D01*
X213737Y59792D01*
X213739Y59690D01*
X213739Y54356D01*
X213737Y54254D01*
X213731Y54152D01*
X213721Y54050D01*
X213708Y53949D01*
X213690Y53848D01*
X213669Y53748D01*
X213644Y53649D01*
X213615Y53551D01*
X213582Y53455D01*
X213546Y53359D01*
X213506Y53265D01*
X213462Y53173D01*
X213415Y53082D01*
X213364Y52993D01*
X213311Y52906D01*
X213253Y52822D01*
X213193Y52739D01*
X213130Y52659D01*
X213063Y52582D01*
X212994Y52507D01*
X212921Y52434D01*
X212846Y52365D01*
X212769Y52298D01*
X212689Y52235D01*
X212606Y52175D01*
X212522Y52117D01*
X212435Y52064D01*
X212346Y52013D01*
X212255Y51966D01*
X212163Y51922D01*
X212069Y51882D01*
X211973Y51846D01*
X211877Y51813D01*
X211779Y51784D01*
X211680Y51759D01*
X211580Y51738D01*
X211479Y51720D01*
X211378Y51707D01*
X211276Y51697D01*
X211174Y51691D01*
X211072Y51689D01*
X206627Y51689D01*
X220614Y54356D02*
X220614Y62357D01*
X220614Y54356D02*
X220616Y54254D01*
X220622Y54152D01*
X220632Y54050D01*
X220645Y53949D01*
X220663Y53848D01*
X220684Y53748D01*
X220709Y53649D01*
X220738Y53551D01*
X220771Y53455D01*
X220807Y53359D01*
X220847Y53265D01*
X220891Y53173D01*
X220938Y53082D01*
X220989Y52993D01*
X221042Y52906D01*
X221100Y52822D01*
X221160Y52739D01*
X221223Y52659D01*
X221290Y52582D01*
X221359Y52507D01*
X221432Y52434D01*
X221507Y52365D01*
X221584Y52298D01*
X221664Y52235D01*
X221747Y52175D01*
X221831Y52117D01*
X221918Y52064D01*
X222007Y52013D01*
X222098Y51966D01*
X222190Y51922D01*
X222284Y51882D01*
X222380Y51846D01*
X222476Y51813D01*
X222574Y51784D01*
X222673Y51759D01*
X222773Y51738D01*
X222874Y51720D01*
X222975Y51707D01*
X223077Y51697D01*
X223179Y51691D01*
X223281Y51689D01*
X227726Y51689D01*
X227726Y62357D01*
X233359Y62357D02*
X238693Y62357D01*
X235137Y67691D02*
X235137Y54356D01*
X235139Y54254D01*
X235145Y54152D01*
X235155Y54050D01*
X235168Y53949D01*
X235186Y53848D01*
X235207Y53748D01*
X235232Y53649D01*
X235261Y53551D01*
X235294Y53455D01*
X235330Y53359D01*
X235370Y53265D01*
X235414Y53173D01*
X235461Y53082D01*
X235512Y52993D01*
X235565Y52906D01*
X235623Y52822D01*
X235683Y52739D01*
X235746Y52659D01*
X235813Y52582D01*
X235882Y52507D01*
X235955Y52434D01*
X236030Y52365D01*
X236107Y52298D01*
X236187Y52235D01*
X236270Y52175D01*
X236354Y52117D01*
X236441Y52064D01*
X236530Y52013D01*
X236621Y51966D01*
X236713Y51922D01*
X236807Y51882D01*
X236903Y51846D01*
X236999Y51813D01*
X237097Y51784D01*
X237196Y51759D01*
X237296Y51738D01*
X237397Y51720D01*
X237498Y51707D01*
X237600Y51697D01*
X237702Y51691D01*
X237804Y51689D01*
X238693Y51689D01*
X253791Y51689D02*
X253791Y65024D01*
X253793Y65126D01*
X253799Y65228D01*
X253809Y65330D01*
X253822Y65431D01*
X253840Y65532D01*
X253861Y65632D01*
X253886Y65731D01*
X253915Y65829D01*
X253948Y65925D01*
X253984Y66021D01*
X254024Y66115D01*
X254068Y66207D01*
X254115Y66298D01*
X254166Y66387D01*
X254219Y66474D01*
X254277Y66558D01*
X254337Y66641D01*
X254400Y66721D01*
X254467Y66798D01*
X254536Y66873D01*
X254609Y66946D01*
X254684Y67015D01*
X254761Y67082D01*
X254841Y67145D01*
X254924Y67205D01*
X255008Y67263D01*
X255095Y67316D01*
X255184Y67367D01*
X255275Y67414D01*
X255367Y67458D01*
X255461Y67498D01*
X255557Y67534D01*
X255653Y67567D01*
X255751Y67596D01*
X255850Y67621D01*
X255950Y67642D01*
X256051Y67660D01*
X256152Y67673D01*
X256254Y67683D01*
X256356Y67689D01*
X256458Y67691D01*
X257347Y67691D01*
X257347Y62357D02*
X252013Y62357D01*
X262391Y62357D02*
X262391Y51689D01*
X262391Y62357D02*
X267725Y62357D01*
X267725Y60579D01*
X272718Y58801D02*
X272718Y55245D01*
X272718Y58801D02*
X272720Y58919D01*
X272726Y59036D01*
X272735Y59153D01*
X272749Y59270D01*
X272766Y59386D01*
X272788Y59502D01*
X272813Y59617D01*
X272842Y59731D01*
X272874Y59844D01*
X272911Y59956D01*
X272951Y60066D01*
X272994Y60175D01*
X273042Y60283D01*
X273092Y60389D01*
X273147Y60493D01*
X273204Y60596D01*
X273265Y60696D01*
X273330Y60795D01*
X273397Y60891D01*
X273468Y60985D01*
X273542Y61077D01*
X273618Y61166D01*
X273698Y61252D01*
X273780Y61336D01*
X273866Y61417D01*
X273953Y61495D01*
X274044Y61571D01*
X274137Y61643D01*
X274232Y61712D01*
X274329Y61778D01*
X274429Y61841D01*
X274530Y61900D01*
X274633Y61956D01*
X274739Y62008D01*
X274846Y62057D01*
X274954Y62103D01*
X275064Y62145D01*
X275175Y62183D01*
X275288Y62217D01*
X275401Y62248D01*
X275516Y62275D01*
X275631Y62298D01*
X275747Y62318D01*
X275863Y62333D01*
X275980Y62345D01*
X276098Y62353D01*
X276215Y62357D01*
X276333Y62357D01*
X276450Y62353D01*
X276568Y62345D01*
X276685Y62333D01*
X276801Y62318D01*
X276917Y62298D01*
X277032Y62275D01*
X277147Y62248D01*
X277260Y62217D01*
X277373Y62183D01*
X277484Y62145D01*
X277594Y62103D01*
X277702Y62057D01*
X277809Y62008D01*
X277915Y61956D01*
X278018Y61900D01*
X278119Y61841D01*
X278219Y61778D01*
X278316Y61712D01*
X278411Y61643D01*
X278504Y61571D01*
X278595Y61495D01*
X278682Y61417D01*
X278768Y61336D01*
X278850Y61252D01*
X278930Y61166D01*
X279006Y61077D01*
X279080Y60985D01*
X279151Y60891D01*
X279218Y60795D01*
X279283Y60696D01*
X279344Y60596D01*
X279401Y60493D01*
X279456Y60389D01*
X279506Y60283D01*
X279554Y60175D01*
X279597Y60066D01*
X279637Y59956D01*
X279674Y59844D01*
X279706Y59731D01*
X279735Y59617D01*
X279760Y59502D01*
X279782Y59386D01*
X279799Y59270D01*
X279813Y59153D01*
X279822Y59036D01*
X279828Y58919D01*
X279830Y58801D01*
X279830Y55245D01*
X279828Y55127D01*
X279822Y55010D01*
X279813Y54893D01*
X279799Y54776D01*
X279782Y54660D01*
X279760Y54544D01*
X279735Y54429D01*
X279706Y54315D01*
X279674Y54202D01*
X279637Y54090D01*
X279597Y53980D01*
X279554Y53871D01*
X279506Y53763D01*
X279456Y53657D01*
X279401Y53553D01*
X279344Y53450D01*
X279283Y53350D01*
X279218Y53251D01*
X279151Y53155D01*
X279080Y53061D01*
X279006Y52969D01*
X278930Y52880D01*
X278850Y52794D01*
X278768Y52710D01*
X278682Y52629D01*
X278595Y52551D01*
X278504Y52475D01*
X278411Y52403D01*
X278316Y52334D01*
X278219Y52268D01*
X278119Y52205D01*
X278018Y52146D01*
X277915Y52090D01*
X277809Y52038D01*
X277702Y51989D01*
X277594Y51943D01*
X277484Y51901D01*
X277373Y51863D01*
X277260Y51829D01*
X277147Y51798D01*
X277032Y51771D01*
X276917Y51748D01*
X276801Y51728D01*
X276685Y51713D01*
X276568Y51701D01*
X276450Y51693D01*
X276333Y51689D01*
X276215Y51689D01*
X276098Y51693D01*
X275980Y51701D01*
X275863Y51713D01*
X275747Y51728D01*
X275631Y51748D01*
X275516Y51771D01*
X275401Y51798D01*
X275288Y51829D01*
X275175Y51863D01*
X275064Y51901D01*
X274954Y51943D01*
X274846Y51989D01*
X274739Y52038D01*
X274633Y52090D01*
X274530Y52146D01*
X274429Y52205D01*
X274329Y52268D01*
X274232Y52334D01*
X274137Y52403D01*
X274044Y52475D01*
X273953Y52551D01*
X273866Y52629D01*
X273780Y52710D01*
X273698Y52794D01*
X273618Y52880D01*
X273542Y52969D01*
X273468Y53061D01*
X273397Y53155D01*
X273330Y53251D01*
X273265Y53350D01*
X273204Y53450D01*
X273147Y53553D01*
X273092Y53657D01*
X273042Y53763D01*
X272994Y53871D01*
X272951Y53980D01*
X272911Y54090D01*
X272874Y54202D01*
X272842Y54315D01*
X272813Y54429D01*
X272788Y54544D01*
X272766Y54660D01*
X272749Y54776D01*
X272735Y54893D01*
X272726Y55010D01*
X272720Y55127D01*
X272718Y55245D01*
X287093Y51689D02*
X287093Y62357D01*
X295094Y62357D01*
X295196Y62355D01*
X295298Y62349D01*
X295400Y62339D01*
X295501Y62326D01*
X295602Y62308D01*
X295702Y62287D01*
X295801Y62262D01*
X295899Y62233D01*
X295995Y62200D01*
X296091Y62164D01*
X296185Y62124D01*
X296277Y62080D01*
X296368Y62033D01*
X296457Y61982D01*
X296544Y61929D01*
X296628Y61871D01*
X296711Y61811D01*
X296791Y61748D01*
X296868Y61681D01*
X296943Y61612D01*
X297016Y61539D01*
X297085Y61464D01*
X297152Y61387D01*
X297215Y61307D01*
X297275Y61224D01*
X297333Y61140D01*
X297386Y61053D01*
X297437Y60964D01*
X297484Y60873D01*
X297528Y60781D01*
X297568Y60687D01*
X297604Y60591D01*
X297637Y60495D01*
X297666Y60397D01*
X297691Y60298D01*
X297712Y60198D01*
X297730Y60097D01*
X297743Y59996D01*
X297753Y59894D01*
X297759Y59792D01*
X297761Y59690D01*
X297761Y51689D01*
X292427Y51689D02*
X292427Y62357D01*
X314187Y67691D02*
X314187Y51689D01*
X319521Y58801D02*
X314187Y67691D01*
X319521Y58801D02*
X324855Y67691D01*
X324855Y51689D01*
X335148Y57912D02*
X339148Y57912D01*
X335148Y57913D02*
X335037Y57911D01*
X334926Y57905D01*
X334815Y57895D01*
X334705Y57881D01*
X334595Y57864D01*
X334486Y57842D01*
X334378Y57816D01*
X334271Y57787D01*
X334165Y57754D01*
X334060Y57717D01*
X333957Y57676D01*
X333855Y57632D01*
X333755Y57584D01*
X333657Y57532D01*
X333560Y57477D01*
X333466Y57419D01*
X333373Y57357D01*
X333283Y57292D01*
X333195Y57224D01*
X333110Y57153D01*
X333027Y57079D01*
X332947Y57002D01*
X332870Y56922D01*
X332796Y56839D01*
X332725Y56754D01*
X332657Y56666D01*
X332592Y56576D01*
X332530Y56483D01*
X332472Y56389D01*
X332417Y56292D01*
X332365Y56194D01*
X332317Y56094D01*
X332273Y55992D01*
X332232Y55889D01*
X332195Y55784D01*
X332162Y55678D01*
X332133Y55571D01*
X332107Y55463D01*
X332085Y55354D01*
X332068Y55244D01*
X332054Y55134D01*
X332044Y55023D01*
X332038Y54912D01*
X332036Y54801D01*
X332038Y54690D01*
X332044Y54579D01*
X332054Y54468D01*
X332068Y54358D01*
X332085Y54248D01*
X332107Y54139D01*
X332133Y54031D01*
X332162Y53924D01*
X332195Y53818D01*
X332232Y53713D01*
X332273Y53610D01*
X332317Y53508D01*
X332365Y53408D01*
X332417Y53310D01*
X332472Y53213D01*
X332530Y53119D01*
X332592Y53026D01*
X332657Y52936D01*
X332725Y52848D01*
X332796Y52763D01*
X332870Y52680D01*
X332947Y52600D01*
X333027Y52523D01*
X333110Y52449D01*
X333195Y52378D01*
X333283Y52310D01*
X333373Y52245D01*
X333466Y52183D01*
X333560Y52125D01*
X333657Y52070D01*
X333755Y52018D01*
X333855Y51970D01*
X333957Y51926D01*
X334060Y51885D01*
X334165Y51848D01*
X334271Y51815D01*
X334378Y51786D01*
X334486Y51760D01*
X334595Y51738D01*
X334705Y51721D01*
X334815Y51707D01*
X334926Y51697D01*
X335037Y51691D01*
X335148Y51689D01*
X339148Y51689D01*
X339148Y59690D01*
X339146Y59792D01*
X339140Y59894D01*
X339130Y59996D01*
X339117Y60097D01*
X339099Y60198D01*
X339078Y60298D01*
X339053Y60397D01*
X339024Y60495D01*
X338991Y60591D01*
X338955Y60687D01*
X338915Y60781D01*
X338871Y60873D01*
X338824Y60964D01*
X338773Y61053D01*
X338720Y61140D01*
X338662Y61224D01*
X338602Y61307D01*
X338539Y61387D01*
X338472Y61464D01*
X338403Y61539D01*
X338330Y61612D01*
X338255Y61681D01*
X338178Y61748D01*
X338098Y61811D01*
X338015Y61871D01*
X337931Y61929D01*
X337844Y61982D01*
X337755Y62033D01*
X337664Y62080D01*
X337572Y62124D01*
X337478Y62164D01*
X337382Y62200D01*
X337286Y62233D01*
X337188Y62262D01*
X337089Y62287D01*
X336989Y62308D01*
X336888Y62326D01*
X336787Y62339D01*
X336685Y62349D01*
X336583Y62355D01*
X336481Y62357D01*
X332925Y62357D01*
X347519Y57912D02*
X351964Y56134D01*
X347519Y57912D02*
X347431Y57949D01*
X347345Y57990D01*
X347260Y58034D01*
X347178Y58082D01*
X347097Y58134D01*
X347019Y58188D01*
X346943Y58246D01*
X346869Y58307D01*
X346798Y58371D01*
X346730Y58437D01*
X346665Y58507D01*
X346602Y58579D01*
X346543Y58654D01*
X346486Y58731D01*
X346433Y58810D01*
X346383Y58892D01*
X346337Y58975D01*
X346294Y59060D01*
X346255Y59148D01*
X346219Y59236D01*
X346187Y59326D01*
X346159Y59417D01*
X346135Y59510D01*
X346114Y59603D01*
X346098Y59697D01*
X346085Y59791D01*
X346076Y59887D01*
X346071Y59982D01*
X346070Y60077D01*
X346073Y60173D01*
X346080Y60268D01*
X346091Y60363D01*
X346106Y60457D01*
X346125Y60551D01*
X346147Y60644D01*
X346174Y60735D01*
X346204Y60826D01*
X346238Y60915D01*
X346275Y61003D01*
X346316Y61089D01*
X346361Y61173D01*
X346409Y61256D01*
X346461Y61336D01*
X346516Y61414D01*
X346574Y61490D01*
X346635Y61564D01*
X346699Y61634D01*
X346766Y61702D01*
X346836Y61768D01*
X346908Y61830D01*
X346983Y61889D01*
X347060Y61945D01*
X347140Y61998D01*
X347221Y62047D01*
X347305Y62094D01*
X347390Y62136D01*
X347478Y62175D01*
X347566Y62210D01*
X347656Y62242D01*
X347748Y62270D01*
X347840Y62294D01*
X347933Y62314D01*
X348027Y62331D01*
X348122Y62343D01*
X348217Y62352D01*
X348312Y62356D01*
X348408Y62357D01*
X348407Y62357D02*
X348650Y62351D01*
X348892Y62338D01*
X349134Y62320D01*
X349376Y62296D01*
X349617Y62267D01*
X349857Y62231D01*
X350096Y62190D01*
X350334Y62143D01*
X350571Y62091D01*
X350807Y62032D01*
X351041Y61968D01*
X351274Y61899D01*
X351505Y61823D01*
X351734Y61743D01*
X351960Y61657D01*
X352185Y61565D01*
X352408Y61468D01*
X351964Y56134D02*
X352052Y56097D01*
X352138Y56056D01*
X352223Y56012D01*
X352305Y55964D01*
X352386Y55912D01*
X352464Y55858D01*
X352540Y55800D01*
X352614Y55739D01*
X352685Y55675D01*
X352753Y55609D01*
X352818Y55539D01*
X352881Y55467D01*
X352940Y55392D01*
X352997Y55315D01*
X353050Y55236D01*
X353100Y55154D01*
X353146Y55071D01*
X353189Y54986D01*
X353228Y54898D01*
X353264Y54810D01*
X353296Y54720D01*
X353324Y54629D01*
X353348Y54536D01*
X353369Y54443D01*
X353385Y54349D01*
X353398Y54255D01*
X353407Y54159D01*
X353412Y54064D01*
X353413Y53969D01*
X353410Y53873D01*
X353403Y53778D01*
X353392Y53683D01*
X353377Y53589D01*
X353358Y53495D01*
X353336Y53402D01*
X353309Y53311D01*
X353279Y53220D01*
X353245Y53131D01*
X353208Y53043D01*
X353167Y52957D01*
X353122Y52873D01*
X353074Y52790D01*
X353022Y52710D01*
X352967Y52632D01*
X352909Y52556D01*
X352848Y52482D01*
X352784Y52412D01*
X352717Y52344D01*
X352647Y52278D01*
X352575Y52216D01*
X352500Y52157D01*
X352423Y52101D01*
X352343Y52048D01*
X352262Y51999D01*
X352178Y51952D01*
X352093Y51910D01*
X352005Y51871D01*
X351917Y51836D01*
X351827Y51804D01*
X351735Y51776D01*
X351643Y51752D01*
X351550Y51732D01*
X351456Y51715D01*
X351361Y51703D01*
X351266Y51694D01*
X351171Y51690D01*
X351075Y51689D01*
X351075Y51690D02*
X350718Y51699D01*
X350362Y51717D01*
X350006Y51743D01*
X349651Y51777D01*
X349297Y51820D01*
X348945Y51872D01*
X348593Y51931D01*
X348243Y51999D01*
X347895Y52075D01*
X347548Y52160D01*
X347204Y52252D01*
X346862Y52353D01*
X346522Y52462D01*
X346185Y52579D01*
X358409Y62357D02*
X363743Y62357D01*
X360187Y67691D02*
X360187Y54356D01*
X360189Y54254D01*
X360195Y54152D01*
X360205Y54050D01*
X360218Y53949D01*
X360236Y53848D01*
X360257Y53748D01*
X360282Y53649D01*
X360311Y53551D01*
X360344Y53455D01*
X360380Y53359D01*
X360420Y53265D01*
X360464Y53173D01*
X360511Y53082D01*
X360562Y52993D01*
X360615Y52906D01*
X360673Y52822D01*
X360733Y52739D01*
X360796Y52659D01*
X360863Y52582D01*
X360932Y52507D01*
X361005Y52434D01*
X361080Y52365D01*
X361157Y52298D01*
X361237Y52235D01*
X361320Y52175D01*
X361404Y52117D01*
X361491Y52064D01*
X361580Y52013D01*
X361671Y51966D01*
X361763Y51922D01*
X361857Y51882D01*
X361953Y51846D01*
X362049Y51813D01*
X362147Y51784D01*
X362246Y51759D01*
X362346Y51738D01*
X362447Y51720D01*
X362548Y51707D01*
X362650Y51697D01*
X362752Y51691D01*
X362854Y51689D01*
X363743Y51689D01*
X372299Y51689D02*
X376744Y51689D01*
X372299Y51689D02*
X372197Y51691D01*
X372095Y51697D01*
X371993Y51707D01*
X371892Y51720D01*
X371791Y51738D01*
X371691Y51759D01*
X371592Y51784D01*
X371494Y51813D01*
X371398Y51846D01*
X371302Y51882D01*
X371208Y51922D01*
X371116Y51966D01*
X371025Y52013D01*
X370936Y52064D01*
X370849Y52117D01*
X370765Y52175D01*
X370682Y52235D01*
X370602Y52298D01*
X370525Y52365D01*
X370450Y52434D01*
X370377Y52507D01*
X370308Y52582D01*
X370241Y52659D01*
X370178Y52739D01*
X370118Y52822D01*
X370060Y52906D01*
X370007Y52993D01*
X369956Y53082D01*
X369909Y53173D01*
X369865Y53265D01*
X369825Y53359D01*
X369789Y53455D01*
X369756Y53551D01*
X369727Y53649D01*
X369702Y53748D01*
X369681Y53848D01*
X369663Y53949D01*
X369650Y54050D01*
X369640Y54152D01*
X369634Y54254D01*
X369632Y54356D01*
X369632Y58801D01*
X369634Y58919D01*
X369640Y59036D01*
X369649Y59153D01*
X369663Y59270D01*
X369680Y59386D01*
X369702Y59502D01*
X369727Y59617D01*
X369756Y59731D01*
X369788Y59844D01*
X369825Y59956D01*
X369865Y60066D01*
X369908Y60175D01*
X369956Y60283D01*
X370006Y60389D01*
X370061Y60493D01*
X370118Y60596D01*
X370179Y60696D01*
X370244Y60795D01*
X370311Y60891D01*
X370382Y60985D01*
X370456Y61077D01*
X370532Y61166D01*
X370612Y61252D01*
X370694Y61336D01*
X370780Y61417D01*
X370867Y61495D01*
X370958Y61571D01*
X371051Y61643D01*
X371146Y61712D01*
X371243Y61778D01*
X371343Y61841D01*
X371444Y61900D01*
X371547Y61956D01*
X371653Y62008D01*
X371760Y62057D01*
X371868Y62103D01*
X371978Y62145D01*
X372089Y62183D01*
X372202Y62217D01*
X372315Y62248D01*
X372430Y62275D01*
X372545Y62298D01*
X372661Y62318D01*
X372777Y62333D01*
X372894Y62345D01*
X373012Y62353D01*
X373129Y62357D01*
X373247Y62357D01*
X373364Y62353D01*
X373482Y62345D01*
X373599Y62333D01*
X373715Y62318D01*
X373831Y62298D01*
X373946Y62275D01*
X374061Y62248D01*
X374174Y62217D01*
X374287Y62183D01*
X374398Y62145D01*
X374508Y62103D01*
X374616Y62057D01*
X374723Y62008D01*
X374829Y61956D01*
X374932Y61900D01*
X375033Y61841D01*
X375133Y61778D01*
X375230Y61712D01*
X375325Y61643D01*
X375418Y61571D01*
X375509Y61495D01*
X375596Y61417D01*
X375682Y61336D01*
X375764Y61252D01*
X375844Y61166D01*
X375920Y61077D01*
X375994Y60985D01*
X376065Y60891D01*
X376132Y60795D01*
X376197Y60696D01*
X376258Y60596D01*
X376315Y60493D01*
X376370Y60389D01*
X376420Y60283D01*
X376468Y60175D01*
X376511Y60066D01*
X376551Y59956D01*
X376588Y59844D01*
X376620Y59731D01*
X376649Y59617D01*
X376674Y59502D01*
X376696Y59386D01*
X376713Y59270D01*
X376727Y59153D01*
X376736Y59036D01*
X376742Y58919D01*
X376744Y58801D01*
X376744Y57023D01*
X369632Y57023D01*
X383793Y51689D02*
X383793Y62357D01*
X389127Y62357D01*
X389127Y60579D01*
D14*
X133350Y88138D02*
X107950Y88138D01*
X31750Y88138D01*
X31750Y253238D02*
X107950Y253238D01*
X133350Y253238D01*
X133350Y88138D01*
D15*
X107950Y88138D02*
X107950Y253238D01*
D14*
X31750Y253238D02*
X31750Y88138D01*
D16*
X69850Y112014D03*
X69850Y151638D03*
X69850Y191262D03*
X69850Y230886D03*
D14*
X228600Y538988D02*
X254000Y538988D01*
X228600Y538988D02*
X152400Y538988D01*
X152400Y704088D02*
X228600Y704088D01*
X254000Y704088D01*
X254000Y538988D01*
D15*
X228600Y538988D02*
X228600Y704088D01*
D14*
X152400Y704088D02*
X152400Y538988D01*
D16*
X190500Y562864D03*
X190500Y602488D03*
X190500Y642112D03*
X190500Y681736D03*
D14*
X133350Y723138D02*
X107950Y723138D01*
X31750Y723138D01*
X31750Y888238D02*
X107950Y888238D01*
X133350Y888238D01*
X133350Y723138D01*
D15*
X107950Y723138D02*
X107950Y888238D01*
D14*
X31750Y888238D02*
X31750Y723138D01*
D16*
X69850Y747014D03*
X69850Y786638D03*
X69850Y826262D03*
X69850Y865886D03*
D14*
X107950Y538988D02*
X133350Y538988D01*
X107950Y538988D02*
X31750Y538988D01*
X31750Y704088D02*
X107950Y704088D01*
X133350Y704088D01*
X133350Y538988D01*
D15*
X107950Y538988D02*
X107950Y704088D01*
D14*
X31750Y704088D02*
X31750Y538988D01*
D16*
X69850Y562864D03*
X69850Y602488D03*
X69850Y642112D03*
X69850Y681736D03*
D14*
X107950Y322580D02*
X133350Y322580D01*
X107950Y322580D02*
X31750Y322580D01*
X31750Y411480D01*
X133350Y411480D02*
X133350Y322580D01*
D15*
X107950Y322580D02*
X107950Y411480D01*
D14*
X31750Y411480D01*
X107950Y411480D02*
X133350Y411480D01*
D16*
X69850Y348488D03*
X69850Y388112D03*
D14*
X228600Y88138D02*
X254000Y88138D01*
X228600Y88138D02*
X152400Y88138D01*
X152400Y253238D02*
X228600Y253238D01*
X254000Y253238D01*
X254000Y88138D01*
D15*
X228600Y88138D02*
X228600Y253238D01*
D14*
X152400Y253238D02*
X152400Y88138D01*
D16*
X190500Y112014D03*
X190500Y151638D03*
X190500Y191262D03*
X190500Y230886D03*
D14*
X349250Y88138D02*
X374650Y88138D01*
X349250Y88138D02*
X273050Y88138D01*
X273050Y253238D02*
X349250Y253238D01*
X374650Y253238D01*
X374650Y88138D01*
D15*
X349250Y88138D02*
X349250Y253238D01*
D14*
X273050Y253238D02*
X273050Y88138D01*
D16*
X311150Y112014D03*
X311150Y151638D03*
X311150Y191262D03*
X311150Y230886D03*
D14*
X469900Y88138D02*
X495300Y88138D01*
X469900Y88138D02*
X393700Y88138D01*
X393700Y253238D02*
X469900Y253238D01*
X495300Y253238D01*
X495300Y88138D01*
D15*
X469900Y88138D02*
X469900Y253238D01*
D14*
X393700Y253238D02*
X393700Y88138D01*
D16*
X431800Y112014D03*
X431800Y151638D03*
X431800Y191262D03*
X431800Y230886D03*
D14*
X469900Y723138D02*
X495300Y723138D01*
X469900Y723138D02*
X393700Y723138D01*
X393700Y888238D02*
X469900Y888238D01*
X495300Y888238D01*
X495300Y723138D01*
D15*
X469900Y723138D02*
X469900Y888238D01*
D14*
X393700Y888238D02*
X393700Y723138D01*
D16*
X431800Y747014D03*
X431800Y786638D03*
X431800Y826262D03*
X431800Y865886D03*
D14*
X469900Y538988D02*
X495300Y538988D01*
X469900Y538988D02*
X393700Y538988D01*
X393700Y704088D02*
X469900Y704088D01*
X495300Y704088D01*
X495300Y538988D01*
D15*
X469900Y538988D02*
X469900Y704088D01*
D14*
X393700Y704088D02*
X393700Y538988D01*
D16*
X431800Y562864D03*
X431800Y602488D03*
X431800Y642112D03*
X431800Y681736D03*
D14*
X374650Y723138D02*
X349250Y723138D01*
X273050Y723138D01*
X273050Y888238D02*
X349250Y888238D01*
X374650Y888238D01*
X374650Y723138D01*
D15*
X349250Y723138D02*
X349250Y888238D01*
D14*
X273050Y888238D02*
X273050Y723138D01*
D16*
X311150Y747014D03*
X311150Y786638D03*
X311150Y826262D03*
X311150Y865886D03*
D14*
X349250Y538988D02*
X374650Y538988D01*
X349250Y538988D02*
X273050Y538988D01*
X273050Y704088D02*
X349250Y704088D01*
X374650Y704088D01*
X374650Y538988D01*
D15*
X349250Y538988D02*
X349250Y704088D01*
D14*
X273050Y704088D02*
X273050Y538988D01*
D16*
X311150Y562864D03*
X311150Y602488D03*
X311150Y642112D03*
X311150Y681736D03*
D14*
X254000Y723138D02*
X228600Y723138D01*
X152400Y723138D01*
X152400Y888238D02*
X228600Y888238D01*
X254000Y888238D01*
X254000Y723138D01*
D15*
X228600Y723138D02*
X228600Y888238D01*
D14*
X152400Y888238D02*
X152400Y723138D01*
D16*
X190500Y747014D03*
X190500Y786638D03*
X190500Y826262D03*
X190500Y865886D03*
D12*
X387350Y304800D02*
X400050Y304800D01*
X406400Y298450D01*
X406400Y285750D01*
X400050Y279400D01*
X406400Y298450D02*
X412750Y304800D01*
X425450Y304800D01*
X431800Y298450D01*
X431800Y285750D01*
X425450Y279400D01*
X412750Y279400D01*
X406400Y285750D01*
X361950Y304800D02*
X355600Y298450D01*
X361950Y304800D02*
X374650Y304800D01*
X381000Y298450D01*
X381000Y285750D01*
X374650Y279400D01*
X361950Y279400D01*
X355600Y285750D01*
X381000Y298450D02*
X387350Y304800D01*
X381000Y285750D02*
X387350Y279400D01*
X400050Y279400D01*
X323850Y304800D02*
X311150Y304800D01*
X323850Y304800D02*
X330200Y298450D01*
X330200Y285750D01*
X323850Y279400D01*
X330200Y298450D02*
X336550Y304800D01*
X349250Y304800D01*
X355600Y298450D01*
X355600Y285750D01*
X349250Y279400D01*
X336550Y279400D01*
X330200Y285750D01*
X285750Y304800D02*
X279400Y298450D01*
X285750Y304800D02*
X298450Y304800D01*
X304800Y298450D01*
X304800Y285750D01*
X298450Y279400D01*
X285750Y279400D01*
X279400Y285750D01*
X304800Y298450D02*
X311150Y304800D01*
X304800Y285750D02*
X311150Y279400D01*
X323850Y279400D01*
X247650Y304800D02*
X234950Y304800D01*
X247650Y304800D02*
X254000Y298450D01*
X254000Y285750D01*
X247650Y279400D01*
X254000Y298450D02*
X260350Y304800D01*
X273050Y304800D01*
X279400Y298450D01*
X279400Y285750D01*
X273050Y279400D01*
X260350Y279400D01*
X254000Y285750D01*
X209550Y304800D02*
X203200Y298450D01*
X209550Y304800D02*
X222250Y304800D01*
X228600Y298450D01*
X228600Y285750D01*
X222250Y279400D01*
X209550Y279400D01*
X203200Y285750D01*
X228600Y298450D02*
X234950Y304800D01*
X228600Y285750D02*
X234950Y279400D01*
X247650Y279400D01*
X171450Y304800D02*
X158750Y304800D01*
X171450Y304800D02*
X177800Y298450D01*
X177800Y285750D01*
X171450Y279400D01*
X177800Y298450D02*
X184150Y304800D01*
X196850Y304800D01*
X203200Y298450D01*
X203200Y285750D01*
X196850Y279400D01*
X184150Y279400D01*
X177800Y285750D01*
X152400Y285750D02*
X152400Y298450D01*
X158750Y304800D01*
X152400Y285750D02*
X158750Y279400D01*
X171450Y279400D01*
X431800Y298450D02*
X438150Y304800D01*
X450850Y304800D01*
X457200Y298450D01*
X457200Y285750D01*
X450850Y279400D01*
X438150Y279400D01*
X431800Y285750D01*
X400050Y457200D02*
X387350Y457200D01*
X400050Y457200D02*
X406400Y450850D01*
X406400Y438150D01*
X400050Y431800D01*
X406400Y450850D02*
X412750Y457200D01*
X425450Y457200D01*
X431800Y450850D01*
X431800Y438150D01*
X425450Y431800D01*
X412750Y431800D01*
X406400Y438150D01*
X361950Y457200D02*
X355600Y450850D01*
X361950Y457200D02*
X374650Y457200D01*
X381000Y450850D01*
X381000Y438150D01*
X374650Y431800D01*
X361950Y431800D01*
X355600Y438150D01*
X381000Y450850D02*
X387350Y457200D01*
X381000Y438150D02*
X387350Y431800D01*
X400050Y431800D01*
X323850Y457200D02*
X311150Y457200D01*
X323850Y457200D02*
X330200Y450850D01*
X330200Y438150D01*
X323850Y431800D01*
X330200Y450850D02*
X336550Y457200D01*
X349250Y457200D01*
X355600Y450850D01*
X355600Y438150D01*
X349250Y431800D01*
X336550Y431800D01*
X330200Y438150D01*
X285750Y457200D02*
X279400Y450850D01*
X285750Y457200D02*
X298450Y457200D01*
X304800Y450850D01*
X304800Y438150D01*
X298450Y431800D01*
X285750Y431800D01*
X279400Y438150D01*
X304800Y450850D02*
X311150Y457200D01*
X304800Y438150D02*
X311150Y431800D01*
X323850Y431800D01*
X247650Y457200D02*
X234950Y457200D01*
X247650Y457200D02*
X254000Y450850D01*
X254000Y438150D01*
X247650Y431800D01*
X254000Y450850D02*
X260350Y457200D01*
X273050Y457200D01*
X279400Y450850D01*
X279400Y438150D01*
X273050Y431800D01*
X260350Y431800D01*
X254000Y438150D01*
X209550Y457200D02*
X203200Y450850D01*
X209550Y457200D02*
X222250Y457200D01*
X228600Y450850D01*
X228600Y438150D01*
X222250Y431800D01*
X209550Y431800D01*
X203200Y438150D01*
X228600Y450850D02*
X234950Y457200D01*
X228600Y438150D02*
X234950Y431800D01*
X247650Y431800D01*
X171450Y457200D02*
X158750Y457200D01*
X171450Y457200D02*
X177800Y450850D01*
X177800Y438150D01*
X171450Y431800D01*
X177800Y450850D02*
X184150Y457200D01*
X196850Y457200D01*
X203200Y450850D01*
X203200Y438150D01*
X196850Y431800D01*
X184150Y431800D01*
X177800Y438150D01*
X152400Y438150D02*
X152400Y450850D01*
X158750Y457200D01*
X152400Y438150D02*
X158750Y431800D01*
X171450Y431800D01*
X431800Y450850D02*
X438150Y457200D01*
X450850Y457200D01*
X457200Y450850D01*
X457200Y438150D01*
X450850Y431800D01*
X438150Y431800D01*
X431800Y438150D01*
X40640Y44450D02*
X40649Y45167D01*
X40675Y45883D01*
X40719Y46599D01*
X40781Y47313D01*
X40860Y48026D01*
X40956Y48736D01*
X41070Y49444D01*
X41201Y50149D01*
X41350Y50850D01*
X41515Y51547D01*
X41698Y52241D01*
X41898Y52929D01*
X42114Y53613D01*
X42347Y54291D01*
X42597Y54963D01*
X42863Y55628D01*
X43146Y56287D01*
X43444Y56939D01*
X43759Y57583D01*
X44089Y58219D01*
X44435Y58848D01*
X44796Y59467D01*
X45172Y60077D01*
X45563Y60678D01*
X45968Y61269D01*
X46388Y61850D01*
X46822Y62421D01*
X47270Y62981D01*
X47732Y63529D01*
X48207Y64066D01*
X48695Y64591D01*
X49195Y65105D01*
X49709Y65605D01*
X50234Y66093D01*
X50771Y66568D01*
X51319Y67030D01*
X51879Y67478D01*
X52450Y67912D01*
X53031Y68332D01*
X53622Y68737D01*
X54223Y69128D01*
X54833Y69504D01*
X55452Y69865D01*
X56081Y70211D01*
X56717Y70541D01*
X57361Y70856D01*
X58013Y71154D01*
X58672Y71437D01*
X59337Y71703D01*
X60009Y71953D01*
X60687Y72186D01*
X61371Y72402D01*
X62059Y72602D01*
X62753Y72785D01*
X63450Y72950D01*
X64151Y73099D01*
X64856Y73230D01*
X65564Y73344D01*
X66274Y73440D01*
X66987Y73519D01*
X67701Y73581D01*
X68417Y73625D01*
X69133Y73651D01*
X69850Y73660D01*
X70567Y73651D01*
X71283Y73625D01*
X71999Y73581D01*
X72713Y73519D01*
X73426Y73440D01*
X74136Y73344D01*
X74844Y73230D01*
X75549Y73099D01*
X76250Y72950D01*
X76947Y72785D01*
X77641Y72602D01*
X78329Y72402D01*
X79013Y72186D01*
X79691Y71953D01*
X80363Y71703D01*
X81028Y71437D01*
X81687Y71154D01*
X82339Y70856D01*
X82983Y70541D01*
X83619Y70211D01*
X84248Y69865D01*
X84867Y69504D01*
X85477Y69128D01*
X86078Y68737D01*
X86669Y68332D01*
X87250Y67912D01*
X87821Y67478D01*
X88381Y67030D01*
X88929Y66568D01*
X89466Y66093D01*
X89991Y65605D01*
X90505Y65105D01*
X91005Y64591D01*
X91493Y64066D01*
X91968Y63529D01*
X92430Y62981D01*
X92878Y62421D01*
X93312Y61850D01*
X93732Y61269D01*
X94137Y60678D01*
X94528Y60077D01*
X94904Y59467D01*
X95265Y58848D01*
X95611Y58219D01*
X95941Y57583D01*
X96256Y56939D01*
X96554Y56287D01*
X96837Y55628D01*
X97103Y54963D01*
X97353Y54291D01*
X97586Y53613D01*
X97802Y52929D01*
X98002Y52241D01*
X98185Y51547D01*
X98350Y50850D01*
X98499Y50149D01*
X98630Y49444D01*
X98744Y48736D01*
X98840Y48026D01*
X98919Y47313D01*
X98981Y46599D01*
X99025Y45883D01*
X99051Y45167D01*
X99060Y44450D01*
X99051Y43733D01*
X99025Y43017D01*
X98981Y42301D01*
X98919Y41587D01*
X98840Y40874D01*
X98744Y40164D01*
X98630Y39456D01*
X98499Y38751D01*
X98350Y38050D01*
X98185Y37353D01*
X98002Y36659D01*
X97802Y35971D01*
X97586Y35287D01*
X97353Y34609D01*
X97103Y33937D01*
X96837Y33272D01*
X96554Y32613D01*
X96256Y31961D01*
X95941Y31317D01*
X95611Y30681D01*
X95265Y30052D01*
X94904Y29433D01*
X94528Y28823D01*
X94137Y28222D01*
X93732Y27631D01*
X93312Y27050D01*
X92878Y26479D01*
X92430Y25919D01*
X91968Y25371D01*
X91493Y24834D01*
X91005Y24309D01*
X90505Y23795D01*
X89991Y23295D01*
X89466Y22807D01*
X88929Y22332D01*
X88381Y21870D01*
X87821Y21422D01*
X87250Y20988D01*
X86669Y20568D01*
X86078Y20163D01*
X85477Y19772D01*
X84867Y19396D01*
X84248Y19035D01*
X83619Y18689D01*
X82983Y18359D01*
X82339Y18044D01*
X81687Y17746D01*
X81028Y17463D01*
X80363Y17197D01*
X79691Y16947D01*
X79013Y16714D01*
X78329Y16498D01*
X77641Y16298D01*
X76947Y16115D01*
X76250Y15950D01*
X75549Y15801D01*
X74844Y15670D01*
X74136Y15556D01*
X73426Y15460D01*
X72713Y15381D01*
X71999Y15319D01*
X71283Y15275D01*
X70567Y15249D01*
X69850Y15240D01*
X69133Y15249D01*
X68417Y15275D01*
X67701Y15319D01*
X66987Y15381D01*
X66274Y15460D01*
X65564Y15556D01*
X64856Y15670D01*
X64151Y15801D01*
X63450Y15950D01*
X62753Y16115D01*
X62059Y16298D01*
X61371Y16498D01*
X60687Y16714D01*
X60009Y16947D01*
X59337Y17197D01*
X58672Y17463D01*
X58013Y17746D01*
X57361Y18044D01*
X56717Y18359D01*
X56081Y18689D01*
X55452Y19035D01*
X54833Y19396D01*
X54223Y19772D01*
X53622Y20163D01*
X53031Y20568D01*
X52450Y20988D01*
X51879Y21422D01*
X51319Y21870D01*
X50771Y22332D01*
X50234Y22807D01*
X49709Y23295D01*
X49195Y23795D01*
X48695Y24309D01*
X48207Y24834D01*
X47732Y25371D01*
X47270Y25919D01*
X46822Y26479D01*
X46388Y27050D01*
X45968Y27631D01*
X45563Y28222D01*
X45172Y28823D01*
X44796Y29433D01*
X44435Y30052D01*
X44089Y30681D01*
X43759Y31317D01*
X43444Y31961D01*
X43146Y32613D01*
X42863Y33272D01*
X42597Y33937D01*
X42347Y34609D01*
X42114Y35287D01*
X41898Y35971D01*
X41698Y36659D01*
X41515Y37353D01*
X41350Y38050D01*
X41201Y38751D01*
X41070Y39456D01*
X40956Y40164D01*
X40860Y40874D01*
X40781Y41587D01*
X40719Y42301D01*
X40675Y43017D01*
X40649Y43733D01*
X40640Y44450D01*
D17*
X54850Y44450D02*
X54855Y44818D01*
X54868Y45186D01*
X54891Y45553D01*
X54922Y45920D01*
X54963Y46286D01*
X55012Y46651D01*
X55071Y47014D01*
X55138Y47376D01*
X55214Y47737D01*
X55300Y48095D01*
X55393Y48451D01*
X55496Y48804D01*
X55607Y49155D01*
X55727Y49503D01*
X55855Y49848D01*
X55992Y50190D01*
X56137Y50529D01*
X56290Y50863D01*
X56452Y51194D01*
X56621Y51521D01*
X56799Y51843D01*
X56984Y52162D01*
X57177Y52475D01*
X57378Y52784D01*
X57586Y53087D01*
X57802Y53385D01*
X58025Y53678D01*
X58255Y53966D01*
X58492Y54248D01*
X58736Y54523D01*
X58986Y54793D01*
X59243Y55057D01*
X59507Y55314D01*
X59777Y55564D01*
X60052Y55808D01*
X60334Y56045D01*
X60622Y56275D01*
X60915Y56498D01*
X61213Y56714D01*
X61516Y56922D01*
X61825Y57123D01*
X62138Y57316D01*
X62457Y57501D01*
X62779Y57679D01*
X63106Y57848D01*
X63437Y58010D01*
X63771Y58163D01*
X64110Y58308D01*
X64452Y58445D01*
X64797Y58573D01*
X65145Y58693D01*
X65496Y58804D01*
X65849Y58907D01*
X66205Y59000D01*
X66563Y59086D01*
X66924Y59162D01*
X67286Y59229D01*
X67649Y59288D01*
X68014Y59337D01*
X68380Y59378D01*
X68747Y59409D01*
X69114Y59432D01*
X69482Y59445D01*
X69850Y59450D01*
X70218Y59445D01*
X70586Y59432D01*
X70953Y59409D01*
X71320Y59378D01*
X71686Y59337D01*
X72051Y59288D01*
X72414Y59229D01*
X72776Y59162D01*
X73137Y59086D01*
X73495Y59000D01*
X73851Y58907D01*
X74204Y58804D01*
X74555Y58693D01*
X74903Y58573D01*
X75248Y58445D01*
X75590Y58308D01*
X75929Y58163D01*
X76263Y58010D01*
X76594Y57848D01*
X76921Y57679D01*
X77243Y57501D01*
X77562Y57316D01*
X77875Y57123D01*
X78184Y56922D01*
X78487Y56714D01*
X78785Y56498D01*
X79078Y56275D01*
X79366Y56045D01*
X79648Y55808D01*
X79923Y55564D01*
X80193Y55314D01*
X80457Y55057D01*
X80714Y54793D01*
X80964Y54523D01*
X81208Y54248D01*
X81445Y53966D01*
X81675Y53678D01*
X81898Y53385D01*
X82114Y53087D01*
X82322Y52784D01*
X82523Y52475D01*
X82716Y52162D01*
X82901Y51843D01*
X83079Y51521D01*
X83248Y51194D01*
X83410Y50863D01*
X83563Y50529D01*
X83708Y50190D01*
X83845Y49848D01*
X83973Y49503D01*
X84093Y49155D01*
X84204Y48804D01*
X84307Y48451D01*
X84400Y48095D01*
X84486Y47737D01*
X84562Y47376D01*
X84629Y47014D01*
X84688Y46651D01*
X84737Y46286D01*
X84778Y45920D01*
X84809Y45553D01*
X84832Y45186D01*
X84845Y44818D01*
X84850Y44450D01*
X84845Y44082D01*
X84832Y43714D01*
X84809Y43347D01*
X84778Y42980D01*
X84737Y42614D01*
X84688Y42249D01*
X84629Y41886D01*
X84562Y41524D01*
X84486Y41163D01*
X84400Y40805D01*
X84307Y40449D01*
X84204Y40096D01*
X84093Y39745D01*
X83973Y39397D01*
X83845Y39052D01*
X83708Y38710D01*
X83563Y38371D01*
X83410Y38037D01*
X83248Y37706D01*
X83079Y37379D01*
X82901Y37057D01*
X82716Y36738D01*
X82523Y36425D01*
X82322Y36116D01*
X82114Y35813D01*
X81898Y35515D01*
X81675Y35222D01*
X81445Y34934D01*
X81208Y34652D01*
X80964Y34377D01*
X80714Y34107D01*
X80457Y33843D01*
X80193Y33586D01*
X79923Y33336D01*
X79648Y33092D01*
X79366Y32855D01*
X79078Y32625D01*
X78785Y32402D01*
X78487Y32186D01*
X78184Y31978D01*
X77875Y31777D01*
X77562Y31584D01*
X77243Y31399D01*
X76921Y31221D01*
X76594Y31052D01*
X76263Y30890D01*
X75929Y30737D01*
X75590Y30592D01*
X75248Y30455D01*
X74903Y30327D01*
X74555Y30207D01*
X74204Y30096D01*
X73851Y29993D01*
X73495Y29900D01*
X73137Y29814D01*
X72776Y29738D01*
X72414Y29671D01*
X72051Y29612D01*
X71686Y29563D01*
X71320Y29522D01*
X70953Y29491D01*
X70586Y29468D01*
X70218Y29455D01*
X69850Y29450D01*
X69482Y29455D01*
X69114Y29468D01*
X68747Y29491D01*
X68380Y29522D01*
X68014Y29563D01*
X67649Y29612D01*
X67286Y29671D01*
X66924Y29738D01*
X66563Y29814D01*
X66205Y29900D01*
X65849Y29993D01*
X65496Y30096D01*
X65145Y30207D01*
X64797Y30327D01*
X64452Y30455D01*
X64110Y30592D01*
X63771Y30737D01*
X63437Y30890D01*
X63106Y31052D01*
X62779Y31221D01*
X62457Y31399D01*
X62138Y31584D01*
X61825Y31777D01*
X61516Y31978D01*
X61213Y32186D01*
X60915Y32402D01*
X60622Y32625D01*
X60334Y32855D01*
X60052Y33092D01*
X59777Y33336D01*
X59507Y33586D01*
X59243Y33843D01*
X58986Y34107D01*
X58736Y34377D01*
X58492Y34652D01*
X58255Y34934D01*
X58025Y35222D01*
X57802Y35515D01*
X57586Y35813D01*
X57378Y36116D01*
X57177Y36425D01*
X56984Y36738D01*
X56799Y37057D01*
X56621Y37379D01*
X56452Y37706D01*
X56290Y38037D01*
X56137Y38371D01*
X55992Y38710D01*
X55855Y39052D01*
X55727Y39397D01*
X55607Y39745D01*
X55496Y40096D01*
X55393Y40449D01*
X55300Y40805D01*
X55214Y41163D01*
X55138Y41524D01*
X55071Y41886D01*
X55012Y42249D01*
X54963Y42614D01*
X54922Y42980D01*
X54891Y43347D01*
X54868Y43714D01*
X54855Y44082D01*
X54850Y44450D01*
D12*
X427990Y44450D02*
X427999Y45167D01*
X428025Y45883D01*
X428069Y46599D01*
X428131Y47313D01*
X428210Y48026D01*
X428306Y48736D01*
X428420Y49444D01*
X428551Y50149D01*
X428700Y50850D01*
X428865Y51547D01*
X429048Y52241D01*
X429248Y52929D01*
X429464Y53613D01*
X429697Y54291D01*
X429947Y54963D01*
X430213Y55628D01*
X430496Y56287D01*
X430794Y56939D01*
X431109Y57583D01*
X431439Y58219D01*
X431785Y58848D01*
X432146Y59467D01*
X432522Y60077D01*
X432913Y60678D01*
X433318Y61269D01*
X433738Y61850D01*
X434172Y62421D01*
X434620Y62981D01*
X435082Y63529D01*
X435557Y64066D01*
X436045Y64591D01*
X436545Y65105D01*
X437059Y65605D01*
X437584Y66093D01*
X438121Y66568D01*
X438669Y67030D01*
X439229Y67478D01*
X439800Y67912D01*
X440381Y68332D01*
X440972Y68737D01*
X441573Y69128D01*
X442183Y69504D01*
X442802Y69865D01*
X443431Y70211D01*
X444067Y70541D01*
X444711Y70856D01*
X445363Y71154D01*
X446022Y71437D01*
X446687Y71703D01*
X447359Y71953D01*
X448037Y72186D01*
X448721Y72402D01*
X449409Y72602D01*
X450103Y72785D01*
X450800Y72950D01*
X451501Y73099D01*
X452206Y73230D01*
X452914Y73344D01*
X453624Y73440D01*
X454337Y73519D01*
X455051Y73581D01*
X455767Y73625D01*
X456483Y73651D01*
X457200Y73660D01*
X457917Y73651D01*
X458633Y73625D01*
X459349Y73581D01*
X460063Y73519D01*
X460776Y73440D01*
X461486Y73344D01*
X462194Y73230D01*
X462899Y73099D01*
X463600Y72950D01*
X464297Y72785D01*
X464991Y72602D01*
X465679Y72402D01*
X466363Y72186D01*
X467041Y71953D01*
X467713Y71703D01*
X468378Y71437D01*
X469037Y71154D01*
X469689Y70856D01*
X470333Y70541D01*
X470969Y70211D01*
X471598Y69865D01*
X472217Y69504D01*
X472827Y69128D01*
X473428Y68737D01*
X474019Y68332D01*
X474600Y67912D01*
X475171Y67478D01*
X475731Y67030D01*
X476279Y66568D01*
X476816Y66093D01*
X477341Y65605D01*
X477855Y65105D01*
X478355Y64591D01*
X478843Y64066D01*
X479318Y63529D01*
X479780Y62981D01*
X480228Y62421D01*
X480662Y61850D01*
X481082Y61269D01*
X481487Y60678D01*
X481878Y60077D01*
X482254Y59467D01*
X482615Y58848D01*
X482961Y58219D01*
X483291Y57583D01*
X483606Y56939D01*
X483904Y56287D01*
X484187Y55628D01*
X484453Y54963D01*
X484703Y54291D01*
X484936Y53613D01*
X485152Y52929D01*
X485352Y52241D01*
X485535Y51547D01*
X485700Y50850D01*
X485849Y50149D01*
X485980Y49444D01*
X486094Y48736D01*
X486190Y48026D01*
X486269Y47313D01*
X486331Y46599D01*
X486375Y45883D01*
X486401Y45167D01*
X486410Y44450D01*
X486401Y43733D01*
X486375Y43017D01*
X486331Y42301D01*
X486269Y41587D01*
X486190Y40874D01*
X486094Y40164D01*
X485980Y39456D01*
X485849Y38751D01*
X485700Y38050D01*
X485535Y37353D01*
X485352Y36659D01*
X485152Y35971D01*
X484936Y35287D01*
X484703Y34609D01*
X484453Y33937D01*
X484187Y33272D01*
X483904Y32613D01*
X483606Y31961D01*
X483291Y31317D01*
X482961Y30681D01*
X482615Y30052D01*
X482254Y29433D01*
X481878Y28823D01*
X481487Y28222D01*
X481082Y27631D01*
X480662Y27050D01*
X480228Y26479D01*
X479780Y25919D01*
X479318Y25371D01*
X478843Y24834D01*
X478355Y24309D01*
X477855Y23795D01*
X477341Y23295D01*
X476816Y22807D01*
X476279Y22332D01*
X475731Y21870D01*
X475171Y21422D01*
X474600Y20988D01*
X474019Y20568D01*
X473428Y20163D01*
X472827Y19772D01*
X472217Y19396D01*
X471598Y19035D01*
X470969Y18689D01*
X470333Y18359D01*
X469689Y18044D01*
X469037Y17746D01*
X468378Y17463D01*
X467713Y17197D01*
X467041Y16947D01*
X466363Y16714D01*
X465679Y16498D01*
X464991Y16298D01*
X464297Y16115D01*
X463600Y15950D01*
X462899Y15801D01*
X462194Y15670D01*
X461486Y15556D01*
X460776Y15460D01*
X460063Y15381D01*
X459349Y15319D01*
X458633Y15275D01*
X457917Y15249D01*
X457200Y15240D01*
X456483Y15249D01*
X455767Y15275D01*
X455051Y15319D01*
X454337Y15381D01*
X453624Y15460D01*
X452914Y15556D01*
X452206Y15670D01*
X451501Y15801D01*
X450800Y15950D01*
X450103Y16115D01*
X449409Y16298D01*
X448721Y16498D01*
X448037Y16714D01*
X447359Y16947D01*
X446687Y17197D01*
X446022Y17463D01*
X445363Y17746D01*
X444711Y18044D01*
X444067Y18359D01*
X443431Y18689D01*
X442802Y19035D01*
X442183Y19396D01*
X441573Y19772D01*
X440972Y20163D01*
X440381Y20568D01*
X439800Y20988D01*
X439229Y21422D01*
X438669Y21870D01*
X438121Y22332D01*
X437584Y22807D01*
X437059Y23295D01*
X436545Y23795D01*
X436045Y24309D01*
X435557Y24834D01*
X435082Y25371D01*
X434620Y25919D01*
X434172Y26479D01*
X433738Y27050D01*
X433318Y27631D01*
X432913Y28222D01*
X432522Y28823D01*
X432146Y29433D01*
X431785Y30052D01*
X431439Y30681D01*
X431109Y31317D01*
X430794Y31961D01*
X430496Y32613D01*
X430213Y33272D01*
X429947Y33937D01*
X429697Y34609D01*
X429464Y35287D01*
X429248Y35971D01*
X429048Y36659D01*
X428865Y37353D01*
X428700Y38050D01*
X428551Y38751D01*
X428420Y39456D01*
X428306Y40164D01*
X428210Y40874D01*
X428131Y41587D01*
X428069Y42301D01*
X428025Y43017D01*
X427999Y43733D01*
X427990Y44450D01*
D17*
X442200Y44450D02*
X442205Y44818D01*
X442218Y45186D01*
X442241Y45553D01*
X442272Y45920D01*
X442313Y46286D01*
X442362Y46651D01*
X442421Y47014D01*
X442488Y47376D01*
X442564Y47737D01*
X442650Y48095D01*
X442743Y48451D01*
X442846Y48804D01*
X442957Y49155D01*
X443077Y49503D01*
X443205Y49848D01*
X443342Y50190D01*
X443487Y50529D01*
X443640Y50863D01*
X443802Y51194D01*
X443971Y51521D01*
X444149Y51843D01*
X444334Y52162D01*
X444527Y52475D01*
X444728Y52784D01*
X444936Y53087D01*
X445152Y53385D01*
X445375Y53678D01*
X445605Y53966D01*
X445842Y54248D01*
X446086Y54523D01*
X446336Y54793D01*
X446593Y55057D01*
X446857Y55314D01*
X447127Y55564D01*
X447402Y55808D01*
X447684Y56045D01*
X447972Y56275D01*
X448265Y56498D01*
X448563Y56714D01*
X448866Y56922D01*
X449175Y57123D01*
X449488Y57316D01*
X449807Y57501D01*
X450129Y57679D01*
X450456Y57848D01*
X450787Y58010D01*
X451121Y58163D01*
X451460Y58308D01*
X451802Y58445D01*
X452147Y58573D01*
X452495Y58693D01*
X452846Y58804D01*
X453199Y58907D01*
X453555Y59000D01*
X453913Y59086D01*
X454274Y59162D01*
X454636Y59229D01*
X454999Y59288D01*
X455364Y59337D01*
X455730Y59378D01*
X456097Y59409D01*
X456464Y59432D01*
X456832Y59445D01*
X457200Y59450D01*
X457568Y59445D01*
X457936Y59432D01*
X458303Y59409D01*
X458670Y59378D01*
X459036Y59337D01*
X459401Y59288D01*
X459764Y59229D01*
X460126Y59162D01*
X460487Y59086D01*
X460845Y59000D01*
X461201Y58907D01*
X461554Y58804D01*
X461905Y58693D01*
X462253Y58573D01*
X462598Y58445D01*
X462940Y58308D01*
X463279Y58163D01*
X463613Y58010D01*
X463944Y57848D01*
X464271Y57679D01*
X464593Y57501D01*
X464912Y57316D01*
X465225Y57123D01*
X465534Y56922D01*
X465837Y56714D01*
X466135Y56498D01*
X466428Y56275D01*
X466716Y56045D01*
X466998Y55808D01*
X467273Y55564D01*
X467543Y55314D01*
X467807Y55057D01*
X468064Y54793D01*
X468314Y54523D01*
X468558Y54248D01*
X468795Y53966D01*
X469025Y53678D01*
X469248Y53385D01*
X469464Y53087D01*
X469672Y52784D01*
X469873Y52475D01*
X470066Y52162D01*
X470251Y51843D01*
X470429Y51521D01*
X470598Y51194D01*
X470760Y50863D01*
X470913Y50529D01*
X471058Y50190D01*
X471195Y49848D01*
X471323Y49503D01*
X471443Y49155D01*
X471554Y48804D01*
X471657Y48451D01*
X471750Y48095D01*
X471836Y47737D01*
X471912Y47376D01*
X471979Y47014D01*
X472038Y46651D01*
X472087Y46286D01*
X472128Y45920D01*
X472159Y45553D01*
X472182Y45186D01*
X472195Y44818D01*
X472200Y44450D01*
X472195Y44082D01*
X472182Y43714D01*
X472159Y43347D01*
X472128Y42980D01*
X472087Y42614D01*
X472038Y42249D01*
X471979Y41886D01*
X471912Y41524D01*
X471836Y41163D01*
X471750Y40805D01*
X471657Y40449D01*
X471554Y40096D01*
X471443Y39745D01*
X471323Y39397D01*
X471195Y39052D01*
X471058Y38710D01*
X470913Y38371D01*
X470760Y38037D01*
X470598Y37706D01*
X470429Y37379D01*
X470251Y37057D01*
X470066Y36738D01*
X469873Y36425D01*
X469672Y36116D01*
X469464Y35813D01*
X469248Y35515D01*
X469025Y35222D01*
X468795Y34934D01*
X468558Y34652D01*
X468314Y34377D01*
X468064Y34107D01*
X467807Y33843D01*
X467543Y33586D01*
X467273Y33336D01*
X466998Y33092D01*
X466716Y32855D01*
X466428Y32625D01*
X466135Y32402D01*
X465837Y32186D01*
X465534Y31978D01*
X465225Y31777D01*
X464912Y31584D01*
X464593Y31399D01*
X464271Y31221D01*
X463944Y31052D01*
X463613Y30890D01*
X463279Y30737D01*
X462940Y30592D01*
X462598Y30455D01*
X462253Y30327D01*
X461905Y30207D01*
X461554Y30096D01*
X461201Y29993D01*
X460845Y29900D01*
X460487Y29814D01*
X460126Y29738D01*
X459764Y29671D01*
X459401Y29612D01*
X459036Y29563D01*
X458670Y29522D01*
X458303Y29491D01*
X457936Y29468D01*
X457568Y29455D01*
X457200Y29450D01*
X456832Y29455D01*
X456464Y29468D01*
X456097Y29491D01*
X455730Y29522D01*
X455364Y29563D01*
X454999Y29612D01*
X454636Y29671D01*
X454274Y29738D01*
X453913Y29814D01*
X453555Y29900D01*
X453199Y29993D01*
X452846Y30096D01*
X452495Y30207D01*
X452147Y30327D01*
X451802Y30455D01*
X451460Y30592D01*
X451121Y30737D01*
X450787Y30890D01*
X450456Y31052D01*
X450129Y31221D01*
X449807Y31399D01*
X449488Y31584D01*
X449175Y31777D01*
X448866Y31978D01*
X448563Y32186D01*
X448265Y32402D01*
X447972Y32625D01*
X447684Y32855D01*
X447402Y33092D01*
X447127Y33336D01*
X446857Y33586D01*
X446593Y33843D01*
X446336Y34107D01*
X446086Y34377D01*
X445842Y34652D01*
X445605Y34934D01*
X445375Y35222D01*
X445152Y35515D01*
X444936Y35813D01*
X444728Y36116D01*
X444527Y36425D01*
X444334Y36738D01*
X444149Y37057D01*
X443971Y37379D01*
X443802Y37706D01*
X443640Y38037D01*
X443487Y38371D01*
X443342Y38710D01*
X443205Y39052D01*
X443077Y39397D01*
X442957Y39745D01*
X442846Y40096D01*
X442743Y40449D01*
X442650Y40805D01*
X442564Y41163D01*
X442488Y41524D01*
X442421Y41886D01*
X442362Y42249D01*
X442313Y42614D01*
X442272Y42980D01*
X442241Y43347D01*
X442218Y43714D01*
X442205Y44082D01*
X442200Y44450D01*
D12*
X434340Y933450D02*
X434349Y934167D01*
X434375Y934883D01*
X434419Y935599D01*
X434481Y936313D01*
X434560Y937026D01*
X434656Y937736D01*
X434770Y938444D01*
X434901Y939149D01*
X435050Y939850D01*
X435215Y940547D01*
X435398Y941241D01*
X435598Y941929D01*
X435814Y942613D01*
X436047Y943291D01*
X436297Y943963D01*
X436563Y944628D01*
X436846Y945287D01*
X437144Y945939D01*
X437459Y946583D01*
X437789Y947219D01*
X438135Y947848D01*
X438496Y948467D01*
X438872Y949077D01*
X439263Y949678D01*
X439668Y950269D01*
X440088Y950850D01*
X440522Y951421D01*
X440970Y951981D01*
X441432Y952529D01*
X441907Y953066D01*
X442395Y953591D01*
X442895Y954105D01*
X443409Y954605D01*
X443934Y955093D01*
X444471Y955568D01*
X445019Y956030D01*
X445579Y956478D01*
X446150Y956912D01*
X446731Y957332D01*
X447322Y957737D01*
X447923Y958128D01*
X448533Y958504D01*
X449152Y958865D01*
X449781Y959211D01*
X450417Y959541D01*
X451061Y959856D01*
X451713Y960154D01*
X452372Y960437D01*
X453037Y960703D01*
X453709Y960953D01*
X454387Y961186D01*
X455071Y961402D01*
X455759Y961602D01*
X456453Y961785D01*
X457150Y961950D01*
X457851Y962099D01*
X458556Y962230D01*
X459264Y962344D01*
X459974Y962440D01*
X460687Y962519D01*
X461401Y962581D01*
X462117Y962625D01*
X462833Y962651D01*
X463550Y962660D01*
X464267Y962651D01*
X464983Y962625D01*
X465699Y962581D01*
X466413Y962519D01*
X467126Y962440D01*
X467836Y962344D01*
X468544Y962230D01*
X469249Y962099D01*
X469950Y961950D01*
X470647Y961785D01*
X471341Y961602D01*
X472029Y961402D01*
X472713Y961186D01*
X473391Y960953D01*
X474063Y960703D01*
X474728Y960437D01*
X475387Y960154D01*
X476039Y959856D01*
X476683Y959541D01*
X477319Y959211D01*
X477948Y958865D01*
X478567Y958504D01*
X479177Y958128D01*
X479778Y957737D01*
X480369Y957332D01*
X480950Y956912D01*
X481521Y956478D01*
X482081Y956030D01*
X482629Y955568D01*
X483166Y955093D01*
X483691Y954605D01*
X484205Y954105D01*
X484705Y953591D01*
X485193Y953066D01*
X485668Y952529D01*
X486130Y951981D01*
X486578Y951421D01*
X487012Y950850D01*
X487432Y950269D01*
X487837Y949678D01*
X488228Y949077D01*
X488604Y948467D01*
X488965Y947848D01*
X489311Y947219D01*
X489641Y946583D01*
X489956Y945939D01*
X490254Y945287D01*
X490537Y944628D01*
X490803Y943963D01*
X491053Y943291D01*
X491286Y942613D01*
X491502Y941929D01*
X491702Y941241D01*
X491885Y940547D01*
X492050Y939850D01*
X492199Y939149D01*
X492330Y938444D01*
X492444Y937736D01*
X492540Y937026D01*
X492619Y936313D01*
X492681Y935599D01*
X492725Y934883D01*
X492751Y934167D01*
X492760Y933450D01*
X492751Y932733D01*
X492725Y932017D01*
X492681Y931301D01*
X492619Y930587D01*
X492540Y929874D01*
X492444Y929164D01*
X492330Y928456D01*
X492199Y927751D01*
X492050Y927050D01*
X491885Y926353D01*
X491702Y925659D01*
X491502Y924971D01*
X491286Y924287D01*
X491053Y923609D01*
X490803Y922937D01*
X490537Y922272D01*
X490254Y921613D01*
X489956Y920961D01*
X489641Y920317D01*
X489311Y919681D01*
X488965Y919052D01*
X488604Y918433D01*
X488228Y917823D01*
X487837Y917222D01*
X487432Y916631D01*
X487012Y916050D01*
X486578Y915479D01*
X486130Y914919D01*
X485668Y914371D01*
X485193Y913834D01*
X484705Y913309D01*
X484205Y912795D01*
X483691Y912295D01*
X483166Y911807D01*
X482629Y911332D01*
X482081Y910870D01*
X481521Y910422D01*
X480950Y909988D01*
X480369Y909568D01*
X479778Y909163D01*
X479177Y908772D01*
X478567Y908396D01*
X477948Y908035D01*
X477319Y907689D01*
X476683Y907359D01*
X476039Y907044D01*
X475387Y906746D01*
X474728Y906463D01*
X474063Y906197D01*
X473391Y905947D01*
X472713Y905714D01*
X472029Y905498D01*
X471341Y905298D01*
X470647Y905115D01*
X469950Y904950D01*
X469249Y904801D01*
X468544Y904670D01*
X467836Y904556D01*
X467126Y904460D01*
X466413Y904381D01*
X465699Y904319D01*
X464983Y904275D01*
X464267Y904249D01*
X463550Y904240D01*
X462833Y904249D01*
X462117Y904275D01*
X461401Y904319D01*
X460687Y904381D01*
X459974Y904460D01*
X459264Y904556D01*
X458556Y904670D01*
X457851Y904801D01*
X457150Y904950D01*
X456453Y905115D01*
X455759Y905298D01*
X455071Y905498D01*
X454387Y905714D01*
X453709Y905947D01*
X453037Y906197D01*
X452372Y906463D01*
X451713Y906746D01*
X451061Y907044D01*
X450417Y907359D01*
X449781Y907689D01*
X449152Y908035D01*
X448533Y908396D01*
X447923Y908772D01*
X447322Y909163D01*
X446731Y909568D01*
X446150Y909988D01*
X445579Y910422D01*
X445019Y910870D01*
X444471Y911332D01*
X443934Y911807D01*
X443409Y912295D01*
X442895Y912795D01*
X442395Y913309D01*
X441907Y913834D01*
X441432Y914371D01*
X440970Y914919D01*
X440522Y915479D01*
X440088Y916050D01*
X439668Y916631D01*
X439263Y917222D01*
X438872Y917823D01*
X438496Y918433D01*
X438135Y919052D01*
X437789Y919681D01*
X437459Y920317D01*
X437144Y920961D01*
X436846Y921613D01*
X436563Y922272D01*
X436297Y922937D01*
X436047Y923609D01*
X435814Y924287D01*
X435598Y924971D01*
X435398Y925659D01*
X435215Y926353D01*
X435050Y927050D01*
X434901Y927751D01*
X434770Y928456D01*
X434656Y929164D01*
X434560Y929874D01*
X434481Y930587D01*
X434419Y931301D01*
X434375Y932017D01*
X434349Y932733D01*
X434340Y933450D01*
D17*
X448550Y933450D02*
X448555Y933818D01*
X448568Y934186D01*
X448591Y934553D01*
X448622Y934920D01*
X448663Y935286D01*
X448712Y935651D01*
X448771Y936014D01*
X448838Y936376D01*
X448914Y936737D01*
X449000Y937095D01*
X449093Y937451D01*
X449196Y937804D01*
X449307Y938155D01*
X449427Y938503D01*
X449555Y938848D01*
X449692Y939190D01*
X449837Y939529D01*
X449990Y939863D01*
X450152Y940194D01*
X450321Y940521D01*
X450499Y940843D01*
X450684Y941162D01*
X450877Y941475D01*
X451078Y941784D01*
X451286Y942087D01*
X451502Y942385D01*
X451725Y942678D01*
X451955Y942966D01*
X452192Y943248D01*
X452436Y943523D01*
X452686Y943793D01*
X452943Y944057D01*
X453207Y944314D01*
X453477Y944564D01*
X453752Y944808D01*
X454034Y945045D01*
X454322Y945275D01*
X454615Y945498D01*
X454913Y945714D01*
X455216Y945922D01*
X455525Y946123D01*
X455838Y946316D01*
X456157Y946501D01*
X456479Y946679D01*
X456806Y946848D01*
X457137Y947010D01*
X457471Y947163D01*
X457810Y947308D01*
X458152Y947445D01*
X458497Y947573D01*
X458845Y947693D01*
X459196Y947804D01*
X459549Y947907D01*
X459905Y948000D01*
X460263Y948086D01*
X460624Y948162D01*
X460986Y948229D01*
X461349Y948288D01*
X461714Y948337D01*
X462080Y948378D01*
X462447Y948409D01*
X462814Y948432D01*
X463182Y948445D01*
X463550Y948450D01*
X463918Y948445D01*
X464286Y948432D01*
X464653Y948409D01*
X465020Y948378D01*
X465386Y948337D01*
X465751Y948288D01*
X466114Y948229D01*
X466476Y948162D01*
X466837Y948086D01*
X467195Y948000D01*
X467551Y947907D01*
X467904Y947804D01*
X468255Y947693D01*
X468603Y947573D01*
X468948Y947445D01*
X469290Y947308D01*
X469629Y947163D01*
X469963Y947010D01*
X470294Y946848D01*
X470621Y946679D01*
X470943Y946501D01*
X471262Y946316D01*
X471575Y946123D01*
X471884Y945922D01*
X472187Y945714D01*
X472485Y945498D01*
X472778Y945275D01*
X473066Y945045D01*
X473348Y944808D01*
X473623Y944564D01*
X473893Y944314D01*
X474157Y944057D01*
X474414Y943793D01*
X474664Y943523D01*
X474908Y943248D01*
X475145Y942966D01*
X475375Y942678D01*
X475598Y942385D01*
X475814Y942087D01*
X476022Y941784D01*
X476223Y941475D01*
X476416Y941162D01*
X476601Y940843D01*
X476779Y940521D01*
X476948Y940194D01*
X477110Y939863D01*
X477263Y939529D01*
X477408Y939190D01*
X477545Y938848D01*
X477673Y938503D01*
X477793Y938155D01*
X477904Y937804D01*
X478007Y937451D01*
X478100Y937095D01*
X478186Y936737D01*
X478262Y936376D01*
X478329Y936014D01*
X478388Y935651D01*
X478437Y935286D01*
X478478Y934920D01*
X478509Y934553D01*
X478532Y934186D01*
X478545Y933818D01*
X478550Y933450D01*
X478545Y933082D01*
X478532Y932714D01*
X478509Y932347D01*
X478478Y931980D01*
X478437Y931614D01*
X478388Y931249D01*
X478329Y930886D01*
X478262Y930524D01*
X478186Y930163D01*
X478100Y929805D01*
X478007Y929449D01*
X477904Y929096D01*
X477793Y928745D01*
X477673Y928397D01*
X477545Y928052D01*
X477408Y927710D01*
X477263Y927371D01*
X477110Y927037D01*
X476948Y926706D01*
X476779Y926379D01*
X476601Y926057D01*
X476416Y925738D01*
X476223Y925425D01*
X476022Y925116D01*
X475814Y924813D01*
X475598Y924515D01*
X475375Y924222D01*
X475145Y923934D01*
X474908Y923652D01*
X474664Y923377D01*
X474414Y923107D01*
X474157Y922843D01*
X473893Y922586D01*
X473623Y922336D01*
X473348Y922092D01*
X473066Y921855D01*
X472778Y921625D01*
X472485Y921402D01*
X472187Y921186D01*
X471884Y920978D01*
X471575Y920777D01*
X471262Y920584D01*
X470943Y920399D01*
X470621Y920221D01*
X470294Y920052D01*
X469963Y919890D01*
X469629Y919737D01*
X469290Y919592D01*
X468948Y919455D01*
X468603Y919327D01*
X468255Y919207D01*
X467904Y919096D01*
X467551Y918993D01*
X467195Y918900D01*
X466837Y918814D01*
X466476Y918738D01*
X466114Y918671D01*
X465751Y918612D01*
X465386Y918563D01*
X465020Y918522D01*
X464653Y918491D01*
X464286Y918468D01*
X463918Y918455D01*
X463550Y918450D01*
X463182Y918455D01*
X462814Y918468D01*
X462447Y918491D01*
X462080Y918522D01*
X461714Y918563D01*
X461349Y918612D01*
X460986Y918671D01*
X460624Y918738D01*
X460263Y918814D01*
X459905Y918900D01*
X459549Y918993D01*
X459196Y919096D01*
X458845Y919207D01*
X458497Y919327D01*
X458152Y919455D01*
X457810Y919592D01*
X457471Y919737D01*
X457137Y919890D01*
X456806Y920052D01*
X456479Y920221D01*
X456157Y920399D01*
X455838Y920584D01*
X455525Y920777D01*
X455216Y920978D01*
X454913Y921186D01*
X454615Y921402D01*
X454322Y921625D01*
X454034Y921855D01*
X453752Y922092D01*
X453477Y922336D01*
X453207Y922586D01*
X452943Y922843D01*
X452686Y923107D01*
X452436Y923377D01*
X452192Y923652D01*
X451955Y923934D01*
X451725Y924222D01*
X451502Y924515D01*
X451286Y924813D01*
X451078Y925116D01*
X450877Y925425D01*
X450684Y925738D01*
X450499Y926057D01*
X450321Y926379D01*
X450152Y926706D01*
X449990Y927037D01*
X449837Y927371D01*
X449692Y927710D01*
X449555Y928052D01*
X449427Y928397D01*
X449307Y928745D01*
X449196Y929096D01*
X449093Y929449D01*
X449000Y929805D01*
X448914Y930163D01*
X448838Y930524D01*
X448771Y930886D01*
X448712Y931249D01*
X448663Y931614D01*
X448622Y931980D01*
X448591Y932347D01*
X448568Y932714D01*
X448555Y933082D01*
X448550Y933450D01*
D12*
X27940Y933450D02*
X27949Y934167D01*
X27975Y934883D01*
X28019Y935599D01*
X28081Y936313D01*
X28160Y937026D01*
X28256Y937736D01*
X28370Y938444D01*
X28501Y939149D01*
X28650Y939850D01*
X28815Y940547D01*
X28998Y941241D01*
X29198Y941929D01*
X29414Y942613D01*
X29647Y943291D01*
X29897Y943963D01*
X30163Y944628D01*
X30446Y945287D01*
X30744Y945939D01*
X31059Y946583D01*
X31389Y947219D01*
X31735Y947848D01*
X32096Y948467D01*
X32472Y949077D01*
X32863Y949678D01*
X33268Y950269D01*
X33688Y950850D01*
X34122Y951421D01*
X34570Y951981D01*
X35032Y952529D01*
X35507Y953066D01*
X35995Y953591D01*
X36495Y954105D01*
X37009Y954605D01*
X37534Y955093D01*
X38071Y955568D01*
X38619Y956030D01*
X39179Y956478D01*
X39750Y956912D01*
X40331Y957332D01*
X40922Y957737D01*
X41523Y958128D01*
X42133Y958504D01*
X42752Y958865D01*
X43381Y959211D01*
X44017Y959541D01*
X44661Y959856D01*
X45313Y960154D01*
X45972Y960437D01*
X46637Y960703D01*
X47309Y960953D01*
X47987Y961186D01*
X48671Y961402D01*
X49359Y961602D01*
X50053Y961785D01*
X50750Y961950D01*
X51451Y962099D01*
X52156Y962230D01*
X52864Y962344D01*
X53574Y962440D01*
X54287Y962519D01*
X55001Y962581D01*
X55717Y962625D01*
X56433Y962651D01*
X57150Y962660D01*
X57867Y962651D01*
X58583Y962625D01*
X59299Y962581D01*
X60013Y962519D01*
X60726Y962440D01*
X61436Y962344D01*
X62144Y962230D01*
X62849Y962099D01*
X63550Y961950D01*
X64247Y961785D01*
X64941Y961602D01*
X65629Y961402D01*
X66313Y961186D01*
X66991Y960953D01*
X67663Y960703D01*
X68328Y960437D01*
X68987Y960154D01*
X69639Y959856D01*
X70283Y959541D01*
X70919Y959211D01*
X71548Y958865D01*
X72167Y958504D01*
X72777Y958128D01*
X73378Y957737D01*
X73969Y957332D01*
X74550Y956912D01*
X75121Y956478D01*
X75681Y956030D01*
X76229Y955568D01*
X76766Y955093D01*
X77291Y954605D01*
X77805Y954105D01*
X78305Y953591D01*
X78793Y953066D01*
X79268Y952529D01*
X79730Y951981D01*
X80178Y951421D01*
X80612Y950850D01*
X81032Y950269D01*
X81437Y949678D01*
X81828Y949077D01*
X82204Y948467D01*
X82565Y947848D01*
X82911Y947219D01*
X83241Y946583D01*
X83556Y945939D01*
X83854Y945287D01*
X84137Y944628D01*
X84403Y943963D01*
X84653Y943291D01*
X84886Y942613D01*
X85102Y941929D01*
X85302Y941241D01*
X85485Y940547D01*
X85650Y939850D01*
X85799Y939149D01*
X85930Y938444D01*
X86044Y937736D01*
X86140Y937026D01*
X86219Y936313D01*
X86281Y935599D01*
X86325Y934883D01*
X86351Y934167D01*
X86360Y933450D01*
X86351Y932733D01*
X86325Y932017D01*
X86281Y931301D01*
X86219Y930587D01*
X86140Y929874D01*
X86044Y929164D01*
X85930Y928456D01*
X85799Y927751D01*
X85650Y927050D01*
X85485Y926353D01*
X85302Y925659D01*
X85102Y924971D01*
X84886Y924287D01*
X84653Y923609D01*
X84403Y922937D01*
X84137Y922272D01*
X83854Y921613D01*
X83556Y920961D01*
X83241Y920317D01*
X82911Y919681D01*
X82565Y919052D01*
X82204Y918433D01*
X81828Y917823D01*
X81437Y917222D01*
X81032Y916631D01*
X80612Y916050D01*
X80178Y915479D01*
X79730Y914919D01*
X79268Y914371D01*
X78793Y913834D01*
X78305Y913309D01*
X77805Y912795D01*
X77291Y912295D01*
X76766Y911807D01*
X76229Y911332D01*
X75681Y910870D01*
X75121Y910422D01*
X74550Y909988D01*
X73969Y909568D01*
X73378Y909163D01*
X72777Y908772D01*
X72167Y908396D01*
X71548Y908035D01*
X70919Y907689D01*
X70283Y907359D01*
X69639Y907044D01*
X68987Y906746D01*
X68328Y906463D01*
X67663Y906197D01*
X66991Y905947D01*
X66313Y905714D01*
X65629Y905498D01*
X64941Y905298D01*
X64247Y905115D01*
X63550Y904950D01*
X62849Y904801D01*
X62144Y904670D01*
X61436Y904556D01*
X60726Y904460D01*
X60013Y904381D01*
X59299Y904319D01*
X58583Y904275D01*
X57867Y904249D01*
X57150Y904240D01*
X56433Y904249D01*
X55717Y904275D01*
X55001Y904319D01*
X54287Y904381D01*
X53574Y904460D01*
X52864Y904556D01*
X52156Y904670D01*
X51451Y904801D01*
X50750Y904950D01*
X50053Y905115D01*
X49359Y905298D01*
X48671Y905498D01*
X47987Y905714D01*
X47309Y905947D01*
X46637Y906197D01*
X45972Y906463D01*
X45313Y906746D01*
X44661Y907044D01*
X44017Y907359D01*
X43381Y907689D01*
X42752Y908035D01*
X42133Y908396D01*
X41523Y908772D01*
X40922Y909163D01*
X40331Y909568D01*
X39750Y909988D01*
X39179Y910422D01*
X38619Y910870D01*
X38071Y911332D01*
X37534Y911807D01*
X37009Y912295D01*
X36495Y912795D01*
X35995Y913309D01*
X35507Y913834D01*
X35032Y914371D01*
X34570Y914919D01*
X34122Y915479D01*
X33688Y916050D01*
X33268Y916631D01*
X32863Y917222D01*
X32472Y917823D01*
X32096Y918433D01*
X31735Y919052D01*
X31389Y919681D01*
X31059Y920317D01*
X30744Y920961D01*
X30446Y921613D01*
X30163Y922272D01*
X29897Y922937D01*
X29647Y923609D01*
X29414Y924287D01*
X29198Y924971D01*
X28998Y925659D01*
X28815Y926353D01*
X28650Y927050D01*
X28501Y927751D01*
X28370Y928456D01*
X28256Y929164D01*
X28160Y929874D01*
X28081Y930587D01*
X28019Y931301D01*
X27975Y932017D01*
X27949Y932733D01*
X27940Y933450D01*
D17*
X42150Y933450D02*
X42155Y933818D01*
X42168Y934186D01*
X42191Y934553D01*
X42222Y934920D01*
X42263Y935286D01*
X42312Y935651D01*
X42371Y936014D01*
X42438Y936376D01*
X42514Y936737D01*
X42600Y937095D01*
X42693Y937451D01*
X42796Y937804D01*
X42907Y938155D01*
X43027Y938503D01*
X43155Y938848D01*
X43292Y939190D01*
X43437Y939529D01*
X43590Y939863D01*
X43752Y940194D01*
X43921Y940521D01*
X44099Y940843D01*
X44284Y941162D01*
X44477Y941475D01*
X44678Y941784D01*
X44886Y942087D01*
X45102Y942385D01*
X45325Y942678D01*
X45555Y942966D01*
X45792Y943248D01*
X46036Y943523D01*
X46286Y943793D01*
X46543Y944057D01*
X46807Y944314D01*
X47077Y944564D01*
X47352Y944808D01*
X47634Y945045D01*
X47922Y945275D01*
X48215Y945498D01*
X48513Y945714D01*
X48816Y945922D01*
X49125Y946123D01*
X49438Y946316D01*
X49757Y946501D01*
X50079Y946679D01*
X50406Y946848D01*
X50737Y947010D01*
X51071Y947163D01*
X51410Y947308D01*
X51752Y947445D01*
X52097Y947573D01*
X52445Y947693D01*
X52796Y947804D01*
X53149Y947907D01*
X53505Y948000D01*
X53863Y948086D01*
X54224Y948162D01*
X54586Y948229D01*
X54949Y948288D01*
X55314Y948337D01*
X55680Y948378D01*
X56047Y948409D01*
X56414Y948432D01*
X56782Y948445D01*
X57150Y948450D01*
X57518Y948445D01*
X57886Y948432D01*
X58253Y948409D01*
X58620Y948378D01*
X58986Y948337D01*
X59351Y948288D01*
X59714Y948229D01*
X60076Y948162D01*
X60437Y948086D01*
X60795Y948000D01*
X61151Y947907D01*
X61504Y947804D01*
X61855Y947693D01*
X62203Y947573D01*
X62548Y947445D01*
X62890Y947308D01*
X63229Y947163D01*
X63563Y947010D01*
X63894Y946848D01*
X64221Y946679D01*
X64543Y946501D01*
X64862Y946316D01*
X65175Y946123D01*
X65484Y945922D01*
X65787Y945714D01*
X66085Y945498D01*
X66378Y945275D01*
X66666Y945045D01*
X66948Y944808D01*
X67223Y944564D01*
X67493Y944314D01*
X67757Y944057D01*
X68014Y943793D01*
X68264Y943523D01*
X68508Y943248D01*
X68745Y942966D01*
X68975Y942678D01*
X69198Y942385D01*
X69414Y942087D01*
X69622Y941784D01*
X69823Y941475D01*
X70016Y941162D01*
X70201Y940843D01*
X70379Y940521D01*
X70548Y940194D01*
X70710Y939863D01*
X70863Y939529D01*
X71008Y939190D01*
X71145Y938848D01*
X71273Y938503D01*
X71393Y938155D01*
X71504Y937804D01*
X71607Y937451D01*
X71700Y937095D01*
X71786Y936737D01*
X71862Y936376D01*
X71929Y936014D01*
X71988Y935651D01*
X72037Y935286D01*
X72078Y934920D01*
X72109Y934553D01*
X72132Y934186D01*
X72145Y933818D01*
X72150Y933450D01*
X72145Y933082D01*
X72132Y932714D01*
X72109Y932347D01*
X72078Y931980D01*
X72037Y931614D01*
X71988Y931249D01*
X71929Y930886D01*
X71862Y930524D01*
X71786Y930163D01*
X71700Y929805D01*
X71607Y929449D01*
X71504Y929096D01*
X71393Y928745D01*
X71273Y928397D01*
X71145Y928052D01*
X71008Y927710D01*
X70863Y927371D01*
X70710Y927037D01*
X70548Y926706D01*
X70379Y926379D01*
X70201Y926057D01*
X70016Y925738D01*
X69823Y925425D01*
X69622Y925116D01*
X69414Y924813D01*
X69198Y924515D01*
X68975Y924222D01*
X68745Y923934D01*
X68508Y923652D01*
X68264Y923377D01*
X68014Y923107D01*
X67757Y922843D01*
X67493Y922586D01*
X67223Y922336D01*
X66948Y922092D01*
X66666Y921855D01*
X66378Y921625D01*
X66085Y921402D01*
X65787Y921186D01*
X65484Y920978D01*
X65175Y920777D01*
X64862Y920584D01*
X64543Y920399D01*
X64221Y920221D01*
X63894Y920052D01*
X63563Y919890D01*
X63229Y919737D01*
X62890Y919592D01*
X62548Y919455D01*
X62203Y919327D01*
X61855Y919207D01*
X61504Y919096D01*
X61151Y918993D01*
X60795Y918900D01*
X60437Y918814D01*
X60076Y918738D01*
X59714Y918671D01*
X59351Y918612D01*
X58986Y918563D01*
X58620Y918522D01*
X58253Y918491D01*
X57886Y918468D01*
X57518Y918455D01*
X57150Y918450D01*
X56782Y918455D01*
X56414Y918468D01*
X56047Y918491D01*
X55680Y918522D01*
X55314Y918563D01*
X54949Y918612D01*
X54586Y918671D01*
X54224Y918738D01*
X53863Y918814D01*
X53505Y918900D01*
X53149Y918993D01*
X52796Y919096D01*
X52445Y919207D01*
X52097Y919327D01*
X51752Y919455D01*
X51410Y919592D01*
X51071Y919737D01*
X50737Y919890D01*
X50406Y920052D01*
X50079Y920221D01*
X49757Y920399D01*
X49438Y920584D01*
X49125Y920777D01*
X48816Y920978D01*
X48513Y921186D01*
X48215Y921402D01*
X47922Y921625D01*
X47634Y921855D01*
X47352Y922092D01*
X47077Y922336D01*
X46807Y922586D01*
X46543Y922843D01*
X46286Y923107D01*
X46036Y923377D01*
X45792Y923652D01*
X45555Y923934D01*
X45325Y924222D01*
X45102Y924515D01*
X44886Y924813D01*
X44678Y925116D01*
X44477Y925425D01*
X44284Y925738D01*
X44099Y926057D01*
X43921Y926379D01*
X43752Y926706D01*
X43590Y927037D01*
X43437Y927371D01*
X43292Y927710D01*
X43155Y928052D01*
X43027Y928397D01*
X42907Y928745D01*
X42796Y929096D01*
X42693Y929449D01*
X42600Y929805D01*
X42514Y930163D01*
X42438Y930524D01*
X42371Y930886D01*
X42312Y931249D01*
X42263Y931614D01*
X42222Y931980D01*
X42191Y932347D01*
X42168Y932714D01*
X42155Y933082D01*
X42150Y933450D01*
M02*
