G04 EAGLE Gerber RS-274X export*
G75*
%MOMM*%
%FSLAX34Y34*%
%LPD*%
%INSoldermask Top*%
%IPNEG*%
%AMOC8*
5,1,8,0,0,1.08239X$1,22.5*%
G01*
%ADD10C,2.717800*%
%ADD11C,1.727200*%
%ADD12C,3.003200*%
%ADD13C,1.059600*%


D10*
X57277Y191262D02*
X82423Y191262D01*
X82423Y151638D02*
X57277Y151638D01*
X57277Y112014D02*
X82423Y112014D01*
X82423Y230886D02*
X57277Y230886D01*
X177927Y642112D02*
X203073Y642112D01*
X203073Y602488D02*
X177927Y602488D01*
X177927Y562864D02*
X203073Y562864D01*
X203073Y681736D02*
X177927Y681736D01*
X82423Y826262D02*
X57277Y826262D01*
X57277Y786638D02*
X82423Y786638D01*
X82423Y747014D02*
X57277Y747014D01*
X57277Y865886D02*
X82423Y865886D01*
X82423Y642112D02*
X57277Y642112D01*
X57277Y602488D02*
X82423Y602488D01*
X82423Y562864D02*
X57277Y562864D01*
X57277Y681736D02*
X82423Y681736D01*
X82423Y348488D02*
X57277Y348488D01*
X57277Y388112D02*
X82423Y388112D01*
X177927Y191262D02*
X203073Y191262D01*
X203073Y151638D02*
X177927Y151638D01*
X177927Y112014D02*
X203073Y112014D01*
X203073Y230886D02*
X177927Y230886D01*
X298577Y191262D02*
X323723Y191262D01*
X323723Y151638D02*
X298577Y151638D01*
X298577Y112014D02*
X323723Y112014D01*
X323723Y230886D02*
X298577Y230886D01*
X419227Y191262D02*
X444373Y191262D01*
X444373Y151638D02*
X419227Y151638D01*
X419227Y112014D02*
X444373Y112014D01*
X444373Y230886D02*
X419227Y230886D01*
X419227Y826262D02*
X444373Y826262D01*
X444373Y786638D02*
X419227Y786638D01*
X419227Y747014D02*
X444373Y747014D01*
X444373Y865886D02*
X419227Y865886D01*
X419227Y642112D02*
X444373Y642112D01*
X444373Y602488D02*
X419227Y602488D01*
X419227Y562864D02*
X444373Y562864D01*
X444373Y681736D02*
X419227Y681736D01*
X323723Y826262D02*
X298577Y826262D01*
X298577Y786638D02*
X323723Y786638D01*
X323723Y747014D02*
X298577Y747014D01*
X298577Y865886D02*
X323723Y865886D01*
X323723Y642112D02*
X298577Y642112D01*
X298577Y602488D02*
X323723Y602488D01*
X323723Y562864D02*
X298577Y562864D01*
X298577Y681736D02*
X323723Y681736D01*
X203073Y826262D02*
X177927Y826262D01*
X177927Y786638D02*
X203073Y786638D01*
X203073Y747014D02*
X177927Y747014D01*
X177927Y865886D02*
X203073Y865886D01*
D11*
X165100Y299720D02*
X165100Y284480D01*
X190500Y284480D02*
X190500Y299720D01*
X215900Y299720D02*
X215900Y284480D01*
X241300Y284480D02*
X241300Y299720D01*
X266700Y299720D02*
X266700Y284480D01*
X292100Y284480D02*
X292100Y299720D01*
X317500Y299720D02*
X317500Y284480D01*
X342900Y284480D02*
X342900Y299720D01*
X368300Y299720D02*
X368300Y284480D01*
X393700Y284480D02*
X393700Y299720D01*
X419100Y299720D02*
X419100Y284480D01*
X444500Y284480D02*
X444500Y299720D01*
X165100Y436880D02*
X165100Y452120D01*
X190500Y452120D02*
X190500Y436880D01*
X215900Y436880D02*
X215900Y452120D01*
X241300Y452120D02*
X241300Y436880D01*
X266700Y436880D02*
X266700Y452120D01*
X292100Y452120D02*
X292100Y436880D01*
X317500Y436880D02*
X317500Y452120D01*
X342900Y452120D02*
X342900Y436880D01*
X368300Y436880D02*
X368300Y452120D01*
X393700Y452120D02*
X393700Y436880D01*
X419100Y436880D02*
X419100Y452120D01*
X444500Y452120D02*
X444500Y436880D01*
D12*
X69850Y44450D03*
X457200Y44450D03*
X463550Y933450D03*
X57150Y933450D03*
D13*
X463550Y336550D03*
X444500Y406400D03*
M02*
