M48
;GenerationSoftware,Autodesk,EAGLE,9.2.1*%
;CreationDate,2018-10-21T09:33:26Z*%
FMAT,2
ICI,OFF
METRIC,TZ,000.000
T4C0.450
T3C1.016
T2C1.676
T1C2.800
%
G90
M71
T1
X46355Y93345
X5715Y93345
X6985Y4445
X45720Y4445
T2
X19050Y64211
X19050Y74701
X6985Y19126
X6985Y15164
X6985Y11201
X6985Y23089
X6985Y56286
X19050Y60249
X19050Y56286
X19050Y68174
X6985Y82626
X6985Y78664
X6985Y74701
X6985Y86589
X6985Y64211
X6985Y60249
X19050Y86589
X6985Y68174
X6985Y34849
X6985Y38811
X19050Y19126
X19050Y15164
X19050Y11201
X19050Y23089
X31115Y19126
X31115Y15164
X31115Y11201
X31115Y23089
X43180Y19126
X43180Y15164
X43180Y11201
X43180Y23089
X43180Y82626
X43180Y78664
X43180Y74701
X43180Y86589
X43180Y64211
X43180Y60249
X43180Y56286
X43180Y68174
X31115Y82626
X31115Y78664
X31115Y74701
X31115Y86589
X31115Y64211
X31115Y60249
X31115Y56286
X31115Y68174
X19050Y82626
X19050Y78664
T3
X16510Y29210
X19050Y29210
X21590Y29210
X24130Y29210
X26670Y29210
X29210Y29210
X31750Y29210
X34290Y29210
X36830Y29210
X39370Y29210
X41910Y29210
X44450Y29210
X16510Y44450
X19050Y44450
X21590Y44450
X24130Y44450
X26670Y44450
X29210Y44450
X31750Y44450
X34290Y44450
X36830Y44450
X39370Y44450
X41910Y44450
X44450Y44450
T4
X44450Y40640
X46355Y33655
M30