M48
;GenerationSoftware,Autodesk,EAGLE,9.2.2*%
;CreationDate,2018-11-22T21:23:43Z*%
FMAT,2
ICI,OFF
METRIC,TZ,000.000
T3C1.000
T2C1.016
T1C2.800
%
G90
M71
T1
X3810Y3810
X39370Y3810
X39370Y76835
X3810Y76835
T2
X10795Y23495
X13335Y23495
X15875Y23495
X18415Y23495
X20955Y23495
X23495Y23495
X26035Y23495
X28575Y23495
X31115Y23495
X33655Y23495
X36195Y23495
X38735Y23495
X10795Y38735
X13335Y38735
X15875Y38735
X18415Y38735
X20955Y38735
X23495Y38735
X26035Y38735
X28575Y38735
X31115Y38735
X33655Y38735
X36195Y38735
X38735Y38735
T3
X36830Y60325
X36830Y62865
X36830Y65405
X36830Y67945
X36830Y47625
X36830Y50165
X36830Y52705
X36830Y55245
X26670Y60325
X26670Y62865
X26670Y65405
X26670Y67945
X26670Y47625
X26670Y50165
X26670Y52705
X26670Y55245
X16510Y60325
X16510Y62865
X16510Y65405
X16510Y67945
X16510Y47625
X16510Y50165
X16510Y52705
X16510Y55245
X6350Y60325
X6350Y62865
X6350Y65405
X6350Y67945
X6350Y47625
X6350Y50165
X6350Y52705
X6350Y55245
X36830Y10160
X36830Y12700
X36830Y15240
X36830Y17780
X26670Y10160
X26670Y12700
X26670Y15240
X26670Y17780
X16510Y10160
X16510Y12700
X16510Y15240
X16510Y17780
X6350Y10160
X6350Y12700
X6350Y15240
X6350Y17780
X4445Y32385
X4445Y29845
M30